M48
; DRILL file {KiCad 6.0.4-6f826c9f35~116~ubuntu20.04.1} date Fri 22 Apr 2022 05:04:24 PM CEST
; FORMAT={-:-/ absolute / metric / decimal}
; #@! TF.CreationDate,2022-04-22T17:04:24+02:00
; #@! TF.GenerationSoftware,Kicad,Pcbnew,6.0.4-6f826c9f35~116~ubuntu20.04.1
; #@! TF.FileFunction,Plated,1,2,PTH
FMAT,2
METRIC
; #@! TA.AperFunction,Plated,PTH,ViaDrill
T1C0.300
; #@! TA.AperFunction,Plated,PTH,ComponentDrill
T2C0.914
; #@! TA.AperFunction,Plated,PTH,ComponentDrill
T3C1.100
; #@! TA.AperFunction,Plated,PTH,ViaDrill
T4C2.000
; #@! TA.AperFunction,Plated,PTH,ComponentDrill
T5C2.000
%
G90
G05
T1
X62.201Y-50.304
X62.251Y-53.404
X62.251Y-56.404
X62.251Y-59.404
X62.251Y-62.404
X62.251Y-65.404
X62.251Y-68.404
X62.251Y-71.404
X62.301Y-119.203
X62.301Y-125.203
X62.301Y-143.203
X62.301Y-146.203
X62.301Y-86.104
X62.301Y-89.104
X62.301Y-92.104
X62.301Y-95.104
X62.301Y-98.104
X63.001Y-54.904
X63.001Y-57.904
X63.001Y-60.904
X63.001Y-63.904
X63.001Y-66.904
X63.001Y-69.904
X63.051Y-135.703
X63.051Y-144.703
X63.051Y-84.604
X63.051Y-93.604
X63.051Y-96.604
X63.051Y-105.604
X63.051Y-108.604
X63.601Y-97.904
X63.751Y-56.404
X63.751Y-59.404
X63.751Y-62.404
X63.751Y-65.404
X63.751Y-68.404
X63.801Y-146.203
X63.801Y-95.104
X63.801Y-107.104
X64.097Y-102.464
X64.297Y-88.964
X64.497Y-91.064
X64.501Y-54.904
X64.501Y-57.904
X64.501Y-60.904
X64.501Y-63.904
X64.501Y-66.904
X64.501Y-69.904
X64.551Y-135.703
X64.551Y-144.703
X64.551Y-84.604
X64.551Y-87.604
X64.551Y-105.604
X64.897Y-92.864
X65.251Y-56.404
X65.251Y-59.404
X65.251Y-62.404
X65.251Y-65.404
X65.251Y-68.404
X65.292Y-86.445
X65.301Y-119.203
X65.301Y-122.203
X65.301Y-134.203
X65.301Y-137.203
X65.301Y-146.203
X65.301Y-107.104
X65.897Y-102.464
X65.997Y-91.064
X66.001Y-45.904
X66.001Y-48.904
X66.001Y-54.904
X66.051Y-117.703
X66.051Y-135.703
X66.051Y-144.703
X66.051Y-81.604
X66.301Y-72.504
X66.401Y-60.504
X66.401Y-66.504
X66.701Y-120.703
X66.751Y-47.404
X66.801Y-146.203
X66.801Y-104.104
X67.197Y-88.964
X67.301Y-53.804
X67.501Y-45.904
X67.501Y-48.904
X67.551Y-144.703
X67.697Y-102.464
X67.797Y-93.164
X67.959Y-87.064
X68.101Y-52.704
X68.251Y-47.404
X68.251Y-50.404
X68.297Y-85.264
X68.301Y-128.203
X68.301Y-146.203
X68.901Y-95.504
X69.001Y-45.904
X69.001Y-48.904
X69.051Y-138.703
X69.051Y-144.703
X69.497Y-102.464
X69.751Y-47.404
X69.801Y-119.203
X69.801Y-125.203
X69.801Y-128.203
X69.801Y-146.203
X69.801Y-83.104
X70.097Y-85.364
X70.401Y-66.404
X70.501Y-45.904
X70.551Y-126.703
X70.551Y-138.703
X70.701Y-72.404
X71.297Y-102.464
X71.301Y-119.203
X71.301Y-137.203
X71.301Y-146.203
X71.301Y-60.404
X71.401Y-95.604
X71.697Y-87.517
X72.001Y-81.164
X72.001Y-45.904
X72.051Y-117.703
X72.051Y-120.703
X72.051Y-138.703
X72.051Y-96.604
X72.051Y-99.604
X72.501Y-125.503
X72.601Y-85.804
X72.751Y-47.404
X72.801Y-119.203
X72.801Y-98.104
X73.097Y-102.464
X73.401Y-81.904
X73.501Y-84.204
X73.501Y-45.904
X73.501Y-48.904
X73.551Y-120.703
X73.551Y-99.604
X73.601Y-124.703
X73.601Y-126.003
X74.251Y-47.404
X74.301Y-119.203
X74.301Y-131.203
X74.301Y-134.203
X74.301Y-101.104
X74.501Y-81.904
X75.001Y-45.904
X75.001Y-48.904
X75.051Y-123.703
X75.051Y-99.604
X75.051Y-102.604
X75.097Y-87.164
X75.097Y-90.464
X75.097Y-93.264
X75.101Y-126.403
X75.119Y-94.801
X75.401Y-106.304
X75.701Y-140.403
X75.751Y-47.404
X75.801Y-122.203
X75.801Y-86.104
X75.901Y-143.003
X76.001Y-144.803
X76.001Y-146.303
X76.097Y-102.464
X76.501Y-45.904
X76.501Y-48.904
X76.551Y-123.703
X76.551Y-84.604
X76.551Y-96.604
X76.601Y-107.104
X76.647Y-82.824
X76.901Y-145.603
X76.997Y-87.164
X77.101Y-142.203
X77.251Y-47.404
X77.301Y-134.203
X77.301Y-89.104
X77.301Y-95.104
X77.601Y-129.303
X77.601Y-71.604
X77.701Y-81.804
X77.701Y-83.804
X77.801Y-107.904
X77.897Y-101.202
X77.897Y-102.464
X77.901Y-143.603
X77.901Y-144.803
X77.901Y-146.303
X78.001Y-87.904
X78.001Y-45.904
X78.001Y-48.904
X78.051Y-117.703
X78.051Y-90.604
X78.206Y-122.343
X78.401Y-60.504
X78.401Y-66.504
X78.501Y-132.103
X78.701Y-130.303
X78.801Y-128.203
X78.801Y-86.104
X78.801Y-89.104
X78.801Y-92.104
X78.901Y-142.203
X78.901Y-145.603
X79.176Y-98.142
X79.497Y-102.464
X79.501Y-45.904
X79.551Y-117.703
X79.551Y-90.604
X79.701Y-133.203
X79.708Y-131.29
X79.801Y-84.304
X79.88Y-128.577
X79.901Y-143.603
X79.901Y-144.803
X79.901Y-146.303
X80.001Y-93.704
X80.301Y-129.803
X80.301Y-86.104
X80.301Y-89.104
X80.301Y-92.104
X80.301Y-107.104
X80.801Y-142.203
X80.801Y-145.603
X81.001Y-45.904
X81.001Y-48.904
X81.051Y-120.703
X81.051Y-132.703
X81.401Y-87.304
X81.751Y-47.404
X81.801Y-143.203
X82.435Y-96.764
X82.501Y-45.904
X82.501Y-48.904
X82.551Y-120.703
X82.551Y-141.703
X82.551Y-90.604
X82.551Y-93.604
X82.601Y-87.304
X82.701Y-130.103
X82.801Y-128.403
X83.001Y-124.703
X83.089Y-104.604
X83.251Y-47.404
X83.301Y-119.203
X83.301Y-143.203
X83.301Y-129.203
X83.301Y-89.104
X83.301Y-92.104
X83.897Y-96.764
X84.001Y-124.703
X84.001Y-45.904
X84.001Y-48.904
X84.051Y-120.703
X84.051Y-84.604
X84.051Y-87.604
X84.051Y-90.604
X84.051Y-93.604
X84.101Y-130.103
X84.201Y-128.403
X84.201Y-86.004
X84.597Y-99.164
X84.797Y-100.964
X84.801Y-119.203
X84.801Y-143.203
X84.801Y-92.104
X85.001Y-129.203
X85.197Y-102.264
X85.197Y-103.664
X85.551Y-90.604
X85.551Y-93.604
X85.601Y-128.403
X85.601Y-130.103
X85.701Y-50.004
X85.839Y-99.404
X86.301Y-143.203
X86.301Y-89.104
X86.301Y-92.104
X86.301Y-95.104
X86.501Y-87.604
X86.601Y-54.704
X86.601Y-60.704
X86.601Y-66.704
X86.601Y-86.004
X86.801Y-123.303
X86.801Y-49.004
X86.801Y-45.904
X87.051Y-84.604
X87.051Y-90.604
X87.051Y-93.604
X87.051Y-96.604
X87.363Y-99.912
X87.601Y-60.704
X87.601Y-66.704
X87.801Y-134.203
X87.801Y-137.203
X87.801Y-140.203
X87.801Y-143.203
X87.801Y-146.203
X87.901Y-50.004
X88.001Y-129.803
X88.001Y-103.604
X88.101Y-55.704
X88.101Y-57.704
X88.101Y-59.704
X88.101Y-61.704
X88.101Y-63.704
X88.101Y-65.704
X88.101Y-67.704
X88.101Y-69.704
X88.101Y-71.704
X88.401Y-128.603
X88.501Y-46.404
X88.501Y-48.404
X88.551Y-126.703
X88.551Y-132.703
X88.551Y-135.703
X88.551Y-138.703
X88.551Y-141.703
X88.551Y-144.703
X88.601Y-50.904
X88.601Y-54.704
X88.601Y-56.704
X88.601Y-58.704
X88.601Y-60.704
X88.601Y-62.704
X88.601Y-64.704
X88.601Y-66.704
X88.601Y-68.704
X88.601Y-70.704
X93.201Y-50.304
X93.251Y-53.404
X93.251Y-56.404
X93.251Y-59.404
X93.251Y-62.404
X93.251Y-65.404
X93.251Y-68.404
X93.251Y-71.404
X93.301Y-119.203
X93.301Y-125.203
X93.301Y-143.203
X93.301Y-146.203
X93.301Y-86.104
X93.301Y-89.104
X93.301Y-92.104
X93.301Y-95.104
X93.301Y-98.104
X94.001Y-54.904
X94.001Y-57.904
X94.001Y-60.904
X94.001Y-63.904
X94.001Y-66.904
X94.001Y-69.904
X94.051Y-135.703
X94.051Y-144.703
X94.051Y-84.604
X94.051Y-93.604
X94.051Y-96.604
X94.051Y-105.604
X94.051Y-108.604
X94.601Y-97.904
X94.751Y-56.404
X94.751Y-59.404
X94.751Y-62.404
X94.751Y-65.404
X94.751Y-68.404
X94.801Y-146.203
X94.801Y-95.104
X94.801Y-107.104
X95.097Y-102.464
X95.297Y-88.964
X95.497Y-91.064
X95.501Y-54.904
X95.501Y-57.904
X95.501Y-60.904
X95.501Y-63.904
X95.501Y-66.904
X95.501Y-69.904
X95.551Y-135.703
X95.551Y-144.703
X95.551Y-84.604
X95.551Y-87.604
X95.551Y-105.604
X95.897Y-92.864
X96.251Y-56.404
X96.251Y-59.404
X96.251Y-62.404
X96.251Y-65.404
X96.251Y-68.404
X96.292Y-86.445
X96.301Y-119.203
X96.301Y-122.203
X96.301Y-134.203
X96.301Y-137.203
X96.301Y-146.203
X96.301Y-107.104
X96.897Y-102.464
X96.997Y-91.064
X97.001Y-45.904
X97.001Y-48.904
X97.001Y-54.904
X97.051Y-117.703
X97.051Y-135.703
X97.051Y-144.703
X97.051Y-81.604
X97.301Y-72.504
X97.401Y-60.504
X97.401Y-66.504
X97.701Y-120.703
X97.751Y-47.404
X97.801Y-146.203
X97.801Y-104.104
X98.197Y-88.964
X98.301Y-53.804
X98.501Y-45.904
X98.501Y-48.904
X98.551Y-144.703
X98.697Y-102.464
X98.797Y-93.164
X98.959Y-87.064
X99.101Y-52.704
X99.251Y-47.404
X99.251Y-50.404
X99.297Y-85.264
X99.301Y-128.203
X99.301Y-146.203
X99.901Y-95.504
X100.001Y-45.904
X100.001Y-48.904
X100.051Y-138.703
X100.051Y-144.703
X100.497Y-102.464
X100.751Y-47.404
X100.801Y-119.203
X100.801Y-125.203
X100.801Y-128.203
X100.801Y-146.203
X100.801Y-83.104
X101.097Y-85.364
X101.401Y-66.404
X101.501Y-45.904
X101.551Y-126.703
X101.551Y-138.703
X101.701Y-72.404
X102.297Y-102.464
X102.301Y-119.203
X102.301Y-137.203
X102.301Y-146.203
X102.301Y-60.404
X102.401Y-95.604
X102.697Y-87.517
X103.001Y-81.164
X103.001Y-45.904
X103.051Y-117.703
X103.051Y-120.703
X103.051Y-138.703
X103.051Y-96.604
X103.051Y-99.604
X103.501Y-125.503
X103.601Y-85.804
X103.751Y-47.404
X103.801Y-119.203
X103.801Y-98.104
X104.097Y-102.464
X104.401Y-81.904
X104.501Y-84.204
X104.501Y-45.904
X104.501Y-48.904
X104.551Y-120.703
X104.551Y-99.604
X104.601Y-124.703
X104.601Y-126.003
X105.251Y-47.404
X105.301Y-119.203
X105.301Y-131.203
X105.301Y-134.203
X105.301Y-101.104
X105.501Y-81.904
X106.001Y-45.904
X106.001Y-48.904
X106.051Y-123.703
X106.051Y-99.604
X106.051Y-102.604
X106.097Y-87.164
X106.097Y-90.464
X106.097Y-93.264
X106.101Y-126.403
X106.119Y-94.801
X106.401Y-106.304
X106.701Y-140.403
X106.751Y-47.404
X106.801Y-122.203
X106.801Y-86.104
X106.901Y-143.003
X107.001Y-144.803
X107.001Y-146.303
X107.097Y-102.464
X107.501Y-45.904
X107.501Y-48.904
X107.551Y-123.703
X107.551Y-84.604
X107.551Y-96.604
X107.601Y-107.104
X107.647Y-82.824
X107.901Y-145.603
X107.997Y-87.164
X108.101Y-142.203
X108.251Y-47.404
X108.301Y-134.203
X108.301Y-89.104
X108.301Y-95.104
X108.601Y-129.303
X108.601Y-71.604
X108.701Y-81.804
X108.701Y-83.804
X108.801Y-107.904
X108.897Y-101.202
X108.897Y-102.464
X108.901Y-143.603
X108.901Y-144.803
X108.901Y-146.303
X109.001Y-87.904
X109.001Y-45.904
X109.001Y-48.904
X109.051Y-117.703
X109.051Y-90.604
X109.206Y-122.343
X109.401Y-60.504
X109.401Y-66.504
X109.501Y-132.103
X109.701Y-130.303
X109.801Y-128.203
X109.801Y-86.104
X109.801Y-89.104
X109.801Y-92.104
X109.901Y-142.203
X109.901Y-145.603
X110.176Y-98.142
X110.497Y-102.464
X110.501Y-45.904
X110.551Y-117.703
X110.551Y-90.604
X110.701Y-133.203
X110.708Y-131.29
X110.801Y-84.304
X110.88Y-128.577
X110.901Y-143.603
X110.901Y-144.803
X110.901Y-146.303
X111.001Y-93.704
X111.301Y-129.803
X111.301Y-86.104
X111.301Y-89.104
X111.301Y-92.104
X111.301Y-107.104
X111.801Y-142.203
X111.801Y-145.603
X112.001Y-45.904
X112.001Y-48.904
X112.051Y-120.703
X112.051Y-132.703
X112.401Y-87.304
X112.751Y-47.404
X112.801Y-143.203
X113.435Y-96.764
X113.501Y-45.904
X113.501Y-48.904
X113.551Y-120.703
X113.551Y-141.703
X113.551Y-90.604
X113.551Y-93.604
X113.601Y-87.304
X113.701Y-130.103
X113.801Y-128.403
X114.001Y-124.703
X114.089Y-104.604
X114.251Y-47.404
X114.301Y-119.203
X114.301Y-143.203
X114.301Y-129.203
X114.301Y-89.104
X114.301Y-92.104
X114.897Y-96.764
X115.001Y-124.703
X115.001Y-45.904
X115.001Y-48.904
X115.051Y-120.703
X115.051Y-84.604
X115.051Y-87.604
X115.051Y-90.604
X115.051Y-93.604
X115.101Y-130.103
X115.201Y-128.403
X115.201Y-86.004
X115.597Y-99.164
X115.797Y-100.964
X115.801Y-119.203
X115.801Y-143.203
X115.801Y-92.104
X116.001Y-129.203
X116.197Y-102.264
X116.197Y-103.664
X116.551Y-90.604
X116.551Y-93.604
X116.601Y-128.403
X116.601Y-130.103
X116.701Y-50.004
X116.839Y-99.404
X117.301Y-143.203
X117.301Y-89.104
X117.301Y-92.104
X117.301Y-95.104
X117.501Y-87.604
X117.601Y-54.704
X117.601Y-60.704
X117.601Y-66.704
X117.601Y-86.004
X117.801Y-123.303
X117.801Y-49.004
X117.801Y-45.904
X118.051Y-84.604
X118.051Y-90.604
X118.051Y-93.604
X118.051Y-96.604
X118.363Y-99.912
X118.601Y-60.704
X118.601Y-66.704
X118.801Y-134.203
X118.801Y-137.203
X118.801Y-140.203
X118.801Y-143.203
X118.801Y-146.203
X118.901Y-50.004
X119.001Y-129.803
X119.001Y-103.604
X119.101Y-55.704
X119.101Y-57.704
X119.101Y-59.704
X119.101Y-61.704
X119.101Y-63.704
X119.101Y-65.704
X119.101Y-67.704
X119.101Y-69.704
X119.101Y-71.704
X119.401Y-128.603
X119.501Y-46.404
X119.501Y-48.404
X119.551Y-126.703
X119.551Y-132.703
X119.551Y-135.703
X119.551Y-138.703
X119.551Y-141.703
X119.551Y-144.703
X119.601Y-50.904
X119.601Y-54.704
X119.601Y-56.704
X119.601Y-58.704
X119.601Y-60.704
X119.601Y-62.704
X119.601Y-64.704
X119.601Y-66.704
X119.601Y-68.704
X119.601Y-70.704
X124.201Y-50.304
X124.251Y-53.404
X124.251Y-56.404
X124.251Y-59.404
X124.251Y-62.404
X124.251Y-65.404
X124.251Y-68.404
X124.251Y-71.404
X124.301Y-119.203
X124.301Y-125.203
X124.301Y-143.203
X124.301Y-146.203
X124.301Y-86.104
X124.301Y-89.104
X124.301Y-92.104
X124.301Y-95.104
X124.301Y-98.104
X125.001Y-54.904
X125.001Y-57.904
X125.001Y-60.904
X125.001Y-63.904
X125.001Y-66.904
X125.001Y-69.904
X125.051Y-135.703
X125.051Y-144.703
X125.051Y-84.604
X125.051Y-93.604
X125.051Y-96.604
X125.051Y-105.604
X125.051Y-108.604
X125.601Y-97.904
X125.751Y-56.404
X125.751Y-59.404
X125.751Y-62.404
X125.751Y-65.404
X125.751Y-68.404
X125.801Y-146.203
X125.801Y-95.104
X125.801Y-107.104
X126.097Y-102.464
X126.297Y-88.964
X126.497Y-91.064
X126.501Y-54.904
X126.501Y-57.904
X126.501Y-60.904
X126.501Y-63.904
X126.501Y-66.904
X126.501Y-69.904
X126.551Y-135.703
X126.551Y-144.703
X126.551Y-84.604
X126.551Y-87.604
X126.551Y-105.604
X126.897Y-92.864
X127.251Y-56.404
X127.251Y-59.404
X127.251Y-62.404
X127.251Y-65.404
X127.251Y-68.404
X127.292Y-86.445
X127.301Y-119.203
X127.301Y-122.203
X127.301Y-134.203
X127.301Y-137.203
X127.301Y-146.203
X127.301Y-107.104
X127.897Y-102.464
X127.997Y-91.064
X128.001Y-45.904
X128.001Y-48.904
X128.001Y-54.904
X128.051Y-117.703
X128.051Y-135.703
X128.051Y-144.703
X128.051Y-81.604
X128.301Y-72.504
X128.401Y-60.504
X128.401Y-66.504
X128.701Y-120.703
X128.751Y-47.404
X128.801Y-146.203
X128.801Y-104.104
X129.197Y-88.964
X129.301Y-53.804
X129.501Y-45.904
X129.501Y-48.904
X129.551Y-144.703
X129.697Y-102.464
X129.797Y-93.164
X129.959Y-87.064
X130.101Y-52.704
X130.251Y-47.404
X130.251Y-50.404
X130.297Y-85.264
X130.301Y-128.203
X130.301Y-146.203
X130.901Y-95.504
X131.001Y-45.904
X131.001Y-48.904
X131.051Y-138.703
X131.051Y-144.703
X131.497Y-102.464
X131.751Y-47.404
X131.801Y-119.203
X131.801Y-125.203
X131.801Y-128.203
X131.801Y-146.203
X131.801Y-83.104
X132.097Y-85.364
X132.401Y-66.404
X132.501Y-45.904
X132.551Y-126.703
X132.551Y-138.703
X132.701Y-72.404
X133.297Y-102.464
X133.301Y-119.203
X133.301Y-137.203
X133.301Y-146.203
X133.301Y-60.404
X133.401Y-95.604
X133.697Y-87.517
X134.001Y-81.164
X134.001Y-45.904
X134.051Y-117.703
X134.051Y-120.703
X134.051Y-138.703
X134.051Y-96.604
X134.051Y-99.604
X134.501Y-125.503
X134.601Y-85.804
X134.751Y-47.404
X134.801Y-119.203
X134.801Y-98.104
X135.097Y-102.464
X135.401Y-81.904
X135.501Y-84.204
X135.501Y-45.904
X135.501Y-48.904
X135.551Y-120.703
X135.551Y-99.604
X135.601Y-124.703
X135.601Y-126.003
X136.251Y-47.404
X136.301Y-119.203
X136.301Y-131.203
X136.301Y-134.203
X136.301Y-101.104
X136.501Y-81.904
X137.001Y-45.904
X137.001Y-48.904
X137.051Y-123.703
X137.051Y-99.604
X137.051Y-102.604
X137.097Y-87.164
X137.097Y-90.464
X137.097Y-93.264
X137.101Y-126.403
X137.119Y-94.801
X137.401Y-106.304
X137.701Y-140.403
X137.751Y-47.404
X137.801Y-122.203
X137.801Y-86.104
X137.901Y-143.003
X138.001Y-144.803
X138.001Y-146.303
X138.097Y-102.464
X138.501Y-45.904
X138.501Y-48.904
X138.551Y-123.703
X138.551Y-84.604
X138.551Y-96.604
X138.601Y-107.104
X138.647Y-82.824
X138.901Y-145.603
X138.997Y-87.164
X139.101Y-142.203
X139.251Y-47.404
X139.301Y-134.203
X139.301Y-89.104
X139.301Y-95.104
X139.601Y-129.303
X139.601Y-71.604
X139.701Y-81.804
X139.701Y-83.804
X139.801Y-107.904
X139.897Y-101.202
X139.897Y-102.464
X139.901Y-143.603
X139.901Y-144.803
X139.901Y-146.303
X140.001Y-87.904
X140.001Y-45.904
X140.001Y-48.904
X140.051Y-117.703
X140.051Y-90.604
X140.206Y-122.343
X140.401Y-60.504
X140.401Y-66.504
X140.501Y-132.103
X140.701Y-130.303
X140.801Y-128.203
X140.801Y-86.104
X140.801Y-89.104
X140.801Y-92.104
X140.901Y-142.203
X140.901Y-145.603
X141.176Y-98.142
X141.497Y-102.464
X141.501Y-45.904
X141.551Y-117.703
X141.551Y-90.604
X141.701Y-133.203
X141.708Y-131.29
X141.801Y-84.304
X141.88Y-128.577
X141.901Y-143.603
X141.901Y-144.803
X141.901Y-146.303
X142.001Y-93.704
X142.301Y-129.803
X142.301Y-86.104
X142.301Y-89.104
X142.301Y-92.104
X142.301Y-107.104
X142.801Y-142.203
X142.801Y-145.603
X143.001Y-45.904
X143.001Y-48.904
X143.051Y-120.703
X143.051Y-132.703
X143.401Y-87.304
X143.751Y-47.404
X143.801Y-143.203
X144.435Y-96.764
X144.501Y-45.904
X144.501Y-48.904
X144.551Y-120.703
X144.551Y-141.703
X144.551Y-90.604
X144.551Y-93.604
X144.601Y-87.304
X144.701Y-130.103
X144.801Y-128.403
X145.001Y-124.703
X145.089Y-104.604
X145.251Y-47.404
X145.301Y-119.203
X145.301Y-143.203
X145.301Y-129.203
X145.301Y-89.104
X145.301Y-92.104
X145.897Y-96.764
X146.001Y-124.703
X146.001Y-45.904
X146.001Y-48.904
X146.051Y-120.703
X146.051Y-84.604
X146.051Y-87.604
X146.051Y-90.604
X146.051Y-93.604
X146.101Y-130.103
X146.201Y-128.403
X146.201Y-86.004
X146.597Y-99.164
X146.797Y-100.964
X146.801Y-119.203
X146.801Y-143.203
X146.801Y-92.104
X147.001Y-129.203
X147.197Y-102.264
X147.197Y-103.664
X147.551Y-90.604
X147.551Y-93.604
X147.601Y-128.403
X147.601Y-130.103
X147.701Y-50.004
X147.839Y-99.404
X148.301Y-143.203
X148.301Y-89.104
X148.301Y-92.104
X148.301Y-95.104
X148.501Y-87.604
X148.601Y-54.704
X148.601Y-60.704
X148.601Y-66.704
X148.601Y-86.004
X148.801Y-123.303
X148.801Y-49.004
X148.801Y-45.904
X149.051Y-84.604
X149.051Y-90.604
X149.051Y-93.604
X149.051Y-96.604
X149.363Y-99.912
X149.601Y-60.704
X149.601Y-66.704
X149.801Y-134.203
X149.801Y-137.203
X149.801Y-140.203
X149.801Y-143.203
X149.801Y-146.203
X149.901Y-50.004
X150.001Y-129.803
X150.001Y-103.604
X150.101Y-55.704
X150.101Y-57.704
X150.101Y-59.704
X150.101Y-61.704
X150.101Y-63.704
X150.101Y-65.704
X150.101Y-67.704
X150.101Y-69.704
X150.101Y-71.704
X150.401Y-128.603
X150.501Y-46.404
X150.501Y-48.404
X150.551Y-126.703
X150.551Y-132.703
X150.551Y-135.703
X150.551Y-138.703
X150.551Y-141.703
X150.551Y-144.703
X150.601Y-50.904
X150.601Y-54.704
X150.601Y-56.704
X150.601Y-58.704
X150.601Y-60.704
X150.601Y-62.704
X150.601Y-64.704
X150.601Y-66.704
X150.601Y-68.704
X150.601Y-70.704
T2
X63.401Y-121.503
X63.401Y-124.043
X63.401Y-126.583
X63.401Y-129.363
X63.401Y-131.903
X63.401Y-134.443
X63.401Y-137.263
X63.401Y-139.803
X63.401Y-142.343
X64.101Y-74.704
X64.101Y-109.704
X66.641Y-74.704
X66.641Y-109.704
X67.796Y-81.909
X67.797Y-116.908
X69.181Y-74.704
X69.181Y-109.704
X70.336Y-81.909
X70.337Y-116.908
X71.201Y-48.254
X71.201Y-51.754
X71.721Y-74.704
X71.721Y-109.704
X73.531Y-116.903
X74.261Y-74.704
X74.261Y-109.704
X76.071Y-116.903
X76.801Y-74.704
X76.801Y-109.704
X79.341Y-74.704
X79.341Y-109.704
X79.601Y-48.254
X79.601Y-51.754
X81.881Y-74.704
X81.881Y-109.704
X84.421Y-74.704
X84.421Y-109.704
X86.961Y-74.704
X86.961Y-109.704
X94.401Y-121.503
X94.401Y-124.043
X94.401Y-126.583
X94.401Y-129.363
X94.401Y-131.903
X94.401Y-134.443
X94.401Y-137.263
X94.401Y-139.803
X94.401Y-142.343
X95.101Y-74.704
X95.101Y-109.704
X97.641Y-74.704
X97.641Y-109.704
X98.796Y-81.909
X98.797Y-116.908
X100.181Y-74.704
X100.181Y-109.704
X101.336Y-81.909
X101.337Y-116.908
X102.201Y-48.254
X102.201Y-51.754
X102.721Y-74.704
X102.721Y-109.704
X104.531Y-116.903
X105.261Y-74.704
X105.261Y-109.704
X107.071Y-116.903
X107.801Y-74.704
X107.801Y-109.704
X110.341Y-74.704
X110.341Y-109.704
X110.601Y-48.254
X110.601Y-51.754
X112.881Y-74.704
X112.881Y-109.704
X115.421Y-74.704
X115.421Y-109.704
X117.961Y-74.704
X117.961Y-109.704
X125.401Y-121.503
X125.401Y-124.043
X125.401Y-126.583
X125.401Y-129.363
X125.401Y-131.903
X125.401Y-134.443
X125.401Y-137.263
X125.401Y-139.803
X125.401Y-142.343
X126.101Y-74.704
X126.101Y-109.704
X128.641Y-74.704
X128.641Y-109.704
X129.796Y-81.909
X129.797Y-116.908
X131.181Y-74.704
X131.181Y-109.704
X132.336Y-81.909
X132.337Y-116.908
X133.201Y-48.254
X133.201Y-51.754
X133.721Y-74.704
X133.721Y-109.704
X135.531Y-116.903
X136.261Y-74.704
X136.261Y-109.704
X138.071Y-116.903
X138.801Y-74.704
X138.801Y-109.704
X141.341Y-74.704
X141.341Y-109.704
X141.601Y-48.254
X141.601Y-51.754
X143.881Y-74.704
X143.881Y-109.704
X146.421Y-74.704
X146.421Y-109.704
X148.961Y-74.704
X148.961Y-109.704
T3
X82.187Y-82.404
X82.187Y-117.403
X84.727Y-82.404
X84.727Y-117.403
X84.731Y-47.404
X87.267Y-82.404
X87.267Y-117.403
X87.271Y-47.404
X113.187Y-82.404
X113.187Y-117.403
X115.727Y-82.404
X115.727Y-117.403
X115.731Y-47.404
X118.267Y-82.404
X118.267Y-117.403
X118.271Y-47.404
X144.187Y-82.404
X144.187Y-117.403
X146.727Y-82.404
X146.727Y-117.403
X146.731Y-47.404
X149.267Y-82.404
X149.267Y-117.403
X149.271Y-47.404
T4
X63.701Y-47.404
X63.701Y-82.404
X63.701Y-117.404
X71.197Y-90.964
X81.497Y-100.564
X94.701Y-47.404
X94.701Y-82.404
X94.701Y-117.404
X102.197Y-90.964
X112.497Y-100.564
X125.701Y-47.404
X125.701Y-82.404
X125.701Y-117.404
X133.197Y-90.964
X143.497Y-100.564
T5
X64.901Y-51.904
X75.501Y-57.069
X75.501Y-63.069
X75.501Y-69.069
X86.301Y-52.404
X95.901Y-51.904
X106.501Y-57.069
X106.501Y-63.069
X106.501Y-69.069
X117.301Y-52.404
X126.901Y-51.904
X137.501Y-57.069
X137.501Y-63.069
X137.501Y-69.069
X148.301Y-52.404
T0
M30
