%TF.GenerationSoftware,KiCad,Pcbnew,6.0.4-6f826c9f35~116~ubuntu20.04.1*%
%TF.CreationDate,2022-04-24T16:07:37+02:00*%
%TF.ProjectId,crawl_esc_pan,63726177-6c5f-4657-9363-5f70616e2e6b,rev?*%
%TF.SameCoordinates,Original*%
%TF.FileFunction,Profile,NP*%
%FSLAX46Y46*%
G04 Gerber Fmt 4.6, Leading zero omitted, Abs format (unit mm)*
G04 Created by KiCad (PCBNEW 6.0.4-6f826c9f35~116~ubuntu20.04.1) date 2022-04-24 16:07:37*
%MOMM*%
%LPD*%
G01*
G04 APERTURE LIST*
%TA.AperFunction,Profile*%
%ADD10C,0.150000*%
%TD*%
G04 APERTURE END LIST*
D10*
X163400000Y-148000000D02*
X142600000Y-148000000D01*
X163400000Y-43000000D02*
X142600000Y-43000000D01*
X163400000Y-148000000D02*
G75*
G03*
X163400000Y-145000000I0J1500000D01*
G01*
X108000000Y-71400000D02*
X108000000Y-46600000D01*
X139000000Y-141400000D02*
X139000000Y-116600000D01*
X201000000Y-116600000D02*
G75*
G03*
X198000000Y-116600000I-1500000J0D01*
G01*
X111600000Y-110000000D02*
X132400000Y-110000000D01*
X105000000Y-71400000D02*
G75*
G03*
X108000000Y-71400000I1500000J0D01*
G01*
X173600000Y-75000000D02*
G75*
G03*
X173600000Y-78000000I0J-1500000D01*
G01*
X163400000Y-113000000D02*
X142600000Y-113000000D01*
X111600000Y-145000000D02*
G75*
G03*
X111600000Y-148000000I0J-1500000D01*
G01*
X194400000Y-148000000D02*
X173600000Y-148000000D01*
X198000000Y-141400000D02*
G75*
G03*
X201000000Y-141400000I1500000J0D01*
G01*
X132400000Y-148000000D02*
X111600000Y-148000000D01*
X142600000Y-145000000D02*
G75*
G03*
X142600000Y-148000000I0J-1500000D01*
G01*
X201000000Y-106400000D02*
X201000000Y-81600000D01*
X105000000Y-81600000D02*
X105000000Y-106400000D01*
X139000000Y-81600000D02*
G75*
G03*
X136000000Y-81600000I-1500000J0D01*
G01*
X206000000Y-153000000D02*
X100000000Y-153000000D01*
X111600000Y-75000000D02*
X132400000Y-75000000D01*
X111600000Y-40000000D02*
X132400000Y-40000000D01*
X132400000Y-43000000D02*
X111600000Y-43000000D01*
X136000000Y-46600000D02*
X136000000Y-71400000D01*
X142600000Y-40000000D02*
X163400000Y-40000000D01*
X194400000Y-113000000D02*
G75*
G03*
X194400000Y-110000000I0J1500000D01*
G01*
X136000000Y-141400000D02*
G75*
G03*
X139000000Y-141400000I1500000J0D01*
G01*
X201000000Y-81600000D02*
G75*
G03*
X198000000Y-81600000I-1500000J0D01*
G01*
X170000000Y-46600000D02*
G75*
G03*
X167000000Y-46600000I-1500000J0D01*
G01*
X194400000Y-78000000D02*
G75*
G03*
X194400000Y-75000000I0J1500000D01*
G01*
X194400000Y-43000000D02*
G75*
G03*
X194400000Y-40000000I0J1500000D01*
G01*
X170000000Y-71400000D02*
X170000000Y-46600000D01*
X173600000Y-145000000D02*
X194400000Y-145000000D01*
X132400000Y-148000000D02*
G75*
G03*
X132400000Y-145000000I0J1500000D01*
G01*
X194400000Y-43000000D02*
X173600000Y-43000000D01*
X139000000Y-46600000D02*
G75*
G03*
X136000000Y-46600000I-1500000J0D01*
G01*
X163400000Y-78000000D02*
G75*
G03*
X163400000Y-75000000I0J1500000D01*
G01*
X198000000Y-46600000D02*
X198000000Y-71400000D01*
X105000000Y-116600000D02*
X105000000Y-141400000D01*
X105000000Y-141400000D02*
G75*
G03*
X108000000Y-141400000I1500000J0D01*
G01*
X108000000Y-106400000D02*
X108000000Y-81600000D01*
X142600000Y-40000000D02*
G75*
G03*
X142600000Y-43000000I0J-1500000D01*
G01*
X206000000Y-30000000D02*
X206000000Y-153000000D01*
X132400000Y-113000000D02*
G75*
G03*
X132400000Y-110000000I0J1500000D01*
G01*
X163400000Y-113000000D02*
G75*
G03*
X163400000Y-110000000I0J1500000D01*
G01*
X142600000Y-110000000D02*
G75*
G03*
X142600000Y-113000000I0J-1500000D01*
G01*
X111600000Y-40000000D02*
G75*
G03*
X111600000Y-43000000I0J-1500000D01*
G01*
X111600000Y-145000000D02*
X132400000Y-145000000D01*
X136000000Y-116600000D02*
X136000000Y-141400000D01*
X167000000Y-141400000D02*
G75*
G03*
X170000000Y-141400000I1500000J0D01*
G01*
X108000000Y-116600000D02*
G75*
G03*
X105000000Y-116600000I-1500000J0D01*
G01*
X194400000Y-113000000D02*
X173600000Y-113000000D01*
X167000000Y-71400000D02*
G75*
G03*
X170000000Y-71400000I1500000J0D01*
G01*
X198000000Y-71400000D02*
G75*
G03*
X201000000Y-71400000I1500000J0D01*
G01*
X170000000Y-81600000D02*
G75*
G03*
X167000000Y-81600000I-1500000J0D01*
G01*
X167000000Y-81600000D02*
X167000000Y-106400000D01*
X132400000Y-113000000D02*
X111600000Y-113000000D01*
X170000000Y-116600000D02*
G75*
G03*
X167000000Y-116600000I-1500000J0D01*
G01*
X139000000Y-106400000D02*
X139000000Y-81600000D01*
X173600000Y-110000000D02*
X194400000Y-110000000D01*
X167000000Y-46600000D02*
X167000000Y-71400000D01*
X111600000Y-75000000D02*
G75*
G03*
X111600000Y-78000000I0J-1500000D01*
G01*
X198000000Y-106400000D02*
G75*
G03*
X201000000Y-106400000I1500000J0D01*
G01*
X136000000Y-81600000D02*
X136000000Y-106400000D01*
X167000000Y-106400000D02*
G75*
G03*
X170000000Y-106400000I1500000J0D01*
G01*
X201000000Y-141400000D02*
X201000000Y-116600000D01*
X173600000Y-75000000D02*
X194400000Y-75000000D01*
X100000000Y-30000000D02*
X206000000Y-30000000D01*
X173600000Y-40000000D02*
X194400000Y-40000000D01*
X142600000Y-75000000D02*
G75*
G03*
X142600000Y-78000000I0J-1500000D01*
G01*
X132400000Y-43000000D02*
G75*
G03*
X132400000Y-40000000I0J1500000D01*
G01*
X142600000Y-145000000D02*
X163400000Y-145000000D01*
X136000000Y-71400000D02*
G75*
G03*
X139000000Y-71400000I1500000J0D01*
G01*
X198000000Y-81600000D02*
X198000000Y-106400000D01*
X132400000Y-78000000D02*
G75*
G03*
X132400000Y-75000000I0J1500000D01*
G01*
X198000000Y-116600000D02*
X198000000Y-141400000D01*
X132400000Y-78000000D02*
X111600000Y-78000000D01*
X100000000Y-153000000D02*
X100000000Y-30000000D01*
X139000000Y-116600000D02*
G75*
G03*
X136000000Y-116600000I-1500000J0D01*
G01*
X170000000Y-106400000D02*
X170000000Y-81600000D01*
X194400000Y-78000000D02*
X173600000Y-78000000D01*
X201000000Y-71400000D02*
X201000000Y-46600000D01*
X173600000Y-145000000D02*
G75*
G03*
X173600000Y-148000000I0J-1500000D01*
G01*
X108000000Y-141400000D02*
X108000000Y-116600000D01*
X163400000Y-78000000D02*
X142600000Y-78000000D01*
X108000000Y-46600000D02*
G75*
G03*
X105000000Y-46600000I-1500000J0D01*
G01*
X105000000Y-46600000D02*
X105000000Y-71400000D01*
X142600000Y-75000000D02*
X163400000Y-75000000D01*
X173600000Y-40000000D02*
G75*
G03*
X173600000Y-43000000I0J-1500000D01*
G01*
X136000000Y-106400000D02*
G75*
G03*
X139000000Y-106400000I1500000J0D01*
G01*
X194400000Y-148000000D02*
G75*
G03*
X194400000Y-145000000I0J1500000D01*
G01*
X111600000Y-110000000D02*
G75*
G03*
X111600000Y-113000000I0J-1500000D01*
G01*
X173600000Y-110000000D02*
G75*
G03*
X173600000Y-113000000I0J-1500000D01*
G01*
X108000000Y-81600000D02*
G75*
G03*
X105000000Y-81600000I-1500000J0D01*
G01*
X105000000Y-106400000D02*
G75*
G03*
X108000000Y-106400000I1500000J0D01*
G01*
X139000000Y-71400000D02*
X139000000Y-46600000D01*
X170000000Y-141400000D02*
X170000000Y-116600000D01*
X201000000Y-46600000D02*
G75*
G03*
X198000000Y-46600000I-1500000J0D01*
G01*
X163400000Y-43000000D02*
G75*
G03*
X163400000Y-40000000I0J1500000D01*
G01*
X142600000Y-110000000D02*
X163400000Y-110000000D01*
X167000000Y-116600000D02*
X167000000Y-141400000D01*
M02*
