%TF.GenerationSoftware,KiCad,Pcbnew,6.0.4-6f826c9f35~116~ubuntu20.04.1*%
%TF.CreationDate,2022-04-24T16:07:37+02:00*%
%TF.ProjectId,crawl_esc_pan,63726177-6c5f-4657-9363-5f70616e2e6b,rev?*%
%TF.SameCoordinates,Original*%
%TF.FileFunction,Soldermask,Bot*%
%TF.FilePolarity,Negative*%
%FSLAX46Y46*%
G04 Gerber Fmt 4.6, Leading zero omitted, Abs format (unit mm)*
G04 Created by KiCad (PCBNEW 6.0.4-6f826c9f35~116~ubuntu20.04.1) date 2022-04-24 16:07:37*
%MOMM*%
%LPD*%
G01*
G04 APERTURE LIST*
G04 Aperture macros list*
%AMRoundRect*
0 Rectangle with rounded corners*
0 $1 Rounding radius*
0 $2 $3 $4 $5 $6 $7 $8 $9 X,Y pos of 4 corners*
0 Add a 4 corners polygon primitive as box body*
4,1,4,$2,$3,$4,$5,$6,$7,$8,$9,$2,$3,0*
0 Add four circle primitives for the rounded corners*
1,1,$1+$1,$2,$3*
1,1,$1+$1,$4,$5*
1,1,$1+$1,$6,$7*
1,1,$1+$1,$8,$9*
0 Add four rect primitives between the rounded corners*
20,1,$1+$1,$2,$3,$4,$5,0*
20,1,$1+$1,$4,$5,$6,$7,0*
20,1,$1+$1,$6,$7,$8,$9,0*
20,1,$1+$1,$8,$9,$2,$3,0*%
G04 Aperture macros list end*
%ADD10C,2.000000*%
%ADD11R,2.000000X2.000000*%
%ADD12R,2.260000X2.160000*%
%ADD13R,1.016000X0.762000*%
%ADD14R,0.762000X1.016000*%
%ADD15R,1.193800X2.006600*%
%ADD16RoundRect,0.147500X-0.147500X0.457500X-0.147500X-0.457500X0.147500X-0.457500X0.147500X0.457500X0*%
%ADD17R,2.200000X2.700000*%
%ADD18R,2.006600X1.193800*%
%ADD19C,1.600200*%
%ADD20R,1.600200X1.600200*%
%ADD21C,1.000000*%
%ADD22R,0.800000X0.800000*%
%ADD23R,1.200000X0.600000*%
%ADD24O,4.300000X3.500000*%
%ADD25C,0.500000*%
%ADD26C,4.000000*%
G04 APERTURE END LIST*
D10*
%TO.C,ST25*%
X195865544Y-115299779D03*
X193325544Y-115299779D03*
D11*
X190785544Y-115299779D03*
%TD*%
D12*
%TO.C,D13*%
X180499542Y-126649779D03*
X180499542Y-131549780D03*
%TD*%
D13*
%TO.C,R65*%
X187899542Y-132237779D03*
X187899542Y-133761779D03*
%TD*%
D14*
%TO.C,R66*%
X187837544Y-135399782D03*
X189361544Y-135399782D03*
%TD*%
%TO.C,C110*%
X185961542Y-138299781D03*
X184437542Y-138299781D03*
%TD*%
D15*
%TO.C,C95*%
X191723542Y-127099777D03*
X188675542Y-127099777D03*
%TD*%
%TO.C,C97*%
X193775542Y-127099777D03*
X196823542Y-127099777D03*
%TD*%
D16*
%TO.C,IC15*%
X184249542Y-136254779D03*
X186149544Y-136254779D03*
X186149544Y-133744782D03*
X185199542Y-133744782D03*
X184249542Y-133744782D03*
%TD*%
D17*
%TO.C,L8*%
X176899544Y-134249779D03*
X176899544Y-139349779D03*
%TD*%
D18*
%TO.C,C111*%
X184399545Y-127875781D03*
X184399545Y-130923781D03*
%TD*%
D13*
%TO.C,C107*%
X189599542Y-132237779D03*
X189599542Y-133761779D03*
%TD*%
D15*
%TO.C,C102*%
X181675542Y-140799779D03*
X184723542Y-140799779D03*
%TD*%
D14*
%TO.C,C113*%
X174037544Y-121999779D03*
X175561544Y-121999779D03*
%TD*%
%TO.C,R61*%
X192261542Y-124799777D03*
X190737542Y-124799777D03*
%TD*%
%TO.C,C94*%
X190737542Y-123099777D03*
X192261542Y-123099777D03*
%TD*%
D18*
%TO.C,C112*%
X184399542Y-125823779D03*
X184399542Y-122775779D03*
%TD*%
D19*
%TO.C,ST29*%
X171999544Y-140239777D03*
X171999544Y-137699777D03*
D20*
X171999544Y-135159777D03*
%TD*%
D19*
%TO.C,ST30*%
X182129544Y-114799777D03*
D20*
X184669544Y-114799777D03*
%TD*%
D14*
%TO.C,C114*%
X174037544Y-129799777D03*
X175561544Y-129799777D03*
%TD*%
D18*
%TO.C,C101*%
X181999544Y-138223782D03*
X181999544Y-135175782D03*
%TD*%
D19*
%TO.C,ST27*%
X171999544Y-124479779D03*
X171999544Y-121939779D03*
D20*
X171999544Y-119399779D03*
%TD*%
D19*
%TO.C,ST26*%
X178935542Y-114804779D03*
D20*
X176395542Y-114804779D03*
%TD*%
D19*
%TO.C,ST31*%
X181470000Y-143600000D03*
D20*
X178930000Y-143600000D03*
%TD*%
D19*
%TO.C,ST28*%
X171999544Y-132339777D03*
X171999544Y-129799777D03*
D20*
X171999544Y-127259777D03*
%TD*%
D10*
%TO.C,ST18*%
X164865544Y-115299779D03*
X162325544Y-115299779D03*
D11*
X159785544Y-115299779D03*
%TD*%
D12*
%TO.C,D11*%
X149499542Y-126649779D03*
X149499542Y-131549780D03*
%TD*%
D13*
%TO.C,R59*%
X156899542Y-132237779D03*
X156899542Y-133761779D03*
%TD*%
D14*
%TO.C,R60*%
X156837544Y-135399782D03*
X158361544Y-135399782D03*
%TD*%
%TO.C,C88*%
X154961542Y-138299781D03*
X153437542Y-138299781D03*
%TD*%
D15*
%TO.C,C73*%
X160723542Y-127099777D03*
X157675542Y-127099777D03*
%TD*%
%TO.C,C75*%
X162775542Y-127099777D03*
X165823542Y-127099777D03*
%TD*%
D16*
%TO.C,IC12*%
X153249542Y-136254779D03*
X155149544Y-136254779D03*
X155149544Y-133744782D03*
X154199542Y-133744782D03*
X153249542Y-133744782D03*
%TD*%
D17*
%TO.C,L6*%
X145899544Y-134249779D03*
X145899544Y-139349779D03*
%TD*%
D18*
%TO.C,C89*%
X153399545Y-127875781D03*
X153399545Y-130923781D03*
%TD*%
D13*
%TO.C,C85*%
X158599542Y-132237779D03*
X158599542Y-133761779D03*
%TD*%
D15*
%TO.C,C80*%
X150675542Y-140799779D03*
X153723542Y-140799779D03*
%TD*%
D14*
%TO.C,C91*%
X143037544Y-121999779D03*
X144561544Y-121999779D03*
%TD*%
%TO.C,R55*%
X161261542Y-124799777D03*
X159737542Y-124799777D03*
%TD*%
%TO.C,C72*%
X159737542Y-123099777D03*
X161261542Y-123099777D03*
%TD*%
D18*
%TO.C,C90*%
X153399542Y-125823779D03*
X153399542Y-122775779D03*
%TD*%
D19*
%TO.C,ST22*%
X140999544Y-140239777D03*
X140999544Y-137699777D03*
D20*
X140999544Y-135159777D03*
%TD*%
D19*
%TO.C,ST23*%
X151129544Y-114799777D03*
D20*
X153669544Y-114799777D03*
%TD*%
D14*
%TO.C,C92*%
X143037544Y-129799777D03*
X144561544Y-129799777D03*
%TD*%
D18*
%TO.C,C79*%
X150999544Y-138223782D03*
X150999544Y-135175782D03*
%TD*%
D19*
%TO.C,ST20*%
X140999544Y-124479779D03*
X140999544Y-121939779D03*
D20*
X140999544Y-119399779D03*
%TD*%
D19*
%TO.C,ST19*%
X147935542Y-114804779D03*
D20*
X145395542Y-114804779D03*
%TD*%
D19*
%TO.C,ST24*%
X150470000Y-143600000D03*
D20*
X147930000Y-143600000D03*
%TD*%
D19*
%TO.C,ST21*%
X140999544Y-132339777D03*
X140999544Y-129799777D03*
D20*
X140999544Y-127259777D03*
%TD*%
D21*
%TO.C,TP20*%
X183695416Y-85060072D03*
%TD*%
D20*
%TO.C,ST16*%
X195560000Y-107599998D03*
D19*
X193020000Y-107599998D03*
X190480000Y-107599998D03*
X187940000Y-107599998D03*
X185400000Y-107599998D03*
X182860000Y-107599998D03*
X180320000Y-107599998D03*
X177780000Y-107599998D03*
X175240000Y-107599998D03*
X172700000Y-107599998D03*
%TD*%
D21*
%TO.C,TP21*%
X187495416Y-85060072D03*
%TD*%
D22*
%TO.C,D7*%
X196200000Y-100199998D03*
X193800000Y-100199998D03*
%TD*%
D13*
%TO.C,C67*%
X188400000Y-81062000D03*
X188400000Y-79538000D03*
%TD*%
D14*
%TO.C,R54*%
X174833417Y-91060073D03*
X176357417Y-91060073D03*
%TD*%
D13*
%TO.C,C58*%
X183695416Y-89698074D03*
X183695416Y-91222074D03*
%TD*%
%TO.C,L4*%
X174595416Y-87498073D03*
X174595416Y-89022073D03*
%TD*%
D23*
%TO.C,IC7*%
X186445403Y-79770187D03*
X186445403Y-80720147D03*
X186445403Y-81670107D03*
X184045402Y-81670107D03*
X184045402Y-79770187D03*
%TD*%
D13*
%TO.C,C60*%
X182100000Y-81362000D03*
X182100000Y-79838000D03*
%TD*%
D22*
%TO.C,D8*%
X194438000Y-94899998D03*
X194438000Y-97299998D03*
%TD*%
%TO.C,D9*%
X188645416Y-94699998D03*
X191045416Y-94699998D03*
%TD*%
D14*
%TO.C,C65*%
X179038417Y-93411757D03*
X177514417Y-93411757D03*
%TD*%
%TO.C,R44*%
X174266164Y-93399998D03*
X175790164Y-93399998D03*
%TD*%
D20*
%TO.C,ST17*%
X176395316Y-79804903D03*
D19*
X178935316Y-79804903D03*
%TD*%
D21*
%TO.C,TP19*%
X185595417Y-85060072D03*
%TD*%
D11*
%TO.C,ST15*%
X190785417Y-80300000D03*
D10*
X193325417Y-80300000D03*
X195865417Y-80300000D03*
%TD*%
D21*
%TO.C,TP17*%
X152695416Y-85060072D03*
%TD*%
D20*
%TO.C,ST13*%
X164560000Y-107599998D03*
D19*
X162020000Y-107599998D03*
X159480000Y-107599998D03*
X156940000Y-107599998D03*
X154400000Y-107599998D03*
X151860000Y-107599998D03*
X149320000Y-107599998D03*
X146780000Y-107599998D03*
X144240000Y-107599998D03*
X141700000Y-107599998D03*
%TD*%
D21*
%TO.C,TP18*%
X156495416Y-85060072D03*
%TD*%
D22*
%TO.C,D4*%
X165200000Y-100199998D03*
X162800000Y-100199998D03*
%TD*%
D13*
%TO.C,C51*%
X157400000Y-81062000D03*
X157400000Y-79538000D03*
%TD*%
D14*
%TO.C,R40*%
X143833417Y-91060073D03*
X145357417Y-91060073D03*
%TD*%
D13*
%TO.C,C42*%
X152695416Y-89698074D03*
X152695416Y-91222074D03*
%TD*%
%TO.C,L3*%
X143595416Y-87498073D03*
X143595416Y-89022073D03*
%TD*%
D23*
%TO.C,IC4*%
X155445403Y-79770187D03*
X155445403Y-80720147D03*
X155445403Y-81670107D03*
X153045402Y-81670107D03*
X153045402Y-79770187D03*
%TD*%
D13*
%TO.C,C44*%
X151100000Y-81362000D03*
X151100000Y-79838000D03*
%TD*%
D22*
%TO.C,D5*%
X163438000Y-94899998D03*
X163438000Y-97299998D03*
%TD*%
%TO.C,D6*%
X157645416Y-94699998D03*
X160045416Y-94699998D03*
%TD*%
D14*
%TO.C,C49*%
X148038417Y-93411757D03*
X146514417Y-93411757D03*
%TD*%
%TO.C,R30*%
X143266164Y-93399998D03*
X144790164Y-93399998D03*
%TD*%
D20*
%TO.C,ST14*%
X145395316Y-79804903D03*
D19*
X147935316Y-79804903D03*
%TD*%
D21*
%TO.C,TP16*%
X154595417Y-85060072D03*
%TD*%
D11*
%TO.C,ST12*%
X159785417Y-80300000D03*
D10*
X162325417Y-80300000D03*
X164865417Y-80300000D03*
%TD*%
D20*
%TO.C,ST11*%
X195560000Y-72599998D03*
D19*
X193020000Y-72599998D03*
X190480000Y-72599998D03*
X187940000Y-72599998D03*
X185400000Y-72599998D03*
X182860000Y-72599998D03*
X180320000Y-72599998D03*
X177780000Y-72599998D03*
X175240000Y-72599998D03*
X172700000Y-72599998D03*
%TD*%
D24*
%TO.C,TP13*%
X184100000Y-66964998D03*
%TD*%
D13*
%TO.C,R21*%
X187350000Y-70266998D03*
X187350000Y-68742998D03*
%TD*%
D15*
%TO.C,C36*%
X192375998Y-66199998D03*
X195423998Y-66199998D03*
%TD*%
D24*
%TO.C,TP12*%
X173500000Y-49799998D03*
%TD*%
D15*
%TO.C,C33*%
X192390267Y-60174998D03*
X195438267Y-60174998D03*
%TD*%
D24*
%TO.C,TP15*%
X184100000Y-54965000D03*
%TD*%
D15*
%TO.C,C37*%
X192376003Y-57000002D03*
X195424003Y-57000002D03*
%TD*%
D11*
%TO.C,ST10*%
X193330000Y-45300000D03*
D10*
X195870000Y-45300000D03*
%TD*%
D13*
%TO.C,R25*%
X176100000Y-65362000D03*
X176100000Y-63838000D03*
%TD*%
D20*
%TO.C,C31*%
X179800000Y-49649998D03*
D19*
X179800000Y-46150001D03*
%TD*%
D14*
%TO.C,R24*%
X172438000Y-69899998D03*
X173962000Y-69899998D03*
%TD*%
D15*
%TO.C,C34*%
X192390267Y-62974994D03*
X195438267Y-62974994D03*
%TD*%
D24*
%TO.C,TP14*%
X184100000Y-60964998D03*
%TD*%
D15*
%TO.C,C35*%
X192375998Y-68999996D03*
X195423998Y-68999996D03*
%TD*%
D20*
%TO.C,C32*%
X188200000Y-49649998D03*
D19*
X188200000Y-46150001D03*
%TD*%
D24*
%TO.C,TP11*%
X194900000Y-50300000D03*
%TD*%
D15*
%TO.C,C38*%
X192376003Y-54200000D03*
X195424003Y-54200000D03*
%TD*%
D13*
%TO.C,R26*%
X176100000Y-59461998D03*
X176100000Y-57937998D03*
%TD*%
%TO.C,R22*%
X188100002Y-65811998D03*
X188100002Y-64287998D03*
%TD*%
%TO.C,R23*%
X188100002Y-59811998D03*
X188100002Y-58287998D03*
%TD*%
D20*
%TO.C,ST9*%
X164560000Y-72599998D03*
D19*
X162020000Y-72599998D03*
X159480000Y-72599998D03*
X156940000Y-72599998D03*
X154400000Y-72599998D03*
X151860000Y-72599998D03*
X149320000Y-72599998D03*
X146780000Y-72599998D03*
X144240000Y-72599998D03*
X141700000Y-72599998D03*
%TD*%
D24*
%TO.C,TP8*%
X153100000Y-66964998D03*
%TD*%
D13*
%TO.C,R15*%
X156350000Y-70266998D03*
X156350000Y-68742998D03*
%TD*%
D15*
%TO.C,C28*%
X161375998Y-66199998D03*
X164423998Y-66199998D03*
%TD*%
D24*
%TO.C,TP7*%
X142500000Y-49799998D03*
%TD*%
D15*
%TO.C,C25*%
X161390267Y-60174998D03*
X164438267Y-60174998D03*
%TD*%
D24*
%TO.C,TP10*%
X153100000Y-54965000D03*
%TD*%
D15*
%TO.C,C29*%
X161376003Y-57000002D03*
X164424003Y-57000002D03*
%TD*%
D11*
%TO.C,ST8*%
X162330000Y-45300000D03*
D10*
X164870000Y-45300000D03*
%TD*%
D13*
%TO.C,R19*%
X145100000Y-65362000D03*
X145100000Y-63838000D03*
%TD*%
D20*
%TO.C,C23*%
X148800000Y-49649998D03*
D19*
X148800000Y-46150001D03*
%TD*%
D14*
%TO.C,R18*%
X141438000Y-69899998D03*
X142962000Y-69899998D03*
%TD*%
D15*
%TO.C,C26*%
X161390267Y-62974994D03*
X164438267Y-62974994D03*
%TD*%
D24*
%TO.C,TP9*%
X153100000Y-60964998D03*
%TD*%
D15*
%TO.C,C27*%
X161375998Y-68999996D03*
X164423998Y-68999996D03*
%TD*%
D20*
%TO.C,C24*%
X157200000Y-49649998D03*
D19*
X157200000Y-46150001D03*
%TD*%
D24*
%TO.C,TP6*%
X163900000Y-50300000D03*
%TD*%
D15*
%TO.C,C30*%
X161376003Y-54200000D03*
X164424003Y-54200000D03*
%TD*%
D13*
%TO.C,R20*%
X145100000Y-59461998D03*
X145100000Y-57937998D03*
%TD*%
%TO.C,R16*%
X157100002Y-65811998D03*
X157100002Y-64287998D03*
%TD*%
%TO.C,R17*%
X157100002Y-59811998D03*
X157100002Y-58287998D03*
%TD*%
D25*
%TO.C,*%
X202250000Y-42800000D03*
%TD*%
%TO.C,*%
X205250000Y-145200000D03*
%TD*%
%TO.C,*%
X107050000Y-42800000D03*
X109150000Y-42800000D03*
X107800000Y-44900000D03*
X107800000Y-41300000D03*
X107800000Y-43400000D03*
X109900000Y-42800000D03*
X106300000Y-42800000D03*
X108400000Y-42800000D03*
X107800000Y-42050000D03*
X107800000Y-44150000D03*
X107800000Y-40550000D03*
X105550000Y-42800000D03*
%TD*%
%TO.C,*%
X201500000Y-42800000D03*
%TD*%
%TO.C,*%
X104500000Y-145200000D03*
%TD*%
%TO.C,*%
X100750000Y-145200000D03*
%TD*%
%TO.C,*%
X205250000Y-42800000D03*
%TD*%
%TO.C,*%
X170400000Y-42800000D03*
X171900000Y-42800000D03*
X167200000Y-44900000D03*
X169800000Y-44150000D03*
X165850000Y-42800000D03*
X166600000Y-42800000D03*
X169800000Y-44900000D03*
X167200000Y-44150000D03*
X169800000Y-43400000D03*
X165100000Y-42800000D03*
X167200000Y-43400000D03*
X168500000Y-42800000D03*
X171150000Y-42800000D03*
%TD*%
%TO.C,*%
X204500000Y-42800000D03*
%TD*%
%TO.C,*%
X102250000Y-42800000D03*
%TD*%
%TO.C,*%
X198200000Y-147450000D03*
X200450000Y-145200000D03*
X196850000Y-145200000D03*
X199700000Y-145200000D03*
X196100000Y-145200000D03*
X198200000Y-146700000D03*
X197600000Y-145200000D03*
X198200000Y-145950000D03*
X198950000Y-145200000D03*
X198200000Y-143100000D03*
X198200000Y-144600000D03*
X198200000Y-143850000D03*
%TD*%
%TO.C,*%
X203750000Y-145200000D03*
%TD*%
%TO.C,*%
X138800000Y-76500000D03*
X139400000Y-75200000D03*
X136200000Y-78400000D03*
X138800000Y-74600000D03*
X135600000Y-77800000D03*
X136200000Y-74600000D03*
X138800000Y-73850000D03*
X138800000Y-73100000D03*
X140900000Y-75200000D03*
X134850000Y-77800000D03*
X140900000Y-77800000D03*
X138800000Y-79150000D03*
X136200000Y-73850000D03*
X136200000Y-79900000D03*
X134100000Y-75200000D03*
X136200000Y-76500000D03*
X138800000Y-79900000D03*
X134850000Y-75200000D03*
X140150000Y-77800000D03*
X138800000Y-78400000D03*
X134100000Y-77800000D03*
X136200000Y-73100000D03*
X135600000Y-75200000D03*
X139400000Y-77800000D03*
X140150000Y-75200000D03*
X136200000Y-79150000D03*
%TD*%
%TO.C,*%
X203000000Y-42800000D03*
%TD*%
%TO.C,*%
X107800000Y-78400000D03*
X108400000Y-77800000D03*
X107800000Y-74600000D03*
X109150000Y-77800000D03*
X109900000Y-75200000D03*
X107800000Y-76500000D03*
X108400000Y-75200000D03*
X107800000Y-73850000D03*
X107800000Y-79900000D03*
X107800000Y-79150000D03*
X107800000Y-73100000D03*
X109900000Y-77800000D03*
X109150000Y-75200000D03*
%TD*%
%TO.C,*%
X103000000Y-145200000D03*
%TD*%
%TO.C,*%
X201500000Y-145200000D03*
%TD*%
%TO.C,*%
X138800000Y-108850000D03*
X134850000Y-112800000D03*
X140150000Y-110200000D03*
X134850000Y-110200000D03*
X136200000Y-109600000D03*
X136200000Y-114900000D03*
X136200000Y-111500000D03*
X134100000Y-112800000D03*
X139400000Y-112800000D03*
X138800000Y-111500000D03*
X140150000Y-112800000D03*
X138800000Y-108100000D03*
X140900000Y-112800000D03*
X136200000Y-113400000D03*
X135600000Y-110200000D03*
X136200000Y-108850000D03*
X135600000Y-112800000D03*
X134100000Y-110200000D03*
X140900000Y-110200000D03*
X138800000Y-114900000D03*
X138800000Y-113400000D03*
X136200000Y-108100000D03*
X139400000Y-110200000D03*
X138800000Y-109600000D03*
X138800000Y-114150000D03*
X136200000Y-114150000D03*
%TD*%
%TO.C,*%
X101500000Y-42800000D03*
%TD*%
%TO.C,*%
X166600000Y-145200000D03*
X167200000Y-144600000D03*
X167200000Y-143100000D03*
X165100000Y-145200000D03*
X169800000Y-143850000D03*
X171150000Y-145200000D03*
X171900000Y-145200000D03*
X167200000Y-143850000D03*
X170400000Y-145200000D03*
X169800000Y-143100000D03*
X168500000Y-145200000D03*
X165850000Y-145200000D03*
X169800000Y-144600000D03*
%TD*%
%TO.C,*%
X204500000Y-145200000D03*
%TD*%
%TO.C,*%
X102250000Y-145200000D03*
%TD*%
%TO.C,*%
X138800000Y-43400000D03*
X137500000Y-42800000D03*
X140900000Y-42800000D03*
X134850000Y-42800000D03*
X136200000Y-43400000D03*
X135600000Y-42800000D03*
X136200000Y-44150000D03*
X139400000Y-42800000D03*
X138800000Y-44150000D03*
X136200000Y-44900000D03*
X140150000Y-42800000D03*
X138800000Y-44900000D03*
X134100000Y-42800000D03*
%TD*%
%TO.C,*%
X203750000Y-42800000D03*
%TD*%
%TO.C,*%
X135600000Y-145200000D03*
X140900000Y-145200000D03*
X134850000Y-145200000D03*
X138800000Y-144600000D03*
X138800000Y-143850000D03*
X137500000Y-145200000D03*
X139400000Y-145200000D03*
X136200000Y-143100000D03*
X134100000Y-145200000D03*
X138800000Y-143100000D03*
X136200000Y-144600000D03*
X136200000Y-143850000D03*
X140150000Y-145200000D03*
%TD*%
D26*
%TO.C,*%
X196000000Y-35000000D03*
%TD*%
D25*
%TO.C,*%
X198200000Y-73100000D03*
X196850000Y-75200000D03*
X196100000Y-75200000D03*
X198200000Y-79900000D03*
X198200000Y-79150000D03*
X198200000Y-73850000D03*
X196850000Y-77800000D03*
X197600000Y-77800000D03*
X198200000Y-76500000D03*
X197600000Y-75200000D03*
X198200000Y-78400000D03*
X198200000Y-74600000D03*
X196100000Y-77800000D03*
%TD*%
%TO.C,*%
X101500000Y-145200000D03*
%TD*%
%TO.C,*%
X100750000Y-42800000D03*
%TD*%
%TO.C,*%
X171900000Y-77800000D03*
X169800000Y-79150000D03*
X169800000Y-73850000D03*
X165100000Y-75200000D03*
X167200000Y-73850000D03*
X171150000Y-77800000D03*
X167200000Y-73100000D03*
X170400000Y-75200000D03*
X166600000Y-75200000D03*
X170400000Y-77800000D03*
X165850000Y-77800000D03*
X171150000Y-75200000D03*
X167200000Y-78400000D03*
X167200000Y-74600000D03*
X169800000Y-76500000D03*
X167200000Y-79150000D03*
X166600000Y-77800000D03*
X167200000Y-76500000D03*
X165850000Y-75200000D03*
X169800000Y-79900000D03*
X169800000Y-78400000D03*
X171900000Y-75200000D03*
X167200000Y-79900000D03*
X169800000Y-74600000D03*
X169800000Y-73100000D03*
X165100000Y-77800000D03*
%TD*%
%TO.C,*%
X103750000Y-145200000D03*
%TD*%
D26*
%TO.C,*%
X110000000Y-35000000D03*
%TD*%
D25*
%TO.C,*%
X167200000Y-111500000D03*
X166600000Y-110200000D03*
X169800000Y-113400000D03*
X166600000Y-112800000D03*
X167200000Y-113400000D03*
X169800000Y-109600000D03*
X165100000Y-112800000D03*
X167200000Y-114900000D03*
X167200000Y-108100000D03*
X169800000Y-114150000D03*
X171900000Y-110200000D03*
X170400000Y-112800000D03*
X167200000Y-109600000D03*
X171150000Y-112800000D03*
X167200000Y-108850000D03*
X169800000Y-111500000D03*
X165850000Y-110200000D03*
X165850000Y-112800000D03*
X169800000Y-108850000D03*
X171900000Y-112800000D03*
X169800000Y-114900000D03*
X165100000Y-110200000D03*
X170400000Y-110200000D03*
X167200000Y-114150000D03*
X171150000Y-110200000D03*
X169800000Y-108100000D03*
%TD*%
%TO.C,*%
X202250000Y-145200000D03*
%TD*%
%TO.C,*%
X103750000Y-42800000D03*
%TD*%
%TO.C,*%
X198200000Y-42050000D03*
X198200000Y-41300000D03*
X198950000Y-42800000D03*
X196100000Y-42800000D03*
X200450000Y-42800000D03*
X196850000Y-42800000D03*
X198200000Y-44900000D03*
X199700000Y-42800000D03*
X198200000Y-43400000D03*
X197600000Y-42800000D03*
X198200000Y-40550000D03*
X198200000Y-44150000D03*
%TD*%
%TO.C,*%
X203000000Y-145200000D03*
%TD*%
%TO.C,*%
X107800000Y-113400000D03*
X109900000Y-112800000D03*
X109150000Y-112800000D03*
X109900000Y-110200000D03*
X109150000Y-110200000D03*
X108400000Y-110200000D03*
X107800000Y-114900000D03*
X107800000Y-108850000D03*
X108400000Y-112800000D03*
X107800000Y-108100000D03*
X107800000Y-111500000D03*
X107800000Y-114150000D03*
X107800000Y-109600000D03*
%TD*%
%TO.C,*%
X107800000Y-143850000D03*
X108400000Y-145200000D03*
X109150000Y-145200000D03*
X106300000Y-145200000D03*
X109900000Y-145200000D03*
X107800000Y-147450000D03*
X107800000Y-146700000D03*
X107800000Y-143100000D03*
X105550000Y-145200000D03*
X107800000Y-145950000D03*
X107050000Y-145200000D03*
X107800000Y-144600000D03*
%TD*%
%TO.C,*%
X103000000Y-42800000D03*
%TD*%
%TO.C,*%
X104500000Y-42800000D03*
%TD*%
%TO.C,*%
X198200000Y-111500000D03*
X196850000Y-112800000D03*
X198200000Y-108850000D03*
X196850000Y-110200000D03*
X197600000Y-112800000D03*
X196100000Y-112800000D03*
X197600000Y-110200000D03*
X196100000Y-110200000D03*
X198200000Y-113400000D03*
X198200000Y-109600000D03*
X198200000Y-108100000D03*
X198200000Y-114150000D03*
X198200000Y-114900000D03*
%TD*%
D20*
%TO.C,C1*%
X117800000Y-49649998D03*
D19*
X117800000Y-46150001D03*
%TD*%
D24*
%TO.C,TP3*%
X122100000Y-66964998D03*
%TD*%
%TO.C,TP5*%
X122100000Y-54965000D03*
%TD*%
D20*
%TO.C,C2*%
X126200000Y-49649998D03*
D19*
X126200000Y-46150001D03*
%TD*%
D24*
%TO.C,TP4*%
X122100000Y-60964998D03*
%TD*%
%TO.C,TP1*%
X132900000Y-50300000D03*
%TD*%
%TO.C,TP2*%
X111500000Y-49799998D03*
%TD*%
D15*
%TO.C,C3*%
X130390267Y-60174998D03*
X133438267Y-60174998D03*
%TD*%
%TO.C,C7*%
X130376003Y-57000002D03*
X133424003Y-57000002D03*
%TD*%
D13*
%TO.C,R5*%
X114100000Y-65362000D03*
X114100000Y-63838000D03*
%TD*%
D15*
%TO.C,C8*%
X130376003Y-54200000D03*
X133424003Y-54200000D03*
%TD*%
%TO.C,C5*%
X130375998Y-68999996D03*
X133423998Y-68999996D03*
%TD*%
D13*
%TO.C,R1*%
X125350000Y-70266998D03*
X125350000Y-68742998D03*
%TD*%
D11*
%TO.C,ST1*%
X131330000Y-45300000D03*
D10*
X133870000Y-45300000D03*
%TD*%
D13*
%TO.C,R3*%
X126100002Y-59811998D03*
X126100002Y-58287998D03*
%TD*%
%TO.C,R2*%
X126100002Y-65811998D03*
X126100002Y-64287998D03*
%TD*%
D15*
%TO.C,C6*%
X130375998Y-66199998D03*
X133423998Y-66199998D03*
%TD*%
D13*
%TO.C,R6*%
X114100000Y-59461998D03*
X114100000Y-57937998D03*
%TD*%
D20*
%TO.C,ST2*%
X133560000Y-72599998D03*
D19*
X131020000Y-72599998D03*
X128480000Y-72599998D03*
X125940000Y-72599998D03*
X123400000Y-72599998D03*
X120860000Y-72599998D03*
X118320000Y-72599998D03*
X115780000Y-72599998D03*
X113240000Y-72599998D03*
X110700000Y-72599998D03*
%TD*%
D14*
%TO.C,R4*%
X110438000Y-69899998D03*
X111962000Y-69899998D03*
%TD*%
D15*
%TO.C,C4*%
X130390267Y-62974994D03*
X133438267Y-62974994D03*
%TD*%
D20*
%TO.C,ST2*%
X133560000Y-107599998D03*
D19*
X131020000Y-107599998D03*
X128480000Y-107599998D03*
X125940000Y-107599998D03*
X123400000Y-107599998D03*
X120860000Y-107599998D03*
X118320000Y-107599998D03*
X115780000Y-107599998D03*
X113240000Y-107599998D03*
X110700000Y-107599998D03*
%TD*%
D21*
%TO.C,TP1*%
X123595417Y-85060072D03*
%TD*%
%TO.C,TP3*%
X125495416Y-85060072D03*
%TD*%
%TO.C,TP2*%
X121695416Y-85060072D03*
%TD*%
D11*
%TO.C,ST1*%
X128785417Y-80300000D03*
D10*
X131325417Y-80300000D03*
X133865417Y-80300000D03*
%TD*%
D20*
%TO.C,ST3*%
X114395316Y-79804903D03*
D19*
X116935316Y-79804903D03*
%TD*%
D14*
%TO.C,R4*%
X112266164Y-93399998D03*
X113790164Y-93399998D03*
%TD*%
%TO.C,C11*%
X117038417Y-93411757D03*
X115514417Y-93411757D03*
%TD*%
D22*
%TO.C,D3*%
X126645416Y-94699998D03*
X129045416Y-94699998D03*
%TD*%
%TO.C,D2*%
X132438000Y-94899998D03*
X132438000Y-97299998D03*
%TD*%
D13*
%TO.C,C6*%
X120100000Y-81362000D03*
X120100000Y-79838000D03*
%TD*%
D23*
%TO.C,IC1*%
X124445403Y-79770187D03*
X124445403Y-80720147D03*
X124445403Y-81670107D03*
X122045402Y-81670107D03*
X122045402Y-79770187D03*
%TD*%
D13*
%TO.C,L1*%
X112595416Y-87498073D03*
X112595416Y-89022073D03*
%TD*%
%TO.C,C4*%
X121695416Y-89698074D03*
X121695416Y-91222074D03*
%TD*%
D14*
%TO.C,R14*%
X112833417Y-91060073D03*
X114357417Y-91060073D03*
%TD*%
D13*
%TO.C,C13*%
X126400000Y-81062000D03*
X126400000Y-79538000D03*
%TD*%
D22*
%TO.C,D1*%
X134200000Y-100199998D03*
X131800000Y-100199998D03*
%TD*%
D10*
%TO.C,ST1*%
X133865544Y-115299779D03*
X131325544Y-115299779D03*
D11*
X128785544Y-115299779D03*
%TD*%
D19*
%TO.C,ST6*%
X120129544Y-114799777D03*
D20*
X122669544Y-114799777D03*
%TD*%
D19*
%TO.C,ST4*%
X109999544Y-132339777D03*
X109999544Y-129799777D03*
D20*
X109999544Y-127259777D03*
%TD*%
D19*
%TO.C,ST2*%
X116935542Y-114804779D03*
D20*
X114395542Y-114804779D03*
%TD*%
D19*
%TO.C,ST7*%
X119470000Y-143600000D03*
D20*
X116930000Y-143600000D03*
%TD*%
D19*
%TO.C,ST3*%
X109999544Y-124479779D03*
X109999544Y-121939779D03*
D20*
X109999544Y-119399779D03*
%TD*%
D19*
%TO.C,ST5*%
X109999544Y-140239777D03*
X109999544Y-137699777D03*
D20*
X109999544Y-135159777D03*
%TD*%
D18*
%TO.C,C9*%
X119999544Y-138223782D03*
X119999544Y-135175782D03*
%TD*%
%TO.C,C20*%
X122399542Y-125823779D03*
X122399542Y-122775779D03*
%TD*%
D14*
%TO.C,C2*%
X128737542Y-123099777D03*
X130261542Y-123099777D03*
%TD*%
%TO.C,R1*%
X130261542Y-124799777D03*
X128737542Y-124799777D03*
%TD*%
%TO.C,C21*%
X112037544Y-121999779D03*
X113561544Y-121999779D03*
%TD*%
D15*
%TO.C,C3*%
X129723542Y-127099777D03*
X126675542Y-127099777D03*
%TD*%
D14*
%TO.C,C18*%
X123961542Y-138299781D03*
X122437542Y-138299781D03*
%TD*%
%TO.C,R6*%
X125837544Y-135399782D03*
X127361544Y-135399782D03*
%TD*%
D13*
%TO.C,R5*%
X125899542Y-132237779D03*
X125899542Y-133761779D03*
%TD*%
D12*
%TO.C,D2*%
X118499542Y-126649779D03*
X118499542Y-131549780D03*
%TD*%
D14*
%TO.C,C22*%
X112037544Y-129799777D03*
X113561544Y-129799777D03*
%TD*%
D15*
%TO.C,C10*%
X119675542Y-140799779D03*
X122723542Y-140799779D03*
%TD*%
D13*
%TO.C,C15*%
X127599542Y-132237779D03*
X127599542Y-133761779D03*
%TD*%
D18*
%TO.C,C19*%
X122399545Y-127875781D03*
X122399545Y-130923781D03*
%TD*%
D17*
%TO.C,L2*%
X114899544Y-134249779D03*
X114899544Y-139349779D03*
%TD*%
D16*
%TO.C,IC3*%
X122249542Y-136254779D03*
X124149544Y-136254779D03*
X124149544Y-133744782D03*
X123199542Y-133744782D03*
X122249542Y-133744782D03*
%TD*%
D15*
%TO.C,C5*%
X131775542Y-127099777D03*
X134823542Y-127099777D03*
%TD*%
M02*
