M48
; DRILL file {KiCad 6.0.4-6f826c9f35~116~ubuntu20.04.1} date Sun 24 Apr 2022 04:06:50 PM CEST
; FORMAT={-:-/ absolute / metric / decimal}
; #@! TF.CreationDate,2022-04-24T16:06:50+02:00
; #@! TF.GenerationSoftware,Kicad,Pcbnew,6.0.4-6f826c9f35~116~ubuntu20.04.1
; #@! TF.FileFunction,Plated,1,2,PTH
FMAT,2
METRIC
; #@! TA.AperFunction,Plated,PTH,ViaDrill
T1C0.300
; #@! TA.AperFunction,Plated,PTH,ComponentDrill
T2C0.914
; #@! TA.AperFunction,Plated,PTH,ComponentDrill
T3C1.100
; #@! TA.AperFunction,Plated,PTH,ViaDrill
T4C2.000
; #@! TA.AperFunction,Plated,PTH,ComponentDrill
T5C2.000
%
G90
G05
T1
X108.8Y-48.2
X108.85Y-51.3
X108.85Y-54.3
X108.85Y-57.3
X108.85Y-60.3
X108.85Y-63.3
X108.85Y-66.3
X108.85Y-69.3
X108.9Y-117.1
X108.9Y-123.1
X108.9Y-141.1
X108.9Y-144.1
X108.9Y-84.0
X108.9Y-87.0
X108.9Y-90.0
X108.9Y-93.0
X108.9Y-96.0
X109.6Y-52.8
X109.6Y-55.8
X109.6Y-58.8
X109.6Y-61.8
X109.6Y-64.8
X109.6Y-67.8
X109.65Y-133.6
X109.65Y-142.6
X109.65Y-82.5
X109.65Y-91.5
X109.65Y-94.5
X109.65Y-103.5
X109.65Y-106.5
X110.2Y-95.8
X110.35Y-54.3
X110.35Y-57.3
X110.35Y-60.3
X110.35Y-63.3
X110.35Y-66.3
X110.4Y-144.1
X110.4Y-93.0
X110.4Y-105.0
X110.695Y-100.36
X110.895Y-86.86
X111.095Y-88.96
X111.1Y-52.8
X111.1Y-55.8
X111.1Y-58.8
X111.1Y-61.8
X111.1Y-64.8
X111.1Y-67.8
X111.15Y-133.6
X111.15Y-142.6
X111.15Y-82.5
X111.15Y-85.5
X111.15Y-103.5
X111.495Y-90.76
X111.85Y-54.3
X111.85Y-57.3
X111.85Y-60.3
X111.85Y-63.3
X111.85Y-66.3
X111.89Y-84.341
X111.9Y-117.1
X111.9Y-120.1
X111.9Y-132.1
X111.9Y-135.1
X111.9Y-144.1
X111.9Y-105.0
X112.495Y-100.36
X112.595Y-88.96
X112.6Y-43.8
X112.6Y-46.8
X112.6Y-52.8
X112.65Y-115.6
X112.65Y-133.6
X112.65Y-142.6
X112.65Y-79.5
X112.9Y-70.4
X113.0Y-58.4
X113.0Y-64.4
X113.3Y-118.6
X113.35Y-45.3
X113.4Y-144.1
X113.4Y-102.0
X113.795Y-86.86
X113.9Y-51.7
X114.1Y-43.8
X114.1Y-46.8
X114.15Y-142.6
X114.295Y-100.36
X114.395Y-91.06
X114.557Y-84.96
X114.7Y-50.6
X114.85Y-45.3
X114.85Y-48.3
X114.895Y-83.16
X114.9Y-126.1
X114.9Y-144.1
X115.5Y-93.4
X115.6Y-43.8
X115.6Y-46.8
X115.65Y-136.6
X115.65Y-142.6
X116.095Y-100.36
X116.35Y-45.3
X116.4Y-117.1
X116.4Y-123.1
X116.4Y-126.1
X116.4Y-81.0
X116.695Y-83.26
X117.0Y-64.3
X117.1Y-43.8
X117.15Y-124.6
X117.15Y-136.6
X117.3Y-70.3
X117.895Y-100.36
X117.9Y-117.1
X117.9Y-135.1
X117.9Y-58.3
X118.0Y-93.5
X118.295Y-85.414
X118.6Y-79.06
X118.6Y-43.8
X118.65Y-115.6
X118.65Y-118.6
X118.65Y-136.6
X118.65Y-94.5
X118.65Y-97.5
X119.1Y-123.4
X119.2Y-83.7
X119.35Y-45.3
X119.4Y-117.1
X119.4Y-96.0
X119.695Y-100.36
X120.0Y-79.8
X120.1Y-82.1
X120.1Y-43.8
X120.1Y-46.8
X120.15Y-118.6
X120.15Y-97.5
X120.2Y-122.6
X120.2Y-123.9
X120.85Y-45.3
X120.9Y-117.1
X120.9Y-129.1
X120.9Y-132.1
X120.9Y-99.0
X121.1Y-79.8
X121.6Y-43.8
X121.6Y-46.8
X121.65Y-121.6
X121.65Y-97.5
X121.65Y-100.5
X121.695Y-85.06
X121.695Y-88.36
X121.695Y-91.16
X121.7Y-124.3
X121.718Y-92.698
X122.0Y-104.2
X122.3Y-138.3
X122.35Y-45.3
X122.4Y-120.1
X122.4Y-84.0
X122.5Y-140.9
X122.6Y-142.7
X122.6Y-144.2
X122.695Y-100.36
X123.1Y-43.8
X123.1Y-46.8
X123.15Y-121.6
X123.15Y-82.5
X123.15Y-94.5
X123.2Y-116.7
X123.2Y-105.0
X123.245Y-80.72
X123.5Y-143.5
X123.595Y-85.06
X123.7Y-140.1
X123.85Y-45.3
X123.9Y-132.1
X123.9Y-87.0
X123.9Y-93.0
X124.2Y-127.2
X124.2Y-69.5
X124.3Y-79.7
X124.3Y-81.7
X124.4Y-105.8
X124.495Y-99.098
X124.495Y-100.36
X124.5Y-141.5
X124.5Y-142.7
X124.5Y-144.2
X124.6Y-85.8
X124.6Y-43.8
X124.6Y-46.8
X124.65Y-115.6
X124.65Y-88.5
X125.0Y-58.4
X125.0Y-64.4
X125.1Y-130.0
X125.3Y-128.2
X125.4Y-126.1
X125.4Y-84.0
X125.4Y-87.0
X125.4Y-90.0
X125.5Y-140.1
X125.5Y-143.5
X125.7Y-119.3
X125.775Y-96.039
X126.095Y-100.36
X126.1Y-43.8
X126.15Y-88.5
X126.3Y-131.1
X126.307Y-129.186
X126.4Y-82.2
X126.479Y-126.473
X126.5Y-141.5
X126.5Y-142.7
X126.5Y-144.2
X126.6Y-91.6
X126.8Y-114.4
X126.9Y-127.7
X126.9Y-84.0
X126.9Y-87.0
X126.9Y-90.0
X126.9Y-105.0
X127.3Y-118.0
X127.4Y-140.1
X127.4Y-143.5
X127.5Y-119.6
X127.6Y-121.4
X127.6Y-43.8
X127.6Y-46.8
X127.65Y-130.6
X128.0Y-85.2
X128.35Y-45.3
X128.4Y-141.1
X128.6Y-122.4
X129.033Y-94.66
X129.1Y-43.8
X129.1Y-46.8
X129.15Y-118.6
X129.15Y-139.6
X129.15Y-88.5
X129.15Y-91.5
X129.2Y-85.2
X129.3Y-128.0
X129.5Y-121.8
X129.5Y-126.3
X129.688Y-102.5
X129.85Y-45.3
X129.9Y-117.1
X129.9Y-141.1
X129.9Y-87.0
X129.9Y-90.0
X130.0Y-127.1
X130.495Y-94.66
X130.6Y-43.8
X130.6Y-46.8
X130.65Y-82.5
X130.65Y-85.5
X130.65Y-88.5
X130.65Y-91.5
X130.8Y-126.3
X130.8Y-128.0
X130.8Y-83.9
X131.0Y-119.2
X131.195Y-97.06
X131.2Y-121.8
X131.395Y-98.86
X131.4Y-141.1
X131.4Y-90.0
X131.6Y-127.1
X131.795Y-100.16
X131.795Y-101.56
X131.9Y-117.1
X132.15Y-88.5
X132.15Y-91.5
X132.2Y-126.3
X132.2Y-128.0
X132.3Y-47.9
X132.438Y-97.3
X132.7Y-121.3
X132.9Y-141.1
X132.9Y-87.0
X132.9Y-90.0
X132.9Y-93.0
X133.1Y-85.5
X133.2Y-52.6
X133.2Y-58.6
X133.2Y-64.6
X133.2Y-83.9
X133.4Y-46.9
X133.4Y-43.8
X133.65Y-82.5
X133.65Y-88.5
X133.65Y-91.5
X133.65Y-94.5
X133.962Y-97.808
X134.2Y-58.6
X134.2Y-64.6
X134.4Y-132.1
X134.4Y-135.1
X134.4Y-138.1
X134.4Y-141.1
X134.4Y-144.1
X134.5Y-47.9
X134.6Y-127.7
X134.6Y-101.5
X134.7Y-53.6
X134.7Y-55.6
X134.7Y-57.6
X134.7Y-59.6
X134.7Y-61.6
X134.7Y-63.6
X134.7Y-65.6
X134.7Y-67.6
X134.7Y-69.6
X135.0Y-126.5
X135.1Y-44.3
X135.1Y-46.3
X135.15Y-124.6
X135.15Y-130.6
X135.15Y-133.6
X135.15Y-136.6
X135.15Y-139.6
X135.15Y-142.6
X135.2Y-48.8
X135.2Y-52.6
X135.2Y-54.6
X135.2Y-56.6
X135.2Y-58.6
X135.2Y-60.6
X135.2Y-62.6
X135.2Y-64.6
X135.2Y-66.6
X135.2Y-68.6
X139.8Y-48.2
X139.85Y-51.3
X139.85Y-54.3
X139.85Y-57.3
X139.85Y-60.3
X139.85Y-63.3
X139.85Y-66.3
X139.85Y-69.3
X139.9Y-117.1
X139.9Y-123.1
X139.9Y-141.1
X139.9Y-144.1
X139.9Y-84.0
X139.9Y-87.0
X139.9Y-90.0
X139.9Y-93.0
X139.9Y-96.0
X140.6Y-52.8
X140.6Y-55.8
X140.6Y-58.8
X140.6Y-61.8
X140.6Y-64.8
X140.6Y-67.8
X140.65Y-133.6
X140.65Y-142.6
X140.65Y-82.5
X140.65Y-91.5
X140.65Y-94.5
X140.65Y-103.5
X140.65Y-106.5
X141.2Y-95.8
X141.35Y-54.3
X141.35Y-57.3
X141.35Y-60.3
X141.35Y-63.3
X141.35Y-66.3
X141.4Y-144.1
X141.4Y-93.0
X141.4Y-105.0
X141.695Y-100.36
X141.895Y-86.86
X142.095Y-88.96
X142.1Y-52.8
X142.1Y-55.8
X142.1Y-58.8
X142.1Y-61.8
X142.1Y-64.8
X142.1Y-67.8
X142.15Y-133.6
X142.15Y-142.6
X142.15Y-82.5
X142.15Y-85.5
X142.15Y-103.5
X142.495Y-90.76
X142.85Y-54.3
X142.85Y-57.3
X142.85Y-60.3
X142.85Y-63.3
X142.85Y-66.3
X142.89Y-84.341
X142.9Y-117.1
X142.9Y-120.1
X142.9Y-132.1
X142.9Y-135.1
X142.9Y-144.1
X142.9Y-105.0
X143.495Y-100.36
X143.595Y-88.96
X143.6Y-43.8
X143.6Y-46.8
X143.6Y-52.8
X143.65Y-115.6
X143.65Y-133.6
X143.65Y-142.6
X143.65Y-79.5
X143.9Y-70.4
X144.0Y-58.4
X144.0Y-64.4
X144.3Y-118.6
X144.35Y-45.3
X144.4Y-144.1
X144.4Y-102.0
X144.795Y-86.86
X144.9Y-51.7
X145.1Y-43.8
X145.1Y-46.8
X145.15Y-142.6
X145.295Y-100.36
X145.395Y-91.06
X145.557Y-84.96
X145.7Y-50.6
X145.85Y-45.3
X145.85Y-48.3
X145.895Y-83.16
X145.9Y-126.1
X145.9Y-144.1
X146.5Y-93.4
X146.6Y-43.8
X146.6Y-46.8
X146.65Y-136.6
X146.65Y-142.6
X147.095Y-100.36
X147.35Y-45.3
X147.4Y-117.1
X147.4Y-123.1
X147.4Y-126.1
X147.4Y-81.0
X147.695Y-83.26
X148.0Y-64.3
X148.1Y-43.8
X148.15Y-124.6
X148.15Y-136.6
X148.3Y-70.3
X148.895Y-100.36
X148.9Y-117.1
X148.9Y-135.1
X148.9Y-58.3
X149.0Y-93.5
X149.295Y-85.414
X149.6Y-79.06
X149.6Y-43.8
X149.65Y-115.6
X149.65Y-118.6
X149.65Y-136.6
X149.65Y-94.5
X149.65Y-97.5
X150.1Y-123.4
X150.2Y-83.7
X150.35Y-45.3
X150.4Y-117.1
X150.4Y-96.0
X150.695Y-100.36
X151.0Y-79.8
X151.1Y-82.1
X151.1Y-43.8
X151.1Y-46.8
X151.15Y-118.6
X151.15Y-97.5
X151.2Y-122.6
X151.2Y-123.9
X151.85Y-45.3
X151.9Y-117.1
X151.9Y-129.1
X151.9Y-132.1
X151.9Y-99.0
X152.1Y-79.8
X152.6Y-43.8
X152.6Y-46.8
X152.65Y-121.6
X152.65Y-97.5
X152.65Y-100.5
X152.695Y-85.06
X152.695Y-88.36
X152.695Y-91.16
X152.7Y-124.3
X152.718Y-92.698
X153.0Y-104.2
X153.3Y-138.3
X153.35Y-45.3
X153.4Y-120.1
X153.4Y-84.0
X153.5Y-140.9
X153.6Y-142.7
X153.6Y-144.2
X153.695Y-100.36
X154.1Y-43.8
X154.1Y-46.8
X154.15Y-121.6
X154.15Y-82.5
X154.15Y-94.5
X154.2Y-116.7
X154.2Y-105.0
X154.245Y-80.72
X154.5Y-143.5
X154.595Y-85.06
X154.7Y-140.1
X154.85Y-45.3
X154.9Y-132.1
X154.9Y-87.0
X154.9Y-93.0
X155.2Y-127.2
X155.2Y-69.5
X155.3Y-79.7
X155.3Y-81.7
X155.4Y-105.8
X155.495Y-99.098
X155.495Y-100.36
X155.5Y-141.5
X155.5Y-142.7
X155.5Y-144.2
X155.6Y-85.8
X155.6Y-43.8
X155.6Y-46.8
X155.65Y-115.6
X155.65Y-88.5
X156.0Y-58.4
X156.0Y-64.4
X156.1Y-130.0
X156.3Y-128.2
X156.4Y-126.1
X156.4Y-84.0
X156.4Y-87.0
X156.4Y-90.0
X156.5Y-140.1
X156.5Y-143.5
X156.7Y-119.3
X156.775Y-96.039
X157.095Y-100.36
X157.1Y-43.8
X157.15Y-88.5
X157.3Y-131.1
X157.307Y-129.186
X157.4Y-82.2
X157.479Y-126.473
X157.5Y-141.5
X157.5Y-142.7
X157.5Y-144.2
X157.6Y-91.6
X157.8Y-114.4
X157.9Y-127.7
X157.9Y-84.0
X157.9Y-87.0
X157.9Y-90.0
X157.9Y-105.0
X158.3Y-118.0
X158.4Y-140.1
X158.4Y-143.5
X158.5Y-119.6
X158.6Y-121.4
X158.6Y-43.8
X158.6Y-46.8
X158.65Y-130.6
X159.0Y-85.2
X159.35Y-45.3
X159.4Y-141.1
X159.6Y-122.4
X160.033Y-94.66
X160.1Y-43.8
X160.1Y-46.8
X160.15Y-118.6
X160.15Y-139.6
X160.15Y-88.5
X160.15Y-91.5
X160.2Y-85.2
X160.3Y-128.0
X160.5Y-121.8
X160.5Y-126.3
X160.688Y-102.5
X160.85Y-45.3
X160.9Y-117.1
X160.9Y-141.1
X160.9Y-87.0
X160.9Y-90.0
X161.0Y-127.1
X161.495Y-94.66
X161.6Y-43.8
X161.6Y-46.8
X161.65Y-82.5
X161.65Y-85.5
X161.65Y-88.5
X161.65Y-91.5
X161.8Y-126.3
X161.8Y-128.0
X161.8Y-83.9
X162.0Y-119.2
X162.195Y-97.06
X162.2Y-121.8
X162.395Y-98.86
X162.4Y-141.1
X162.4Y-90.0
X162.6Y-127.1
X162.795Y-100.16
X162.795Y-101.56
X162.9Y-117.1
X163.15Y-88.5
X163.15Y-91.5
X163.2Y-126.3
X163.2Y-128.0
X163.3Y-47.9
X163.438Y-97.3
X163.7Y-121.3
X163.9Y-141.1
X163.9Y-87.0
X163.9Y-90.0
X163.9Y-93.0
X164.1Y-85.5
X164.2Y-52.6
X164.2Y-58.6
X164.2Y-64.6
X164.2Y-83.9
X164.4Y-46.9
X164.4Y-43.8
X164.65Y-82.5
X164.65Y-88.5
X164.65Y-91.5
X164.65Y-94.5
X164.962Y-97.808
X165.2Y-58.6
X165.2Y-64.6
X165.4Y-132.1
X165.4Y-135.1
X165.4Y-138.1
X165.4Y-141.1
X165.4Y-144.1
X165.5Y-47.9
X165.6Y-127.7
X165.6Y-101.5
X165.7Y-53.6
X165.7Y-55.6
X165.7Y-57.6
X165.7Y-59.6
X165.7Y-61.6
X165.7Y-63.6
X165.7Y-65.6
X165.7Y-67.6
X165.7Y-69.6
X166.0Y-126.5
X166.1Y-44.3
X166.1Y-46.3
X166.15Y-124.6
X166.15Y-130.6
X166.15Y-133.6
X166.15Y-136.6
X166.15Y-139.6
X166.15Y-142.6
X166.2Y-48.8
X166.2Y-52.6
X166.2Y-54.6
X166.2Y-56.6
X166.2Y-58.6
X166.2Y-60.6
X166.2Y-62.6
X166.2Y-64.6
X166.2Y-66.6
X166.2Y-68.6
X170.8Y-48.2
X170.85Y-51.3
X170.85Y-54.3
X170.85Y-57.3
X170.85Y-60.3
X170.85Y-63.3
X170.85Y-66.3
X170.85Y-69.3
X170.9Y-117.1
X170.9Y-123.1
X170.9Y-141.1
X170.9Y-144.1
X170.9Y-84.0
X170.9Y-87.0
X170.9Y-90.0
X170.9Y-93.0
X170.9Y-96.0
X171.6Y-52.8
X171.6Y-55.8
X171.6Y-58.8
X171.6Y-61.8
X171.6Y-64.8
X171.6Y-67.8
X171.65Y-133.6
X171.65Y-142.6
X171.65Y-82.5
X171.65Y-91.5
X171.65Y-94.5
X171.65Y-103.5
X171.65Y-106.5
X172.2Y-95.8
X172.35Y-54.3
X172.35Y-57.3
X172.35Y-60.3
X172.35Y-63.3
X172.35Y-66.3
X172.4Y-144.1
X172.4Y-93.0
X172.4Y-105.0
X172.695Y-100.36
X172.895Y-86.86
X173.095Y-88.96
X173.1Y-52.8
X173.1Y-55.8
X173.1Y-58.8
X173.1Y-61.8
X173.1Y-64.8
X173.1Y-67.8
X173.15Y-133.6
X173.15Y-142.6
X173.15Y-82.5
X173.15Y-85.5
X173.15Y-103.5
X173.495Y-90.76
X173.85Y-54.3
X173.85Y-57.3
X173.85Y-60.3
X173.85Y-63.3
X173.85Y-66.3
X173.89Y-84.341
X173.9Y-117.1
X173.9Y-120.1
X173.9Y-132.1
X173.9Y-135.1
X173.9Y-144.1
X173.9Y-105.0
X174.495Y-100.36
X174.595Y-88.96
X174.6Y-43.8
X174.6Y-46.8
X174.6Y-52.8
X174.65Y-115.6
X174.65Y-133.6
X174.65Y-142.6
X174.65Y-79.5
X174.9Y-70.4
X175.0Y-58.4
X175.0Y-64.4
X175.3Y-118.6
X175.35Y-45.3
X175.4Y-144.1
X175.4Y-102.0
X175.795Y-86.86
X175.9Y-51.7
X176.1Y-43.8
X176.1Y-46.8
X176.15Y-142.6
X176.295Y-100.36
X176.395Y-91.06
X176.557Y-84.96
X176.7Y-50.6
X176.85Y-45.3
X176.85Y-48.3
X176.895Y-83.16
X176.9Y-126.1
X176.9Y-144.1
X177.5Y-93.4
X177.6Y-43.8
X177.6Y-46.8
X177.65Y-136.6
X177.65Y-142.6
X178.095Y-100.36
X178.35Y-45.3
X178.4Y-117.1
X178.4Y-123.1
X178.4Y-126.1
X178.4Y-81.0
X178.695Y-83.26
X179.0Y-64.3
X179.1Y-43.8
X179.15Y-124.6
X179.15Y-136.6
X179.3Y-70.3
X179.895Y-100.36
X179.9Y-117.1
X179.9Y-135.1
X179.9Y-58.3
X180.0Y-93.5
X180.295Y-85.414
X180.6Y-79.06
X180.6Y-43.8
X180.65Y-115.6
X180.65Y-118.6
X180.65Y-136.6
X180.65Y-94.5
X180.65Y-97.5
X181.1Y-123.4
X181.2Y-83.7
X181.35Y-45.3
X181.4Y-117.1
X181.4Y-96.0
X181.695Y-100.36
X182.0Y-79.8
X182.1Y-82.1
X182.1Y-43.8
X182.1Y-46.8
X182.15Y-118.6
X182.15Y-97.5
X182.2Y-122.6
X182.2Y-123.9
X182.85Y-45.3
X182.9Y-117.1
X182.9Y-129.1
X182.9Y-132.1
X182.9Y-99.0
X183.1Y-79.8
X183.6Y-43.8
X183.6Y-46.8
X183.65Y-121.6
X183.65Y-97.5
X183.65Y-100.5
X183.695Y-85.06
X183.695Y-88.36
X183.695Y-91.16
X183.7Y-124.3
X183.718Y-92.698
X184.0Y-104.2
X184.3Y-138.3
X184.35Y-45.3
X184.4Y-120.1
X184.4Y-84.0
X184.5Y-140.9
X184.6Y-142.7
X184.6Y-144.2
X184.695Y-100.36
X185.1Y-43.8
X185.1Y-46.8
X185.15Y-121.6
X185.15Y-82.5
X185.15Y-94.5
X185.2Y-116.7
X185.2Y-105.0
X185.245Y-80.72
X185.5Y-143.5
X185.595Y-85.06
X185.7Y-140.1
X185.85Y-45.3
X185.9Y-132.1
X185.9Y-87.0
X185.9Y-93.0
X186.2Y-127.2
X186.2Y-69.5
X186.3Y-79.7
X186.3Y-81.7
X186.4Y-105.8
X186.495Y-99.098
X186.495Y-100.36
X186.5Y-141.5
X186.5Y-142.7
X186.5Y-144.2
X186.6Y-85.8
X186.6Y-43.8
X186.6Y-46.8
X186.65Y-115.6
X186.65Y-88.5
X187.0Y-58.4
X187.0Y-64.4
X187.1Y-130.0
X187.3Y-128.2
X187.4Y-126.1
X187.4Y-84.0
X187.4Y-87.0
X187.4Y-90.0
X187.5Y-140.1
X187.5Y-143.5
X187.7Y-119.3
X187.775Y-96.039
X188.095Y-100.36
X188.1Y-43.8
X188.15Y-88.5
X188.3Y-131.1
X188.307Y-129.186
X188.4Y-82.2
X188.479Y-126.473
X188.5Y-141.5
X188.5Y-142.7
X188.5Y-144.2
X188.6Y-91.6
X188.8Y-114.4
X188.9Y-127.7
X188.9Y-84.0
X188.9Y-87.0
X188.9Y-90.0
X188.9Y-105.0
X189.3Y-118.0
X189.4Y-140.1
X189.4Y-143.5
X189.5Y-119.6
X189.6Y-121.4
X189.6Y-43.8
X189.6Y-46.8
X189.65Y-130.6
X190.0Y-85.2
X190.35Y-45.3
X190.4Y-141.1
X190.6Y-122.4
X191.033Y-94.66
X191.1Y-43.8
X191.1Y-46.8
X191.15Y-118.6
X191.15Y-139.6
X191.15Y-88.5
X191.15Y-91.5
X191.2Y-85.2
X191.3Y-128.0
X191.5Y-121.8
X191.5Y-126.3
X191.688Y-102.5
X191.85Y-45.3
X191.9Y-117.1
X191.9Y-141.1
X191.9Y-87.0
X191.9Y-90.0
X192.0Y-127.1
X192.495Y-94.66
X192.6Y-43.8
X192.6Y-46.8
X192.65Y-82.5
X192.65Y-85.5
X192.65Y-88.5
X192.65Y-91.5
X192.8Y-126.3
X192.8Y-128.0
X192.8Y-83.9
X193.0Y-119.2
X193.195Y-97.06
X193.2Y-121.8
X193.395Y-98.86
X193.4Y-141.1
X193.4Y-90.0
X193.6Y-127.1
X193.795Y-100.16
X193.795Y-101.56
X193.9Y-117.1
X194.15Y-88.5
X194.15Y-91.5
X194.2Y-126.3
X194.2Y-128.0
X194.3Y-47.9
X194.438Y-97.3
X194.7Y-121.3
X194.9Y-141.1
X194.9Y-87.0
X194.9Y-90.0
X194.9Y-93.0
X195.1Y-85.5
X195.2Y-52.6
X195.2Y-58.6
X195.2Y-64.6
X195.2Y-83.9
X195.4Y-46.9
X195.4Y-43.8
X195.65Y-82.5
X195.65Y-88.5
X195.65Y-91.5
X195.65Y-94.5
X195.962Y-97.808
X196.2Y-58.6
X196.2Y-64.6
X196.4Y-132.1
X196.4Y-135.1
X196.4Y-138.1
X196.4Y-141.1
X196.4Y-144.1
X196.5Y-47.9
X196.6Y-127.7
X196.6Y-101.5
X196.7Y-53.6
X196.7Y-55.6
X196.7Y-57.6
X196.7Y-59.6
X196.7Y-61.6
X196.7Y-63.6
X196.7Y-65.6
X196.7Y-67.6
X196.7Y-69.6
X197.0Y-126.5
X197.1Y-44.3
X197.1Y-46.3
X197.15Y-124.6
X197.15Y-130.6
X197.15Y-133.6
X197.15Y-136.6
X197.15Y-139.6
X197.15Y-142.6
X197.2Y-48.8
X197.2Y-52.6
X197.2Y-54.6
X197.2Y-56.6
X197.2Y-58.6
X197.2Y-60.6
X197.2Y-62.6
X197.2Y-64.6
X197.2Y-66.6
X197.2Y-68.6
T2
X110.0Y-119.4
X110.0Y-121.94
X110.0Y-124.48
X110.0Y-127.26
X110.0Y-129.8
X110.0Y-132.34
X110.0Y-135.16
X110.0Y-137.7
X110.0Y-140.24
X110.7Y-72.6
X110.7Y-107.6
X113.24Y-72.6
X113.24Y-107.6
X114.395Y-79.805
X114.396Y-114.805
X115.78Y-72.6
X115.78Y-107.6
X116.93Y-143.6
X116.935Y-79.805
X116.936Y-114.805
X117.8Y-46.15
X117.8Y-49.65
X118.32Y-72.6
X118.32Y-107.6
X119.47Y-143.6
X120.13Y-114.8
X120.86Y-72.6
X120.86Y-107.6
X122.67Y-114.8
X123.4Y-72.6
X123.4Y-107.6
X125.94Y-72.6
X125.94Y-107.6
X126.2Y-46.15
X126.2Y-49.65
X128.48Y-72.6
X128.48Y-107.6
X131.02Y-72.6
X131.02Y-107.6
X133.56Y-72.6
X133.56Y-107.6
X141.0Y-119.4
X141.0Y-121.94
X141.0Y-124.48
X141.0Y-127.26
X141.0Y-129.8
X141.0Y-132.34
X141.0Y-135.16
X141.0Y-137.7
X141.0Y-140.24
X141.7Y-72.6
X141.7Y-107.6
X144.24Y-72.6
X144.24Y-107.6
X145.395Y-79.805
X145.396Y-114.805
X146.78Y-72.6
X146.78Y-107.6
X147.93Y-143.6
X147.935Y-79.805
X147.936Y-114.805
X148.8Y-46.15
X148.8Y-49.65
X149.32Y-72.6
X149.32Y-107.6
X150.47Y-143.6
X151.13Y-114.8
X151.86Y-72.6
X151.86Y-107.6
X153.67Y-114.8
X154.4Y-72.6
X154.4Y-107.6
X156.94Y-72.6
X156.94Y-107.6
X157.2Y-46.15
X157.2Y-49.65
X159.48Y-72.6
X159.48Y-107.6
X162.02Y-72.6
X162.02Y-107.6
X164.56Y-72.6
X164.56Y-107.6
X172.0Y-119.4
X172.0Y-121.94
X172.0Y-124.48
X172.0Y-127.26
X172.0Y-129.8
X172.0Y-132.34
X172.0Y-135.16
X172.0Y-137.7
X172.0Y-140.24
X172.7Y-72.6
X172.7Y-107.6
X175.24Y-72.6
X175.24Y-107.6
X176.395Y-79.805
X176.396Y-114.805
X177.78Y-72.6
X177.78Y-107.6
X178.93Y-143.6
X178.935Y-79.805
X178.936Y-114.805
X179.8Y-46.15
X179.8Y-49.65
X180.32Y-72.6
X180.32Y-107.6
X181.47Y-143.6
X182.13Y-114.8
X182.86Y-72.6
X182.86Y-107.6
X184.67Y-114.8
X185.4Y-72.6
X185.4Y-107.6
X187.94Y-72.6
X187.94Y-107.6
X188.2Y-46.15
X188.2Y-49.65
X190.48Y-72.6
X190.48Y-107.6
X193.02Y-72.6
X193.02Y-107.6
X195.56Y-72.6
X195.56Y-107.6
T3
X128.785Y-80.3
X128.786Y-115.3
X131.325Y-80.3
X131.326Y-115.3
X131.33Y-45.3
X133.865Y-80.3
X133.866Y-115.3
X133.87Y-45.3
X159.785Y-80.3
X159.786Y-115.3
X162.325Y-80.3
X162.326Y-115.3
X162.33Y-45.3
X164.865Y-80.3
X164.866Y-115.3
X164.87Y-45.3
X190.785Y-80.3
X190.786Y-115.3
X193.325Y-80.3
X193.326Y-115.3
X193.33Y-45.3
X195.865Y-80.3
X195.866Y-115.3
X195.87Y-45.3
T4
X110.3Y-45.3
X110.3Y-80.3
X110.3Y-115.3
X117.795Y-88.86
X128.095Y-98.46
X141.3Y-45.3
X141.3Y-80.3
X141.3Y-115.3
X148.795Y-88.86
X159.095Y-98.46
X172.3Y-45.3
X172.3Y-80.3
X172.3Y-115.3
X179.795Y-88.86
X190.095Y-98.46
T5
X111.5Y-49.8
X122.1Y-54.965
X122.1Y-60.965
X122.1Y-66.965
X132.9Y-50.3
X142.5Y-49.8
X153.1Y-54.965
X153.1Y-60.965
X153.1Y-66.965
X163.9Y-50.3
X173.5Y-49.8
X184.1Y-54.965
X184.1Y-60.965
X184.1Y-66.965
X194.9Y-50.3
T0
M30
