M48
; DRILL file {KiCad 6.0.4-6f826c9f35~116~ubuntu20.04.1} date Sun 24 Apr 2022 04:06:50 PM CEST
; FORMAT={-:-/ absolute / metric / decimal}
; #@! TF.CreationDate,2022-04-24T16:06:50+02:00
; #@! TF.GenerationSoftware,Kicad,Pcbnew,6.0.4-6f826c9f35~116~ubuntu20.04.1
; #@! TF.FileFunction,NonPlated,1,2,NPTH
FMAT,2
METRIC
; #@! TA.AperFunction,NonPlated,NPTH,ComponentDrill
T1C0.500
; #@! TA.AperFunction,NonPlated,NPTH,ComponentDrill
T2C4.000
%
G90
G05
T1
X100.75Y-42.8
X100.75Y-145.2
X101.5Y-42.8
X101.5Y-145.2
X102.25Y-42.8
X102.25Y-145.2
X103.0Y-42.8
X103.0Y-145.2
X103.75Y-42.8
X103.75Y-145.2
X104.5Y-42.8
X104.5Y-145.2
X105.55Y-42.8
X105.55Y-145.2
X106.3Y-42.8
X106.3Y-145.2
X107.05Y-42.8
X107.05Y-145.2
X107.8Y-40.55
X107.8Y-41.3
X107.8Y-42.05
X107.8Y-43.4
X107.8Y-44.15
X107.8Y-44.9
X107.8Y-73.1
X107.8Y-73.85
X107.8Y-74.6
X107.8Y-76.5
X107.8Y-78.4
X107.8Y-79.15
X107.8Y-79.9
X107.8Y-108.1
X107.8Y-108.85
X107.8Y-109.6
X107.8Y-111.5
X107.8Y-113.4
X107.8Y-114.15
X107.8Y-114.9
X107.8Y-143.1
X107.8Y-143.85
X107.8Y-144.6
X107.8Y-145.95
X107.8Y-146.7
X107.8Y-147.45
X108.4Y-42.8
X108.4Y-75.2
X108.4Y-77.8
X108.4Y-110.2
X108.4Y-112.8
X108.4Y-145.2
X109.15Y-42.8
X109.15Y-75.2
X109.15Y-77.8
X109.15Y-110.2
X109.15Y-112.8
X109.15Y-145.2
X109.9Y-42.8
X109.9Y-75.2
X109.9Y-77.8
X109.9Y-110.2
X109.9Y-112.8
X109.9Y-145.2
X134.1Y-42.8
X134.1Y-75.2
X134.1Y-77.8
X134.1Y-110.2
X134.1Y-112.8
X134.1Y-145.2
X134.85Y-42.8
X134.85Y-75.2
X134.85Y-77.8
X134.85Y-110.2
X134.85Y-112.8
X134.85Y-145.2
X135.6Y-42.8
X135.6Y-75.2
X135.6Y-77.8
X135.6Y-110.2
X135.6Y-112.8
X135.6Y-145.2
X136.2Y-43.4
X136.2Y-44.15
X136.2Y-44.9
X136.2Y-73.1
X136.2Y-73.85
X136.2Y-74.6
X136.2Y-76.5
X136.2Y-78.4
X136.2Y-79.15
X136.2Y-79.9
X136.2Y-108.1
X136.2Y-108.85
X136.2Y-109.6
X136.2Y-111.5
X136.2Y-113.4
X136.2Y-114.15
X136.2Y-114.9
X136.2Y-143.1
X136.2Y-143.85
X136.2Y-144.6
X137.5Y-42.8
X137.5Y-145.2
X138.8Y-43.4
X138.8Y-44.15
X138.8Y-44.9
X138.8Y-73.1
X138.8Y-73.85
X138.8Y-74.6
X138.8Y-76.5
X138.8Y-78.4
X138.8Y-79.15
X138.8Y-79.9
X138.8Y-108.1
X138.8Y-108.85
X138.8Y-109.6
X138.8Y-111.5
X138.8Y-113.4
X138.8Y-114.15
X138.8Y-114.9
X138.8Y-143.1
X138.8Y-143.85
X138.8Y-144.6
X139.4Y-42.8
X139.4Y-75.2
X139.4Y-77.8
X139.4Y-110.2
X139.4Y-112.8
X139.4Y-145.2
X140.15Y-42.8
X140.15Y-75.2
X140.15Y-77.8
X140.15Y-110.2
X140.15Y-112.8
X140.15Y-145.2
X140.9Y-42.8
X140.9Y-75.2
X140.9Y-77.8
X140.9Y-110.2
X140.9Y-112.8
X140.9Y-145.2
X165.1Y-42.8
X165.1Y-75.2
X165.1Y-77.8
X165.1Y-110.2
X165.1Y-112.8
X165.1Y-145.2
X165.85Y-42.8
X165.85Y-75.2
X165.85Y-77.8
X165.85Y-110.2
X165.85Y-112.8
X165.85Y-145.2
X166.6Y-42.8
X166.6Y-75.2
X166.6Y-77.8
X166.6Y-110.2
X166.6Y-112.8
X166.6Y-145.2
X167.2Y-43.4
X167.2Y-44.15
X167.2Y-44.9
X167.2Y-73.1
X167.2Y-73.85
X167.2Y-74.6
X167.2Y-76.5
X167.2Y-78.4
X167.2Y-79.15
X167.2Y-79.9
X167.2Y-108.1
X167.2Y-108.85
X167.2Y-109.6
X167.2Y-111.5
X167.2Y-113.4
X167.2Y-114.15
X167.2Y-114.9
X167.2Y-143.1
X167.2Y-143.85
X167.2Y-144.6
X168.5Y-42.8
X168.5Y-145.2
X169.8Y-43.4
X169.8Y-44.15
X169.8Y-44.9
X169.8Y-73.1
X169.8Y-73.85
X169.8Y-74.6
X169.8Y-76.5
X169.8Y-78.4
X169.8Y-79.15
X169.8Y-79.9
X169.8Y-108.1
X169.8Y-108.85
X169.8Y-109.6
X169.8Y-111.5
X169.8Y-113.4
X169.8Y-114.15
X169.8Y-114.9
X169.8Y-143.1
X169.8Y-143.85
X169.8Y-144.6
X170.4Y-42.8
X170.4Y-75.2
X170.4Y-77.8
X170.4Y-110.2
X170.4Y-112.8
X170.4Y-145.2
X171.15Y-42.8
X171.15Y-75.2
X171.15Y-77.8
X171.15Y-110.2
X171.15Y-112.8
X171.15Y-145.2
X171.9Y-42.8
X171.9Y-75.2
X171.9Y-77.8
X171.9Y-110.2
X171.9Y-112.8
X171.9Y-145.2
X196.1Y-42.8
X196.1Y-75.2
X196.1Y-77.8
X196.1Y-110.2
X196.1Y-112.8
X196.1Y-145.2
X196.85Y-42.8
X196.85Y-75.2
X196.85Y-77.8
X196.85Y-110.2
X196.85Y-112.8
X196.85Y-145.2
X197.6Y-42.8
X197.6Y-75.2
X197.6Y-77.8
X197.6Y-110.2
X197.6Y-112.8
X197.6Y-145.2
X198.2Y-40.55
X198.2Y-41.3
X198.2Y-42.05
X198.2Y-43.4
X198.2Y-44.15
X198.2Y-44.9
X198.2Y-73.1
X198.2Y-73.85
X198.2Y-74.6
X198.2Y-76.5
X198.2Y-78.4
X198.2Y-79.15
X198.2Y-79.9
X198.2Y-108.1
X198.2Y-108.85
X198.2Y-109.6
X198.2Y-111.5
X198.2Y-113.4
X198.2Y-114.15
X198.2Y-114.9
X198.2Y-143.1
X198.2Y-143.85
X198.2Y-144.6
X198.2Y-145.95
X198.2Y-146.7
X198.2Y-147.45
X198.95Y-42.8
X198.95Y-145.2
X199.7Y-42.8
X199.7Y-145.2
X200.45Y-42.8
X200.45Y-145.2
X201.5Y-42.8
X201.5Y-145.2
X202.25Y-42.8
X202.25Y-145.2
X203.0Y-42.8
X203.0Y-145.2
X203.75Y-42.8
X203.75Y-145.2
X204.5Y-42.8
X204.5Y-145.2
X205.25Y-42.8
X205.25Y-145.2
T2
X110.0Y-35.0
X196.0Y-35.0
T0
M30
