%TF.GenerationSoftware,KiCad,Pcbnew,6.0.4-6f826c9f35~116~ubuntu20.04.1*%
%TF.CreationDate,2022-04-24T16:07:36+02:00*%
%TF.ProjectId,crawl_esc_pan,63726177-6c5f-4657-9363-5f70616e2e6b,rev?*%
%TF.SameCoordinates,Original*%
%TF.FileFunction,Legend,Top*%
%TF.FilePolarity,Positive*%
%FSLAX46Y46*%
G04 Gerber Fmt 4.6, Leading zero omitted, Abs format (unit mm)*
G04 Created by KiCad (PCBNEW 6.0.4-6f826c9f35~116~ubuntu20.04.1) date 2022-04-24 16:07:36*
%MOMM*%
%LPD*%
G01*
G04 APERTURE LIST*
G04 Aperture macros list*
%AMRoundRect*
0 Rectangle with rounded corners*
0 $1 Rounding radius*
0 $2 $3 $4 $5 $6 $7 $8 $9 X,Y pos of 4 corners*
0 Add a 4 corners polygon primitive as box body*
4,1,4,$2,$3,$4,$5,$6,$7,$8,$9,$2,$3,0*
0 Add four circle primitives for the rounded corners*
1,1,$1+$1,$2,$3*
1,1,$1+$1,$4,$5*
1,1,$1+$1,$6,$7*
1,1,$1+$1,$8,$9*
0 Add four rect primitives between the rounded corners*
20,1,$1+$1,$2,$3,$4,$5,0*
20,1,$1+$1,$4,$5,$6,$7,0*
20,1,$1+$1,$6,$7,$8,$9,0*
20,1,$1+$1,$8,$9,$2,$3,0*%
G04 Aperture macros list end*
%ADD10C,0.000000*%
%ADD11C,0.150000*%
%ADD12C,0.200000*%
%ADD13C,0.127000*%
%ADD14C,0.254000*%
%ADD15R,0.762000X1.016000*%
%ADD16R,1.600000X3.000000*%
%ADD17R,6.700000X6.700000*%
%ADD18R,3.810000X2.794000*%
%ADD19C,2.000000*%
%ADD20R,2.000000X2.000000*%
%ADD21R,1.193800X2.006600*%
%ADD22R,1.016000X0.762000*%
%ADD23C,1.600200*%
%ADD24R,1.600200X1.600200*%
%ADD25R,4.700000X3.750000*%
%ADD26R,0.850000X1.050000*%
%ADD27R,0.850000X1.450000*%
%ADD28R,2.006600X1.193800*%
%ADD29R,1.425000X1.760000*%
%ADD30RoundRect,0.056250X-0.678750X-0.168750X0.678750X-0.168750X0.678750X0.168750X-0.678750X0.168750X0*%
%ADD31R,2.200000X2.700000*%
%ADD32RoundRect,0.067500X-0.347500X-0.067500X0.347500X-0.067500X0.347500X0.067500X-0.347500X0.067500X0*%
%ADD33RoundRect,0.067500X0.067500X-0.347500X0.067500X0.347500X-0.067500X0.347500X-0.067500X-0.347500X0*%
%ADD34RoundRect,0.067500X0.347500X0.067500X-0.347500X0.067500X-0.347500X-0.067500X0.347500X-0.067500X0*%
%ADD35RoundRect,0.067500X-0.067500X0.347500X-0.067500X-0.347500X0.067500X-0.347500X0.067500X0.347500X0*%
%ADD36R,2.600000X2.600000*%
%ADD37R,0.600000X0.300000*%
%ADD38R,0.300000X0.600000*%
%ADD39R,3.450000X3.450000*%
%ADD40O,4.300000X3.500000*%
%ADD41R,1.450000X0.850000*%
%ADD42R,1.050000X0.850000*%
%ADD43R,3.750000X4.700000*%
%ADD44RoundRect,0.750000X-0.750000X-8.500000X0.750000X-8.500000X0.750000X8.500000X-0.750000X8.500000X0*%
%ADD45C,0.500000*%
%ADD46C,4.000000*%
G04 APERTURE END LIST*
D10*
G36*
X188322610Y-130344481D02*
G01*
X185274610Y-130344481D01*
X185274610Y-129709481D01*
X188322610Y-129709481D01*
X188322610Y-130344481D01*
G37*
G36*
X189973669Y-137454889D02*
G01*
X183623669Y-137454889D01*
X183623669Y-136311889D01*
X189973669Y-136311889D01*
X189973669Y-137454889D01*
G37*
G36*
X188322623Y-138090270D02*
G01*
X185274623Y-138090270D01*
X185274623Y-137455270D01*
X188322623Y-137455270D01*
X188322623Y-138090270D01*
G37*
G36*
X157322610Y-130344481D02*
G01*
X154274610Y-130344481D01*
X154274610Y-129709481D01*
X157322610Y-129709481D01*
X157322610Y-130344481D01*
G37*
G36*
X158973669Y-137454889D02*
G01*
X152623669Y-137454889D01*
X152623669Y-136311889D01*
X158973669Y-136311889D01*
X158973669Y-137454889D01*
G37*
G36*
X157322623Y-138090270D02*
G01*
X154274623Y-138090270D01*
X154274623Y-137455270D01*
X157322623Y-137455270D01*
X157322623Y-138090270D01*
G37*
G36*
X126322623Y-138090270D02*
G01*
X123274623Y-138090270D01*
X123274623Y-137455270D01*
X126322623Y-137455270D01*
X126322623Y-138090270D01*
G37*
G36*
X127973669Y-137454889D02*
G01*
X121623669Y-137454889D01*
X121623669Y-136311889D01*
X127973669Y-136311889D01*
X127973669Y-137454889D01*
G37*
G36*
X126322610Y-130344481D02*
G01*
X123274610Y-130344481D01*
X123274610Y-129709481D01*
X126322610Y-129709481D01*
X126322610Y-130344481D01*
G37*
D11*
%TO.C,4*%
X172741906Y-59927855D02*
X172741906Y-60774521D01*
X172439525Y-59444045D02*
X172137144Y-60351188D01*
X172923335Y-60351188D01*
%TO.C,3*%
X195276668Y-60004523D02*
X196062859Y-60004523D01*
X195639525Y-60488333D01*
X195820954Y-60488333D01*
X195941906Y-60548809D01*
X196002382Y-60609285D01*
X196062859Y-60730238D01*
X196062859Y-61032619D01*
X196002382Y-61153571D01*
X195941906Y-61214047D01*
X195820954Y-61274523D01*
X195458097Y-61274523D01*
X195337144Y-61214047D01*
X195276668Y-61153571D01*
%TO.C,2*%
X141137144Y-59625474D02*
X141197621Y-59564998D01*
X141318573Y-59504521D01*
X141620954Y-59504521D01*
X141741906Y-59564998D01*
X141802382Y-59625474D01*
X141862859Y-59746426D01*
X141862859Y-59867378D01*
X141802382Y-60048807D01*
X141076668Y-60774521D01*
X141862859Y-60774521D01*
%TO.C,1*%
X165062859Y-61274523D02*
X164337144Y-61274523D01*
X164700002Y-61274523D02*
X164700002Y-60004523D01*
X164579049Y-60185952D01*
X164458097Y-60306904D01*
X164337144Y-60367380D01*
%TO.C,*%
D12*
%TO.C,R62*%
X190102542Y-119637777D02*
X192896542Y-119637777D01*
X190102542Y-119637777D02*
X190102542Y-121161777D01*
X190102542Y-121161777D02*
X192896542Y-121161777D01*
X192896542Y-119637777D02*
X192896542Y-121161777D01*
%TO.C,IC13*%
X182699542Y-123449777D02*
G75*
G03*
X182699542Y-123449777I-100000J0D01*
G01*
D13*
X175349542Y-126435777D02*
X175349542Y-125799779D01*
X175349542Y-125799779D02*
X181849545Y-125799779D01*
X181849545Y-126435777D02*
X181849545Y-125799779D01*
%TO.C,D12*%
X183624542Y-137455777D02*
X183624542Y-130343777D01*
X183624542Y-137455777D02*
X189974542Y-137455777D01*
X189974542Y-137455777D02*
X189974542Y-130343777D01*
X183624542Y-130343777D02*
X189974542Y-130343777D01*
%TO.C,ST25*%
X189515544Y-114537779D02*
X190023544Y-114029779D01*
X190023544Y-114029779D02*
X196627544Y-114029779D01*
X189515544Y-116061779D02*
X189515544Y-114537779D01*
X189515544Y-116061779D02*
X190023544Y-116569779D01*
X190023544Y-116569779D02*
X196627544Y-116569779D01*
X196627544Y-114029779D02*
X197135544Y-114537779D01*
X196627544Y-116569779D02*
X197135544Y-116061779D01*
X197135544Y-116061779D02*
X197135544Y-114537779D01*
D12*
%TO.C,C96*%
X197712542Y-128369777D02*
X197712542Y-125829777D01*
X192886542Y-125829777D02*
X194283542Y-125829777D01*
X192886542Y-128369777D02*
X194283542Y-128369777D01*
X196315542Y-125829777D02*
X197712542Y-125829777D01*
X196315542Y-128369777D02*
X197712542Y-128369777D01*
X192886542Y-128369777D02*
X192886542Y-125829777D01*
%TO.C,C100*%
X186937542Y-125396777D02*
X186937542Y-124507777D01*
X188461542Y-123491777D02*
X188461542Y-122602777D01*
X186937542Y-122602777D02*
X188461542Y-122602777D01*
X188461542Y-125396777D02*
X188461542Y-124507777D01*
X186937542Y-123491777D02*
X186937542Y-122602777D01*
X186937542Y-125396777D02*
X188461542Y-125396777D01*
D13*
%TO.C,ST29*%
X172761544Y-141509777D02*
X173269544Y-141001777D01*
X170729544Y-141001777D02*
X170729544Y-134397777D01*
X171237544Y-133889777D02*
X172761544Y-133889777D01*
X173269544Y-141001777D02*
X173269544Y-134397777D01*
X170729544Y-134397777D02*
X171237544Y-133889777D01*
X171237544Y-141509777D02*
X172761544Y-141509777D01*
X172761544Y-133889777D02*
X173269544Y-134397777D01*
X170729544Y-141001777D02*
X171237544Y-141509777D01*
%TO.C,ST30*%
X185304544Y-113529777D02*
X185939544Y-114164777D01*
X180859544Y-115434777D02*
X181494544Y-116069777D01*
X185939544Y-115434777D02*
X185939544Y-114164777D01*
X180859544Y-114164777D02*
X181494544Y-113529777D01*
X181494544Y-113529777D02*
X185304544Y-113529777D01*
X180859544Y-115434777D02*
X180859544Y-114164777D01*
X181494544Y-116069777D02*
X185304544Y-116069777D01*
X185304544Y-116069777D02*
X185939544Y-115434777D01*
D12*
%TO.C,Q21*%
X195199542Y-128599777D02*
G75*
G03*
X195199542Y-128599777I-100000J0D01*
G01*
D13*
X190649542Y-135099777D02*
X190649542Y-130099777D01*
X195749542Y-135099777D02*
X195749542Y-130099777D01*
D12*
%TO.C,C99*%
X195261542Y-121896777D02*
X195261542Y-121007777D01*
X193737542Y-119991777D02*
X193737542Y-119102777D01*
X193737542Y-121896777D02*
X195261542Y-121896777D01*
X193737542Y-119102777D02*
X195261542Y-119102777D01*
X195261542Y-119991777D02*
X195261542Y-119102777D01*
X193737542Y-121896777D02*
X193737542Y-121007777D01*
%TO.C,C108*%
X187529544Y-144312779D02*
X187529544Y-142915779D01*
X190069544Y-144312779D02*
X190069544Y-142915779D01*
X187529544Y-140883779D02*
X187529544Y-139486779D01*
X187529544Y-144312779D02*
X190069544Y-144312779D01*
X190069544Y-140883779D02*
X190069544Y-139486779D01*
X187529544Y-139486779D02*
X190069544Y-139486779D01*
%TO.C,IC14*%
X189659542Y-121359780D02*
G75*
G03*
X189659542Y-121359780I-100000J0D01*
G01*
D13*
X190599542Y-122364779D02*
X193599542Y-122364779D01*
X190599542Y-125434781D02*
X193599542Y-125434781D01*
D12*
%TO.C,C109*%
X184829544Y-139486779D02*
X187369544Y-139486779D01*
X184829544Y-140883779D02*
X184829544Y-139486779D01*
X184829544Y-144312779D02*
X187369544Y-144312779D01*
X184829544Y-144312779D02*
X184829544Y-142915779D01*
X187369544Y-144312779D02*
X187369544Y-142915779D01*
X187369544Y-140883779D02*
X187369544Y-139486779D01*
%TO.C,C93*%
X196861542Y-121791777D02*
X196861542Y-120902777D01*
X195337542Y-123696777D02*
X195337542Y-122807777D01*
X195337542Y-120902777D02*
X196861542Y-120902777D01*
X195337542Y-123696777D02*
X196861542Y-123696777D01*
X195337542Y-121791777D02*
X195337542Y-120902777D01*
X196861542Y-123696777D02*
X196861542Y-122807777D01*
D11*
%TO.C,L7*%
X190599542Y-144099780D02*
X190599542Y-137099779D01*
X190599542Y-144099780D02*
X197599544Y-144099780D01*
X197599544Y-144099780D02*
X197599544Y-137099779D01*
X190599542Y-137099779D02*
X197599544Y-137099779D01*
D13*
%TO.C,ST27*%
X172761544Y-118129779D02*
X173269544Y-118637779D01*
X171237544Y-118129779D02*
X172761544Y-118129779D01*
X170729544Y-125241779D02*
X171237544Y-125749779D01*
X171237544Y-125749779D02*
X172761544Y-125749779D01*
X170729544Y-125241779D02*
X170729544Y-118637779D01*
X173269544Y-125241779D02*
X173269544Y-118637779D01*
X172761544Y-125749779D02*
X173269544Y-125241779D01*
X170729544Y-118637779D02*
X171237544Y-118129779D01*
%TO.C,ST26*%
X180205542Y-115439779D02*
X180205542Y-114169779D01*
X179570542Y-113534779D02*
X180205542Y-114169779D01*
X179570542Y-116074779D02*
X180205542Y-115439779D01*
X175125542Y-115439779D02*
X175760542Y-116074779D01*
X175125542Y-114169779D02*
X175760542Y-113534779D01*
X175125542Y-115439779D02*
X175125542Y-114169779D01*
X175760542Y-113534779D02*
X179570542Y-113534779D01*
X175760542Y-116074779D02*
X179570542Y-116074779D01*
D12*
%TO.C,C105*%
X178496544Y-121561777D02*
X178496544Y-120037777D01*
X175702544Y-121561777D02*
X176591544Y-121561777D01*
X175702544Y-120037777D02*
X176591544Y-120037777D01*
X177607544Y-120037777D02*
X178496544Y-120037777D01*
X177607544Y-121561777D02*
X178496544Y-121561777D01*
X175702544Y-121561777D02*
X175702544Y-120037777D01*
%TO.C,R64*%
X185602542Y-122361777D02*
X185602542Y-120837777D01*
X188396542Y-122361777D02*
X185602542Y-122361777D01*
X188396542Y-122361777D02*
X188396542Y-120837777D01*
X188396542Y-120837777D02*
X185602542Y-120837777D01*
%TO.C,C98*%
X187786542Y-125829777D02*
X189183542Y-125829777D01*
X192612542Y-128369777D02*
X192612542Y-125829777D01*
X187786542Y-128369777D02*
X189183542Y-128369777D01*
X191215542Y-128369777D02*
X192612542Y-128369777D01*
X191215542Y-125829777D02*
X192612542Y-125829777D01*
X187786542Y-128369777D02*
X187786542Y-125829777D01*
D13*
%TO.C,ST31*%
X182105000Y-144870000D02*
X178295000Y-144870000D01*
X182105000Y-142330000D02*
X178295000Y-142330000D01*
X178295000Y-142330000D02*
X177660000Y-142965000D01*
X177660000Y-142965000D02*
X177660000Y-144235000D01*
X182740000Y-142965000D02*
X182105000Y-142330000D01*
X178295000Y-144870000D02*
X177660000Y-144235000D01*
X182740000Y-142965000D02*
X182740000Y-144235000D01*
X182740000Y-144235000D02*
X182105000Y-144870000D01*
%TO.C,ST28*%
X170729544Y-133101777D02*
X171237544Y-133609777D01*
X172761544Y-125989777D02*
X173269544Y-126497777D01*
X170729544Y-133101777D02*
X170729544Y-126497777D01*
X172761544Y-133609777D02*
X173269544Y-133101777D01*
X171237544Y-133609777D02*
X172761544Y-133609777D01*
X171237544Y-125989777D02*
X172761544Y-125989777D01*
X173269544Y-133101777D02*
X173269544Y-126497777D01*
X170729544Y-126497777D02*
X171237544Y-125989777D01*
D12*
%TO.C,C104*%
X178802542Y-121561777D02*
X179691542Y-121561777D01*
X178802542Y-121561777D02*
X178802542Y-120037777D01*
X178802542Y-120037777D02*
X179691542Y-120037777D01*
X181596542Y-121561777D02*
X181596542Y-120037777D01*
X180707542Y-121561777D02*
X181596542Y-121561777D01*
X180707542Y-120037777D02*
X181596542Y-120037777D01*
%TO.C,C103*%
X176569542Y-138283779D02*
X176569542Y-136886779D01*
X174029542Y-138283779D02*
X174029542Y-136886779D01*
X176569542Y-141712779D02*
X176569542Y-140315779D01*
X174029542Y-141712779D02*
X176569542Y-141712779D01*
X174029542Y-141712779D02*
X174029542Y-140315779D01*
X174029542Y-136886779D02*
X176569542Y-136886779D01*
%TO.C,R63*%
X185137544Y-122602777D02*
X186661544Y-122602777D01*
X186661544Y-125396777D02*
X186661544Y-122602777D01*
X185137544Y-125396777D02*
X186661544Y-125396777D01*
X185137544Y-125396777D02*
X185137544Y-122602777D01*
%TO.C,C106*%
X179115542Y-119869777D02*
X180512542Y-119869777D01*
X175686542Y-117329777D02*
X177083542Y-117329777D01*
X180512542Y-119869777D02*
X180512542Y-117329777D01*
X175686542Y-119869777D02*
X175686542Y-117329777D01*
X179115542Y-117329777D02*
X180512542Y-117329777D01*
X175686542Y-119869777D02*
X177083542Y-119869777D01*
%TO.C,R56*%
X159102542Y-119637777D02*
X161896542Y-119637777D01*
X159102542Y-119637777D02*
X159102542Y-121161777D01*
X159102542Y-121161777D02*
X161896542Y-121161777D01*
X161896542Y-119637777D02*
X161896542Y-121161777D01*
%TO.C,IC10*%
X151699542Y-123449777D02*
G75*
G03*
X151699542Y-123449777I-100000J0D01*
G01*
D13*
X144349542Y-126435777D02*
X144349542Y-125799779D01*
X144349542Y-125799779D02*
X150849545Y-125799779D01*
X150849545Y-126435777D02*
X150849545Y-125799779D01*
%TO.C,D10*%
X152624542Y-137455777D02*
X152624542Y-130343777D01*
X152624542Y-137455777D02*
X158974542Y-137455777D01*
X158974542Y-137455777D02*
X158974542Y-130343777D01*
X152624542Y-130343777D02*
X158974542Y-130343777D01*
%TO.C,ST18*%
X158515544Y-114537779D02*
X159023544Y-114029779D01*
X159023544Y-114029779D02*
X165627544Y-114029779D01*
X158515544Y-116061779D02*
X158515544Y-114537779D01*
X158515544Y-116061779D02*
X159023544Y-116569779D01*
X159023544Y-116569779D02*
X165627544Y-116569779D01*
X165627544Y-114029779D02*
X166135544Y-114537779D01*
X165627544Y-116569779D02*
X166135544Y-116061779D01*
X166135544Y-116061779D02*
X166135544Y-114537779D01*
D12*
%TO.C,C74*%
X166712542Y-128369777D02*
X166712542Y-125829777D01*
X161886542Y-125829777D02*
X163283542Y-125829777D01*
X161886542Y-128369777D02*
X163283542Y-128369777D01*
X165315542Y-125829777D02*
X166712542Y-125829777D01*
X165315542Y-128369777D02*
X166712542Y-128369777D01*
X161886542Y-128369777D02*
X161886542Y-125829777D01*
%TO.C,C78*%
X155937542Y-125396777D02*
X155937542Y-124507777D01*
X157461542Y-123491777D02*
X157461542Y-122602777D01*
X155937542Y-122602777D02*
X157461542Y-122602777D01*
X157461542Y-125396777D02*
X157461542Y-124507777D01*
X155937542Y-123491777D02*
X155937542Y-122602777D01*
X155937542Y-125396777D02*
X157461542Y-125396777D01*
D13*
%TO.C,ST22*%
X141761544Y-141509777D02*
X142269544Y-141001777D01*
X139729544Y-141001777D02*
X139729544Y-134397777D01*
X140237544Y-133889777D02*
X141761544Y-133889777D01*
X142269544Y-141001777D02*
X142269544Y-134397777D01*
X139729544Y-134397777D02*
X140237544Y-133889777D01*
X140237544Y-141509777D02*
X141761544Y-141509777D01*
X141761544Y-133889777D02*
X142269544Y-134397777D01*
X139729544Y-141001777D02*
X140237544Y-141509777D01*
%TO.C,ST23*%
X154304544Y-113529777D02*
X154939544Y-114164777D01*
X149859544Y-115434777D02*
X150494544Y-116069777D01*
X154939544Y-115434777D02*
X154939544Y-114164777D01*
X149859544Y-114164777D02*
X150494544Y-113529777D01*
X150494544Y-113529777D02*
X154304544Y-113529777D01*
X149859544Y-115434777D02*
X149859544Y-114164777D01*
X150494544Y-116069777D02*
X154304544Y-116069777D01*
X154304544Y-116069777D02*
X154939544Y-115434777D01*
D12*
%TO.C,Q20*%
X164199542Y-128599777D02*
G75*
G03*
X164199542Y-128599777I-100000J0D01*
G01*
D13*
X159649542Y-135099777D02*
X159649542Y-130099777D01*
X164749542Y-135099777D02*
X164749542Y-130099777D01*
D12*
%TO.C,C77*%
X164261542Y-121896777D02*
X164261542Y-121007777D01*
X162737542Y-119991777D02*
X162737542Y-119102777D01*
X162737542Y-121896777D02*
X164261542Y-121896777D01*
X162737542Y-119102777D02*
X164261542Y-119102777D01*
X164261542Y-119991777D02*
X164261542Y-119102777D01*
X162737542Y-121896777D02*
X162737542Y-121007777D01*
%TO.C,C86*%
X156529544Y-144312779D02*
X156529544Y-142915779D01*
X159069544Y-144312779D02*
X159069544Y-142915779D01*
X156529544Y-140883779D02*
X156529544Y-139486779D01*
X156529544Y-144312779D02*
X159069544Y-144312779D01*
X159069544Y-140883779D02*
X159069544Y-139486779D01*
X156529544Y-139486779D02*
X159069544Y-139486779D01*
%TO.C,IC11*%
X158659542Y-121359780D02*
G75*
G03*
X158659542Y-121359780I-100000J0D01*
G01*
D13*
X159599542Y-122364779D02*
X162599542Y-122364779D01*
X159599542Y-125434781D02*
X162599542Y-125434781D01*
D12*
%TO.C,C87*%
X153829544Y-139486779D02*
X156369544Y-139486779D01*
X153829544Y-140883779D02*
X153829544Y-139486779D01*
X153829544Y-144312779D02*
X156369544Y-144312779D01*
X153829544Y-144312779D02*
X153829544Y-142915779D01*
X156369544Y-144312779D02*
X156369544Y-142915779D01*
X156369544Y-140883779D02*
X156369544Y-139486779D01*
%TO.C,C71*%
X165861542Y-121791777D02*
X165861542Y-120902777D01*
X164337542Y-123696777D02*
X164337542Y-122807777D01*
X164337542Y-120902777D02*
X165861542Y-120902777D01*
X164337542Y-123696777D02*
X165861542Y-123696777D01*
X164337542Y-121791777D02*
X164337542Y-120902777D01*
X165861542Y-123696777D02*
X165861542Y-122807777D01*
D11*
%TO.C,L5*%
X159599542Y-144099780D02*
X159599542Y-137099779D01*
X159599542Y-144099780D02*
X166599544Y-144099780D01*
X166599544Y-144099780D02*
X166599544Y-137099779D01*
X159599542Y-137099779D02*
X166599544Y-137099779D01*
D13*
%TO.C,ST20*%
X141761544Y-118129779D02*
X142269544Y-118637779D01*
X140237544Y-118129779D02*
X141761544Y-118129779D01*
X139729544Y-125241779D02*
X140237544Y-125749779D01*
X140237544Y-125749779D02*
X141761544Y-125749779D01*
X139729544Y-125241779D02*
X139729544Y-118637779D01*
X142269544Y-125241779D02*
X142269544Y-118637779D01*
X141761544Y-125749779D02*
X142269544Y-125241779D01*
X139729544Y-118637779D02*
X140237544Y-118129779D01*
%TO.C,ST19*%
X149205542Y-115439779D02*
X149205542Y-114169779D01*
X148570542Y-113534779D02*
X149205542Y-114169779D01*
X148570542Y-116074779D02*
X149205542Y-115439779D01*
X144125542Y-115439779D02*
X144760542Y-116074779D01*
X144125542Y-114169779D02*
X144760542Y-113534779D01*
X144125542Y-115439779D02*
X144125542Y-114169779D01*
X144760542Y-113534779D02*
X148570542Y-113534779D01*
X144760542Y-116074779D02*
X148570542Y-116074779D01*
D12*
%TO.C,C83*%
X147496544Y-121561777D02*
X147496544Y-120037777D01*
X144702544Y-121561777D02*
X145591544Y-121561777D01*
X144702544Y-120037777D02*
X145591544Y-120037777D01*
X146607544Y-120037777D02*
X147496544Y-120037777D01*
X146607544Y-121561777D02*
X147496544Y-121561777D01*
X144702544Y-121561777D02*
X144702544Y-120037777D01*
%TO.C,R58*%
X154602542Y-122361777D02*
X154602542Y-120837777D01*
X157396542Y-122361777D02*
X154602542Y-122361777D01*
X157396542Y-122361777D02*
X157396542Y-120837777D01*
X157396542Y-120837777D02*
X154602542Y-120837777D01*
%TO.C,C76*%
X156786542Y-125829777D02*
X158183542Y-125829777D01*
X161612542Y-128369777D02*
X161612542Y-125829777D01*
X156786542Y-128369777D02*
X158183542Y-128369777D01*
X160215542Y-128369777D02*
X161612542Y-128369777D01*
X160215542Y-125829777D02*
X161612542Y-125829777D01*
X156786542Y-128369777D02*
X156786542Y-125829777D01*
D13*
%TO.C,ST24*%
X151105000Y-144870000D02*
X147295000Y-144870000D01*
X151105000Y-142330000D02*
X147295000Y-142330000D01*
X147295000Y-142330000D02*
X146660000Y-142965000D01*
X146660000Y-142965000D02*
X146660000Y-144235000D01*
X151740000Y-142965000D02*
X151105000Y-142330000D01*
X147295000Y-144870000D02*
X146660000Y-144235000D01*
X151740000Y-142965000D02*
X151740000Y-144235000D01*
X151740000Y-144235000D02*
X151105000Y-144870000D01*
%TO.C,ST21*%
X139729544Y-133101777D02*
X140237544Y-133609777D01*
X141761544Y-125989777D02*
X142269544Y-126497777D01*
X139729544Y-133101777D02*
X139729544Y-126497777D01*
X141761544Y-133609777D02*
X142269544Y-133101777D01*
X140237544Y-133609777D02*
X141761544Y-133609777D01*
X140237544Y-125989777D02*
X141761544Y-125989777D01*
X142269544Y-133101777D02*
X142269544Y-126497777D01*
X139729544Y-126497777D02*
X140237544Y-125989777D01*
D12*
%TO.C,C82*%
X147802542Y-121561777D02*
X148691542Y-121561777D01*
X147802542Y-121561777D02*
X147802542Y-120037777D01*
X147802542Y-120037777D02*
X148691542Y-120037777D01*
X150596542Y-121561777D02*
X150596542Y-120037777D01*
X149707542Y-121561777D02*
X150596542Y-121561777D01*
X149707542Y-120037777D02*
X150596542Y-120037777D01*
%TO.C,C81*%
X145569542Y-138283779D02*
X145569542Y-136886779D01*
X143029542Y-138283779D02*
X143029542Y-136886779D01*
X145569542Y-141712779D02*
X145569542Y-140315779D01*
X143029542Y-141712779D02*
X145569542Y-141712779D01*
X143029542Y-141712779D02*
X143029542Y-140315779D01*
X143029542Y-136886779D02*
X145569542Y-136886779D01*
%TO.C,R57*%
X154137544Y-122602777D02*
X155661544Y-122602777D01*
X155661544Y-125396777D02*
X155661544Y-122602777D01*
X154137544Y-125396777D02*
X155661544Y-125396777D01*
X154137544Y-125396777D02*
X154137544Y-122602777D01*
%TO.C,C84*%
X148115542Y-119869777D02*
X149512542Y-119869777D01*
X144686542Y-117329777D02*
X146083542Y-117329777D01*
X149512542Y-119869777D02*
X149512542Y-117329777D01*
X144686542Y-119869777D02*
X144686542Y-117329777D01*
X148115542Y-117329777D02*
X149512542Y-117329777D01*
X144686542Y-119869777D02*
X146083542Y-119869777D01*
%TO.C,C64*%
X176703416Y-83922073D02*
X177592416Y-83922073D01*
X177592416Y-83922073D02*
X177592416Y-82398073D01*
X176703416Y-82398073D02*
X177592416Y-82398073D01*
X174798416Y-83922073D02*
X174798416Y-82398073D01*
X174798416Y-82398073D02*
X175687416Y-82398073D01*
X174798416Y-83922073D02*
X175687416Y-83922073D01*
%TO.C,R42*%
X179457416Y-85357074D02*
X179457416Y-82563074D01*
X177933416Y-85357074D02*
X179457416Y-85357074D01*
X177933416Y-82563074D02*
X179457416Y-82563074D01*
X177933416Y-85357074D02*
X177933416Y-82563074D01*
%TO.C,C56*%
X194780174Y-84569998D02*
X194780174Y-82029998D01*
X189954174Y-84569998D02*
X191351174Y-84569998D01*
X193383174Y-84569998D02*
X194780174Y-84569998D01*
X189954174Y-84569998D02*
X189954174Y-82029998D01*
X193383174Y-82029998D02*
X194780174Y-82029998D01*
X189954174Y-82029998D02*
X191351174Y-82029998D01*
%TO.C,C55*%
X196216000Y-84929998D02*
X197613000Y-84929998D01*
X192787000Y-87469998D02*
X192787000Y-84929998D01*
X192787000Y-87469998D02*
X194184000Y-87469998D01*
X192787000Y-84929998D02*
X194184000Y-84929998D01*
X197613000Y-87469998D02*
X197613000Y-84929998D01*
X196216000Y-87469998D02*
X197613000Y-87469998D01*
%TO.C,C59*%
X181330000Y-80584000D02*
X181330000Y-79187000D01*
X183870000Y-80584000D02*
X183870000Y-79187000D01*
X181330000Y-79187000D02*
X183870000Y-79187000D01*
X183870000Y-84013000D02*
X183870000Y-82616000D01*
X181330000Y-84013000D02*
X181330000Y-82616000D01*
X181330000Y-84013000D02*
X183870000Y-84013000D01*
D13*
%TO.C,ST16*%
X196195000Y-108869998D02*
X196830000Y-108234998D01*
X171176000Y-108234998D02*
X171176000Y-106964998D01*
X196830000Y-108234998D02*
X196830000Y-106964998D01*
X171176000Y-106964998D02*
X171811000Y-106329998D01*
X171811000Y-108869998D02*
X196195000Y-108869998D01*
X196195000Y-106329998D02*
X196830000Y-106964998D01*
X171811000Y-106329998D02*
X196195000Y-106329998D01*
X171176000Y-108234998D02*
X171811000Y-108869998D01*
D12*
%TO.C,C62*%
X182933416Y-91452073D02*
X182933416Y-90563073D01*
X182933416Y-90563073D02*
X184457416Y-90563073D01*
X182933416Y-93357073D02*
X182933416Y-92468073D01*
X182933416Y-93357073D02*
X184457416Y-93357073D01*
X184457416Y-91452073D02*
X184457416Y-90563073D01*
X184457416Y-93357073D02*
X184457416Y-92468073D01*
%TO.C,R43*%
X171438000Y-95163072D02*
X172962000Y-95163072D01*
X172962000Y-97957072D02*
X172962000Y-95163072D01*
X171438000Y-97957072D02*
X171438000Y-95163072D01*
X171438000Y-97957072D02*
X172962000Y-97957072D01*
D13*
%TO.C,IC9*%
X192135417Y-96760074D02*
X192135417Y-96420072D01*
X188055415Y-100500074D02*
X188395417Y-100500074D01*
X191795415Y-96420072D02*
X192135417Y-96420072D01*
X192135417Y-100500074D02*
X192135417Y-100160072D01*
X191795415Y-100500074D02*
X192135417Y-100500074D01*
X188055415Y-96760074D02*
X188055415Y-96420072D01*
X188055415Y-96420072D02*
X188395417Y-96420072D01*
X188055415Y-100500074D02*
X188055415Y-100160072D01*
D12*
X187195417Y-96960074D02*
G75*
G03*
X187195417Y-96960074I-100000J0D01*
G01*
%TO.C,R48*%
X175533415Y-97957072D02*
X177057415Y-97957072D01*
X175533415Y-97957072D02*
X175533415Y-95163072D01*
X177057415Y-97957072D02*
X177057415Y-95163072D01*
X175533415Y-95163072D02*
X177057415Y-95163072D01*
%TO.C,C68*%
X193033416Y-100352073D02*
X193033416Y-99463073D01*
X194557416Y-100352073D02*
X194557416Y-99463073D01*
X194557416Y-102257073D02*
X194557416Y-101368073D01*
X193033416Y-102257073D02*
X193033416Y-101368073D01*
X193033416Y-102257073D02*
X194557416Y-102257073D01*
X193033416Y-99463073D02*
X194557416Y-99463073D01*
%TO.C,C70*%
X190398417Y-95422073D02*
X191287417Y-95422073D01*
X190398417Y-95422073D02*
X190398417Y-93898073D01*
X192303417Y-93898073D02*
X193192417Y-93898073D01*
X193192417Y-95422073D02*
X193192417Y-93898073D01*
X192303417Y-95422073D02*
X193192417Y-95422073D01*
X190398417Y-93898073D02*
X191287417Y-93898073D01*
%TO.C,C66*%
X185733415Y-101257073D02*
X185733415Y-100368073D01*
X187257415Y-99352073D02*
X187257415Y-98463073D01*
X185733415Y-101257073D02*
X187257415Y-101257073D01*
X185733415Y-99352073D02*
X185733415Y-98463073D01*
X187257415Y-101257073D02*
X187257415Y-100368073D01*
X185733415Y-98463073D02*
X187257415Y-98463073D01*
%TO.C,R51*%
X173733416Y-101057071D02*
X175257416Y-101057071D01*
X173733416Y-101057071D02*
X173733416Y-98263071D01*
X175257416Y-101057071D02*
X175257416Y-98263071D01*
X173733416Y-98263071D02*
X175257416Y-98263071D01*
%TO.C,R53*%
X180933415Y-101057071D02*
X182457415Y-101057071D01*
X180933415Y-101057071D02*
X180933415Y-98263071D01*
X180933415Y-98263071D02*
X182457415Y-98263071D01*
X182457415Y-101057071D02*
X182457415Y-98263071D01*
%TO.C,R50*%
X175257416Y-97957072D02*
X175257416Y-95163072D01*
X173733416Y-97957072D02*
X173733416Y-95163072D01*
X173733416Y-95163072D02*
X175257416Y-95163072D01*
X173733416Y-97957072D02*
X175257416Y-97957072D01*
%TO.C,C63*%
X174303415Y-89722072D02*
X175192415Y-89722072D01*
X172398415Y-88198072D02*
X173287415Y-88198072D01*
X172398415Y-89722072D02*
X172398415Y-88198072D01*
X175192415Y-89722072D02*
X175192415Y-88198072D01*
X174303415Y-88198072D02*
X175192415Y-88198072D01*
X172398415Y-89722072D02*
X173287415Y-89722072D01*
%TO.C,R45*%
X179133416Y-98263071D02*
X180657416Y-98263071D01*
X180657416Y-101057071D02*
X180657416Y-98263071D01*
X179133416Y-101057071D02*
X180657416Y-101057071D01*
X179133416Y-101057071D02*
X179133416Y-98263071D01*
%TO.C,R46*%
X178857417Y-97957072D02*
X178857417Y-95163072D01*
X177333417Y-97957072D02*
X178857417Y-97957072D01*
X177333417Y-95163072D02*
X178857417Y-95163072D01*
X177333417Y-97957072D02*
X177333417Y-95163072D01*
%TO.C,C61*%
X173636416Y-87622073D02*
X174525416Y-87622073D01*
X176430416Y-87622073D02*
X176430416Y-86098073D01*
X175541416Y-87622073D02*
X176430416Y-87622073D01*
X173636416Y-87622073D02*
X173636416Y-86098073D01*
X175541416Y-86098073D02*
X176430416Y-86098073D01*
X173636416Y-86098073D02*
X174525416Y-86098073D01*
D13*
%TO.C,ST17*%
X175760316Y-81074903D02*
X179570316Y-81074903D01*
X175125316Y-80439903D02*
X175760316Y-81074903D01*
X175125316Y-79169903D02*
X175760316Y-78534903D01*
X179570316Y-78534903D02*
X180205316Y-79169903D01*
X175125316Y-80439903D02*
X175125316Y-79169903D01*
X180205316Y-80439903D02*
X180205316Y-79169903D01*
X175760316Y-78534903D02*
X179570316Y-78534903D01*
X179570316Y-81074903D02*
X180205316Y-80439903D01*
D12*
%TO.C,R49*%
X173457415Y-101057071D02*
X173457415Y-98263071D01*
X171933415Y-101057071D02*
X173457415Y-101057071D01*
X171933415Y-101057071D02*
X171933415Y-98263071D01*
X171933415Y-98263071D02*
X173457415Y-98263071D01*
%TO.C,R41*%
X174398416Y-84198072D02*
X177192416Y-84198072D01*
X174398416Y-85722072D02*
X177192416Y-85722072D01*
X174398416Y-85722072D02*
X174398416Y-84198072D01*
X177192416Y-85722072D02*
X177192416Y-84198072D01*
%TO.C,C69*%
X195708000Y-98061998D02*
X196597000Y-98061998D01*
X195708000Y-96537998D02*
X196597000Y-96537998D01*
X196597000Y-98061998D02*
X196597000Y-96537998D01*
X193803000Y-98061998D02*
X193803000Y-96537998D01*
X193803000Y-96537998D02*
X194692000Y-96537998D01*
X193803000Y-98061998D02*
X194692000Y-98061998D01*
D13*
%TO.C,ST15*%
X196627417Y-81570000D02*
X197135417Y-81062000D01*
X189515417Y-81062000D02*
X189515417Y-79538000D01*
X189515417Y-81062000D02*
X190023417Y-81570000D01*
X196627417Y-79030000D02*
X197135417Y-79538000D01*
X189515417Y-79538000D02*
X190023417Y-79030000D01*
X190023417Y-79030000D02*
X196627417Y-79030000D01*
X197135417Y-81062000D02*
X197135417Y-79538000D01*
X190023417Y-81570000D02*
X196627417Y-81570000D01*
D12*
%TO.C,R47*%
X175533415Y-101057071D02*
X175533415Y-98263071D01*
X175533415Y-101057071D02*
X177057415Y-101057071D01*
X175533415Y-98263071D02*
X177057415Y-98263071D01*
X177057415Y-101057071D02*
X177057415Y-98263071D01*
D13*
%TO.C,IC8*%
X177295416Y-86360072D02*
X177710416Y-86360072D01*
X181860416Y-86360072D02*
X182295416Y-86360072D01*
X182295416Y-86815072D02*
X182295416Y-86360072D01*
X181870416Y-91360072D02*
X182295416Y-91360072D01*
X182295416Y-91360072D02*
X182295416Y-90845072D01*
X177295416Y-86755072D02*
X177295416Y-86360072D01*
X177295416Y-91360072D02*
X177770416Y-91360072D01*
X177295416Y-91360072D02*
X177295416Y-90905072D01*
D12*
X176900000Y-86900000D02*
G75*
G03*
X176900000Y-86900000I-100000J0D01*
G01*
%TO.C,C57*%
X183933416Y-99352073D02*
X183933416Y-98463073D01*
X183933416Y-101257073D02*
X183933416Y-100368073D01*
X185457416Y-101257073D02*
X185457416Y-100368073D01*
X185457416Y-99352073D02*
X185457416Y-98463073D01*
X183933416Y-98463073D02*
X185457416Y-98463073D01*
X183933416Y-101257073D02*
X185457416Y-101257073D01*
%TO.C,R52*%
X177333417Y-98263071D02*
X178857417Y-98263071D01*
X177333417Y-101057071D02*
X177333417Y-98263071D01*
X177333417Y-101057071D02*
X178857417Y-101057071D01*
X178857417Y-101057071D02*
X178857417Y-98263071D01*
%TO.C,C48*%
X145703416Y-83922073D02*
X146592416Y-83922073D01*
X146592416Y-83922073D02*
X146592416Y-82398073D01*
X145703416Y-82398073D02*
X146592416Y-82398073D01*
X143798416Y-83922073D02*
X143798416Y-82398073D01*
X143798416Y-82398073D02*
X144687416Y-82398073D01*
X143798416Y-83922073D02*
X144687416Y-83922073D01*
%TO.C,R28*%
X148457416Y-85357074D02*
X148457416Y-82563074D01*
X146933416Y-85357074D02*
X148457416Y-85357074D01*
X146933416Y-82563074D02*
X148457416Y-82563074D01*
X146933416Y-85357074D02*
X146933416Y-82563074D01*
%TO.C,C40*%
X163780174Y-84569998D02*
X163780174Y-82029998D01*
X158954174Y-84569998D02*
X160351174Y-84569998D01*
X162383174Y-84569998D02*
X163780174Y-84569998D01*
X158954174Y-84569998D02*
X158954174Y-82029998D01*
X162383174Y-82029998D02*
X163780174Y-82029998D01*
X158954174Y-82029998D02*
X160351174Y-82029998D01*
%TO.C,C39*%
X165216000Y-84929998D02*
X166613000Y-84929998D01*
X161787000Y-87469998D02*
X161787000Y-84929998D01*
X161787000Y-87469998D02*
X163184000Y-87469998D01*
X161787000Y-84929998D02*
X163184000Y-84929998D01*
X166613000Y-87469998D02*
X166613000Y-84929998D01*
X165216000Y-87469998D02*
X166613000Y-87469998D01*
%TO.C,C43*%
X150330000Y-80584000D02*
X150330000Y-79187000D01*
X152870000Y-80584000D02*
X152870000Y-79187000D01*
X150330000Y-79187000D02*
X152870000Y-79187000D01*
X152870000Y-84013000D02*
X152870000Y-82616000D01*
X150330000Y-84013000D02*
X150330000Y-82616000D01*
X150330000Y-84013000D02*
X152870000Y-84013000D01*
D13*
%TO.C,ST13*%
X165195000Y-108869998D02*
X165830000Y-108234998D01*
X140176000Y-108234998D02*
X140176000Y-106964998D01*
X165830000Y-108234998D02*
X165830000Y-106964998D01*
X140176000Y-106964998D02*
X140811000Y-106329998D01*
X140811000Y-108869998D02*
X165195000Y-108869998D01*
X165195000Y-106329998D02*
X165830000Y-106964998D01*
X140811000Y-106329998D02*
X165195000Y-106329998D01*
X140176000Y-108234998D02*
X140811000Y-108869998D01*
D12*
%TO.C,C46*%
X151933416Y-91452073D02*
X151933416Y-90563073D01*
X151933416Y-90563073D02*
X153457416Y-90563073D01*
X151933416Y-93357073D02*
X151933416Y-92468073D01*
X151933416Y-93357073D02*
X153457416Y-93357073D01*
X153457416Y-91452073D02*
X153457416Y-90563073D01*
X153457416Y-93357073D02*
X153457416Y-92468073D01*
%TO.C,R29*%
X140438000Y-95163072D02*
X141962000Y-95163072D01*
X141962000Y-97957072D02*
X141962000Y-95163072D01*
X140438000Y-97957072D02*
X140438000Y-95163072D01*
X140438000Y-97957072D02*
X141962000Y-97957072D01*
D13*
%TO.C,IC6*%
X161135417Y-96760074D02*
X161135417Y-96420072D01*
X157055415Y-100500074D02*
X157395417Y-100500074D01*
X160795415Y-96420072D02*
X161135417Y-96420072D01*
X161135417Y-100500074D02*
X161135417Y-100160072D01*
X160795415Y-100500074D02*
X161135417Y-100500074D01*
X157055415Y-96760074D02*
X157055415Y-96420072D01*
X157055415Y-96420072D02*
X157395417Y-96420072D01*
X157055415Y-100500074D02*
X157055415Y-100160072D01*
D12*
X156195417Y-96960074D02*
G75*
G03*
X156195417Y-96960074I-100000J0D01*
G01*
%TO.C,R34*%
X144533415Y-97957072D02*
X146057415Y-97957072D01*
X144533415Y-97957072D02*
X144533415Y-95163072D01*
X146057415Y-97957072D02*
X146057415Y-95163072D01*
X144533415Y-95163072D02*
X146057415Y-95163072D01*
%TO.C,C52*%
X162033416Y-100352073D02*
X162033416Y-99463073D01*
X163557416Y-100352073D02*
X163557416Y-99463073D01*
X163557416Y-102257073D02*
X163557416Y-101368073D01*
X162033416Y-102257073D02*
X162033416Y-101368073D01*
X162033416Y-102257073D02*
X163557416Y-102257073D01*
X162033416Y-99463073D02*
X163557416Y-99463073D01*
%TO.C,C54*%
X159398417Y-95422073D02*
X160287417Y-95422073D01*
X159398417Y-95422073D02*
X159398417Y-93898073D01*
X161303417Y-93898073D02*
X162192417Y-93898073D01*
X162192417Y-95422073D02*
X162192417Y-93898073D01*
X161303417Y-95422073D02*
X162192417Y-95422073D01*
X159398417Y-93898073D02*
X160287417Y-93898073D01*
%TO.C,C50*%
X154733415Y-101257073D02*
X154733415Y-100368073D01*
X156257415Y-99352073D02*
X156257415Y-98463073D01*
X154733415Y-101257073D02*
X156257415Y-101257073D01*
X154733415Y-99352073D02*
X154733415Y-98463073D01*
X156257415Y-101257073D02*
X156257415Y-100368073D01*
X154733415Y-98463073D02*
X156257415Y-98463073D01*
%TO.C,R37*%
X142733416Y-101057071D02*
X144257416Y-101057071D01*
X142733416Y-101057071D02*
X142733416Y-98263071D01*
X144257416Y-101057071D02*
X144257416Y-98263071D01*
X142733416Y-98263071D02*
X144257416Y-98263071D01*
%TO.C,R39*%
X149933415Y-101057071D02*
X151457415Y-101057071D01*
X149933415Y-101057071D02*
X149933415Y-98263071D01*
X149933415Y-98263071D02*
X151457415Y-98263071D01*
X151457415Y-101057071D02*
X151457415Y-98263071D01*
%TO.C,R36*%
X144257416Y-97957072D02*
X144257416Y-95163072D01*
X142733416Y-97957072D02*
X142733416Y-95163072D01*
X142733416Y-95163072D02*
X144257416Y-95163072D01*
X142733416Y-97957072D02*
X144257416Y-97957072D01*
%TO.C,C47*%
X143303415Y-89722072D02*
X144192415Y-89722072D01*
X141398415Y-88198072D02*
X142287415Y-88198072D01*
X141398415Y-89722072D02*
X141398415Y-88198072D01*
X144192415Y-89722072D02*
X144192415Y-88198072D01*
X143303415Y-88198072D02*
X144192415Y-88198072D01*
X141398415Y-89722072D02*
X142287415Y-89722072D01*
%TO.C,R31*%
X148133416Y-98263071D02*
X149657416Y-98263071D01*
X149657416Y-101057071D02*
X149657416Y-98263071D01*
X148133416Y-101057071D02*
X149657416Y-101057071D01*
X148133416Y-101057071D02*
X148133416Y-98263071D01*
%TO.C,R32*%
X147857417Y-97957072D02*
X147857417Y-95163072D01*
X146333417Y-97957072D02*
X147857417Y-97957072D01*
X146333417Y-95163072D02*
X147857417Y-95163072D01*
X146333417Y-97957072D02*
X146333417Y-95163072D01*
%TO.C,C45*%
X142636416Y-87622073D02*
X143525416Y-87622073D01*
X145430416Y-87622073D02*
X145430416Y-86098073D01*
X144541416Y-87622073D02*
X145430416Y-87622073D01*
X142636416Y-87622073D02*
X142636416Y-86098073D01*
X144541416Y-86098073D02*
X145430416Y-86098073D01*
X142636416Y-86098073D02*
X143525416Y-86098073D01*
D13*
%TO.C,ST14*%
X144760316Y-81074903D02*
X148570316Y-81074903D01*
X144125316Y-80439903D02*
X144760316Y-81074903D01*
X144125316Y-79169903D02*
X144760316Y-78534903D01*
X148570316Y-78534903D02*
X149205316Y-79169903D01*
X144125316Y-80439903D02*
X144125316Y-79169903D01*
X149205316Y-80439903D02*
X149205316Y-79169903D01*
X144760316Y-78534903D02*
X148570316Y-78534903D01*
X148570316Y-81074903D02*
X149205316Y-80439903D01*
D12*
%TO.C,R35*%
X142457415Y-101057071D02*
X142457415Y-98263071D01*
X140933415Y-101057071D02*
X142457415Y-101057071D01*
X140933415Y-101057071D02*
X140933415Y-98263071D01*
X140933415Y-98263071D02*
X142457415Y-98263071D01*
%TO.C,R27*%
X143398416Y-84198072D02*
X146192416Y-84198072D01*
X143398416Y-85722072D02*
X146192416Y-85722072D01*
X143398416Y-85722072D02*
X143398416Y-84198072D01*
X146192416Y-85722072D02*
X146192416Y-84198072D01*
%TO.C,C53*%
X164708000Y-98061998D02*
X165597000Y-98061998D01*
X164708000Y-96537998D02*
X165597000Y-96537998D01*
X165597000Y-98061998D02*
X165597000Y-96537998D01*
X162803000Y-98061998D02*
X162803000Y-96537998D01*
X162803000Y-96537998D02*
X163692000Y-96537998D01*
X162803000Y-98061998D02*
X163692000Y-98061998D01*
D13*
%TO.C,ST12*%
X165627417Y-81570000D02*
X166135417Y-81062000D01*
X158515417Y-81062000D02*
X158515417Y-79538000D01*
X158515417Y-81062000D02*
X159023417Y-81570000D01*
X165627417Y-79030000D02*
X166135417Y-79538000D01*
X158515417Y-79538000D02*
X159023417Y-79030000D01*
X159023417Y-79030000D02*
X165627417Y-79030000D01*
X166135417Y-81062000D02*
X166135417Y-79538000D01*
X159023417Y-81570000D02*
X165627417Y-81570000D01*
D12*
%TO.C,R33*%
X144533415Y-101057071D02*
X144533415Y-98263071D01*
X144533415Y-101057071D02*
X146057415Y-101057071D01*
X144533415Y-98263071D02*
X146057415Y-98263071D01*
X146057415Y-101057071D02*
X146057415Y-98263071D01*
D13*
%TO.C,IC5*%
X146295416Y-86360072D02*
X146710416Y-86360072D01*
X150860416Y-86360072D02*
X151295416Y-86360072D01*
X151295416Y-86815072D02*
X151295416Y-86360072D01*
X150870416Y-91360072D02*
X151295416Y-91360072D01*
X151295416Y-91360072D02*
X151295416Y-90845072D01*
X146295416Y-86755072D02*
X146295416Y-86360072D01*
X146295416Y-91360072D02*
X146770416Y-91360072D01*
X146295416Y-91360072D02*
X146295416Y-90905072D01*
D12*
X145900000Y-86900000D02*
G75*
G03*
X145900000Y-86900000I-100000J0D01*
G01*
%TO.C,C41*%
X152933416Y-99352073D02*
X152933416Y-98463073D01*
X152933416Y-101257073D02*
X152933416Y-100368073D01*
X154457416Y-101257073D02*
X154457416Y-100368073D01*
X154457416Y-99352073D02*
X154457416Y-98463073D01*
X152933416Y-98463073D02*
X154457416Y-98463073D01*
X152933416Y-101257073D02*
X154457416Y-101257073D01*
%TO.C,R38*%
X146333417Y-98263071D02*
X147857417Y-98263071D01*
X146333417Y-101057071D02*
X146333417Y-98263071D01*
X146333417Y-101057071D02*
X147857417Y-101057071D01*
X147857417Y-101057071D02*
X147857417Y-98263071D01*
D11*
%TO.C,TP13*%
X185800000Y-66964998D02*
G75*
G03*
X185800000Y-66964998I-1700000J0D01*
G01*
%TO.C,TP12*%
X175200000Y-49799998D02*
G75*
G03*
X175200000Y-49799998I-1700000J0D01*
G01*
%TO.C,TP15*%
X185800000Y-54965000D02*
G75*
G03*
X185800000Y-54965000I-1700000J0D01*
G01*
D13*
%TO.C,Q18*%
X175600000Y-59049998D02*
X180600000Y-59049998D01*
X175600000Y-64149998D02*
X180600000Y-64149998D01*
D12*
X174200000Y-59699998D02*
G75*
G03*
X174200000Y-59699998I-100000J0D01*
G01*
D14*
%TO.C,C31*%
X181000000Y-50299998D02*
X182000000Y-50299998D01*
X181500000Y-50799998D02*
X181500000Y-49799998D01*
D11*
X183800000Y-47900000D02*
G75*
G03*
X183800000Y-47900000I-4000000J0D01*
G01*
D13*
%TO.C,Q19*%
X175600000Y-58150000D02*
X180600000Y-58150000D01*
X175600000Y-53050000D02*
X180600000Y-53050000D01*
D12*
X174200000Y-53700001D02*
G75*
G03*
X174200000Y-53700001I-100000J0D01*
G01*
D11*
%TO.C,TP14*%
X185800000Y-60964998D02*
G75*
G03*
X185800000Y-60964998I-1700000J0D01*
G01*
D13*
%TO.C,Q14*%
X187600000Y-65049998D02*
X192600000Y-65049998D01*
X187600000Y-70149998D02*
X192600000Y-70149998D01*
D12*
X186200000Y-65700000D02*
G75*
G03*
X186200000Y-65700000I-100000J0D01*
G01*
D13*
%TO.C,Q17*%
X175600000Y-65049998D02*
X180600000Y-65049998D01*
X175600000Y-70149998D02*
X180600000Y-70149998D01*
D12*
X174200000Y-65700000D02*
G75*
G03*
X174200000Y-65700000I-100000J0D01*
G01*
D13*
%TO.C,Q16*%
X187600000Y-53050000D02*
X192600000Y-53050000D01*
X187600000Y-58150000D02*
X192600000Y-58150000D01*
D12*
X186200000Y-53700001D02*
G75*
G03*
X186200000Y-53700001I-100000J0D01*
G01*
D14*
%TO.C,C32*%
X189400000Y-50299998D02*
X190400000Y-50299998D01*
X189899998Y-50799998D02*
X189899998Y-49799998D01*
D11*
X192200000Y-47900000D02*
G75*
G03*
X192200000Y-47900000I-4000000J0D01*
G01*
%TO.C,TP11*%
X196400000Y-50300000D02*
G75*
G03*
X196400000Y-50300000I-1700000J0D01*
G01*
D13*
%TO.C,Q15*%
X187600000Y-64149998D02*
X192600000Y-64149998D01*
X187600000Y-59049998D02*
X192600000Y-59049998D01*
D12*
X186200000Y-59699998D02*
G75*
G03*
X186200000Y-59699998I-100000J0D01*
G01*
D11*
%TO.C,TP8*%
X154800000Y-66964998D02*
G75*
G03*
X154800000Y-66964998I-1700000J0D01*
G01*
%TO.C,TP7*%
X144200000Y-49799998D02*
G75*
G03*
X144200000Y-49799998I-1700000J0D01*
G01*
%TO.C,TP10*%
X154800000Y-54965000D02*
G75*
G03*
X154800000Y-54965000I-1700000J0D01*
G01*
D13*
%TO.C,Q12*%
X144600000Y-59049998D02*
X149600000Y-59049998D01*
X144600000Y-64149998D02*
X149600000Y-64149998D01*
D12*
X143200000Y-59699998D02*
G75*
G03*
X143200000Y-59699998I-100000J0D01*
G01*
D14*
%TO.C,C23*%
X150000000Y-50299998D02*
X151000000Y-50299998D01*
X150500000Y-50799998D02*
X150500000Y-49799998D01*
D11*
X152800000Y-47900000D02*
G75*
G03*
X152800000Y-47900000I-4000000J0D01*
G01*
D13*
%TO.C,Q13*%
X144600000Y-58150000D02*
X149600000Y-58150000D01*
X144600000Y-53050000D02*
X149600000Y-53050000D01*
D12*
X143200000Y-53700001D02*
G75*
G03*
X143200000Y-53700001I-100000J0D01*
G01*
D11*
%TO.C,TP9*%
X154800000Y-60964998D02*
G75*
G03*
X154800000Y-60964998I-1700000J0D01*
G01*
D13*
%TO.C,Q4*%
X156600000Y-65049998D02*
X161600000Y-65049998D01*
X156600000Y-70149998D02*
X161600000Y-70149998D01*
D12*
X155200000Y-65700000D02*
G75*
G03*
X155200000Y-65700000I-100000J0D01*
G01*
D13*
%TO.C,Q10*%
X144600000Y-65049998D02*
X149600000Y-65049998D01*
X144600000Y-70149998D02*
X149600000Y-70149998D01*
D12*
X143200000Y-65700000D02*
G75*
G03*
X143200000Y-65700000I-100000J0D01*
G01*
D13*
%TO.C,Q8*%
X156600000Y-53050000D02*
X161600000Y-53050000D01*
X156600000Y-58150000D02*
X161600000Y-58150000D01*
D12*
X155200000Y-53700001D02*
G75*
G03*
X155200000Y-53700001I-100000J0D01*
G01*
D14*
%TO.C,C24*%
X158400000Y-50299998D02*
X159400000Y-50299998D01*
X158899998Y-50799998D02*
X158899998Y-49799998D01*
D11*
X161200000Y-47900000D02*
G75*
G03*
X161200000Y-47900000I-4000000J0D01*
G01*
%TO.C,TP6*%
X165400000Y-50300000D02*
G75*
G03*
X165400000Y-50300000I-1700000J0D01*
G01*
D13*
%TO.C,Q6*%
X156600000Y-64149998D02*
X161600000Y-64149998D01*
X156600000Y-59049998D02*
X161600000Y-59049998D01*
D12*
X155200000Y-59699998D02*
G75*
G03*
X155200000Y-59699998I-100000J0D01*
G01*
D13*
%TO.C,Q9*%
X113600000Y-59049998D02*
X118600000Y-59049998D01*
X113600000Y-64149998D02*
X118600000Y-64149998D01*
D12*
X112200000Y-59699998D02*
G75*
G03*
X112200000Y-59699998I-100000J0D01*
G01*
D14*
%TO.C,C1*%
X119000000Y-50299998D02*
X120000000Y-50299998D01*
X119500000Y-50799998D02*
X119500000Y-49799998D01*
D11*
X121800000Y-47900000D02*
G75*
G03*
X121800000Y-47900000I-4000000J0D01*
G01*
%TO.C,TP3*%
X123800000Y-66964998D02*
G75*
G03*
X123800000Y-66964998I-1700000J0D01*
G01*
%TO.C,TP5*%
X123800000Y-54965000D02*
G75*
G03*
X123800000Y-54965000I-1700000J0D01*
G01*
D14*
%TO.C,C2*%
X127400000Y-50299998D02*
X128400000Y-50299998D01*
X127899998Y-50799998D02*
X127899998Y-49799998D01*
D11*
X130200000Y-47900000D02*
G75*
G03*
X130200000Y-47900000I-4000000J0D01*
G01*
D13*
%TO.C,Q7*%
X113600000Y-65049998D02*
X118600000Y-65049998D01*
X113600000Y-70149998D02*
X118600000Y-70149998D01*
D12*
X112200000Y-65700000D02*
G75*
G03*
X112200000Y-65700000I-100000J0D01*
G01*
D13*
%TO.C,Q1*%
X125600000Y-65049998D02*
X130600000Y-65049998D01*
X125600000Y-70149998D02*
X130600000Y-70149998D01*
D12*
X124200000Y-65700000D02*
G75*
G03*
X124200000Y-65700000I-100000J0D01*
G01*
D13*
%TO.C,Q3*%
X125600000Y-64149998D02*
X130600000Y-64149998D01*
X125600000Y-59049998D02*
X130600000Y-59049998D01*
D12*
X124200000Y-59699998D02*
G75*
G03*
X124200000Y-59699998I-100000J0D01*
G01*
D13*
%TO.C,Q5*%
X125600000Y-53050000D02*
X130600000Y-53050000D01*
X125600000Y-58150000D02*
X130600000Y-58150000D01*
D12*
X124200000Y-53700001D02*
G75*
G03*
X124200000Y-53700001I-100000J0D01*
G01*
D11*
%TO.C,TP4*%
X123800000Y-60964998D02*
G75*
G03*
X123800000Y-60964998I-1700000J0D01*
G01*
D13*
%TO.C,Q11*%
X113600000Y-58150000D02*
X118600000Y-58150000D01*
X113600000Y-53050000D02*
X118600000Y-53050000D01*
D12*
X112200000Y-53700001D02*
G75*
G03*
X112200000Y-53700001I-100000J0D01*
G01*
D11*
%TO.C,TP1*%
X134400000Y-50300000D02*
G75*
G03*
X134400000Y-50300000I-1700000J0D01*
G01*
%TO.C,TP2*%
X113200000Y-49799998D02*
G75*
G03*
X113200000Y-49799998I-1700000J0D01*
G01*
D12*
%TO.C,C5*%
X119330000Y-80584000D02*
X119330000Y-79187000D01*
X121870000Y-80584000D02*
X121870000Y-79187000D01*
X119330000Y-79187000D02*
X121870000Y-79187000D01*
X121870000Y-84013000D02*
X121870000Y-82616000D01*
X119330000Y-84013000D02*
X119330000Y-82616000D01*
X119330000Y-84013000D02*
X121870000Y-84013000D01*
D13*
%TO.C,ST2*%
X134195000Y-108869998D02*
X134830000Y-108234998D01*
X109176000Y-108234998D02*
X109176000Y-106964998D01*
X134830000Y-108234998D02*
X134830000Y-106964998D01*
X109176000Y-106964998D02*
X109811000Y-106329998D01*
X109811000Y-108869998D02*
X134195000Y-108869998D01*
X134195000Y-106329998D02*
X134830000Y-106964998D01*
X109811000Y-106329998D02*
X134195000Y-106329998D01*
X109176000Y-108234998D02*
X109811000Y-108869998D01*
D12*
%TO.C,R1*%
X112398416Y-84198072D02*
X115192416Y-84198072D01*
X112398416Y-85722072D02*
X115192416Y-85722072D01*
X112398416Y-85722072D02*
X112398416Y-84198072D01*
X115192416Y-85722072D02*
X115192416Y-84198072D01*
%TO.C,C16*%
X128398417Y-95422073D02*
X129287417Y-95422073D01*
X128398417Y-95422073D02*
X128398417Y-93898073D01*
X130303417Y-93898073D02*
X131192417Y-93898073D01*
X131192417Y-95422073D02*
X131192417Y-93898073D01*
X130303417Y-95422073D02*
X131192417Y-95422073D01*
X128398417Y-93898073D02*
X129287417Y-93898073D01*
%TO.C,R9*%
X111457415Y-101057071D02*
X111457415Y-98263071D01*
X109933415Y-101057071D02*
X111457415Y-101057071D01*
X109933415Y-101057071D02*
X109933415Y-98263071D01*
X109933415Y-98263071D02*
X111457415Y-98263071D01*
%TO.C,R2*%
X117457416Y-85357074D02*
X117457416Y-82563074D01*
X115933416Y-85357074D02*
X117457416Y-85357074D01*
X115933416Y-82563074D02*
X117457416Y-82563074D01*
X115933416Y-85357074D02*
X115933416Y-82563074D01*
%TO.C,C14*%
X131033416Y-100352073D02*
X131033416Y-99463073D01*
X132557416Y-100352073D02*
X132557416Y-99463073D01*
X132557416Y-102257073D02*
X132557416Y-101368073D01*
X131033416Y-102257073D02*
X131033416Y-101368073D01*
X131033416Y-102257073D02*
X132557416Y-102257073D01*
X131033416Y-99463073D02*
X132557416Y-99463073D01*
%TO.C,R3*%
X109438000Y-95163072D02*
X110962000Y-95163072D01*
X110962000Y-97957072D02*
X110962000Y-95163072D01*
X109438000Y-97957072D02*
X109438000Y-95163072D01*
X109438000Y-97957072D02*
X110962000Y-97957072D01*
D13*
%TO.C,IC2*%
X115295416Y-86360072D02*
X115710416Y-86360072D01*
X119860416Y-86360072D02*
X120295416Y-86360072D01*
X120295416Y-86815072D02*
X120295416Y-86360072D01*
X119870416Y-91360072D02*
X120295416Y-91360072D01*
X120295416Y-91360072D02*
X120295416Y-90845072D01*
X115295416Y-86755072D02*
X115295416Y-86360072D01*
X115295416Y-91360072D02*
X115770416Y-91360072D01*
X115295416Y-91360072D02*
X115295416Y-90905072D01*
D12*
X114900000Y-86900000D02*
G75*
G03*
X114900000Y-86900000I-100000J0D01*
G01*
%TO.C,R8*%
X113533415Y-97957072D02*
X115057415Y-97957072D01*
X113533415Y-97957072D02*
X113533415Y-95163072D01*
X115057415Y-97957072D02*
X115057415Y-95163072D01*
X113533415Y-95163072D02*
X115057415Y-95163072D01*
%TO.C,C3*%
X121933416Y-99352073D02*
X121933416Y-98463073D01*
X121933416Y-101257073D02*
X121933416Y-100368073D01*
X123457416Y-101257073D02*
X123457416Y-100368073D01*
X123457416Y-99352073D02*
X123457416Y-98463073D01*
X121933416Y-98463073D02*
X123457416Y-98463073D01*
X121933416Y-101257073D02*
X123457416Y-101257073D01*
%TO.C,C15*%
X133708000Y-98061998D02*
X134597000Y-98061998D01*
X133708000Y-96537998D02*
X134597000Y-96537998D01*
X134597000Y-98061998D02*
X134597000Y-96537998D01*
X131803000Y-98061998D02*
X131803000Y-96537998D01*
X131803000Y-96537998D02*
X132692000Y-96537998D01*
X131803000Y-98061998D02*
X132692000Y-98061998D01*
%TO.C,C10*%
X114703416Y-83922073D02*
X115592416Y-83922073D01*
X115592416Y-83922073D02*
X115592416Y-82398073D01*
X114703416Y-82398073D02*
X115592416Y-82398073D01*
X112798416Y-83922073D02*
X112798416Y-82398073D01*
X112798416Y-82398073D02*
X113687416Y-82398073D01*
X112798416Y-83922073D02*
X113687416Y-83922073D01*
%TO.C,R12*%
X115333417Y-98263071D02*
X116857417Y-98263071D01*
X115333417Y-101057071D02*
X115333417Y-98263071D01*
X115333417Y-101057071D02*
X116857417Y-101057071D01*
X116857417Y-101057071D02*
X116857417Y-98263071D01*
%TO.C,C8*%
X120933416Y-91452073D02*
X120933416Y-90563073D01*
X120933416Y-90563073D02*
X122457416Y-90563073D01*
X120933416Y-93357073D02*
X120933416Y-92468073D01*
X120933416Y-93357073D02*
X122457416Y-93357073D01*
X122457416Y-91452073D02*
X122457416Y-90563073D01*
X122457416Y-93357073D02*
X122457416Y-92468073D01*
%TO.C,C12*%
X123733415Y-101257073D02*
X123733415Y-100368073D01*
X125257415Y-99352073D02*
X125257415Y-98463073D01*
X123733415Y-101257073D02*
X125257415Y-101257073D01*
X123733415Y-99352073D02*
X123733415Y-98463073D01*
X125257415Y-101257073D02*
X125257415Y-100368073D01*
X123733415Y-98463073D02*
X125257415Y-98463073D01*
%TO.C,R7*%
X113533415Y-101057071D02*
X113533415Y-98263071D01*
X113533415Y-101057071D02*
X115057415Y-101057071D01*
X113533415Y-98263071D02*
X115057415Y-98263071D01*
X115057415Y-101057071D02*
X115057415Y-98263071D01*
D13*
%TO.C,ST1*%
X134627417Y-81570000D02*
X135135417Y-81062000D01*
X127515417Y-81062000D02*
X127515417Y-79538000D01*
X127515417Y-81062000D02*
X128023417Y-81570000D01*
X134627417Y-79030000D02*
X135135417Y-79538000D01*
X127515417Y-79538000D02*
X128023417Y-79030000D01*
X128023417Y-79030000D02*
X134627417Y-79030000D01*
X135135417Y-81062000D02*
X135135417Y-79538000D01*
X128023417Y-81570000D02*
X134627417Y-81570000D01*
D12*
%TO.C,C2*%
X132780174Y-84569998D02*
X132780174Y-82029998D01*
X127954174Y-84569998D02*
X129351174Y-84569998D01*
X131383174Y-84569998D02*
X132780174Y-84569998D01*
X127954174Y-84569998D02*
X127954174Y-82029998D01*
X131383174Y-82029998D02*
X132780174Y-82029998D01*
X127954174Y-82029998D02*
X129351174Y-82029998D01*
%TO.C,C1*%
X134216000Y-84929998D02*
X135613000Y-84929998D01*
X130787000Y-87469998D02*
X130787000Y-84929998D01*
X130787000Y-87469998D02*
X132184000Y-87469998D01*
X130787000Y-84929998D02*
X132184000Y-84929998D01*
X135613000Y-87469998D02*
X135613000Y-84929998D01*
X134216000Y-87469998D02*
X135613000Y-87469998D01*
D13*
%TO.C,ST3*%
X113760316Y-81074903D02*
X117570316Y-81074903D01*
X113125316Y-80439903D02*
X113760316Y-81074903D01*
X113125316Y-79169903D02*
X113760316Y-78534903D01*
X117570316Y-78534903D02*
X118205316Y-79169903D01*
X113125316Y-80439903D02*
X113125316Y-79169903D01*
X118205316Y-80439903D02*
X118205316Y-79169903D01*
X113760316Y-78534903D02*
X117570316Y-78534903D01*
X117570316Y-81074903D02*
X118205316Y-80439903D01*
D12*
%TO.C,C7*%
X111636416Y-87622073D02*
X112525416Y-87622073D01*
X114430416Y-87622073D02*
X114430416Y-86098073D01*
X113541416Y-87622073D02*
X114430416Y-87622073D01*
X111636416Y-87622073D02*
X111636416Y-86098073D01*
X113541416Y-86098073D02*
X114430416Y-86098073D01*
X111636416Y-86098073D02*
X112525416Y-86098073D01*
%TO.C,R6*%
X116857417Y-97957072D02*
X116857417Y-95163072D01*
X115333417Y-97957072D02*
X116857417Y-97957072D01*
X115333417Y-95163072D02*
X116857417Y-95163072D01*
X115333417Y-97957072D02*
X115333417Y-95163072D01*
%TO.C,R5*%
X117133416Y-98263071D02*
X118657416Y-98263071D01*
X118657416Y-101057071D02*
X118657416Y-98263071D01*
X117133416Y-101057071D02*
X118657416Y-101057071D01*
X117133416Y-101057071D02*
X117133416Y-98263071D01*
D13*
%TO.C,IC3*%
X130135417Y-96760074D02*
X130135417Y-96420072D01*
X126055415Y-100500074D02*
X126395417Y-100500074D01*
X129795415Y-96420072D02*
X130135417Y-96420072D01*
X130135417Y-100500074D02*
X130135417Y-100160072D01*
X129795415Y-100500074D02*
X130135417Y-100500074D01*
X126055415Y-96760074D02*
X126055415Y-96420072D01*
X126055415Y-96420072D02*
X126395417Y-96420072D01*
X126055415Y-100500074D02*
X126055415Y-100160072D01*
D12*
X125195417Y-96960074D02*
G75*
G03*
X125195417Y-96960074I-100000J0D01*
G01*
%TO.C,C9*%
X112303415Y-89722072D02*
X113192415Y-89722072D01*
X110398415Y-88198072D02*
X111287415Y-88198072D01*
X110398415Y-89722072D02*
X110398415Y-88198072D01*
X113192415Y-89722072D02*
X113192415Y-88198072D01*
X112303415Y-88198072D02*
X113192415Y-88198072D01*
X110398415Y-89722072D02*
X111287415Y-89722072D01*
%TO.C,R10*%
X113257416Y-97957072D02*
X113257416Y-95163072D01*
X111733416Y-97957072D02*
X111733416Y-95163072D01*
X111733416Y-95163072D02*
X113257416Y-95163072D01*
X111733416Y-97957072D02*
X113257416Y-97957072D01*
%TO.C,R13*%
X118933415Y-101057071D02*
X120457415Y-101057071D01*
X118933415Y-101057071D02*
X118933415Y-98263071D01*
X118933415Y-98263071D02*
X120457415Y-98263071D01*
X120457415Y-101057071D02*
X120457415Y-98263071D01*
%TO.C,R11*%
X111733416Y-101057071D02*
X113257416Y-101057071D01*
X111733416Y-101057071D02*
X111733416Y-98263071D01*
X113257416Y-101057071D02*
X113257416Y-98263071D01*
X111733416Y-98263071D02*
X113257416Y-98263071D01*
D13*
%TO.C,D1*%
X121624542Y-137455777D02*
X121624542Y-130343777D01*
X121624542Y-137455777D02*
X127974542Y-137455777D01*
X127974542Y-137455777D02*
X127974542Y-130343777D01*
X121624542Y-130343777D02*
X127974542Y-130343777D01*
D12*
%TO.C,R2*%
X128102542Y-119637777D02*
X130896542Y-119637777D01*
X128102542Y-119637777D02*
X128102542Y-121161777D01*
X128102542Y-121161777D02*
X130896542Y-121161777D01*
X130896542Y-119637777D02*
X130896542Y-121161777D01*
%TO.C,C12*%
X116802542Y-121561777D02*
X117691542Y-121561777D01*
X116802542Y-121561777D02*
X116802542Y-120037777D01*
X116802542Y-120037777D02*
X117691542Y-120037777D01*
X119596542Y-121561777D02*
X119596542Y-120037777D01*
X118707542Y-121561777D02*
X119596542Y-121561777D01*
X118707542Y-120037777D02*
X119596542Y-120037777D01*
%TO.C,C16*%
X125529544Y-144312779D02*
X125529544Y-142915779D01*
X128069544Y-144312779D02*
X128069544Y-142915779D01*
X125529544Y-140883779D02*
X125529544Y-139486779D01*
X125529544Y-144312779D02*
X128069544Y-144312779D01*
X128069544Y-140883779D02*
X128069544Y-139486779D01*
X125529544Y-139486779D02*
X128069544Y-139486779D01*
D13*
%TO.C,ST1*%
X127515544Y-114537779D02*
X128023544Y-114029779D01*
X128023544Y-114029779D02*
X134627544Y-114029779D01*
X127515544Y-116061779D02*
X127515544Y-114537779D01*
X127515544Y-116061779D02*
X128023544Y-116569779D01*
X128023544Y-116569779D02*
X134627544Y-116569779D01*
X134627544Y-114029779D02*
X135135544Y-114537779D01*
X134627544Y-116569779D02*
X135135544Y-116061779D01*
X135135544Y-116061779D02*
X135135544Y-114537779D01*
%TO.C,ST6*%
X123304544Y-113529777D02*
X123939544Y-114164777D01*
X118859544Y-115434777D02*
X119494544Y-116069777D01*
X123939544Y-115434777D02*
X123939544Y-114164777D01*
X118859544Y-114164777D02*
X119494544Y-113529777D01*
X119494544Y-113529777D02*
X123304544Y-113529777D01*
X118859544Y-115434777D02*
X118859544Y-114164777D01*
X119494544Y-116069777D02*
X123304544Y-116069777D01*
X123304544Y-116069777D02*
X123939544Y-115434777D01*
D12*
%TO.C,C8*%
X124937542Y-125396777D02*
X124937542Y-124507777D01*
X126461542Y-123491777D02*
X126461542Y-122602777D01*
X124937542Y-122602777D02*
X126461542Y-122602777D01*
X126461542Y-125396777D02*
X126461542Y-124507777D01*
X124937542Y-123491777D02*
X124937542Y-122602777D01*
X124937542Y-125396777D02*
X126461542Y-125396777D01*
%TO.C,Q2*%
X133199542Y-128599777D02*
G75*
G03*
X133199542Y-128599777I-100000J0D01*
G01*
D13*
X128649542Y-135099777D02*
X128649542Y-130099777D01*
X133749542Y-135099777D02*
X133749542Y-130099777D01*
D12*
%TO.C,C6*%
X125786542Y-125829777D02*
X127183542Y-125829777D01*
X130612542Y-128369777D02*
X130612542Y-125829777D01*
X125786542Y-128369777D02*
X127183542Y-128369777D01*
X129215542Y-128369777D02*
X130612542Y-128369777D01*
X129215542Y-125829777D02*
X130612542Y-125829777D01*
X125786542Y-128369777D02*
X125786542Y-125829777D01*
D11*
%TO.C,L1*%
X128599542Y-144099780D02*
X128599542Y-137099779D01*
X128599542Y-144099780D02*
X135599544Y-144099780D01*
X135599544Y-144099780D02*
X135599544Y-137099779D01*
X128599542Y-137099779D02*
X135599544Y-137099779D01*
D12*
%TO.C,C11*%
X114569542Y-138283779D02*
X114569542Y-136886779D01*
X112029542Y-138283779D02*
X112029542Y-136886779D01*
X114569542Y-141712779D02*
X114569542Y-140315779D01*
X112029542Y-141712779D02*
X114569542Y-141712779D01*
X112029542Y-141712779D02*
X112029542Y-140315779D01*
X112029542Y-136886779D02*
X114569542Y-136886779D01*
%TO.C,R4*%
X123602542Y-122361777D02*
X123602542Y-120837777D01*
X126396542Y-122361777D02*
X123602542Y-122361777D01*
X126396542Y-122361777D02*
X126396542Y-120837777D01*
X126396542Y-120837777D02*
X123602542Y-120837777D01*
D13*
%TO.C,ST4*%
X108729544Y-133101777D02*
X109237544Y-133609777D01*
X110761544Y-125989777D02*
X111269544Y-126497777D01*
X108729544Y-133101777D02*
X108729544Y-126497777D01*
X110761544Y-133609777D02*
X111269544Y-133101777D01*
X109237544Y-133609777D02*
X110761544Y-133609777D01*
X109237544Y-125989777D02*
X110761544Y-125989777D01*
X111269544Y-133101777D02*
X111269544Y-126497777D01*
X108729544Y-126497777D02*
X109237544Y-125989777D01*
D12*
%TO.C,IC1*%
X120699542Y-123449777D02*
G75*
G03*
X120699542Y-123449777I-100000J0D01*
G01*
D13*
X113349542Y-126435777D02*
X113349542Y-125799779D01*
X113349542Y-125799779D02*
X119849545Y-125799779D01*
X119849545Y-126435777D02*
X119849545Y-125799779D01*
D12*
%TO.C,C4*%
X135712542Y-128369777D02*
X135712542Y-125829777D01*
X130886542Y-125829777D02*
X132283542Y-125829777D01*
X130886542Y-128369777D02*
X132283542Y-128369777D01*
X134315542Y-125829777D02*
X135712542Y-125829777D01*
X134315542Y-128369777D02*
X135712542Y-128369777D01*
X130886542Y-128369777D02*
X130886542Y-125829777D01*
%TO.C,C7*%
X133261542Y-121896777D02*
X133261542Y-121007777D01*
X131737542Y-119991777D02*
X131737542Y-119102777D01*
X131737542Y-121896777D02*
X133261542Y-121896777D01*
X131737542Y-119102777D02*
X133261542Y-119102777D01*
X133261542Y-119991777D02*
X133261542Y-119102777D01*
X131737542Y-121896777D02*
X131737542Y-121007777D01*
%TO.C,R3*%
X123137544Y-122602777D02*
X124661544Y-122602777D01*
X124661544Y-125396777D02*
X124661544Y-122602777D01*
X123137544Y-125396777D02*
X124661544Y-125396777D01*
X123137544Y-125396777D02*
X123137544Y-122602777D01*
%TO.C,C14*%
X117115542Y-119869777D02*
X118512542Y-119869777D01*
X113686542Y-117329777D02*
X115083542Y-117329777D01*
X118512542Y-119869777D02*
X118512542Y-117329777D01*
X113686542Y-119869777D02*
X113686542Y-117329777D01*
X117115542Y-117329777D02*
X118512542Y-117329777D01*
X113686542Y-119869777D02*
X115083542Y-119869777D01*
D13*
%TO.C,ST2*%
X118205542Y-115439779D02*
X118205542Y-114169779D01*
X117570542Y-113534779D02*
X118205542Y-114169779D01*
X117570542Y-116074779D02*
X118205542Y-115439779D01*
X113125542Y-115439779D02*
X113760542Y-116074779D01*
X113125542Y-114169779D02*
X113760542Y-113534779D01*
X113125542Y-115439779D02*
X113125542Y-114169779D01*
X113760542Y-113534779D02*
X117570542Y-113534779D01*
X113760542Y-116074779D02*
X117570542Y-116074779D01*
%TO.C,ST7*%
X120105000Y-144870000D02*
X116295000Y-144870000D01*
X120105000Y-142330000D02*
X116295000Y-142330000D01*
X116295000Y-142330000D02*
X115660000Y-142965000D01*
X115660000Y-142965000D02*
X115660000Y-144235000D01*
X120740000Y-142965000D02*
X120105000Y-142330000D01*
X116295000Y-144870000D02*
X115660000Y-144235000D01*
X120740000Y-142965000D02*
X120740000Y-144235000D01*
X120740000Y-144235000D02*
X120105000Y-144870000D01*
D12*
%TO.C,C17*%
X122829544Y-139486779D02*
X125369544Y-139486779D01*
X122829544Y-140883779D02*
X122829544Y-139486779D01*
X122829544Y-144312779D02*
X125369544Y-144312779D01*
X122829544Y-144312779D02*
X122829544Y-142915779D01*
X125369544Y-144312779D02*
X125369544Y-142915779D01*
X125369544Y-140883779D02*
X125369544Y-139486779D01*
%TO.C,IC2*%
X127659542Y-121359780D02*
G75*
G03*
X127659542Y-121359780I-100000J0D01*
G01*
D13*
X128599542Y-122364779D02*
X131599542Y-122364779D01*
X128599542Y-125434781D02*
X131599542Y-125434781D01*
D12*
%TO.C,C13*%
X116496544Y-121561777D02*
X116496544Y-120037777D01*
X113702544Y-121561777D02*
X114591544Y-121561777D01*
X113702544Y-120037777D02*
X114591544Y-120037777D01*
X115607544Y-120037777D02*
X116496544Y-120037777D01*
X115607544Y-121561777D02*
X116496544Y-121561777D01*
X113702544Y-121561777D02*
X113702544Y-120037777D01*
D13*
%TO.C,ST3*%
X110761544Y-118129779D02*
X111269544Y-118637779D01*
X109237544Y-118129779D02*
X110761544Y-118129779D01*
X108729544Y-125241779D02*
X109237544Y-125749779D01*
X109237544Y-125749779D02*
X110761544Y-125749779D01*
X108729544Y-125241779D02*
X108729544Y-118637779D01*
X111269544Y-125241779D02*
X111269544Y-118637779D01*
X110761544Y-125749779D02*
X111269544Y-125241779D01*
X108729544Y-118637779D02*
X109237544Y-118129779D01*
%TO.C,ST5*%
X110761544Y-141509777D02*
X111269544Y-141001777D01*
X108729544Y-141001777D02*
X108729544Y-134397777D01*
X109237544Y-133889777D02*
X110761544Y-133889777D01*
X111269544Y-141001777D02*
X111269544Y-134397777D01*
X108729544Y-134397777D02*
X109237544Y-133889777D01*
X109237544Y-141509777D02*
X110761544Y-141509777D01*
X110761544Y-133889777D02*
X111269544Y-134397777D01*
X108729544Y-141001777D02*
X109237544Y-141509777D01*
D12*
%TO.C,C1*%
X134861542Y-121791777D02*
X134861542Y-120902777D01*
X133337542Y-123696777D02*
X133337542Y-122807777D01*
X133337542Y-120902777D02*
X134861542Y-120902777D01*
X133337542Y-123696777D02*
X134861542Y-123696777D01*
X133337542Y-121791777D02*
X133337542Y-120902777D01*
X134861542Y-123696777D02*
X134861542Y-122807777D01*
%TD*%
%LPC*%
D10*
G36*
X191719542Y-130424777D02*
G01*
X190869542Y-130424777D01*
X190869542Y-129124777D01*
X191719542Y-129124777D01*
X191719542Y-130424777D01*
G37*
G36*
X194259542Y-130424777D02*
G01*
X193409542Y-130424777D01*
X193409542Y-129124777D01*
X194259542Y-129124777D01*
X194259542Y-130424777D01*
G37*
G36*
X192989542Y-130424777D02*
G01*
X192139542Y-130424777D01*
X192139542Y-129124777D01*
X192989542Y-129124777D01*
X192989542Y-130424777D01*
G37*
G36*
X195529542Y-130424777D02*
G01*
X194679542Y-130424777D01*
X194679542Y-129124777D01*
X195529542Y-129124777D01*
X195529542Y-130424777D01*
G37*
G36*
X195374542Y-134424777D02*
G01*
X195624542Y-134424777D01*
X195624542Y-136074777D01*
X190774542Y-136074777D01*
X190774542Y-134424777D01*
X191024542Y-134424777D01*
X191024542Y-131324779D01*
X195374542Y-131324779D01*
X195374542Y-134424777D01*
G37*
G36*
X160719542Y-130424777D02*
G01*
X159869542Y-130424777D01*
X159869542Y-129124777D01*
X160719542Y-129124777D01*
X160719542Y-130424777D01*
G37*
G36*
X163259542Y-130424777D02*
G01*
X162409542Y-130424777D01*
X162409542Y-129124777D01*
X163259542Y-129124777D01*
X163259542Y-130424777D01*
G37*
G36*
X161989542Y-130424777D02*
G01*
X161139542Y-130424777D01*
X161139542Y-129124777D01*
X161989542Y-129124777D01*
X161989542Y-130424777D01*
G37*
G36*
X164529542Y-130424777D02*
G01*
X163679542Y-130424777D01*
X163679542Y-129124777D01*
X164529542Y-129124777D01*
X164529542Y-130424777D01*
G37*
G36*
X164374542Y-134424777D02*
G01*
X164624542Y-134424777D01*
X164624542Y-136074777D01*
X159774542Y-136074777D01*
X159774542Y-134424777D01*
X160024542Y-134424777D01*
X160024542Y-131324779D01*
X164374542Y-131324779D01*
X164374542Y-134424777D01*
G37*
G36*
X181674998Y-70024998D02*
G01*
X180025000Y-70024998D01*
X180025000Y-69774998D01*
X176925000Y-69774998D01*
X176925000Y-65424998D01*
X180025000Y-65424998D01*
X180025000Y-65175000D01*
X181674998Y-65175000D01*
X181674998Y-70024998D01*
G37*
G36*
X188025000Y-68659998D02*
G01*
X186725000Y-68659998D01*
X186725000Y-67809998D01*
X188025000Y-67809998D01*
X188025000Y-68659998D01*
G37*
G36*
X181674998Y-64024998D02*
G01*
X180025000Y-64024998D01*
X180025000Y-63774998D01*
X176925000Y-63774998D01*
X176925000Y-59424998D01*
X180025000Y-59424998D01*
X180025000Y-59174998D01*
X181674998Y-59174998D01*
X181674998Y-64024998D01*
G37*
G36*
X176025000Y-54120000D02*
G01*
X174725000Y-54120000D01*
X174725000Y-53270000D01*
X176025000Y-53270000D01*
X176025000Y-54120000D01*
G37*
G36*
X188025000Y-69929998D02*
G01*
X186725000Y-69929998D01*
X186725000Y-69079998D01*
X188025000Y-69079998D01*
X188025000Y-69929998D01*
G37*
G36*
X188025000Y-67389998D02*
G01*
X186725000Y-67389998D01*
X186725000Y-66539998D01*
X188025000Y-66539998D01*
X188025000Y-67389998D01*
G37*
G36*
X193675000Y-58024998D02*
G01*
X192025000Y-58024998D01*
X192025000Y-57774998D01*
X188925000Y-57774998D01*
X188925000Y-53425000D01*
X192025000Y-53425000D01*
X192025000Y-53175001D01*
X193675000Y-53175001D01*
X193675000Y-58024998D01*
G37*
G36*
X176025000Y-61389998D02*
G01*
X174725000Y-61389998D01*
X174725000Y-60539998D01*
X176025000Y-60539998D01*
X176025000Y-61389998D01*
G37*
G36*
X176025000Y-67389998D02*
G01*
X174725000Y-67389998D01*
X174725000Y-66539998D01*
X176025000Y-66539998D01*
X176025000Y-67389998D01*
G37*
G36*
X176025000Y-56660000D02*
G01*
X174725000Y-56660000D01*
X174725000Y-55810000D01*
X176025000Y-55810000D01*
X176025000Y-56660000D01*
G37*
G36*
X176025000Y-68659998D02*
G01*
X174725000Y-68659998D01*
X174725000Y-67809998D01*
X176025000Y-67809998D01*
X176025000Y-68659998D01*
G37*
G36*
X188025000Y-57930000D02*
G01*
X186725000Y-57930000D01*
X186725000Y-57080000D01*
X188025000Y-57080000D01*
X188025000Y-57930000D01*
G37*
G36*
X193675000Y-70024998D02*
G01*
X192025000Y-70024998D01*
X192025000Y-69774998D01*
X188925000Y-69774998D01*
X188925000Y-65424998D01*
X192025000Y-65424998D01*
X192025000Y-65175000D01*
X193675000Y-65175000D01*
X193675000Y-70024998D01*
G37*
G36*
X176025000Y-55390000D02*
G01*
X174725000Y-55390000D01*
X174725000Y-54540000D01*
X176025000Y-54540000D01*
X176025000Y-55390000D01*
G37*
G36*
X176025000Y-60119998D02*
G01*
X174725000Y-60119998D01*
X174725000Y-59269998D01*
X176025000Y-59269998D01*
X176025000Y-60119998D01*
G37*
G36*
X193675000Y-64024998D02*
G01*
X192025000Y-64024998D01*
X192025000Y-63774998D01*
X188925000Y-63774998D01*
X188925000Y-59424998D01*
X192025000Y-59424998D01*
X192025000Y-59174998D01*
X193675000Y-59174998D01*
X193675000Y-64024998D01*
G37*
G36*
X188025000Y-62659998D02*
G01*
X186725000Y-62659998D01*
X186725000Y-61809998D01*
X188025000Y-61809998D01*
X188025000Y-62659998D01*
G37*
G36*
X188025000Y-55390000D02*
G01*
X186725000Y-55390000D01*
X186725000Y-54540000D01*
X188025000Y-54540000D01*
X188025000Y-55390000D01*
G37*
G36*
X176025000Y-66119998D02*
G01*
X174725000Y-66119998D01*
X174725000Y-65269998D01*
X176025000Y-65269998D01*
X176025000Y-66119998D01*
G37*
G36*
X188025000Y-66119998D02*
G01*
X186725000Y-66119998D01*
X186725000Y-65269998D01*
X188025000Y-65269998D01*
X188025000Y-66119998D01*
G37*
G36*
X181674998Y-58024998D02*
G01*
X180025000Y-58024998D01*
X180025000Y-57774998D01*
X176925000Y-57774998D01*
X176925000Y-53425000D01*
X180025000Y-53425000D01*
X180025000Y-53175001D01*
X181674998Y-53175001D01*
X181674998Y-58024998D01*
G37*
G36*
X176025000Y-69929998D02*
G01*
X174725000Y-69929998D01*
X174725000Y-69079998D01*
X176025000Y-69079998D01*
X176025000Y-69929998D01*
G37*
G36*
X188025000Y-56660000D02*
G01*
X186725000Y-56660000D01*
X186725000Y-55810000D01*
X188025000Y-55810000D01*
X188025000Y-56660000D01*
G37*
G36*
X188025000Y-61389998D02*
G01*
X186725000Y-61389998D01*
X186725000Y-60539998D01*
X188025000Y-60539998D01*
X188025000Y-61389998D01*
G37*
G36*
X176025000Y-57930000D02*
G01*
X174725000Y-57930000D01*
X174725000Y-57080000D01*
X176025000Y-57080000D01*
X176025000Y-57930000D01*
G37*
G36*
X188025000Y-63929998D02*
G01*
X186725000Y-63929998D01*
X186725000Y-63079998D01*
X188025000Y-63079998D01*
X188025000Y-63929998D01*
G37*
G36*
X176025000Y-62659998D02*
G01*
X174725000Y-62659998D01*
X174725000Y-61809998D01*
X176025000Y-61809998D01*
X176025000Y-62659998D01*
G37*
G36*
X188025000Y-60119998D02*
G01*
X186725000Y-60119998D01*
X186725000Y-59269998D01*
X188025000Y-59269998D01*
X188025000Y-60119998D01*
G37*
G36*
X176025000Y-63929998D02*
G01*
X174725000Y-63929998D01*
X174725000Y-63079998D01*
X176025000Y-63079998D01*
X176025000Y-63929998D01*
G37*
G36*
X188025000Y-54120000D02*
G01*
X186725000Y-54120000D01*
X186725000Y-53270000D01*
X188025000Y-53270000D01*
X188025000Y-54120000D01*
G37*
G36*
X150674998Y-70024998D02*
G01*
X149025000Y-70024998D01*
X149025000Y-69774998D01*
X145925000Y-69774998D01*
X145925000Y-65424998D01*
X149025000Y-65424998D01*
X149025000Y-65175000D01*
X150674998Y-65175000D01*
X150674998Y-70024998D01*
G37*
G36*
X157025000Y-68659998D02*
G01*
X155725000Y-68659998D01*
X155725000Y-67809998D01*
X157025000Y-67809998D01*
X157025000Y-68659998D01*
G37*
G36*
X150674998Y-64024998D02*
G01*
X149025000Y-64024998D01*
X149025000Y-63774998D01*
X145925000Y-63774998D01*
X145925000Y-59424998D01*
X149025000Y-59424998D01*
X149025000Y-59174998D01*
X150674998Y-59174998D01*
X150674998Y-64024998D01*
G37*
G36*
X145025000Y-54120000D02*
G01*
X143725000Y-54120000D01*
X143725000Y-53270000D01*
X145025000Y-53270000D01*
X145025000Y-54120000D01*
G37*
G36*
X157025000Y-69929998D02*
G01*
X155725000Y-69929998D01*
X155725000Y-69079998D01*
X157025000Y-69079998D01*
X157025000Y-69929998D01*
G37*
G36*
X157025000Y-67389998D02*
G01*
X155725000Y-67389998D01*
X155725000Y-66539998D01*
X157025000Y-66539998D01*
X157025000Y-67389998D01*
G37*
G36*
X162675000Y-58024998D02*
G01*
X161025000Y-58024998D01*
X161025000Y-57774998D01*
X157925000Y-57774998D01*
X157925000Y-53425000D01*
X161025000Y-53425000D01*
X161025000Y-53175001D01*
X162675000Y-53175001D01*
X162675000Y-58024998D01*
G37*
G36*
X145025000Y-61389998D02*
G01*
X143725000Y-61389998D01*
X143725000Y-60539998D01*
X145025000Y-60539998D01*
X145025000Y-61389998D01*
G37*
G36*
X145025000Y-67389998D02*
G01*
X143725000Y-67389998D01*
X143725000Y-66539998D01*
X145025000Y-66539998D01*
X145025000Y-67389998D01*
G37*
G36*
X145025000Y-56660000D02*
G01*
X143725000Y-56660000D01*
X143725000Y-55810000D01*
X145025000Y-55810000D01*
X145025000Y-56660000D01*
G37*
G36*
X145025000Y-68659998D02*
G01*
X143725000Y-68659998D01*
X143725000Y-67809998D01*
X145025000Y-67809998D01*
X145025000Y-68659998D01*
G37*
G36*
X157025000Y-57930000D02*
G01*
X155725000Y-57930000D01*
X155725000Y-57080000D01*
X157025000Y-57080000D01*
X157025000Y-57930000D01*
G37*
G36*
X162675000Y-70024998D02*
G01*
X161025000Y-70024998D01*
X161025000Y-69774998D01*
X157925000Y-69774998D01*
X157925000Y-65424998D01*
X161025000Y-65424998D01*
X161025000Y-65175000D01*
X162675000Y-65175000D01*
X162675000Y-70024998D01*
G37*
G36*
X145025000Y-55390000D02*
G01*
X143725000Y-55390000D01*
X143725000Y-54540000D01*
X145025000Y-54540000D01*
X145025000Y-55390000D01*
G37*
G36*
X145025000Y-60119998D02*
G01*
X143725000Y-60119998D01*
X143725000Y-59269998D01*
X145025000Y-59269998D01*
X145025000Y-60119998D01*
G37*
G36*
X162675000Y-64024998D02*
G01*
X161025000Y-64024998D01*
X161025000Y-63774998D01*
X157925000Y-63774998D01*
X157925000Y-59424998D01*
X161025000Y-59424998D01*
X161025000Y-59174998D01*
X162675000Y-59174998D01*
X162675000Y-64024998D01*
G37*
G36*
X157025000Y-62659998D02*
G01*
X155725000Y-62659998D01*
X155725000Y-61809998D01*
X157025000Y-61809998D01*
X157025000Y-62659998D01*
G37*
G36*
X157025000Y-55390000D02*
G01*
X155725000Y-55390000D01*
X155725000Y-54540000D01*
X157025000Y-54540000D01*
X157025000Y-55390000D01*
G37*
G36*
X145025000Y-66119998D02*
G01*
X143725000Y-66119998D01*
X143725000Y-65269998D01*
X145025000Y-65269998D01*
X145025000Y-66119998D01*
G37*
G36*
X157025000Y-66119998D02*
G01*
X155725000Y-66119998D01*
X155725000Y-65269998D01*
X157025000Y-65269998D01*
X157025000Y-66119998D01*
G37*
G36*
X150674998Y-58024998D02*
G01*
X149025000Y-58024998D01*
X149025000Y-57774998D01*
X145925000Y-57774998D01*
X145925000Y-53425000D01*
X149025000Y-53425000D01*
X149025000Y-53175001D01*
X150674998Y-53175001D01*
X150674998Y-58024998D01*
G37*
G36*
X145025000Y-69929998D02*
G01*
X143725000Y-69929998D01*
X143725000Y-69079998D01*
X145025000Y-69079998D01*
X145025000Y-69929998D01*
G37*
G36*
X157025000Y-56660000D02*
G01*
X155725000Y-56660000D01*
X155725000Y-55810000D01*
X157025000Y-55810000D01*
X157025000Y-56660000D01*
G37*
G36*
X157025000Y-61389998D02*
G01*
X155725000Y-61389998D01*
X155725000Y-60539998D01*
X157025000Y-60539998D01*
X157025000Y-61389998D01*
G37*
G36*
X145025000Y-57930000D02*
G01*
X143725000Y-57930000D01*
X143725000Y-57080000D01*
X145025000Y-57080000D01*
X145025000Y-57930000D01*
G37*
G36*
X157025000Y-63929998D02*
G01*
X155725000Y-63929998D01*
X155725000Y-63079998D01*
X157025000Y-63079998D01*
X157025000Y-63929998D01*
G37*
G36*
X145025000Y-62659998D02*
G01*
X143725000Y-62659998D01*
X143725000Y-61809998D01*
X145025000Y-61809998D01*
X145025000Y-62659998D01*
G37*
G36*
X157025000Y-60119998D02*
G01*
X155725000Y-60119998D01*
X155725000Y-59269998D01*
X157025000Y-59269998D01*
X157025000Y-60119998D01*
G37*
G36*
X145025000Y-63929998D02*
G01*
X143725000Y-63929998D01*
X143725000Y-63079998D01*
X145025000Y-63079998D01*
X145025000Y-63929998D01*
G37*
G36*
X157025000Y-54120000D02*
G01*
X155725000Y-54120000D01*
X155725000Y-53270000D01*
X157025000Y-53270000D01*
X157025000Y-54120000D01*
G37*
G36*
X126025000Y-54120000D02*
G01*
X124725000Y-54120000D01*
X124725000Y-53270000D01*
X126025000Y-53270000D01*
X126025000Y-54120000D01*
G37*
G36*
X114025000Y-63929998D02*
G01*
X112725000Y-63929998D01*
X112725000Y-63079998D01*
X114025000Y-63079998D01*
X114025000Y-63929998D01*
G37*
G36*
X126025000Y-60119998D02*
G01*
X124725000Y-60119998D01*
X124725000Y-59269998D01*
X126025000Y-59269998D01*
X126025000Y-60119998D01*
G37*
G36*
X114025000Y-62659998D02*
G01*
X112725000Y-62659998D01*
X112725000Y-61809998D01*
X114025000Y-61809998D01*
X114025000Y-62659998D01*
G37*
G36*
X131675000Y-58024998D02*
G01*
X130025000Y-58024998D01*
X130025000Y-57774998D01*
X126925000Y-57774998D01*
X126925000Y-53425000D01*
X130025000Y-53425000D01*
X130025000Y-53175001D01*
X131675000Y-53175001D01*
X131675000Y-58024998D01*
G37*
G36*
X126025000Y-67389998D02*
G01*
X124725000Y-67389998D01*
X124725000Y-66539998D01*
X126025000Y-66539998D01*
X126025000Y-67389998D01*
G37*
G36*
X126025000Y-69929998D02*
G01*
X124725000Y-69929998D01*
X124725000Y-69079998D01*
X126025000Y-69079998D01*
X126025000Y-69929998D01*
G37*
G36*
X114025000Y-54120000D02*
G01*
X112725000Y-54120000D01*
X112725000Y-53270000D01*
X114025000Y-53270000D01*
X114025000Y-54120000D01*
G37*
G36*
X114025000Y-56660000D02*
G01*
X112725000Y-56660000D01*
X112725000Y-55810000D01*
X114025000Y-55810000D01*
X114025000Y-56660000D01*
G37*
G36*
X114025000Y-67389998D02*
G01*
X112725000Y-67389998D01*
X112725000Y-66539998D01*
X114025000Y-66539998D01*
X114025000Y-67389998D01*
G37*
G36*
X114025000Y-61389998D02*
G01*
X112725000Y-61389998D01*
X112725000Y-60539998D01*
X114025000Y-60539998D01*
X114025000Y-61389998D01*
G37*
G36*
X114025000Y-55390000D02*
G01*
X112725000Y-55390000D01*
X112725000Y-54540000D01*
X114025000Y-54540000D01*
X114025000Y-55390000D01*
G37*
G36*
X131675000Y-70024998D02*
G01*
X130025000Y-70024998D01*
X130025000Y-69774998D01*
X126925000Y-69774998D01*
X126925000Y-65424998D01*
X130025000Y-65424998D01*
X130025000Y-65175000D01*
X131675000Y-65175000D01*
X131675000Y-70024998D01*
G37*
G36*
X126025000Y-57930000D02*
G01*
X124725000Y-57930000D01*
X124725000Y-57080000D01*
X126025000Y-57080000D01*
X126025000Y-57930000D01*
G37*
G36*
X114025000Y-68659998D02*
G01*
X112725000Y-68659998D01*
X112725000Y-67809998D01*
X114025000Y-67809998D01*
X114025000Y-68659998D01*
G37*
G36*
X126025000Y-55390000D02*
G01*
X124725000Y-55390000D01*
X124725000Y-54540000D01*
X126025000Y-54540000D01*
X126025000Y-55390000D01*
G37*
G36*
X126025000Y-62659998D02*
G01*
X124725000Y-62659998D01*
X124725000Y-61809998D01*
X126025000Y-61809998D01*
X126025000Y-62659998D01*
G37*
G36*
X131675000Y-64024998D02*
G01*
X130025000Y-64024998D01*
X130025000Y-63774998D01*
X126925000Y-63774998D01*
X126925000Y-59424998D01*
X130025000Y-59424998D01*
X130025000Y-59174998D01*
X131675000Y-59174998D01*
X131675000Y-64024998D01*
G37*
G36*
X114025000Y-60119998D02*
G01*
X112725000Y-60119998D01*
X112725000Y-59269998D01*
X114025000Y-59269998D01*
X114025000Y-60119998D01*
G37*
G36*
X126025000Y-63929998D02*
G01*
X124725000Y-63929998D01*
X124725000Y-63079998D01*
X126025000Y-63079998D01*
X126025000Y-63929998D01*
G37*
G36*
X114025000Y-57930000D02*
G01*
X112725000Y-57930000D01*
X112725000Y-57080000D01*
X114025000Y-57080000D01*
X114025000Y-57930000D01*
G37*
G36*
X126025000Y-61389998D02*
G01*
X124725000Y-61389998D01*
X124725000Y-60539998D01*
X126025000Y-60539998D01*
X126025000Y-61389998D01*
G37*
G36*
X126025000Y-56660000D02*
G01*
X124725000Y-56660000D01*
X124725000Y-55810000D01*
X126025000Y-55810000D01*
X126025000Y-56660000D01*
G37*
G36*
X114025000Y-69929998D02*
G01*
X112725000Y-69929998D01*
X112725000Y-69079998D01*
X114025000Y-69079998D01*
X114025000Y-69929998D01*
G37*
G36*
X119674998Y-58024998D02*
G01*
X118025000Y-58024998D01*
X118025000Y-57774998D01*
X114925000Y-57774998D01*
X114925000Y-53425000D01*
X118025000Y-53425000D01*
X118025000Y-53175001D01*
X119674998Y-53175001D01*
X119674998Y-58024998D01*
G37*
G36*
X126025000Y-66119998D02*
G01*
X124725000Y-66119998D01*
X124725000Y-65269998D01*
X126025000Y-65269998D01*
X126025000Y-66119998D01*
G37*
G36*
X114025000Y-66119998D02*
G01*
X112725000Y-66119998D01*
X112725000Y-65269998D01*
X114025000Y-65269998D01*
X114025000Y-66119998D01*
G37*
G36*
X119674998Y-64024998D02*
G01*
X118025000Y-64024998D01*
X118025000Y-63774998D01*
X114925000Y-63774998D01*
X114925000Y-59424998D01*
X118025000Y-59424998D01*
X118025000Y-59174998D01*
X119674998Y-59174998D01*
X119674998Y-64024998D01*
G37*
G36*
X126025000Y-68659998D02*
G01*
X124725000Y-68659998D01*
X124725000Y-67809998D01*
X126025000Y-67809998D01*
X126025000Y-68659998D01*
G37*
G36*
X119674998Y-70024998D02*
G01*
X118025000Y-70024998D01*
X118025000Y-69774998D01*
X114925000Y-69774998D01*
X114925000Y-65424998D01*
X118025000Y-65424998D01*
X118025000Y-65175000D01*
X119674998Y-65175000D01*
X119674998Y-70024998D01*
G37*
G36*
X133374542Y-134424777D02*
G01*
X133624542Y-134424777D01*
X133624542Y-136074777D01*
X128774542Y-136074777D01*
X128774542Y-134424777D01*
X129024542Y-134424777D01*
X129024542Y-131324779D01*
X133374542Y-131324779D01*
X133374542Y-134424777D01*
G37*
G36*
X133529542Y-130424777D02*
G01*
X132679542Y-130424777D01*
X132679542Y-129124777D01*
X133529542Y-129124777D01*
X133529542Y-130424777D01*
G37*
G36*
X130989542Y-130424777D02*
G01*
X130139542Y-130424777D01*
X130139542Y-129124777D01*
X130989542Y-129124777D01*
X130989542Y-130424777D01*
G37*
G36*
X132259542Y-130424777D02*
G01*
X131409542Y-130424777D01*
X131409542Y-129124777D01*
X132259542Y-129124777D01*
X132259542Y-130424777D01*
G37*
G36*
X129719542Y-130424777D02*
G01*
X128869542Y-130424777D01*
X128869542Y-129124777D01*
X129719542Y-129124777D01*
X129719542Y-130424777D01*
G37*
D15*
%TO.C,R62*%
X190737542Y-120399777D03*
X192261542Y-120399777D03*
%TD*%
D16*
%TO.C,IC13*%
X176299542Y-123449777D03*
D17*
X178599544Y-130099777D03*
D16*
X180899544Y-123449777D03*
%TD*%
D18*
%TO.C,D12*%
X186799542Y-137582777D03*
X186799542Y-130216777D03*
%TD*%
D19*
%TO.C,ST25*%
X195865544Y-115299779D03*
X193325544Y-115299779D03*
D20*
X190785544Y-115299779D03*
%TD*%
D21*
%TO.C,C96*%
X193775542Y-127099777D03*
X196823542Y-127099777D03*
%TD*%
D22*
%TO.C,C100*%
X187699542Y-124761777D03*
X187699542Y-123237777D03*
%TD*%
D23*
%TO.C,ST29*%
X171999544Y-140239777D03*
X171999544Y-137699777D03*
D24*
X171999544Y-135159777D03*
%TD*%
D23*
%TO.C,ST30*%
X182129544Y-114799777D03*
D24*
X184669544Y-114799777D03*
%TD*%
D25*
%TO.C,Q21*%
X193199542Y-133149777D03*
D26*
X195104542Y-135549777D03*
X193834542Y-135549777D03*
X192564542Y-135549777D03*
X191294542Y-135549777D03*
D27*
X191294542Y-129849777D03*
X192564542Y-129849777D03*
X193834542Y-129849777D03*
X195104542Y-129849777D03*
%TD*%
D22*
%TO.C,C99*%
X194499542Y-121261777D03*
X194499542Y-119737777D03*
%TD*%
D28*
%TO.C,C108*%
X188799544Y-143423779D03*
X188799544Y-140375779D03*
%TD*%
D29*
%TO.C,IC14*%
X192099542Y-123899780D03*
D30*
X194249542Y-122924780D03*
X194249542Y-123574779D03*
X194249542Y-124224780D03*
X194249542Y-124874779D03*
X189949542Y-124874779D03*
X189949542Y-124224780D03*
X189949542Y-123574779D03*
X189949542Y-122924780D03*
%TD*%
D28*
%TO.C,C109*%
X186099544Y-143423779D03*
X186099544Y-140375779D03*
%TD*%
D22*
%TO.C,C93*%
X196099542Y-121537777D03*
X196099542Y-123061777D03*
%TD*%
D31*
%TO.C,L7*%
X194099542Y-143149779D03*
X194099542Y-138049779D03*
%TD*%
D23*
%TO.C,ST27*%
X171999544Y-124479779D03*
X171999544Y-121939779D03*
D24*
X171999544Y-119399779D03*
%TD*%
D23*
%TO.C,ST26*%
X178935542Y-114804779D03*
D24*
X176395542Y-114804779D03*
%TD*%
D15*
%TO.C,C105*%
X176337544Y-120799777D03*
X177861544Y-120799777D03*
%TD*%
%TO.C,R64*%
X186237542Y-121599777D03*
X187761542Y-121599777D03*
%TD*%
D21*
%TO.C,C98*%
X191723542Y-127099777D03*
X188675542Y-127099777D03*
%TD*%
D23*
%TO.C,ST31*%
X181470000Y-143600000D03*
D24*
X178930000Y-143600000D03*
%TD*%
D23*
%TO.C,ST28*%
X171999544Y-132339777D03*
X171999544Y-129799777D03*
D24*
X171999544Y-127259777D03*
%TD*%
D15*
%TO.C,C104*%
X180961542Y-120799777D03*
X179437542Y-120799777D03*
%TD*%
D28*
%TO.C,C103*%
X175299542Y-140823779D03*
X175299542Y-137775779D03*
%TD*%
D22*
%TO.C,R63*%
X185899544Y-123237777D03*
X185899544Y-124761777D03*
%TD*%
D21*
%TO.C,C106*%
X176575542Y-118599777D03*
X179623542Y-118599777D03*
%TD*%
D15*
%TO.C,R56*%
X159737542Y-120399777D03*
X161261542Y-120399777D03*
%TD*%
D16*
%TO.C,IC10*%
X145299542Y-123449777D03*
D17*
X147599544Y-130099777D03*
D16*
X149899544Y-123449777D03*
%TD*%
D18*
%TO.C,D10*%
X155799542Y-137582777D03*
X155799542Y-130216777D03*
%TD*%
D19*
%TO.C,ST18*%
X164865544Y-115299779D03*
X162325544Y-115299779D03*
D20*
X159785544Y-115299779D03*
%TD*%
D21*
%TO.C,C74*%
X162775542Y-127099777D03*
X165823542Y-127099777D03*
%TD*%
D22*
%TO.C,C78*%
X156699542Y-124761777D03*
X156699542Y-123237777D03*
%TD*%
D23*
%TO.C,ST22*%
X140999544Y-140239777D03*
X140999544Y-137699777D03*
D24*
X140999544Y-135159777D03*
%TD*%
D23*
%TO.C,ST23*%
X151129544Y-114799777D03*
D24*
X153669544Y-114799777D03*
%TD*%
D25*
%TO.C,Q20*%
X162199542Y-133149777D03*
D26*
X164104542Y-135549777D03*
X162834542Y-135549777D03*
X161564542Y-135549777D03*
X160294542Y-135549777D03*
D27*
X160294542Y-129849777D03*
X161564542Y-129849777D03*
X162834542Y-129849777D03*
X164104542Y-129849777D03*
%TD*%
D22*
%TO.C,C77*%
X163499542Y-121261777D03*
X163499542Y-119737777D03*
%TD*%
D28*
%TO.C,C86*%
X157799544Y-143423779D03*
X157799544Y-140375779D03*
%TD*%
D29*
%TO.C,IC11*%
X161099542Y-123899780D03*
D30*
X163249542Y-122924780D03*
X163249542Y-123574779D03*
X163249542Y-124224780D03*
X163249542Y-124874779D03*
X158949542Y-124874779D03*
X158949542Y-124224780D03*
X158949542Y-123574779D03*
X158949542Y-122924780D03*
%TD*%
D28*
%TO.C,C87*%
X155099544Y-143423779D03*
X155099544Y-140375779D03*
%TD*%
D22*
%TO.C,C71*%
X165099542Y-121537777D03*
X165099542Y-123061777D03*
%TD*%
D31*
%TO.C,L5*%
X163099542Y-143149779D03*
X163099542Y-138049779D03*
%TD*%
D23*
%TO.C,ST20*%
X140999544Y-124479779D03*
X140999544Y-121939779D03*
D24*
X140999544Y-119399779D03*
%TD*%
D23*
%TO.C,ST19*%
X147935542Y-114804779D03*
D24*
X145395542Y-114804779D03*
%TD*%
D15*
%TO.C,C83*%
X145337544Y-120799777D03*
X146861544Y-120799777D03*
%TD*%
%TO.C,R58*%
X155237542Y-121599777D03*
X156761542Y-121599777D03*
%TD*%
D21*
%TO.C,C76*%
X160723542Y-127099777D03*
X157675542Y-127099777D03*
%TD*%
D23*
%TO.C,ST24*%
X150470000Y-143600000D03*
D24*
X147930000Y-143600000D03*
%TD*%
D23*
%TO.C,ST21*%
X140999544Y-132339777D03*
X140999544Y-129799777D03*
D24*
X140999544Y-127259777D03*
%TD*%
D15*
%TO.C,C82*%
X149961542Y-120799777D03*
X148437542Y-120799777D03*
%TD*%
D28*
%TO.C,C81*%
X144299542Y-140823779D03*
X144299542Y-137775779D03*
%TD*%
D22*
%TO.C,R57*%
X154899544Y-123237777D03*
X154899544Y-124761777D03*
%TD*%
D21*
%TO.C,C84*%
X145575542Y-118599777D03*
X148623542Y-118599777D03*
%TD*%
D15*
%TO.C,C64*%
X175433416Y-83160073D03*
X176957416Y-83160073D03*
%TD*%
D22*
%TO.C,R42*%
X178695416Y-84722074D03*
X178695416Y-83198074D03*
%TD*%
D21*
%TO.C,C56*%
X193891174Y-83299998D03*
X190843174Y-83299998D03*
%TD*%
%TO.C,C55*%
X193676000Y-86199998D03*
X196724000Y-86199998D03*
%TD*%
D28*
%TO.C,C59*%
X182600000Y-83124000D03*
X182600000Y-80076000D03*
%TD*%
D24*
%TO.C,ST16*%
X195560000Y-107599998D03*
D23*
X193020000Y-107599998D03*
X190480000Y-107599998D03*
X187940000Y-107599998D03*
X185400000Y-107599998D03*
X182860000Y-107599998D03*
X180320000Y-107599998D03*
X177780000Y-107599998D03*
X175240000Y-107599998D03*
X172700000Y-107599998D03*
%TD*%
D22*
%TO.C,C62*%
X183695416Y-92722073D03*
X183695416Y-91198073D03*
%TD*%
%TO.C,R43*%
X172200000Y-95798072D03*
X172200000Y-97322072D03*
%TD*%
D32*
%TO.C,IC9*%
X188155415Y-97210073D03*
X188155415Y-97710072D03*
X188155415Y-98210074D03*
X188155415Y-98710073D03*
X188155415Y-99210074D03*
X188155415Y-99710073D03*
D33*
X188845416Y-100400074D03*
X189345415Y-100400074D03*
X189845416Y-100400074D03*
X190345415Y-100400074D03*
X190845417Y-100400074D03*
X191345416Y-100400074D03*
D34*
X192035417Y-99710073D03*
X192035417Y-99210074D03*
X192035417Y-98710073D03*
X192035417Y-98210074D03*
X192035417Y-97710072D03*
X192035417Y-97210073D03*
D35*
X191345416Y-96520072D03*
X190845417Y-96520072D03*
X190345415Y-96520072D03*
X189845416Y-96520072D03*
X189345415Y-96520072D03*
X188845416Y-96520072D03*
D36*
X190095416Y-98460073D03*
%TD*%
D22*
%TO.C,R48*%
X176295415Y-95798072D03*
X176295415Y-97322072D03*
%TD*%
%TO.C,C68*%
X193795416Y-101622073D03*
X193795416Y-100098073D03*
%TD*%
D15*
%TO.C,C70*%
X192557417Y-94660073D03*
X191033417Y-94660073D03*
%TD*%
D22*
%TO.C,C66*%
X186495415Y-100622073D03*
X186495415Y-99098073D03*
%TD*%
%TO.C,R51*%
X174495416Y-100422071D03*
X174495416Y-98898071D03*
%TD*%
%TO.C,R53*%
X181695415Y-100422071D03*
X181695415Y-98898071D03*
%TD*%
%TO.C,R50*%
X174495416Y-95798072D03*
X174495416Y-97322072D03*
%TD*%
D15*
%TO.C,C63*%
X173033415Y-88960072D03*
X174557415Y-88960072D03*
%TD*%
D22*
%TO.C,R45*%
X179895416Y-100422071D03*
X179895416Y-98898071D03*
%TD*%
%TO.C,R46*%
X178095417Y-95798072D03*
X178095417Y-97322072D03*
%TD*%
D15*
%TO.C,C61*%
X174271416Y-86860073D03*
X175795416Y-86860073D03*
%TD*%
D24*
%TO.C,ST17*%
X176395316Y-79804903D03*
D23*
X178935316Y-79804903D03*
%TD*%
D22*
%TO.C,R49*%
X172695415Y-100422071D03*
X172695415Y-98898071D03*
%TD*%
D15*
%TO.C,R41*%
X175033416Y-84960072D03*
X176557416Y-84960072D03*
%TD*%
%TO.C,C69*%
X195962000Y-97299998D03*
X194438000Y-97299998D03*
%TD*%
D20*
%TO.C,ST15*%
X190785417Y-80300000D03*
D19*
X193325417Y-80300000D03*
X195865417Y-80300000D03*
%TD*%
D22*
%TO.C,R47*%
X176295415Y-100422071D03*
X176295415Y-98898071D03*
%TD*%
D37*
%TO.C,IC8*%
X177445416Y-87110073D03*
X177445416Y-87610072D03*
X177445416Y-88110071D03*
X177445416Y-88610072D03*
X177445416Y-89110071D03*
X177445416Y-89610073D03*
X177445416Y-90110072D03*
X177445416Y-90610071D03*
D38*
X178045417Y-91210072D03*
X178545416Y-91210072D03*
X179045415Y-91210072D03*
X179545417Y-91210072D03*
X180045416Y-91210072D03*
X180545417Y-91210072D03*
X181045416Y-91210072D03*
X181545415Y-91210072D03*
D37*
X182145416Y-90610071D03*
X182145416Y-90110072D03*
X182145416Y-89610073D03*
X182145416Y-89110071D03*
X182145416Y-88610072D03*
X182145416Y-88110071D03*
X182145416Y-87610072D03*
X182145416Y-87110073D03*
D38*
X181545415Y-86510072D03*
X181045416Y-86510072D03*
X180545417Y-86510072D03*
X180045416Y-86510072D03*
X179545417Y-86510072D03*
X179045415Y-86510072D03*
X178545416Y-86510072D03*
X178045417Y-86510072D03*
D39*
X179795416Y-88860072D03*
%TD*%
D22*
%TO.C,C57*%
X184695416Y-100622073D03*
X184695416Y-99098073D03*
%TD*%
%TO.C,R52*%
X178095417Y-100422071D03*
X178095417Y-98898071D03*
%TD*%
D15*
%TO.C,C48*%
X144433416Y-83160073D03*
X145957416Y-83160073D03*
%TD*%
D22*
%TO.C,R28*%
X147695416Y-84722074D03*
X147695416Y-83198074D03*
%TD*%
D21*
%TO.C,C40*%
X162891174Y-83299998D03*
X159843174Y-83299998D03*
%TD*%
%TO.C,C39*%
X162676000Y-86199998D03*
X165724000Y-86199998D03*
%TD*%
D28*
%TO.C,C43*%
X151600000Y-83124000D03*
X151600000Y-80076000D03*
%TD*%
D24*
%TO.C,ST13*%
X164560000Y-107599998D03*
D23*
X162020000Y-107599998D03*
X159480000Y-107599998D03*
X156940000Y-107599998D03*
X154400000Y-107599998D03*
X151860000Y-107599998D03*
X149320000Y-107599998D03*
X146780000Y-107599998D03*
X144240000Y-107599998D03*
X141700000Y-107599998D03*
%TD*%
D22*
%TO.C,C46*%
X152695416Y-92722073D03*
X152695416Y-91198073D03*
%TD*%
%TO.C,R29*%
X141200000Y-95798072D03*
X141200000Y-97322072D03*
%TD*%
D32*
%TO.C,IC6*%
X157155415Y-97210073D03*
X157155415Y-97710072D03*
X157155415Y-98210074D03*
X157155415Y-98710073D03*
X157155415Y-99210074D03*
X157155415Y-99710073D03*
D33*
X157845416Y-100400074D03*
X158345415Y-100400074D03*
X158845416Y-100400074D03*
X159345415Y-100400074D03*
X159845417Y-100400074D03*
X160345416Y-100400074D03*
D34*
X161035417Y-99710073D03*
X161035417Y-99210074D03*
X161035417Y-98710073D03*
X161035417Y-98210074D03*
X161035417Y-97710072D03*
X161035417Y-97210073D03*
D35*
X160345416Y-96520072D03*
X159845417Y-96520072D03*
X159345415Y-96520072D03*
X158845416Y-96520072D03*
X158345415Y-96520072D03*
X157845416Y-96520072D03*
D36*
X159095416Y-98460073D03*
%TD*%
D22*
%TO.C,R34*%
X145295415Y-95798072D03*
X145295415Y-97322072D03*
%TD*%
%TO.C,C52*%
X162795416Y-101622073D03*
X162795416Y-100098073D03*
%TD*%
D15*
%TO.C,C54*%
X161557417Y-94660073D03*
X160033417Y-94660073D03*
%TD*%
D22*
%TO.C,C50*%
X155495415Y-100622073D03*
X155495415Y-99098073D03*
%TD*%
%TO.C,R37*%
X143495416Y-100422071D03*
X143495416Y-98898071D03*
%TD*%
%TO.C,R39*%
X150695415Y-100422071D03*
X150695415Y-98898071D03*
%TD*%
%TO.C,R36*%
X143495416Y-95798072D03*
X143495416Y-97322072D03*
%TD*%
D15*
%TO.C,C47*%
X142033415Y-88960072D03*
X143557415Y-88960072D03*
%TD*%
D22*
%TO.C,R31*%
X148895416Y-100422071D03*
X148895416Y-98898071D03*
%TD*%
%TO.C,R32*%
X147095417Y-95798072D03*
X147095417Y-97322072D03*
%TD*%
D15*
%TO.C,C45*%
X143271416Y-86860073D03*
X144795416Y-86860073D03*
%TD*%
D24*
%TO.C,ST14*%
X145395316Y-79804903D03*
D23*
X147935316Y-79804903D03*
%TD*%
D22*
%TO.C,R35*%
X141695415Y-100422071D03*
X141695415Y-98898071D03*
%TD*%
D15*
%TO.C,R27*%
X144033416Y-84960072D03*
X145557416Y-84960072D03*
%TD*%
%TO.C,C53*%
X164962000Y-97299998D03*
X163438000Y-97299998D03*
%TD*%
D20*
%TO.C,ST12*%
X159785417Y-80300000D03*
D19*
X162325417Y-80300000D03*
X164865417Y-80300000D03*
%TD*%
D22*
%TO.C,R33*%
X145295415Y-100422071D03*
X145295415Y-98898071D03*
%TD*%
D37*
%TO.C,IC5*%
X146445416Y-87110073D03*
X146445416Y-87610072D03*
X146445416Y-88110071D03*
X146445416Y-88610072D03*
X146445416Y-89110071D03*
X146445416Y-89610073D03*
X146445416Y-90110072D03*
X146445416Y-90610071D03*
D38*
X147045417Y-91210072D03*
X147545416Y-91210072D03*
X148045415Y-91210072D03*
X148545417Y-91210072D03*
X149045416Y-91210072D03*
X149545417Y-91210072D03*
X150045416Y-91210072D03*
X150545415Y-91210072D03*
D37*
X151145416Y-90610071D03*
X151145416Y-90110072D03*
X151145416Y-89610073D03*
X151145416Y-89110071D03*
X151145416Y-88610072D03*
X151145416Y-88110071D03*
X151145416Y-87610072D03*
X151145416Y-87110073D03*
D38*
X150545415Y-86510072D03*
X150045416Y-86510072D03*
X149545417Y-86510072D03*
X149045416Y-86510072D03*
X148545417Y-86510072D03*
X148045415Y-86510072D03*
X147545416Y-86510072D03*
X147045417Y-86510072D03*
D39*
X148795416Y-88860072D03*
%TD*%
D22*
%TO.C,C41*%
X153695416Y-100622073D03*
X153695416Y-99098073D03*
%TD*%
%TO.C,R38*%
X147095417Y-100422071D03*
X147095417Y-98898071D03*
%TD*%
D24*
%TO.C,ST11*%
X195560000Y-72599998D03*
D23*
X193020000Y-72599998D03*
X190480000Y-72599998D03*
X187940000Y-72599998D03*
X185400000Y-72599998D03*
X182860000Y-72599998D03*
X180320000Y-72599998D03*
X177780000Y-72599998D03*
X175240000Y-72599998D03*
X172700000Y-72599998D03*
%TD*%
D40*
%TO.C,TP13*%
X184100000Y-66964998D03*
%TD*%
%TO.C,TP12*%
X173500000Y-49799998D03*
%TD*%
%TO.C,TP15*%
X184100000Y-54965000D03*
%TD*%
D20*
%TO.C,ST10*%
X193330000Y-45300000D03*
D19*
X195870000Y-45300000D03*
%TD*%
D41*
%TO.C,Q18*%
X175350000Y-59694998D03*
X175350000Y-60964998D03*
X175350000Y-62234998D03*
X175350000Y-63504998D03*
D42*
X181049998Y-63504998D03*
X181049998Y-62234998D03*
X181049998Y-60964998D03*
X181049998Y-59694998D03*
D43*
X178649998Y-61599998D03*
%TD*%
D24*
%TO.C,C31*%
X179800000Y-49649998D03*
D23*
X179800000Y-46150001D03*
%TD*%
D41*
%TO.C,Q19*%
X175350000Y-53695000D03*
X175350000Y-54965000D03*
X175350000Y-56235000D03*
X175350000Y-57505000D03*
D42*
X181049998Y-57505000D03*
X181049998Y-56235000D03*
X181049998Y-54965000D03*
X181049998Y-53695000D03*
D43*
X178649998Y-55600000D03*
%TD*%
D40*
%TO.C,TP14*%
X184100000Y-60964998D03*
%TD*%
D41*
%TO.C,Q14*%
X187350000Y-65694998D03*
X187350000Y-66964998D03*
X187350000Y-68234998D03*
X187350000Y-69504998D03*
D42*
X193050000Y-69504998D03*
X193050000Y-68234998D03*
X193050000Y-66964998D03*
X193050000Y-65694998D03*
D43*
X190650000Y-67599998D03*
%TD*%
D41*
%TO.C,Q17*%
X175350000Y-65694998D03*
X175350000Y-66964998D03*
X175350000Y-68234998D03*
X175350000Y-69504998D03*
D42*
X181049998Y-69504998D03*
X181049998Y-68234998D03*
X181049998Y-66964998D03*
X181049998Y-65694998D03*
D43*
X178649998Y-67599998D03*
%TD*%
D41*
%TO.C,Q16*%
X187350000Y-53695000D03*
X187350000Y-54965000D03*
X187350000Y-56235000D03*
X187350000Y-57505000D03*
D42*
X193050000Y-57505000D03*
X193050000Y-56235000D03*
X193050000Y-54965000D03*
X193050000Y-53695000D03*
D43*
X190650000Y-55600000D03*
%TD*%
D24*
%TO.C,C32*%
X188200000Y-49649998D03*
D23*
X188200000Y-46150001D03*
%TD*%
D44*
%TO.C,4*%
X172500002Y-60199998D03*
%TD*%
D40*
%TO.C,TP11*%
X194900000Y-50300000D03*
%TD*%
D41*
%TO.C,Q15*%
X187350000Y-59694998D03*
X187350000Y-60964998D03*
X187350000Y-62234998D03*
X187350000Y-63504998D03*
D42*
X193050000Y-63504998D03*
X193050000Y-62234998D03*
X193050000Y-60964998D03*
X193050000Y-59694998D03*
D43*
X190650000Y-61599998D03*
%TD*%
D44*
%TO.C,3*%
X195700002Y-60700000D03*
%TD*%
D24*
%TO.C,ST9*%
X164560000Y-72599998D03*
D23*
X162020000Y-72599998D03*
X159480000Y-72599998D03*
X156940000Y-72599998D03*
X154400000Y-72599998D03*
X151860000Y-72599998D03*
X149320000Y-72599998D03*
X146780000Y-72599998D03*
X144240000Y-72599998D03*
X141700000Y-72599998D03*
%TD*%
D40*
%TO.C,TP8*%
X153100000Y-66964998D03*
%TD*%
%TO.C,TP7*%
X142500000Y-49799998D03*
%TD*%
%TO.C,TP10*%
X153100000Y-54965000D03*
%TD*%
D20*
%TO.C,ST8*%
X162330000Y-45300000D03*
D19*
X164870000Y-45300000D03*
%TD*%
D41*
%TO.C,Q12*%
X144350000Y-59694998D03*
X144350000Y-60964998D03*
X144350000Y-62234998D03*
X144350000Y-63504998D03*
D42*
X150049998Y-63504998D03*
X150049998Y-62234998D03*
X150049998Y-60964998D03*
X150049998Y-59694998D03*
D43*
X147649998Y-61599998D03*
%TD*%
D24*
%TO.C,C23*%
X148800000Y-49649998D03*
D23*
X148800000Y-46150001D03*
%TD*%
D41*
%TO.C,Q13*%
X144350000Y-53695000D03*
X144350000Y-54965000D03*
X144350000Y-56235000D03*
X144350000Y-57505000D03*
D42*
X150049998Y-57505000D03*
X150049998Y-56235000D03*
X150049998Y-54965000D03*
X150049998Y-53695000D03*
D43*
X147649998Y-55600000D03*
%TD*%
D40*
%TO.C,TP9*%
X153100000Y-60964998D03*
%TD*%
D41*
%TO.C,Q4*%
X156350000Y-65694998D03*
X156350000Y-66964998D03*
X156350000Y-68234998D03*
X156350000Y-69504998D03*
D42*
X162050000Y-69504998D03*
X162050000Y-68234998D03*
X162050000Y-66964998D03*
X162050000Y-65694998D03*
D43*
X159650000Y-67599998D03*
%TD*%
D41*
%TO.C,Q10*%
X144350000Y-65694998D03*
X144350000Y-66964998D03*
X144350000Y-68234998D03*
X144350000Y-69504998D03*
D42*
X150049998Y-69504998D03*
X150049998Y-68234998D03*
X150049998Y-66964998D03*
X150049998Y-65694998D03*
D43*
X147649998Y-67599998D03*
%TD*%
D41*
%TO.C,Q8*%
X156350000Y-53695000D03*
X156350000Y-54965000D03*
X156350000Y-56235000D03*
X156350000Y-57505000D03*
D42*
X162050000Y-57505000D03*
X162050000Y-56235000D03*
X162050000Y-54965000D03*
X162050000Y-53695000D03*
D43*
X159650000Y-55600000D03*
%TD*%
D24*
%TO.C,C24*%
X157200000Y-49649998D03*
D23*
X157200000Y-46150001D03*
%TD*%
D44*
%TO.C,2*%
X141500002Y-60199998D03*
%TD*%
D40*
%TO.C,TP6*%
X163900000Y-50300000D03*
%TD*%
D41*
%TO.C,Q6*%
X156350000Y-59694998D03*
X156350000Y-60964998D03*
X156350000Y-62234998D03*
X156350000Y-63504998D03*
D42*
X162050000Y-63504998D03*
X162050000Y-62234998D03*
X162050000Y-60964998D03*
X162050000Y-59694998D03*
D43*
X159650000Y-61599998D03*
%TD*%
D44*
%TO.C,1*%
X164700002Y-60700000D03*
%TD*%
D45*
%TO.C,*%
X202250000Y-42800000D03*
%TD*%
%TO.C,*%
X205250000Y-145200000D03*
%TD*%
%TO.C,*%
X107050000Y-42800000D03*
X109150000Y-42800000D03*
X107800000Y-44900000D03*
X107800000Y-41300000D03*
X107800000Y-43400000D03*
X109900000Y-42800000D03*
X106300000Y-42800000D03*
X108400000Y-42800000D03*
X107800000Y-42050000D03*
X107800000Y-44150000D03*
X107800000Y-40550000D03*
X105550000Y-42800000D03*
%TD*%
%TO.C,*%
X201500000Y-42800000D03*
%TD*%
%TO.C,*%
X104500000Y-145200000D03*
%TD*%
%TO.C,*%
X100750000Y-145200000D03*
%TD*%
%TO.C,*%
X205250000Y-42800000D03*
%TD*%
%TO.C,*%
X170400000Y-42800000D03*
X171900000Y-42800000D03*
X167200000Y-44900000D03*
X169800000Y-44150000D03*
X165850000Y-42800000D03*
X166600000Y-42800000D03*
X169800000Y-44900000D03*
X167200000Y-44150000D03*
X169800000Y-43400000D03*
X165100000Y-42800000D03*
X167200000Y-43400000D03*
X168500000Y-42800000D03*
X171150000Y-42800000D03*
%TD*%
D19*
%TO.C,*%
X104000000Y-36500000D03*
%TD*%
D45*
%TO.C,*%
X204500000Y-42800000D03*
%TD*%
%TO.C,*%
X102250000Y-42800000D03*
%TD*%
%TO.C,*%
X198200000Y-147450000D03*
X200450000Y-145200000D03*
X196850000Y-145200000D03*
X199700000Y-145200000D03*
X196100000Y-145200000D03*
X198200000Y-146700000D03*
X197600000Y-145200000D03*
X198200000Y-145950000D03*
X198950000Y-145200000D03*
X198200000Y-143100000D03*
X198200000Y-144600000D03*
X198200000Y-143850000D03*
%TD*%
%TO.C,*%
X203750000Y-145200000D03*
%TD*%
%TO.C,*%
X138800000Y-76500000D03*
X139400000Y-75200000D03*
X136200000Y-78400000D03*
X138800000Y-74600000D03*
X135600000Y-77800000D03*
X136200000Y-74600000D03*
X138800000Y-73850000D03*
X138800000Y-73100000D03*
X140900000Y-75200000D03*
X134850000Y-77800000D03*
X140900000Y-77800000D03*
X138800000Y-79150000D03*
X136200000Y-73850000D03*
X136200000Y-79900000D03*
X134100000Y-75200000D03*
X136200000Y-76500000D03*
X138800000Y-79900000D03*
X134850000Y-75200000D03*
X140150000Y-77800000D03*
X138800000Y-78400000D03*
X134100000Y-77800000D03*
X136200000Y-73100000D03*
X135600000Y-75200000D03*
X139400000Y-77800000D03*
X140150000Y-75200000D03*
X136200000Y-79150000D03*
%TD*%
%TO.C,*%
X203000000Y-42800000D03*
%TD*%
%TO.C,*%
X107800000Y-78400000D03*
X108400000Y-77800000D03*
X107800000Y-74600000D03*
X109150000Y-77800000D03*
X109900000Y-75200000D03*
X107800000Y-76500000D03*
X108400000Y-75200000D03*
X107800000Y-73850000D03*
X107800000Y-79900000D03*
X107800000Y-79150000D03*
X107800000Y-73100000D03*
X109900000Y-77800000D03*
X109150000Y-75200000D03*
%TD*%
%TO.C,*%
X103000000Y-145200000D03*
%TD*%
%TO.C,*%
X201500000Y-145200000D03*
%TD*%
D19*
%TO.C,*%
X202000000Y-149000000D03*
%TD*%
D45*
%TO.C,*%
X138800000Y-108850000D03*
X134850000Y-112800000D03*
X140150000Y-110200000D03*
X134850000Y-110200000D03*
X136200000Y-109600000D03*
X136200000Y-114900000D03*
X136200000Y-111500000D03*
X134100000Y-112800000D03*
X139400000Y-112800000D03*
X138800000Y-111500000D03*
X140150000Y-112800000D03*
X138800000Y-108100000D03*
X140900000Y-112800000D03*
X136200000Y-113400000D03*
X135600000Y-110200000D03*
X136200000Y-108850000D03*
X135600000Y-112800000D03*
X134100000Y-110200000D03*
X140900000Y-110200000D03*
X138800000Y-114900000D03*
X138800000Y-113400000D03*
X136200000Y-108100000D03*
X139400000Y-110200000D03*
X138800000Y-109600000D03*
X138800000Y-114150000D03*
X136200000Y-114150000D03*
%TD*%
%TO.C,*%
X101500000Y-42800000D03*
%TD*%
%TO.C,*%
X166600000Y-145200000D03*
X167200000Y-144600000D03*
X167200000Y-143100000D03*
X165100000Y-145200000D03*
X169800000Y-143850000D03*
X171150000Y-145200000D03*
X171900000Y-145200000D03*
X167200000Y-143850000D03*
X170400000Y-145200000D03*
X169800000Y-143100000D03*
X168500000Y-145200000D03*
X165850000Y-145200000D03*
X169800000Y-144600000D03*
%TD*%
%TO.C,*%
X204500000Y-145200000D03*
%TD*%
%TO.C,*%
X102250000Y-145200000D03*
%TD*%
%TO.C,*%
X138800000Y-43400000D03*
X137500000Y-42800000D03*
X140900000Y-42800000D03*
X134850000Y-42800000D03*
X136200000Y-43400000D03*
X135600000Y-42800000D03*
X136200000Y-44150000D03*
X139400000Y-42800000D03*
X138800000Y-44150000D03*
X136200000Y-44900000D03*
X140150000Y-42800000D03*
X138800000Y-44900000D03*
X134100000Y-42800000D03*
%TD*%
%TO.C,*%
X203750000Y-42800000D03*
%TD*%
%TO.C,*%
X135600000Y-145200000D03*
X140900000Y-145200000D03*
X134850000Y-145200000D03*
X138800000Y-144600000D03*
X138800000Y-143850000D03*
X137500000Y-145200000D03*
X139400000Y-145200000D03*
X136200000Y-143100000D03*
X134100000Y-145200000D03*
X138800000Y-143100000D03*
X136200000Y-144600000D03*
X136200000Y-143850000D03*
X140150000Y-145200000D03*
%TD*%
D46*
%TO.C,*%
X196000000Y-35000000D03*
%TD*%
D45*
%TO.C,*%
X198200000Y-73100000D03*
X196850000Y-75200000D03*
X196100000Y-75200000D03*
X198200000Y-79900000D03*
X198200000Y-79150000D03*
X198200000Y-73850000D03*
X196850000Y-77800000D03*
X197600000Y-77800000D03*
X198200000Y-76500000D03*
X197600000Y-75200000D03*
X198200000Y-78400000D03*
X198200000Y-74600000D03*
X196100000Y-77800000D03*
%TD*%
%TO.C,*%
X101500000Y-145200000D03*
%TD*%
%TO.C,*%
X100750000Y-42800000D03*
%TD*%
%TO.C,*%
X171900000Y-77800000D03*
X169800000Y-79150000D03*
X169800000Y-73850000D03*
X165100000Y-75200000D03*
X167200000Y-73850000D03*
X171150000Y-77800000D03*
X167200000Y-73100000D03*
X170400000Y-75200000D03*
X166600000Y-75200000D03*
X170400000Y-77800000D03*
X165850000Y-77800000D03*
X171150000Y-75200000D03*
X167200000Y-78400000D03*
X167200000Y-74600000D03*
X169800000Y-76500000D03*
X167200000Y-79150000D03*
X166600000Y-77800000D03*
X167200000Y-76500000D03*
X165850000Y-75200000D03*
X169800000Y-79900000D03*
X169800000Y-78400000D03*
X171900000Y-75200000D03*
X167200000Y-79900000D03*
X169800000Y-74600000D03*
X169800000Y-73100000D03*
X165100000Y-77800000D03*
%TD*%
%TO.C,*%
X103750000Y-145200000D03*
%TD*%
D46*
%TO.C,*%
X110000000Y-35000000D03*
%TD*%
D45*
%TO.C,*%
X167200000Y-111500000D03*
X166600000Y-110200000D03*
X169800000Y-113400000D03*
X166600000Y-112800000D03*
X167200000Y-113400000D03*
X169800000Y-109600000D03*
X165100000Y-112800000D03*
X167200000Y-114900000D03*
X167200000Y-108100000D03*
X169800000Y-114150000D03*
X171900000Y-110200000D03*
X170400000Y-112800000D03*
X167200000Y-109600000D03*
X171150000Y-112800000D03*
X167200000Y-108850000D03*
X169800000Y-111500000D03*
X165850000Y-110200000D03*
X165850000Y-112800000D03*
X169800000Y-108850000D03*
X171900000Y-112800000D03*
X169800000Y-114900000D03*
X165100000Y-110200000D03*
X170400000Y-110200000D03*
X167200000Y-114150000D03*
X171150000Y-110200000D03*
X169800000Y-108100000D03*
%TD*%
%TO.C,*%
X202250000Y-145200000D03*
%TD*%
D19*
%TO.C,*%
X104000000Y-149000000D03*
%TD*%
D45*
%TO.C,*%
X103750000Y-42800000D03*
%TD*%
%TO.C,*%
X198200000Y-42050000D03*
X198200000Y-41300000D03*
X198950000Y-42800000D03*
X196100000Y-42800000D03*
X200450000Y-42800000D03*
X196850000Y-42800000D03*
X198200000Y-44900000D03*
X199700000Y-42800000D03*
X198200000Y-43400000D03*
X197600000Y-42800000D03*
X198200000Y-40550000D03*
X198200000Y-44150000D03*
%TD*%
%TO.C,*%
X203000000Y-145200000D03*
%TD*%
%TO.C,*%
X107800000Y-113400000D03*
X109900000Y-112800000D03*
X109150000Y-112800000D03*
X109900000Y-110200000D03*
X109150000Y-110200000D03*
X108400000Y-110200000D03*
X107800000Y-114900000D03*
X107800000Y-108850000D03*
X108400000Y-112800000D03*
X107800000Y-108100000D03*
X107800000Y-111500000D03*
X107800000Y-114150000D03*
X107800000Y-109600000D03*
%TD*%
%TO.C,*%
X107800000Y-143850000D03*
X108400000Y-145200000D03*
X109150000Y-145200000D03*
X106300000Y-145200000D03*
X109900000Y-145200000D03*
X107800000Y-147450000D03*
X107800000Y-146700000D03*
X107800000Y-143100000D03*
X105550000Y-145200000D03*
X107800000Y-145950000D03*
X107050000Y-145200000D03*
X107800000Y-144600000D03*
%TD*%
%TO.C,*%
X103000000Y-42800000D03*
%TD*%
%TO.C,*%
X104500000Y-42800000D03*
%TD*%
%TO.C,*%
X198200000Y-111500000D03*
X196850000Y-112800000D03*
X198200000Y-108850000D03*
X196850000Y-110200000D03*
X197600000Y-112800000D03*
X196100000Y-112800000D03*
X197600000Y-110200000D03*
X196100000Y-110200000D03*
X198200000Y-113400000D03*
X198200000Y-109600000D03*
X198200000Y-108100000D03*
X198200000Y-114150000D03*
X198200000Y-114900000D03*
%TD*%
D41*
%TO.C,Q9*%
X113350000Y-59694998D03*
X113350000Y-60964998D03*
X113350000Y-62234998D03*
X113350000Y-63504998D03*
D42*
X119049998Y-63504998D03*
X119049998Y-62234998D03*
X119049998Y-60964998D03*
X119049998Y-59694998D03*
D43*
X116649998Y-61599998D03*
%TD*%
D24*
%TO.C,C1*%
X117800000Y-49649998D03*
D23*
X117800000Y-46150001D03*
%TD*%
D40*
%TO.C,TP3*%
X122100000Y-66964998D03*
%TD*%
%TO.C,TP5*%
X122100000Y-54965000D03*
%TD*%
D44*
%TO.C,*%
X133700002Y-60700000D03*
%TD*%
%TO.C,*%
X110500002Y-60199998D03*
%TD*%
D24*
%TO.C,C2*%
X126200000Y-49649998D03*
D23*
X126200000Y-46150001D03*
%TD*%
D41*
%TO.C,Q7*%
X113350000Y-65694998D03*
X113350000Y-66964998D03*
X113350000Y-68234998D03*
X113350000Y-69504998D03*
D42*
X119049998Y-69504998D03*
X119049998Y-68234998D03*
X119049998Y-66964998D03*
X119049998Y-65694998D03*
D43*
X116649998Y-67599998D03*
%TD*%
D41*
%TO.C,Q1*%
X125350000Y-65694998D03*
X125350000Y-66964998D03*
X125350000Y-68234998D03*
X125350000Y-69504998D03*
D42*
X131050000Y-69504998D03*
X131050000Y-68234998D03*
X131050000Y-66964998D03*
X131050000Y-65694998D03*
D43*
X128650000Y-67599998D03*
%TD*%
D41*
%TO.C,Q3*%
X125350000Y-59694998D03*
X125350000Y-60964998D03*
X125350000Y-62234998D03*
X125350000Y-63504998D03*
D42*
X131050000Y-63504998D03*
X131050000Y-62234998D03*
X131050000Y-60964998D03*
X131050000Y-59694998D03*
D43*
X128650000Y-61599998D03*
%TD*%
D41*
%TO.C,Q5*%
X125350000Y-53695000D03*
X125350000Y-54965000D03*
X125350000Y-56235000D03*
X125350000Y-57505000D03*
D42*
X131050000Y-57505000D03*
X131050000Y-56235000D03*
X131050000Y-54965000D03*
X131050000Y-53695000D03*
D43*
X128650000Y-55600000D03*
%TD*%
D40*
%TO.C,TP4*%
X122100000Y-60964998D03*
%TD*%
D41*
%TO.C,Q11*%
X113350000Y-53695000D03*
X113350000Y-54965000D03*
X113350000Y-56235000D03*
X113350000Y-57505000D03*
D42*
X119049998Y-57505000D03*
X119049998Y-56235000D03*
X119049998Y-54965000D03*
X119049998Y-53695000D03*
D43*
X116649998Y-55600000D03*
%TD*%
D40*
%TO.C,TP1*%
X132900000Y-50300000D03*
%TD*%
%TO.C,TP2*%
X111500000Y-49799998D03*
%TD*%
D20*
%TO.C,ST1*%
X131330000Y-45300000D03*
D19*
X133870000Y-45300000D03*
%TD*%
D24*
%TO.C,ST2*%
X133560000Y-72599998D03*
D23*
X131020000Y-72599998D03*
X128480000Y-72599998D03*
X125940000Y-72599998D03*
X123400000Y-72599998D03*
X120860000Y-72599998D03*
X118320000Y-72599998D03*
X115780000Y-72599998D03*
X113240000Y-72599998D03*
X110700000Y-72599998D03*
%TD*%
D28*
%TO.C,C5*%
X120600000Y-83124000D03*
X120600000Y-80076000D03*
%TD*%
D24*
%TO.C,ST2*%
X133560000Y-107599998D03*
D23*
X131020000Y-107599998D03*
X128480000Y-107599998D03*
X125940000Y-107599998D03*
X123400000Y-107599998D03*
X120860000Y-107599998D03*
X118320000Y-107599998D03*
X115780000Y-107599998D03*
X113240000Y-107599998D03*
X110700000Y-107599998D03*
%TD*%
D15*
%TO.C,R1*%
X113033416Y-84960072D03*
X114557416Y-84960072D03*
%TD*%
%TO.C,C16*%
X130557417Y-94660073D03*
X129033417Y-94660073D03*
%TD*%
D22*
%TO.C,R9*%
X110695415Y-100422071D03*
X110695415Y-98898071D03*
%TD*%
%TO.C,R2*%
X116695416Y-84722074D03*
X116695416Y-83198074D03*
%TD*%
%TO.C,C14*%
X131795416Y-101622073D03*
X131795416Y-100098073D03*
%TD*%
%TO.C,R3*%
X110200000Y-95798072D03*
X110200000Y-97322072D03*
%TD*%
D37*
%TO.C,IC2*%
X115445416Y-87110073D03*
X115445416Y-87610072D03*
X115445416Y-88110071D03*
X115445416Y-88610072D03*
X115445416Y-89110071D03*
X115445416Y-89610073D03*
X115445416Y-90110072D03*
X115445416Y-90610071D03*
D38*
X116045417Y-91210072D03*
X116545416Y-91210072D03*
X117045415Y-91210072D03*
X117545417Y-91210072D03*
X118045416Y-91210072D03*
X118545417Y-91210072D03*
X119045416Y-91210072D03*
X119545415Y-91210072D03*
D37*
X120145416Y-90610071D03*
X120145416Y-90110072D03*
X120145416Y-89610073D03*
X120145416Y-89110071D03*
X120145416Y-88610072D03*
X120145416Y-88110071D03*
X120145416Y-87610072D03*
X120145416Y-87110073D03*
D38*
X119545415Y-86510072D03*
X119045416Y-86510072D03*
X118545417Y-86510072D03*
X118045416Y-86510072D03*
X117545417Y-86510072D03*
X117045415Y-86510072D03*
X116545416Y-86510072D03*
X116045417Y-86510072D03*
D39*
X117795416Y-88860072D03*
%TD*%
D22*
%TO.C,R8*%
X114295415Y-95798072D03*
X114295415Y-97322072D03*
%TD*%
%TO.C,C3*%
X122695416Y-100622073D03*
X122695416Y-99098073D03*
%TD*%
D15*
%TO.C,C15*%
X133962000Y-97299998D03*
X132438000Y-97299998D03*
%TD*%
%TO.C,C10*%
X113433416Y-83160073D03*
X114957416Y-83160073D03*
%TD*%
D22*
%TO.C,R12*%
X116095417Y-100422071D03*
X116095417Y-98898071D03*
%TD*%
%TO.C,C8*%
X121695416Y-92722073D03*
X121695416Y-91198073D03*
%TD*%
%TO.C,C12*%
X124495415Y-100622073D03*
X124495415Y-99098073D03*
%TD*%
%TO.C,R7*%
X114295415Y-100422071D03*
X114295415Y-98898071D03*
%TD*%
D20*
%TO.C,ST1*%
X128785417Y-80300000D03*
D19*
X131325417Y-80300000D03*
X133865417Y-80300000D03*
%TD*%
D21*
%TO.C,C2*%
X131891174Y-83299998D03*
X128843174Y-83299998D03*
%TD*%
%TO.C,C1*%
X131676000Y-86199998D03*
X134724000Y-86199998D03*
%TD*%
D24*
%TO.C,ST3*%
X114395316Y-79804903D03*
D23*
X116935316Y-79804903D03*
%TD*%
D15*
%TO.C,C7*%
X112271416Y-86860073D03*
X113795416Y-86860073D03*
%TD*%
D22*
%TO.C,R6*%
X116095417Y-95798072D03*
X116095417Y-97322072D03*
%TD*%
%TO.C,R5*%
X117895416Y-100422071D03*
X117895416Y-98898071D03*
%TD*%
D32*
%TO.C,IC3*%
X126155415Y-97210073D03*
X126155415Y-97710072D03*
X126155415Y-98210074D03*
X126155415Y-98710073D03*
X126155415Y-99210074D03*
X126155415Y-99710073D03*
D33*
X126845416Y-100400074D03*
X127345415Y-100400074D03*
X127845416Y-100400074D03*
X128345415Y-100400074D03*
X128845417Y-100400074D03*
X129345416Y-100400074D03*
D34*
X130035417Y-99710073D03*
X130035417Y-99210074D03*
X130035417Y-98710073D03*
X130035417Y-98210074D03*
X130035417Y-97710072D03*
X130035417Y-97210073D03*
D35*
X129345416Y-96520072D03*
X128845417Y-96520072D03*
X128345415Y-96520072D03*
X127845416Y-96520072D03*
X127345415Y-96520072D03*
X126845416Y-96520072D03*
D36*
X128095416Y-98460073D03*
%TD*%
D15*
%TO.C,C9*%
X111033415Y-88960072D03*
X112557415Y-88960072D03*
%TD*%
D22*
%TO.C,R10*%
X112495416Y-95798072D03*
X112495416Y-97322072D03*
%TD*%
%TO.C,R13*%
X119695415Y-100422071D03*
X119695415Y-98898071D03*
%TD*%
%TO.C,R11*%
X112495416Y-100422071D03*
X112495416Y-98898071D03*
%TD*%
D18*
%TO.C,D1*%
X124799542Y-137582777D03*
X124799542Y-130216777D03*
%TD*%
D15*
%TO.C,R2*%
X128737542Y-120399777D03*
X130261542Y-120399777D03*
%TD*%
%TO.C,C12*%
X118961542Y-120799777D03*
X117437542Y-120799777D03*
%TD*%
D28*
%TO.C,C16*%
X126799544Y-143423779D03*
X126799544Y-140375779D03*
%TD*%
D19*
%TO.C,ST1*%
X133865544Y-115299779D03*
X131325544Y-115299779D03*
D20*
X128785544Y-115299779D03*
%TD*%
D23*
%TO.C,ST6*%
X120129544Y-114799777D03*
D24*
X122669544Y-114799777D03*
%TD*%
D22*
%TO.C,C8*%
X125699542Y-124761777D03*
X125699542Y-123237777D03*
%TD*%
D25*
%TO.C,Q2*%
X131199542Y-133149777D03*
D26*
X133104542Y-135549777D03*
X131834542Y-135549777D03*
X130564542Y-135549777D03*
X129294542Y-135549777D03*
D27*
X129294542Y-129849777D03*
X130564542Y-129849777D03*
X131834542Y-129849777D03*
X133104542Y-129849777D03*
%TD*%
D21*
%TO.C,C6*%
X129723542Y-127099777D03*
X126675542Y-127099777D03*
%TD*%
D31*
%TO.C,L1*%
X132099542Y-143149779D03*
X132099542Y-138049779D03*
%TD*%
D28*
%TO.C,C11*%
X113299542Y-140823779D03*
X113299542Y-137775779D03*
%TD*%
D15*
%TO.C,R4*%
X124237542Y-121599777D03*
X125761542Y-121599777D03*
%TD*%
D23*
%TO.C,ST4*%
X109999544Y-132339777D03*
X109999544Y-129799777D03*
D24*
X109999544Y-127259777D03*
%TD*%
D16*
%TO.C,IC1*%
X114299542Y-123449777D03*
D17*
X116599544Y-130099777D03*
D16*
X118899544Y-123449777D03*
%TD*%
D21*
%TO.C,C4*%
X131775542Y-127099777D03*
X134823542Y-127099777D03*
%TD*%
D22*
%TO.C,C7*%
X132499542Y-121261777D03*
X132499542Y-119737777D03*
%TD*%
%TO.C,R3*%
X123899544Y-123237777D03*
X123899544Y-124761777D03*
%TD*%
D21*
%TO.C,C14*%
X114575542Y-118599777D03*
X117623542Y-118599777D03*
%TD*%
D23*
%TO.C,ST2*%
X116935542Y-114804779D03*
D24*
X114395542Y-114804779D03*
%TD*%
D23*
%TO.C,ST7*%
X119470000Y-143600000D03*
D24*
X116930000Y-143600000D03*
%TD*%
D28*
%TO.C,C17*%
X124099544Y-143423779D03*
X124099544Y-140375779D03*
%TD*%
D29*
%TO.C,IC2*%
X130099542Y-123899780D03*
D30*
X132249542Y-122924780D03*
X132249542Y-123574779D03*
X132249542Y-124224780D03*
X132249542Y-124874779D03*
X127949542Y-124874779D03*
X127949542Y-124224780D03*
X127949542Y-123574779D03*
X127949542Y-122924780D03*
%TD*%
D15*
%TO.C,C13*%
X114337544Y-120799777D03*
X115861544Y-120799777D03*
%TD*%
D23*
%TO.C,ST3*%
X109999544Y-124479779D03*
X109999544Y-121939779D03*
D24*
X109999544Y-119399779D03*
%TD*%
D23*
%TO.C,ST5*%
X109999544Y-140239777D03*
X109999544Y-137699777D03*
D24*
X109999544Y-135159777D03*
%TD*%
D22*
%TO.C,C1*%
X134099542Y-121537777D03*
X134099542Y-123061777D03*
%TD*%
M02*
