%TF.GenerationSoftware,KiCad,Pcbnew,6.0.4-6f826c9f35~116~ubuntu20.04.1*%
%TF.CreationDate,2022-04-22T17:02:12+02:00*%
%TF.ProjectId,crawl_esc_pan,63726177-6c5f-4657-9363-5f70616e2e6b,rev?*%
%TF.SameCoordinates,Original*%
%TF.FileFunction,Soldermask,Top*%
%TF.FilePolarity,Negative*%
%FSLAX46Y46*%
G04 Gerber Fmt 4.6, Leading zero omitted, Abs format (unit mm)*
G04 Created by KiCad (PCBNEW 6.0.4-6f826c9f35~116~ubuntu20.04.1) date 2022-04-22 17:02:12*
%MOMM*%
%LPD*%
G01*
G04 APERTURE LIST*
G04 Aperture macros list*
%AMRoundRect*
0 Rectangle with rounded corners*
0 $1 Rounding radius*
0 $2 $3 $4 $5 $6 $7 $8 $9 X,Y pos of 4 corners*
0 Add a 4 corners polygon primitive as box body*
4,1,4,$2,$3,$4,$5,$6,$7,$8,$9,$2,$3,0*
0 Add four circle primitives for the rounded corners*
1,1,$1+$1,$2,$3*
1,1,$1+$1,$4,$5*
1,1,$1+$1,$6,$7*
1,1,$1+$1,$8,$9*
0 Add four rect primitives between the rounded corners*
20,1,$1+$1,$2,$3,$4,$5,0*
20,1,$1+$1,$4,$5,$6,$7,0*
20,1,$1+$1,$6,$7,$8,$9,0*
20,1,$1+$1,$8,$9,$2,$3,0*%
G04 Aperture macros list end*
%ADD10C,0.000000*%
%ADD11O,4.300000X3.500000*%
%ADD12R,1.016000X0.762000*%
%ADD13C,0.500000*%
%ADD14R,2.006600X1.193800*%
%ADD15R,1.600200X1.600200*%
%ADD16C,1.600200*%
%ADD17C,4.000000*%
%ADD18R,0.762000X1.016000*%
%ADD19R,1.450000X0.850000*%
%ADD20R,1.050000X0.850000*%
%ADD21R,3.750000X4.700000*%
%ADD22R,2.000000X2.000000*%
%ADD23C,2.000000*%
%ADD24R,0.600000X0.300000*%
%ADD25R,0.300000X0.600000*%
%ADD26R,3.450000X3.450000*%
%ADD27RoundRect,0.060000X-0.675000X-0.180000X0.675000X-0.180000X0.675000X0.180000X-0.675000X0.180000X0*%
%ADD28R,1.425000X1.760000*%
%ADD29R,1.193800X2.006600*%
%ADD30R,1.600000X3.000000*%
%ADD31R,6.700000X6.700000*%
%ADD32R,3.810000X2.794000*%
%ADD33RoundRect,0.067500X-0.347500X-0.067500X0.347500X-0.067500X0.347500X0.067500X-0.347500X0.067500X0*%
%ADD34RoundRect,0.067500X0.067500X-0.347500X0.067500X0.347500X-0.067500X0.347500X-0.067500X-0.347500X0*%
%ADD35RoundRect,0.067500X0.347500X0.067500X-0.347500X0.067500X-0.347500X-0.067500X0.347500X-0.067500X0*%
%ADD36RoundRect,0.067500X-0.067500X0.347500X-0.067500X-0.347500X0.067500X-0.347500X0.067500X0.347500X0*%
%ADD37R,2.700000X2.700000*%
%ADD38RoundRect,0.750000X-0.750000X-8.500000X0.750000X-8.500000X0.750000X8.500000X-0.750000X8.500000X0*%
%ADD39R,0.850000X1.450000*%
%ADD40R,0.850000X1.050000*%
%ADD41R,4.700000X3.750000*%
%ADD42R,2.200000X2.700000*%
G04 APERTURE END LIST*
D10*
G36*
X73076098Y-66128597D02*
G01*
X71426100Y-66128597D01*
X71426100Y-65878597D01*
X68326100Y-65878597D01*
X68326100Y-61528597D01*
X71426100Y-61528597D01*
X71426100Y-61278597D01*
X73076098Y-61278597D01*
X73076098Y-66128597D01*
G37*
G36*
X117930642Y-132528376D02*
G01*
X117080642Y-132528376D01*
X117080642Y-131228376D01*
X117930642Y-131228376D01*
X117930642Y-132528376D01*
G37*
G36*
X146390642Y-132528376D02*
G01*
X145540642Y-132528376D01*
X145540642Y-131228376D01*
X146390642Y-131228376D01*
X146390642Y-132528376D01*
G37*
G36*
X135076098Y-72128597D02*
G01*
X133426100Y-72128597D01*
X133426100Y-71878597D01*
X130326100Y-71878597D01*
X130326100Y-67528597D01*
X133426100Y-67528597D01*
X133426100Y-67278599D01*
X135076098Y-67278599D01*
X135076098Y-72128597D01*
G37*
G36*
X67426100Y-57493599D02*
G01*
X66126100Y-57493599D01*
X66126100Y-56643599D01*
X67426100Y-56643599D01*
X67426100Y-57493599D01*
G37*
G36*
X79426100Y-57493599D02*
G01*
X78126100Y-57493599D01*
X78126100Y-56643599D01*
X79426100Y-56643599D01*
X79426100Y-57493599D01*
G37*
G36*
X135076098Y-60128597D02*
G01*
X133426100Y-60128597D01*
X133426100Y-59878597D01*
X130326100Y-59878597D01*
X130326100Y-55528599D01*
X133426100Y-55528599D01*
X133426100Y-55278600D01*
X135076098Y-55278600D01*
X135076098Y-60128597D01*
G37*
G36*
X67426100Y-56223599D02*
G01*
X66126100Y-56223599D01*
X66126100Y-55373599D01*
X67426100Y-55373599D01*
X67426100Y-56223599D01*
G37*
G36*
X79426100Y-58763599D02*
G01*
X78126100Y-58763599D01*
X78126100Y-57913599D01*
X79426100Y-57913599D01*
X79426100Y-58763599D01*
G37*
G36*
X129426100Y-56223599D02*
G01*
X128126100Y-56223599D01*
X128126100Y-55373599D01*
X129426100Y-55373599D01*
X129426100Y-56223599D01*
G37*
G36*
X141426100Y-62223597D02*
G01*
X140126100Y-62223597D01*
X140126100Y-61373597D01*
X141426100Y-61373597D01*
X141426100Y-62223597D01*
G37*
G36*
X67426100Y-72033597D02*
G01*
X66126100Y-72033597D01*
X66126100Y-71183597D01*
X67426100Y-71183597D01*
X67426100Y-72033597D01*
G37*
G36*
X98426100Y-58763599D02*
G01*
X97126100Y-58763599D01*
X97126100Y-57913599D01*
X98426100Y-57913599D01*
X98426100Y-58763599D01*
G37*
G36*
X110426100Y-66033597D02*
G01*
X109126100Y-66033597D01*
X109126100Y-65183597D01*
X110426100Y-65183597D01*
X110426100Y-66033597D01*
G37*
G36*
X148775642Y-136528376D02*
G01*
X149025642Y-136528376D01*
X149025642Y-138178376D01*
X144175642Y-138178376D01*
X144175642Y-136528376D01*
X144425642Y-136528376D01*
X144425642Y-133428378D01*
X148775642Y-133428378D01*
X148775642Y-136528376D01*
G37*
G36*
X117775642Y-136528376D02*
G01*
X118025642Y-136528376D01*
X118025642Y-138178376D01*
X113175642Y-138178376D01*
X113175642Y-136528376D01*
X113425642Y-136528376D01*
X113425642Y-133428378D01*
X117775642Y-133428378D01*
X117775642Y-136528376D01*
G37*
G36*
X67426100Y-70763597D02*
G01*
X66126100Y-70763597D01*
X66126100Y-69913597D01*
X67426100Y-69913597D01*
X67426100Y-70763597D01*
G37*
G36*
X98426100Y-57493599D02*
G01*
X97126100Y-57493599D01*
X97126100Y-56643599D01*
X98426100Y-56643599D01*
X98426100Y-57493599D01*
G37*
G36*
X141426100Y-63493597D02*
G01*
X140126100Y-63493597D01*
X140126100Y-62643597D01*
X141426100Y-62643597D01*
X141426100Y-63493597D01*
G37*
G36*
X141426100Y-60033599D02*
G01*
X140126100Y-60033599D01*
X140126100Y-59183599D01*
X141426100Y-59183599D01*
X141426100Y-60033599D01*
G37*
G36*
X98426100Y-69493597D02*
G01*
X97126100Y-69493597D01*
X97126100Y-68643597D01*
X98426100Y-68643597D01*
X98426100Y-69493597D01*
G37*
G36*
X84390642Y-132528376D02*
G01*
X83540642Y-132528376D01*
X83540642Y-131228376D01*
X84390642Y-131228376D01*
X84390642Y-132528376D01*
G37*
G36*
X110426100Y-56223599D02*
G01*
X109126100Y-56223599D01*
X109126100Y-55373599D01*
X110426100Y-55373599D01*
X110426100Y-56223599D01*
G37*
G36*
X104076098Y-72128597D02*
G01*
X102426100Y-72128597D01*
X102426100Y-71878597D01*
X99326100Y-71878597D01*
X99326100Y-67528597D01*
X102426100Y-67528597D01*
X102426100Y-67278599D01*
X104076098Y-67278599D01*
X104076098Y-72128597D01*
G37*
G36*
X129426100Y-66033597D02*
G01*
X128126100Y-66033597D01*
X128126100Y-65183597D01*
X129426100Y-65183597D01*
X129426100Y-66033597D01*
G37*
G36*
X67426100Y-60033599D02*
G01*
X66126100Y-60033599D01*
X66126100Y-59183599D01*
X67426100Y-59183599D01*
X67426100Y-60033599D01*
G37*
G36*
X86930642Y-132528376D02*
G01*
X86080642Y-132528376D01*
X86080642Y-131228376D01*
X86930642Y-131228376D01*
X86930642Y-132528376D01*
G37*
G36*
X79426100Y-70763597D02*
G01*
X78126100Y-70763597D01*
X78126100Y-69913597D01*
X79426100Y-69913597D01*
X79426100Y-70763597D01*
G37*
G36*
X141426100Y-64763597D02*
G01*
X140126100Y-64763597D01*
X140126100Y-63913597D01*
X141426100Y-63913597D01*
X141426100Y-64763597D01*
G37*
G36*
X147660642Y-132528376D02*
G01*
X146810642Y-132528376D01*
X146810642Y-131228376D01*
X147660642Y-131228376D01*
X147660642Y-132528376D01*
G37*
G36*
X79426100Y-69493597D02*
G01*
X78126100Y-69493597D01*
X78126100Y-68643597D01*
X79426100Y-68643597D01*
X79426100Y-69493597D01*
G37*
G36*
X115390642Y-132528376D02*
G01*
X114540642Y-132528376D01*
X114540642Y-131228376D01*
X115390642Y-131228376D01*
X115390642Y-132528376D01*
G37*
G36*
X79426100Y-60033599D02*
G01*
X78126100Y-60033599D01*
X78126100Y-59183599D01*
X79426100Y-59183599D01*
X79426100Y-60033599D01*
G37*
G36*
X79426100Y-64763597D02*
G01*
X78126100Y-64763597D01*
X78126100Y-63913597D01*
X79426100Y-63913597D01*
X79426100Y-64763597D01*
G37*
G36*
X67426100Y-66033597D02*
G01*
X66126100Y-66033597D01*
X66126100Y-65183597D01*
X67426100Y-65183597D01*
X67426100Y-66033597D01*
G37*
G36*
X116076100Y-60128597D02*
G01*
X114426100Y-60128597D01*
X114426100Y-59878597D01*
X111326100Y-59878597D01*
X111326100Y-55528599D01*
X114426100Y-55528599D01*
X114426100Y-55278600D01*
X116076100Y-55278600D01*
X116076100Y-60128597D01*
G37*
G36*
X129426100Y-69493597D02*
G01*
X128126100Y-69493597D01*
X128126100Y-68643597D01*
X129426100Y-68643597D01*
X129426100Y-69493597D01*
G37*
G36*
X85076100Y-66128597D02*
G01*
X83426100Y-66128597D01*
X83426100Y-65878597D01*
X80326100Y-65878597D01*
X80326100Y-61528597D01*
X83426100Y-61528597D01*
X83426100Y-61278597D01*
X85076100Y-61278597D01*
X85076100Y-66128597D01*
G37*
G36*
X129426100Y-62223597D02*
G01*
X128126100Y-62223597D01*
X128126100Y-61373597D01*
X129426100Y-61373597D01*
X129426100Y-62223597D01*
G37*
G36*
X110426100Y-60033599D02*
G01*
X109126100Y-60033599D01*
X109126100Y-59183599D01*
X110426100Y-59183599D01*
X110426100Y-60033599D01*
G37*
G36*
X67426100Y-58763599D02*
G01*
X66126100Y-58763599D01*
X66126100Y-57913599D01*
X67426100Y-57913599D01*
X67426100Y-58763599D01*
G37*
G36*
X79426100Y-72033597D02*
G01*
X78126100Y-72033597D01*
X78126100Y-71183597D01*
X79426100Y-71183597D01*
X79426100Y-72033597D01*
G37*
G36*
X85076100Y-72128597D02*
G01*
X83426100Y-72128597D01*
X83426100Y-71878597D01*
X80326100Y-71878597D01*
X80326100Y-67528597D01*
X83426100Y-67528597D01*
X83426100Y-67278599D01*
X85076100Y-67278599D01*
X85076100Y-72128597D01*
G37*
G36*
X98426100Y-62223597D02*
G01*
X97126100Y-62223597D01*
X97126100Y-61373597D01*
X98426100Y-61373597D01*
X98426100Y-62223597D01*
G37*
G36*
X73076098Y-72128597D02*
G01*
X71426100Y-72128597D01*
X71426100Y-71878597D01*
X68326100Y-71878597D01*
X68326100Y-67528597D01*
X71426100Y-67528597D01*
X71426100Y-67278599D01*
X73076098Y-67278599D01*
X73076098Y-72128597D01*
G37*
G36*
X110426100Y-68223597D02*
G01*
X109126100Y-68223597D01*
X109126100Y-67373597D01*
X110426100Y-67373597D01*
X110426100Y-68223597D01*
G37*
G36*
X98426100Y-60033599D02*
G01*
X97126100Y-60033599D01*
X97126100Y-59183599D01*
X98426100Y-59183599D01*
X98426100Y-60033599D01*
G37*
G36*
X79426100Y-66033597D02*
G01*
X78126100Y-66033597D01*
X78126100Y-65183597D01*
X79426100Y-65183597D01*
X79426100Y-66033597D01*
G37*
G36*
X141426100Y-66033597D02*
G01*
X140126100Y-66033597D01*
X140126100Y-65183597D01*
X141426100Y-65183597D01*
X141426100Y-66033597D01*
G37*
G36*
X98426100Y-66033597D02*
G01*
X97126100Y-66033597D01*
X97126100Y-65183597D01*
X98426100Y-65183597D01*
X98426100Y-66033597D01*
G37*
G36*
X67426100Y-63493597D02*
G01*
X66126100Y-63493597D01*
X66126100Y-62643597D01*
X67426100Y-62643597D01*
X67426100Y-63493597D01*
G37*
G36*
X79426100Y-63493597D02*
G01*
X78126100Y-63493597D01*
X78126100Y-62643597D01*
X79426100Y-62643597D01*
X79426100Y-63493597D01*
G37*
G36*
X129426100Y-72033597D02*
G01*
X128126100Y-72033597D01*
X128126100Y-71183597D01*
X129426100Y-71183597D01*
X129426100Y-72033597D01*
G37*
G36*
X116076100Y-66128597D02*
G01*
X114426100Y-66128597D01*
X114426100Y-65878597D01*
X111326100Y-65878597D01*
X111326100Y-61528597D01*
X114426100Y-61528597D01*
X114426100Y-61278597D01*
X116076100Y-61278597D01*
X116076100Y-66128597D01*
G37*
G36*
X104076098Y-66128597D02*
G01*
X102426100Y-66128597D01*
X102426100Y-65878597D01*
X99326100Y-65878597D01*
X99326100Y-61528597D01*
X102426100Y-61528597D01*
X102426100Y-61278597D01*
X104076098Y-61278597D01*
X104076098Y-66128597D01*
G37*
G36*
X141426100Y-58763599D02*
G01*
X140126100Y-58763599D01*
X140126100Y-57913599D01*
X141426100Y-57913599D01*
X141426100Y-58763599D01*
G37*
G36*
X141426100Y-68223597D02*
G01*
X140126100Y-68223597D01*
X140126100Y-67373597D01*
X141426100Y-67373597D01*
X141426100Y-68223597D01*
G37*
G36*
X79426100Y-56223599D02*
G01*
X78126100Y-56223599D01*
X78126100Y-55373599D01*
X79426100Y-55373599D01*
X79426100Y-56223599D01*
G37*
G36*
X110426100Y-69493597D02*
G01*
X109126100Y-69493597D01*
X109126100Y-68643597D01*
X110426100Y-68643597D01*
X110426100Y-69493597D01*
G37*
G36*
X110426100Y-58763599D02*
G01*
X109126100Y-58763599D01*
X109126100Y-57913599D01*
X110426100Y-57913599D01*
X110426100Y-58763599D01*
G37*
G36*
X98426100Y-72033597D02*
G01*
X97126100Y-72033597D01*
X97126100Y-71183597D01*
X98426100Y-71183597D01*
X98426100Y-72033597D01*
G37*
G36*
X98426100Y-68223597D02*
G01*
X97126100Y-68223597D01*
X97126100Y-67373597D01*
X98426100Y-67373597D01*
X98426100Y-68223597D01*
G37*
G36*
X83120642Y-132528376D02*
G01*
X82270642Y-132528376D01*
X82270642Y-131228376D01*
X83120642Y-131228376D01*
X83120642Y-132528376D01*
G37*
G36*
X110426100Y-57493599D02*
G01*
X109126100Y-57493599D01*
X109126100Y-56643599D01*
X110426100Y-56643599D01*
X110426100Y-57493599D01*
G37*
G36*
X116660642Y-132528376D02*
G01*
X115810642Y-132528376D01*
X115810642Y-131228376D01*
X116660642Y-131228376D01*
X116660642Y-132528376D01*
G37*
G36*
X141426100Y-72033597D02*
G01*
X140126100Y-72033597D01*
X140126100Y-71183597D01*
X141426100Y-71183597D01*
X141426100Y-72033597D01*
G37*
G36*
X73076098Y-60128597D02*
G01*
X71426100Y-60128597D01*
X71426100Y-59878597D01*
X68326100Y-59878597D01*
X68326100Y-55528599D01*
X71426100Y-55528599D01*
X71426100Y-55278600D01*
X73076098Y-55278600D01*
X73076098Y-60128597D01*
G37*
G36*
X147076100Y-60128597D02*
G01*
X145426100Y-60128597D01*
X145426100Y-59878597D01*
X142326100Y-59878597D01*
X142326100Y-55528599D01*
X145426100Y-55528599D01*
X145426100Y-55278600D01*
X147076100Y-55278600D01*
X147076100Y-60128597D01*
G37*
G36*
X67426100Y-64763597D02*
G01*
X66126100Y-64763597D01*
X66126100Y-63913597D01*
X67426100Y-63913597D01*
X67426100Y-64763597D01*
G37*
G36*
X129426100Y-57493599D02*
G01*
X128126100Y-57493599D01*
X128126100Y-56643599D01*
X129426100Y-56643599D01*
X129426100Y-57493599D01*
G37*
G36*
X141426100Y-70763597D02*
G01*
X140126100Y-70763597D01*
X140126100Y-69913597D01*
X141426100Y-69913597D01*
X141426100Y-70763597D01*
G37*
G36*
X145120642Y-132528376D02*
G01*
X144270642Y-132528376D01*
X144270642Y-131228376D01*
X145120642Y-131228376D01*
X145120642Y-132528376D01*
G37*
G36*
X110426100Y-64763597D02*
G01*
X109126100Y-64763597D01*
X109126100Y-63913597D01*
X110426100Y-63913597D01*
X110426100Y-64763597D01*
G37*
G36*
X104076098Y-60128597D02*
G01*
X102426100Y-60128597D01*
X102426100Y-59878597D01*
X99326100Y-59878597D01*
X99326100Y-55528599D01*
X102426100Y-55528599D01*
X102426100Y-55278600D01*
X104076098Y-55278600D01*
X104076098Y-60128597D01*
G37*
G36*
X147076100Y-66128597D02*
G01*
X145426100Y-66128597D01*
X145426100Y-65878597D01*
X142326100Y-65878597D01*
X142326100Y-61528597D01*
X145426100Y-61528597D01*
X145426100Y-61278597D01*
X147076100Y-61278597D01*
X147076100Y-66128597D01*
G37*
G36*
X110426100Y-70763597D02*
G01*
X109126100Y-70763597D01*
X109126100Y-69913597D01*
X110426100Y-69913597D01*
X110426100Y-70763597D01*
G37*
G36*
X116076100Y-72128597D02*
G01*
X114426100Y-72128597D01*
X114426100Y-71878597D01*
X111326100Y-71878597D01*
X111326100Y-67528597D01*
X114426100Y-67528597D01*
X114426100Y-67278599D01*
X116076100Y-67278599D01*
X116076100Y-72128597D01*
G37*
G36*
X98426100Y-63493597D02*
G01*
X97126100Y-63493597D01*
X97126100Y-62643597D01*
X98426100Y-62643597D01*
X98426100Y-63493597D01*
G37*
G36*
X129426100Y-64763597D02*
G01*
X128126100Y-64763597D01*
X128126100Y-63913597D01*
X129426100Y-63913597D01*
X129426100Y-64763597D01*
G37*
G36*
X67426100Y-69493597D02*
G01*
X66126100Y-69493597D01*
X66126100Y-68643597D01*
X67426100Y-68643597D01*
X67426100Y-69493597D01*
G37*
G36*
X141426100Y-69493597D02*
G01*
X140126100Y-69493597D01*
X140126100Y-68643597D01*
X141426100Y-68643597D01*
X141426100Y-69493597D01*
G37*
G36*
X148930642Y-132528376D02*
G01*
X148080642Y-132528376D01*
X148080642Y-131228376D01*
X148930642Y-131228376D01*
X148930642Y-132528376D01*
G37*
G36*
X129426100Y-70763597D02*
G01*
X128126100Y-70763597D01*
X128126100Y-69913597D01*
X129426100Y-69913597D01*
X129426100Y-70763597D01*
G37*
G36*
X85660642Y-132528376D02*
G01*
X84810642Y-132528376D01*
X84810642Y-131228376D01*
X85660642Y-131228376D01*
X85660642Y-132528376D01*
G37*
G36*
X98426100Y-56223599D02*
G01*
X97126100Y-56223599D01*
X97126100Y-55373599D01*
X98426100Y-55373599D01*
X98426100Y-56223599D01*
G37*
G36*
X141426100Y-57493599D02*
G01*
X140126100Y-57493599D01*
X140126100Y-56643599D01*
X141426100Y-56643599D01*
X141426100Y-57493599D01*
G37*
G36*
X129426100Y-63493597D02*
G01*
X128126100Y-63493597D01*
X128126100Y-62643597D01*
X129426100Y-62643597D01*
X129426100Y-63493597D01*
G37*
G36*
X110426100Y-63493597D02*
G01*
X109126100Y-63493597D01*
X109126100Y-62643597D01*
X110426100Y-62643597D01*
X110426100Y-63493597D01*
G37*
G36*
X110426100Y-62223597D02*
G01*
X109126100Y-62223597D01*
X109126100Y-61373597D01*
X110426100Y-61373597D01*
X110426100Y-62223597D01*
G37*
G36*
X79426100Y-68223597D02*
G01*
X78126100Y-68223597D01*
X78126100Y-67373597D01*
X79426100Y-67373597D01*
X79426100Y-68223597D01*
G37*
G36*
X86775642Y-136528376D02*
G01*
X87025642Y-136528376D01*
X87025642Y-138178376D01*
X82175642Y-138178376D01*
X82175642Y-136528376D01*
X82425642Y-136528376D01*
X82425642Y-133428378D01*
X86775642Y-133428378D01*
X86775642Y-136528376D01*
G37*
G36*
X129426100Y-58763599D02*
G01*
X128126100Y-58763599D01*
X128126100Y-57913599D01*
X129426100Y-57913599D01*
X129426100Y-58763599D01*
G37*
G36*
X129426100Y-60033599D02*
G01*
X128126100Y-60033599D01*
X128126100Y-59183599D01*
X129426100Y-59183599D01*
X129426100Y-60033599D01*
G37*
G36*
X79426100Y-62223597D02*
G01*
X78126100Y-62223597D01*
X78126100Y-61373597D01*
X79426100Y-61373597D01*
X79426100Y-62223597D01*
G37*
G36*
X67426100Y-68223597D02*
G01*
X66126100Y-68223597D01*
X66126100Y-67373597D01*
X67426100Y-67373597D01*
X67426100Y-68223597D01*
G37*
G36*
X67426100Y-62223597D02*
G01*
X66126100Y-62223597D01*
X66126100Y-61373597D01*
X67426100Y-61373597D01*
X67426100Y-62223597D01*
G37*
G36*
X98426100Y-64763597D02*
G01*
X97126100Y-64763597D01*
X97126100Y-63913597D01*
X98426100Y-63913597D01*
X98426100Y-64763597D01*
G37*
G36*
X147076100Y-72128597D02*
G01*
X145426100Y-72128597D01*
X145426100Y-71878597D01*
X142326100Y-71878597D01*
X142326100Y-67528597D01*
X145426100Y-67528597D01*
X145426100Y-67278599D01*
X147076100Y-67278599D01*
X147076100Y-72128597D01*
G37*
G36*
X110426100Y-72033597D02*
G01*
X109126100Y-72033597D01*
X109126100Y-71183597D01*
X110426100Y-71183597D01*
X110426100Y-72033597D01*
G37*
G36*
X141426100Y-56223599D02*
G01*
X140126100Y-56223599D01*
X140126100Y-55373599D01*
X141426100Y-55373599D01*
X141426100Y-56223599D01*
G37*
G36*
X129426100Y-68223597D02*
G01*
X128126100Y-68223597D01*
X128126100Y-67373597D01*
X129426100Y-67373597D01*
X129426100Y-68223597D01*
G37*
G36*
X85076100Y-60128597D02*
G01*
X83426100Y-60128597D01*
X83426100Y-59878597D01*
X80326100Y-59878597D01*
X80326100Y-55528599D01*
X83426100Y-55528599D01*
X83426100Y-55278600D01*
X85076100Y-55278600D01*
X85076100Y-60128597D01*
G37*
G36*
X114120642Y-132528376D02*
G01*
X113270642Y-132528376D01*
X113270642Y-131228376D01*
X114120642Y-131228376D01*
X114120642Y-132528376D01*
G37*
G36*
X98426100Y-70763597D02*
G01*
X97126100Y-70763597D01*
X97126100Y-69913597D01*
X98426100Y-69913597D01*
X98426100Y-70763597D01*
G37*
G36*
X135076098Y-66128597D02*
G01*
X133426100Y-66128597D01*
X133426100Y-65878597D01*
X130326100Y-65878597D01*
X130326100Y-61528597D01*
X133426100Y-61528597D01*
X133426100Y-61278597D01*
X135076098Y-61278597D01*
X135076098Y-66128597D01*
G37*
D11*
%TO.C,TP3*%
X106501100Y-69068597D03*
%TD*%
D12*
%TO.C,C14*%
X85196516Y-103725672D03*
X85196516Y-102201672D03*
%TD*%
D13*
%TO.C,*%
X154901100Y-147303599D03*
%TD*%
D12*
%TO.C,R3*%
X108300644Y-126865376D03*
X108300644Y-125341376D03*
%TD*%
%TO.C,C8*%
X75096516Y-94825672D03*
X75096516Y-93301672D03*
%TD*%
D14*
%TO.C,C11*%
X128700642Y-139879378D03*
X128700642Y-142927378D03*
%TD*%
D13*
%TO.C,*%
X57151100Y-44903599D03*
%TD*%
D15*
%TO.C,ST2*%
X86961100Y-109703597D03*
D16*
X84421100Y-109703597D03*
X81881100Y-109703597D03*
X79341100Y-109703597D03*
X76801100Y-109703597D03*
X74261100Y-109703597D03*
X71721100Y-109703597D03*
X69181100Y-109703597D03*
X66641100Y-109703597D03*
X64101100Y-109703597D03*
%TD*%
D17*
%TO.C,*%
X149401100Y-37103599D03*
%TD*%
D18*
%TO.C,C12*%
X70838642Y-122903376D03*
X72362642Y-122903376D03*
%TD*%
D19*
%TO.C,Q1*%
X78751100Y-67798597D03*
X78751100Y-69068597D03*
X78751100Y-70338597D03*
X78751100Y-71608597D03*
D20*
X84451100Y-71608597D03*
X84451100Y-70338597D03*
X84451100Y-69068597D03*
X84451100Y-67798597D03*
D21*
X82051100Y-69703597D03*
%TD*%
D13*
%TO.C,*%
X55651100Y-147303599D03*
%TD*%
D12*
%TO.C,C8*%
X141100642Y-125341376D03*
X141100642Y-126865376D03*
%TD*%
D18*
%TO.C,C10*%
X128834516Y-85263672D03*
X130358516Y-85263672D03*
%TD*%
D12*
%TO.C,C1*%
X149700644Y-125165376D03*
X149700644Y-123641376D03*
%TD*%
D15*
%TO.C,ST5*%
X63400644Y-137263376D03*
D16*
X63400644Y-139803376D03*
X63400644Y-142343376D03*
%TD*%
D11*
%TO.C,TP3*%
X137501100Y-69068597D03*
%TD*%
D12*
%TO.C,C12*%
X139896515Y-102725672D03*
X139896515Y-101201672D03*
%TD*%
D18*
%TO.C,C7*%
X65672516Y-88963672D03*
X67196516Y-88963672D03*
%TD*%
D22*
%TO.C,ST1*%
X82186517Y-82403599D03*
D23*
X84726517Y-82403599D03*
X87266517Y-82403599D03*
%TD*%
D18*
%TO.C,C16*%
X83958517Y-96763672D03*
X82434517Y-96763672D03*
%TD*%
D13*
%TO.C,*%
X54151100Y-44903599D03*
%TD*%
D14*
%TO.C,C17*%
X108500644Y-142479378D03*
X108500644Y-145527378D03*
%TD*%
D12*
%TO.C,R3*%
X77300644Y-126865376D03*
X77300644Y-125341376D03*
%TD*%
%TO.C,R12*%
X69496517Y-102525670D03*
X69496517Y-101001670D03*
%TD*%
D24*
%TO.C,IC2*%
X68846516Y-89213672D03*
X68846516Y-89713671D03*
X68846516Y-90213670D03*
X68846516Y-90713671D03*
X68846516Y-91213670D03*
X68846516Y-91713672D03*
X68846516Y-92213671D03*
X68846516Y-92713670D03*
D25*
X69446517Y-93313671D03*
X69946516Y-93313671D03*
X70446515Y-93313671D03*
X70946517Y-93313671D03*
X71446516Y-93313671D03*
X71946517Y-93313671D03*
X72446516Y-93313671D03*
X72946515Y-93313671D03*
D24*
X73546516Y-92713670D03*
X73546516Y-92213671D03*
X73546516Y-91713672D03*
X73546516Y-91213670D03*
X73546516Y-90713671D03*
X73546516Y-90213670D03*
X73546516Y-89713671D03*
X73546516Y-89213672D03*
D25*
X72946515Y-88613671D03*
X72446516Y-88613671D03*
X71946517Y-88613671D03*
X71446516Y-88613671D03*
X70946517Y-88613671D03*
X70446515Y-88613671D03*
X69946516Y-88613671D03*
X69446517Y-88613671D03*
D26*
X71196516Y-90963671D03*
%TD*%
D14*
%TO.C,C16*%
X80200644Y-142479378D03*
X80200644Y-145527378D03*
%TD*%
D27*
%TO.C,IC2*%
X112350642Y-125028379D03*
X112350642Y-125678378D03*
X112350642Y-126328379D03*
X112350642Y-126978378D03*
X116650642Y-126978378D03*
X116650642Y-126328379D03*
X116650642Y-125678378D03*
X116650642Y-125028379D03*
D28*
X114500642Y-126003379D03*
%TD*%
D23*
%TO.C,*%
X57401100Y-38603599D03*
%TD*%
D15*
%TO.C,ST3*%
X94400644Y-121503378D03*
D16*
X94400644Y-124043378D03*
X94400644Y-126583378D03*
%TD*%
D13*
%TO.C,*%
X54901100Y-44903599D03*
%TD*%
D29*
%TO.C,C2*%
X147292274Y-85403597D03*
X144244274Y-85403597D03*
%TD*%
D12*
%TO.C,R12*%
X131496517Y-102525670D03*
X131496517Y-101001670D03*
%TD*%
D13*
%TO.C,*%
X61201100Y-146703599D03*
X61201100Y-149553599D03*
X63301100Y-147303599D03*
X61201100Y-148053599D03*
X61201100Y-148803599D03*
X58951100Y-147303599D03*
X60451100Y-147303599D03*
X62551100Y-147303599D03*
X61201100Y-145953599D03*
X61201100Y-145203599D03*
X59701100Y-147303599D03*
X61801100Y-147303599D03*
%TD*%
D30*
%TO.C,IC1*%
X134300644Y-125553376D03*
D31*
X132000644Y-132203376D03*
D30*
X129700642Y-125553376D03*
%TD*%
D18*
%TO.C,C12*%
X101838642Y-122903376D03*
X103362642Y-122903376D03*
%TD*%
D11*
%TO.C,TP1*%
X86301100Y-52403599D03*
%TD*%
D13*
%TO.C,*%
X56401100Y-44903599D03*
%TD*%
D18*
%TO.C,R1*%
X97434516Y-87063671D03*
X98958516Y-87063671D03*
%TD*%
D13*
%TO.C,*%
X158651100Y-147303599D03*
%TD*%
%TO.C,*%
X94301100Y-147303599D03*
X89601100Y-145953599D03*
X92201100Y-145953599D03*
X92201100Y-145203599D03*
X89001100Y-147303599D03*
X90901100Y-147303599D03*
X87501100Y-147303599D03*
X93551100Y-147303599D03*
X89601100Y-145203599D03*
X92201100Y-146703599D03*
X88251100Y-147303599D03*
X89601100Y-146703599D03*
X92801100Y-147303599D03*
%TD*%
D22*
%TO.C,ST1*%
X144186644Y-117403378D03*
D23*
X146726644Y-117403378D03*
X149266644Y-117403378D03*
%TD*%
D32*
%TO.C,D1*%
X140200642Y-132320376D03*
X140200642Y-139686376D03*
%TD*%
D18*
%TO.C,C9*%
X95434515Y-91063671D03*
X96958515Y-91063671D03*
%TD*%
D12*
%TO.C,C14*%
X116196516Y-103725672D03*
X116196516Y-102201672D03*
%TD*%
D33*
%TO.C,IC3*%
X141556515Y-99313672D03*
X141556515Y-99813671D03*
X141556515Y-100313673D03*
X141556515Y-100813672D03*
X141556515Y-101313673D03*
X141556515Y-101813672D03*
D34*
X142246516Y-102503673D03*
X142746515Y-102503673D03*
X143246516Y-102503673D03*
X143746515Y-102503673D03*
X144246517Y-102503673D03*
X144746516Y-102503673D03*
D35*
X145436517Y-101813672D03*
X145436517Y-101313673D03*
X145436517Y-100813672D03*
X145436517Y-100313673D03*
X145436517Y-99813671D03*
X145436517Y-99313672D03*
D36*
X144746516Y-98623671D03*
X144246517Y-98623671D03*
X143746515Y-98623671D03*
X143246516Y-98623671D03*
X142746515Y-98623671D03*
X142246516Y-98623671D03*
D37*
X143496516Y-100563672D03*
%TD*%
D13*
%TO.C,*%
X54151100Y-147303599D03*
%TD*%
D15*
%TO.C,C1*%
X102201100Y-51753597D03*
D16*
X102201100Y-48253600D03*
%TD*%
D12*
%TO.C,R2*%
X111600642Y-121841378D03*
X111600642Y-123365378D03*
%TD*%
%TO.C,R13*%
X73096515Y-102525670D03*
X73096515Y-101001670D03*
%TD*%
D33*
%TO.C,IC3*%
X110556515Y-99313672D03*
X110556515Y-99813671D03*
X110556515Y-100313673D03*
X110556515Y-100813672D03*
X110556515Y-101313673D03*
X110556515Y-101813672D03*
D34*
X111246516Y-102503673D03*
X111746515Y-102503673D03*
X112246516Y-102503673D03*
X112746515Y-102503673D03*
X113246517Y-102503673D03*
X113746516Y-102503673D03*
D35*
X114436517Y-101813672D03*
X114436517Y-101313673D03*
X114436517Y-100813672D03*
X114436517Y-100313673D03*
X114436517Y-99813671D03*
X114436517Y-99313672D03*
D36*
X113746516Y-98623671D03*
X113246517Y-98623671D03*
X112746515Y-98623671D03*
X112246516Y-98623671D03*
X111746515Y-98623671D03*
X111246516Y-98623671D03*
D37*
X112496516Y-100563672D03*
%TD*%
D18*
%TO.C,C9*%
X64434515Y-91063671D03*
X65958515Y-91063671D03*
%TD*%
D12*
%TO.C,R6*%
X69496517Y-97901671D03*
X69496517Y-99425671D03*
%TD*%
D13*
%TO.C,*%
X57901100Y-147303599D03*
%TD*%
D18*
%TO.C,C16*%
X114958517Y-96763672D03*
X113434517Y-96763672D03*
%TD*%
D12*
%TO.C,C7*%
X86000642Y-121841378D03*
X86000642Y-123365378D03*
%TD*%
D15*
%TO.C,ST2*%
X98796642Y-116908378D03*
D16*
X101336642Y-116908378D03*
%TD*%
D13*
%TO.C,*%
X57151100Y-147303599D03*
%TD*%
D27*
%TO.C,IC2*%
X81350642Y-125028379D03*
X81350642Y-125678378D03*
X81350642Y-126328379D03*
X81350642Y-126978378D03*
X85650642Y-126978378D03*
X85650642Y-126328379D03*
X85650642Y-125678378D03*
X85650642Y-125028379D03*
D28*
X83500642Y-126003379D03*
%TD*%
D15*
%TO.C,ST3*%
X63400644Y-121503378D03*
D16*
X63400644Y-124043378D03*
X63400644Y-126583378D03*
%TD*%
D19*
%TO.C,Q9*%
X66751100Y-61798597D03*
X66751100Y-63068597D03*
X66751100Y-64338597D03*
X66751100Y-65608597D03*
D20*
X72451098Y-65608597D03*
X72451098Y-64338597D03*
X72451098Y-63068597D03*
X72451098Y-61798597D03*
D21*
X70051098Y-63703597D03*
%TD*%
D22*
%TO.C,ST1*%
X144186517Y-82403599D03*
D23*
X146726517Y-82403599D03*
X149266517Y-82403599D03*
%TD*%
D11*
%TO.C,TP1*%
X117301100Y-52403599D03*
%TD*%
D12*
%TO.C,R6*%
X100496517Y-97901671D03*
X100496517Y-99425671D03*
%TD*%
D38*
%TO.C,*%
X149101102Y-62803599D03*
%TD*%
D15*
%TO.C,C1*%
X71201100Y-51753597D03*
D16*
X71201100Y-48253600D03*
%TD*%
D15*
%TO.C,ST2*%
X129796642Y-116908378D03*
D16*
X132336642Y-116908378D03*
%TD*%
D19*
%TO.C,Q9*%
X128751100Y-61798597D03*
X128751100Y-63068597D03*
X128751100Y-64338597D03*
X128751100Y-65608597D03*
D20*
X134451098Y-65608597D03*
X134451098Y-64338597D03*
X134451098Y-63068597D03*
X134451098Y-61798597D03*
D21*
X132051098Y-63703597D03*
%TD*%
D24*
%TO.C,IC2*%
X99846516Y-89213672D03*
X99846516Y-89713671D03*
X99846516Y-90213670D03*
X99846516Y-90713671D03*
X99846516Y-91213670D03*
X99846516Y-91713672D03*
X99846516Y-92213671D03*
X99846516Y-92713670D03*
D25*
X100446517Y-93313671D03*
X100946516Y-93313671D03*
X101446515Y-93313671D03*
X101946517Y-93313671D03*
X102446516Y-93313671D03*
X102946517Y-93313671D03*
X103446516Y-93313671D03*
X103946515Y-93313671D03*
D24*
X104546516Y-92713670D03*
X104546516Y-92213671D03*
X104546516Y-91713672D03*
X104546516Y-91213670D03*
X104546516Y-90713671D03*
X104546516Y-90213670D03*
X104546516Y-89713671D03*
X104546516Y-89213672D03*
D25*
X103946515Y-88613671D03*
X103446516Y-88613671D03*
X102946517Y-88613671D03*
X102446516Y-88613671D03*
X101946517Y-88613671D03*
X101446515Y-88613671D03*
X100946516Y-88613671D03*
X100446517Y-88613671D03*
D26*
X102196516Y-90963671D03*
%TD*%
D12*
%TO.C,R2*%
X80600642Y-121841378D03*
X80600642Y-123365378D03*
%TD*%
D18*
%TO.C,R1*%
X66434516Y-87063671D03*
X67958516Y-87063671D03*
%TD*%
D12*
%TO.C,C12*%
X77896515Y-102725672D03*
X77896515Y-101201672D03*
%TD*%
D19*
%TO.C,Q1*%
X140751100Y-67798597D03*
X140751100Y-69068597D03*
X140751100Y-70338597D03*
X140751100Y-71608597D03*
D20*
X146451100Y-71608597D03*
X146451100Y-70338597D03*
X146451100Y-69068597D03*
X146451100Y-67798597D03*
D21*
X144051100Y-69703597D03*
%TD*%
D13*
%TO.C,*%
X155651100Y-44903599D03*
%TD*%
D19*
%TO.C,Q7*%
X66751100Y-67798597D03*
X66751100Y-69068597D03*
X66751100Y-70338597D03*
X66751100Y-71608597D03*
D20*
X72451098Y-71608597D03*
X72451098Y-70338597D03*
X72451098Y-69068597D03*
X72451098Y-67798597D03*
D21*
X70051098Y-69703597D03*
%TD*%
D30*
%TO.C,IC1*%
X103300644Y-125553376D03*
D31*
X101000644Y-132203376D03*
D30*
X98700642Y-125553376D03*
%TD*%
D12*
%TO.C,R2*%
X142600642Y-121841378D03*
X142600642Y-123365378D03*
%TD*%
D19*
%TO.C,Q5*%
X140751100Y-55798599D03*
X140751100Y-57068599D03*
X140751100Y-58338599D03*
X140751100Y-59608599D03*
D20*
X146451100Y-59608599D03*
X146451100Y-58338599D03*
X146451100Y-57068599D03*
X146451100Y-55798599D03*
D21*
X144051100Y-57703599D03*
%TD*%
D18*
%TO.C,C13*%
X131262644Y-122903376D03*
X129738644Y-122903376D03*
%TD*%
%TO.C,C13*%
X100262644Y-122903376D03*
X98738644Y-122903376D03*
%TD*%
D11*
%TO.C,TP5*%
X75501100Y-57068599D03*
%TD*%
D12*
%TO.C,C3*%
X76096516Y-102725672D03*
X76096516Y-101201672D03*
%TD*%
D14*
%TO.C,C5*%
X105001100Y-85227599D03*
X105001100Y-82179599D03*
%TD*%
D39*
%TO.C,Q2*%
X117505642Y-131953376D03*
X116235642Y-131953376D03*
X114965642Y-131953376D03*
X113695642Y-131953376D03*
D40*
X113695642Y-137653376D03*
X114965642Y-137653376D03*
X116235642Y-137653376D03*
X117505642Y-137653376D03*
D41*
X115600642Y-135253376D03*
%TD*%
D11*
%TO.C,TP2*%
X126901100Y-51903597D03*
%TD*%
D13*
%TO.C,*%
X157151100Y-44903599D03*
%TD*%
D11*
%TO.C,TP4*%
X106501100Y-63068597D03*
%TD*%
D19*
%TO.C,Q5*%
X109751100Y-55798599D03*
X109751100Y-57068599D03*
X109751100Y-58338599D03*
X109751100Y-59608599D03*
D20*
X115451100Y-59608599D03*
X115451100Y-58338599D03*
X115451100Y-57068599D03*
X115451100Y-55798599D03*
D21*
X113051100Y-57703599D03*
%TD*%
D15*
%TO.C,ST6*%
X107070644Y-116903376D03*
D16*
X104530644Y-116903376D03*
%TD*%
D11*
%TO.C,TP2*%
X64901100Y-51903597D03*
%TD*%
D15*
%TO.C,ST3*%
X98796416Y-81908502D03*
D16*
X101336416Y-81908502D03*
%TD*%
D13*
%TO.C,*%
X92201100Y-80503599D03*
X92201100Y-78603599D03*
X92801100Y-77303599D03*
X92201100Y-75203599D03*
X92201100Y-82003599D03*
X94301100Y-79903599D03*
X89601100Y-75203599D03*
X92801100Y-79903599D03*
X93551100Y-77303599D03*
X89601100Y-80503599D03*
X93551100Y-79903599D03*
X89601100Y-76703599D03*
X89601100Y-75953599D03*
X87501100Y-79903599D03*
X88251100Y-77303599D03*
X92201100Y-81253599D03*
X89601100Y-78603599D03*
X89601100Y-82003599D03*
X89601100Y-81253599D03*
X92201100Y-76703599D03*
X89001100Y-79903599D03*
X87501100Y-77303599D03*
X92201100Y-75953599D03*
X94301100Y-77303599D03*
X89001100Y-77303599D03*
X88251100Y-79903599D03*
%TD*%
%TO.C,*%
X155651100Y-147303599D03*
%TD*%
D29*
%TO.C,C1*%
X116077100Y-88303597D03*
X119125100Y-88303597D03*
%TD*%
D11*
%TO.C,TP4*%
X75501100Y-63068597D03*
%TD*%
D12*
%TO.C,R12*%
X100496517Y-102525670D03*
X100496517Y-101001670D03*
%TD*%
D29*
%TO.C,C6*%
X80076642Y-129203376D03*
X83124642Y-129203376D03*
%TD*%
D27*
%TO.C,IC2*%
X143350642Y-125028379D03*
X143350642Y-125678378D03*
X143350642Y-126328379D03*
X143350642Y-126978378D03*
X147650642Y-126978378D03*
X147650642Y-126328379D03*
X147650642Y-125678378D03*
X147650642Y-125028379D03*
D28*
X145500642Y-126003379D03*
%TD*%
D29*
%TO.C,C1*%
X85077100Y-88303597D03*
X88125100Y-88303597D03*
%TD*%
D19*
%TO.C,Q5*%
X78751100Y-55798599D03*
X78751100Y-57068599D03*
X78751100Y-58338599D03*
X78751100Y-59608599D03*
D20*
X84451100Y-59608599D03*
X84451100Y-58338599D03*
X84451100Y-57068599D03*
X84451100Y-55798599D03*
D21*
X82051100Y-57703599D03*
%TD*%
D18*
%TO.C,C10*%
X66834516Y-85263672D03*
X68358516Y-85263672D03*
%TD*%
D13*
%TO.C,*%
X157901100Y-147303599D03*
%TD*%
D18*
%TO.C,C16*%
X145958517Y-96763672D03*
X144434517Y-96763672D03*
%TD*%
D12*
%TO.C,C1*%
X118700644Y-125165376D03*
X118700644Y-123641376D03*
%TD*%
D15*
%TO.C,ST2*%
X148961100Y-109703597D03*
D16*
X146421100Y-109703597D03*
X143881100Y-109703597D03*
X141341100Y-109703597D03*
X138801100Y-109703597D03*
X136261100Y-109703597D03*
X133721100Y-109703597D03*
X131181100Y-109703597D03*
X128641100Y-109703597D03*
X126101100Y-109703597D03*
%TD*%
D15*
%TO.C,C1*%
X133201100Y-51753597D03*
D16*
X133201100Y-48253600D03*
%TD*%
D12*
%TO.C,R8*%
X98696515Y-97901671D03*
X98696515Y-99425671D03*
%TD*%
D15*
%TO.C,ST6*%
X138070644Y-116903376D03*
D16*
X135530644Y-116903376D03*
%TD*%
D19*
%TO.C,Q7*%
X97751100Y-67798597D03*
X97751100Y-69068597D03*
X97751100Y-70338597D03*
X97751100Y-71608597D03*
D20*
X103451098Y-71608597D03*
X103451098Y-70338597D03*
X103451098Y-69068597D03*
X103451098Y-67798597D03*
D21*
X101051098Y-69703597D03*
%TD*%
D15*
%TO.C,ST2*%
X117961100Y-109703597D03*
D16*
X115421100Y-109703597D03*
X112881100Y-109703597D03*
X110341100Y-109703597D03*
X107801100Y-109703597D03*
X105261100Y-109703597D03*
X102721100Y-109703597D03*
X100181100Y-109703597D03*
X97641100Y-109703597D03*
X95101100Y-109703597D03*
%TD*%
D19*
%TO.C,Q3*%
X109751100Y-61798597D03*
X109751100Y-63068597D03*
X109751100Y-64338597D03*
X109751100Y-65608597D03*
D20*
X115451100Y-65608597D03*
X115451100Y-64338597D03*
X115451100Y-63068597D03*
X115451100Y-61798597D03*
D21*
X113051100Y-63703597D03*
%TD*%
D13*
%TO.C,*%
X151001100Y-44903599D03*
X151601100Y-46253599D03*
X153101100Y-44903599D03*
X150251100Y-44903599D03*
X151601100Y-42653599D03*
X149501100Y-44903599D03*
X151601100Y-47003599D03*
X153851100Y-44903599D03*
X151601100Y-45503599D03*
X151601100Y-43403599D03*
X152351100Y-44903599D03*
X151601100Y-44153599D03*
%TD*%
D12*
%TO.C,C2*%
X82300642Y-121841378D03*
X82300642Y-123365378D03*
%TD*%
D13*
%TO.C,*%
X150251100Y-112303599D03*
X151001100Y-112303599D03*
X151601100Y-111703599D03*
X151601100Y-113603599D03*
X151601100Y-117003599D03*
X151601100Y-115503599D03*
X151601100Y-110203599D03*
X150251100Y-114903599D03*
X151001100Y-114903599D03*
X149501100Y-114903599D03*
X151601100Y-116253599D03*
X151601100Y-110953599D03*
X149501100Y-112303599D03*
%TD*%
D17*
%TO.C,*%
X63401100Y-37103599D03*
%TD*%
D23*
%TO.C,*%
X155401100Y-151103599D03*
%TD*%
D15*
%TO.C,ST4*%
X63400644Y-129363376D03*
D16*
X63400644Y-131903376D03*
X63400644Y-134443376D03*
%TD*%
D12*
%TO.C,C2*%
X144300642Y-121841378D03*
X144300642Y-123365378D03*
%TD*%
D22*
%TO.C,ST1*%
X113186644Y-117403378D03*
D23*
X115726644Y-117403378D03*
X118266644Y-117403378D03*
%TD*%
D14*
%TO.C,C17*%
X77500644Y-142479378D03*
X77500644Y-145527378D03*
%TD*%
D12*
%TO.C,R13*%
X104096515Y-102525670D03*
X104096515Y-101001670D03*
%TD*%
%TO.C,R6*%
X131496517Y-97901671D03*
X131496517Y-99425671D03*
%TD*%
D13*
%TO.C,*%
X157151100Y-147303599D03*
%TD*%
D19*
%TO.C,Q11*%
X66751100Y-55798599D03*
X66751100Y-57068599D03*
X66751100Y-58338599D03*
X66751100Y-59608599D03*
D20*
X72451098Y-59608599D03*
X72451098Y-58338599D03*
X72451098Y-57068599D03*
X72451098Y-55798599D03*
D21*
X70051098Y-57703599D03*
%TD*%
D14*
%TO.C,C17*%
X139500644Y-142479378D03*
X139500644Y-145527378D03*
%TD*%
D29*
%TO.C,C14*%
X102024642Y-120703376D03*
X98976642Y-120703376D03*
%TD*%
D32*
%TO.C,D1*%
X109200642Y-132320376D03*
X109200642Y-139686376D03*
%TD*%
D15*
%TO.C,ST5*%
X125400644Y-137263376D03*
D16*
X125400644Y-139803376D03*
X125400644Y-142343376D03*
%TD*%
D15*
%TO.C,ST3*%
X67796416Y-81908502D03*
D16*
X70336416Y-81908502D03*
%TD*%
D13*
%TO.C,*%
X151001100Y-77303599D03*
X149501100Y-77303599D03*
X149501100Y-79903599D03*
X150251100Y-77303599D03*
X151601100Y-80503599D03*
X151601100Y-81253599D03*
X151601100Y-75203599D03*
X151001100Y-79903599D03*
X151601100Y-76703599D03*
X151601100Y-75953599D03*
X151601100Y-78603599D03*
X151601100Y-82003599D03*
X150251100Y-79903599D03*
%TD*%
D12*
%TO.C,C7*%
X117000642Y-121841378D03*
X117000642Y-123365378D03*
%TD*%
D19*
%TO.C,Q11*%
X128751100Y-55798599D03*
X128751100Y-57068599D03*
X128751100Y-58338599D03*
X128751100Y-59608599D03*
D20*
X134451098Y-59608599D03*
X134451098Y-58338599D03*
X134451098Y-57068599D03*
X134451098Y-55798599D03*
D21*
X132051098Y-57703599D03*
%TD*%
D15*
%TO.C,ST4*%
X125400644Y-129363376D03*
D16*
X125400644Y-131903376D03*
X125400644Y-134443376D03*
%TD*%
D15*
%TO.C,ST6*%
X76070644Y-116903376D03*
D16*
X73530644Y-116903376D03*
%TD*%
D19*
%TO.C,Q11*%
X97751100Y-55798599D03*
X97751100Y-57068599D03*
X97751100Y-58338599D03*
X97751100Y-59608599D03*
D20*
X103451098Y-59608599D03*
X103451098Y-58338599D03*
X103451098Y-57068599D03*
X103451098Y-55798599D03*
D21*
X101051098Y-57703599D03*
%TD*%
D12*
%TO.C,R1*%
X146000644Y-123365378D03*
X146000644Y-121841378D03*
%TD*%
%TO.C,R10*%
X96896516Y-97901671D03*
X96896516Y-99425671D03*
%TD*%
%TO.C,R9*%
X64096515Y-102525670D03*
X64096515Y-101001670D03*
%TD*%
D38*
%TO.C,*%
X118101102Y-62803599D03*
%TD*%
D14*
%TO.C,C5*%
X74001100Y-85227599D03*
X74001100Y-82179599D03*
%TD*%
D18*
%TO.C,C10*%
X97834516Y-85263672D03*
X99358516Y-85263672D03*
%TD*%
D19*
%TO.C,Q9*%
X97751100Y-61798597D03*
X97751100Y-63068597D03*
X97751100Y-64338597D03*
X97751100Y-65608597D03*
D20*
X103451098Y-65608597D03*
X103451098Y-64338597D03*
X103451098Y-63068597D03*
X103451098Y-61798597D03*
D21*
X101051098Y-63703597D03*
%TD*%
D42*
%TO.C,L1*%
X147500642Y-140153378D03*
X147500642Y-145253378D03*
%TD*%
D12*
%TO.C,C8*%
X110100642Y-125341376D03*
X110100642Y-126865376D03*
%TD*%
D13*
%TO.C,*%
X157901100Y-44903599D03*
%TD*%
D12*
%TO.C,C1*%
X87700644Y-125165376D03*
X87700644Y-123641376D03*
%TD*%
D33*
%TO.C,IC3*%
X79556515Y-99313672D03*
X79556515Y-99813671D03*
X79556515Y-100313673D03*
X79556515Y-100813672D03*
X79556515Y-101313673D03*
X79556515Y-101813672D03*
D34*
X80246516Y-102503673D03*
X80746515Y-102503673D03*
X81246516Y-102503673D03*
X81746515Y-102503673D03*
X82246517Y-102503673D03*
X82746516Y-102503673D03*
D35*
X83436517Y-101813672D03*
X83436517Y-101313673D03*
X83436517Y-100813672D03*
X83436517Y-100313673D03*
X83436517Y-99813671D03*
X83436517Y-99313672D03*
D36*
X82746516Y-98623671D03*
X82246517Y-98623671D03*
X81746515Y-98623671D03*
X81246516Y-98623671D03*
X80746515Y-98623671D03*
X80246516Y-98623671D03*
D37*
X81496516Y-100563672D03*
%TD*%
D12*
%TO.C,R3*%
X63601100Y-97901671D03*
X63601100Y-99425671D03*
%TD*%
D15*
%TO.C,C2*%
X110601100Y-51753597D03*
D16*
X110601100Y-48253600D03*
%TD*%
D11*
%TO.C,TP3*%
X75501100Y-69068597D03*
%TD*%
D12*
%TO.C,R7*%
X129696515Y-102525670D03*
X129696515Y-101001670D03*
%TD*%
D29*
%TO.C,C4*%
X119224642Y-129203376D03*
X116176642Y-129203376D03*
%TD*%
D13*
%TO.C,*%
X158651100Y-44903599D03*
%TD*%
D12*
%TO.C,C14*%
X147196516Y-103725672D03*
X147196516Y-102201672D03*
%TD*%
D29*
%TO.C,C6*%
X111076642Y-129203376D03*
X114124642Y-129203376D03*
%TD*%
D38*
%TO.C,*%
X63901102Y-62303597D03*
%TD*%
D24*
%TO.C,IC2*%
X130846516Y-89213672D03*
X130846516Y-89713671D03*
X130846516Y-90213670D03*
X130846516Y-90713671D03*
X130846516Y-91213670D03*
X130846516Y-91713672D03*
X130846516Y-92213671D03*
X130846516Y-92713670D03*
D25*
X131446517Y-93313671D03*
X131946516Y-93313671D03*
X132446515Y-93313671D03*
X132946517Y-93313671D03*
X133446516Y-93313671D03*
X133946517Y-93313671D03*
X134446516Y-93313671D03*
X134946515Y-93313671D03*
D24*
X135546516Y-92713670D03*
X135546516Y-92213671D03*
X135546516Y-91713672D03*
X135546516Y-91213670D03*
X135546516Y-90713671D03*
X135546516Y-90213670D03*
X135546516Y-89713671D03*
X135546516Y-89213672D03*
D25*
X134946515Y-88613671D03*
X134446516Y-88613671D03*
X133946517Y-88613671D03*
X133446516Y-88613671D03*
X132946517Y-88613671D03*
X132446515Y-88613671D03*
X131946516Y-88613671D03*
X131446517Y-88613671D03*
D26*
X133196516Y-90963671D03*
%TD*%
D12*
%TO.C,R5*%
X133296516Y-102525670D03*
X133296516Y-101001670D03*
%TD*%
%TO.C,C12*%
X108896515Y-102725672D03*
X108896515Y-101201672D03*
%TD*%
D13*
%TO.C,*%
X120601100Y-47003599D03*
X121901100Y-44903599D03*
X123801100Y-44903599D03*
X123201100Y-46253599D03*
X123201100Y-45503599D03*
X119251100Y-44903599D03*
X125301100Y-44903599D03*
X123201100Y-47003599D03*
X118501100Y-44903599D03*
X120001100Y-44903599D03*
X120601100Y-46253599D03*
X124551100Y-44903599D03*
X120601100Y-45503599D03*
%TD*%
%TO.C,*%
X89601100Y-111703599D03*
X89001100Y-114903599D03*
X88251100Y-112303599D03*
X94301100Y-112303599D03*
X92801100Y-112303599D03*
X89601100Y-110953599D03*
X93551100Y-114903599D03*
X89001100Y-112303599D03*
X92801100Y-114903599D03*
X92201100Y-110203599D03*
X92201100Y-115503599D03*
X87501100Y-112303599D03*
X92201100Y-110953599D03*
X89601100Y-116253599D03*
X92201100Y-117003599D03*
X92201100Y-113603599D03*
X94301100Y-114903599D03*
X93551100Y-112303599D03*
X89601100Y-117003599D03*
X88251100Y-114903599D03*
X89601100Y-110203599D03*
X92201100Y-111703599D03*
X92201100Y-116253599D03*
X87501100Y-114903599D03*
X89601100Y-113603599D03*
X89601100Y-115503599D03*
%TD*%
D12*
%TO.C,C7*%
X148000642Y-121841378D03*
X148000642Y-123365378D03*
%TD*%
D29*
%TO.C,C14*%
X133024642Y-120703376D03*
X129976642Y-120703376D03*
%TD*%
D12*
%TO.C,C2*%
X113300642Y-121841378D03*
X113300642Y-123365378D03*
%TD*%
D18*
%TO.C,C12*%
X132838642Y-122903376D03*
X134362642Y-122903376D03*
%TD*%
D12*
%TO.C,C8*%
X137096516Y-94825672D03*
X137096516Y-93301672D03*
%TD*%
%TO.C,R2*%
X70096516Y-86825673D03*
X70096516Y-85301673D03*
%TD*%
D13*
%TO.C,*%
X57901100Y-44903599D03*
%TD*%
%TO.C,*%
X156401100Y-147303599D03*
%TD*%
D12*
%TO.C,R4*%
X140200642Y-123865376D03*
X140200642Y-122341376D03*
%TD*%
D29*
%TO.C,C4*%
X150224642Y-129203376D03*
X147176642Y-129203376D03*
%TD*%
D12*
%TO.C,C3*%
X107096516Y-102725672D03*
X107096516Y-101201672D03*
%TD*%
D13*
%TO.C,*%
X88251100Y-44903599D03*
X89601100Y-45503599D03*
X89601100Y-47003599D03*
X93551100Y-44903599D03*
X92201100Y-46253599D03*
X92801100Y-44903599D03*
X87501100Y-44903599D03*
X92201100Y-47003599D03*
X94301100Y-44903599D03*
X90901100Y-44903599D03*
X92201100Y-45503599D03*
X89001100Y-44903599D03*
X89601100Y-46253599D03*
%TD*%
D19*
%TO.C,Q1*%
X109751100Y-67798597D03*
X109751100Y-69068597D03*
X109751100Y-70338597D03*
X109751100Y-71608597D03*
D20*
X115451100Y-71608597D03*
X115451100Y-70338597D03*
X115451100Y-69068597D03*
X115451100Y-67798597D03*
D21*
X113051100Y-69703597D03*
%TD*%
D13*
%TO.C,*%
X56401100Y-147303599D03*
%TD*%
D12*
%TO.C,R13*%
X135096515Y-102525670D03*
X135096515Y-101001670D03*
%TD*%
D18*
%TO.C,C15*%
X149363100Y-99403597D03*
X147839100Y-99403597D03*
%TD*%
D12*
%TO.C,R10*%
X127896516Y-97901671D03*
X127896516Y-99425671D03*
%TD*%
D19*
%TO.C,Q3*%
X78751100Y-61798597D03*
X78751100Y-63068597D03*
X78751100Y-64338597D03*
X78751100Y-65608597D03*
D20*
X84451100Y-65608597D03*
X84451100Y-64338597D03*
X84451100Y-63068597D03*
X84451100Y-61798597D03*
D21*
X82051100Y-63703597D03*
%TD*%
D14*
%TO.C,C11*%
X66700642Y-139879378D03*
X66700642Y-142927378D03*
%TD*%
D18*
%TO.C,C9*%
X126434515Y-91063671D03*
X127958515Y-91063671D03*
%TD*%
D13*
%TO.C,*%
X156401100Y-44903599D03*
%TD*%
D12*
%TO.C,R3*%
X139300644Y-126865376D03*
X139300644Y-125341376D03*
%TD*%
D18*
%TO.C,C15*%
X87363100Y-99403597D03*
X85839100Y-99403597D03*
%TD*%
D38*
%TO.C,*%
X94901102Y-62303597D03*
%TD*%
D29*
%TO.C,C14*%
X71024642Y-120703376D03*
X67976642Y-120703376D03*
%TD*%
D12*
%TO.C,R8*%
X129696515Y-97901671D03*
X129696515Y-99425671D03*
%TD*%
D22*
%TO.C,ST1*%
X113186517Y-82403599D03*
D23*
X115726517Y-82403599D03*
X118266517Y-82403599D03*
%TD*%
D13*
%TO.C,*%
X124551100Y-77303599D03*
X120601100Y-76703599D03*
X120601100Y-80503599D03*
X123801100Y-79903599D03*
X120601100Y-82003599D03*
X119251100Y-77303599D03*
X123201100Y-75953599D03*
X118501100Y-79903599D03*
X123201100Y-75203599D03*
X119251100Y-79903599D03*
X120001100Y-79903599D03*
X123201100Y-80503599D03*
X120001100Y-77303599D03*
X125301100Y-79903599D03*
X123201100Y-82003599D03*
X120601100Y-78603599D03*
X120601100Y-75203599D03*
X123201100Y-78603599D03*
X120601100Y-75953599D03*
X123801100Y-77303599D03*
X123201100Y-76703599D03*
X124551100Y-79903599D03*
X123201100Y-81253599D03*
X125301100Y-77303599D03*
X118501100Y-77303599D03*
X120601100Y-81253599D03*
%TD*%
D22*
%TO.C,ST1*%
X82186644Y-117403378D03*
D23*
X84726644Y-117403378D03*
X87266644Y-117403378D03*
%TD*%
D14*
%TO.C,C16*%
X142200644Y-142479378D03*
X142200644Y-145527378D03*
%TD*%
D29*
%TO.C,C6*%
X142076642Y-129203376D03*
X145124642Y-129203376D03*
%TD*%
D12*
%TO.C,R4*%
X109200642Y-123865376D03*
X109200642Y-122341376D03*
%TD*%
D19*
%TO.C,Q3*%
X140751100Y-61798597D03*
X140751100Y-63068597D03*
X140751100Y-64338597D03*
X140751100Y-65608597D03*
D20*
X146451100Y-65608597D03*
X146451100Y-64338597D03*
X146451100Y-63068597D03*
X146451100Y-61798597D03*
D21*
X144051100Y-63703597D03*
%TD*%
D29*
%TO.C,C4*%
X88224642Y-129203376D03*
X85176642Y-129203376D03*
%TD*%
D14*
%TO.C,C5*%
X136001100Y-85227599D03*
X136001100Y-82179599D03*
%TD*%
D18*
%TO.C,C7*%
X96672516Y-88963672D03*
X98196516Y-88963672D03*
%TD*%
%TO.C,C15*%
X118363100Y-99403597D03*
X116839100Y-99403597D03*
%TD*%
D11*
%TO.C,TP2*%
X95901100Y-51903597D03*
%TD*%
D42*
%TO.C,L1*%
X116500642Y-140153378D03*
X116500642Y-145253378D03*
%TD*%
D29*
%TO.C,C2*%
X116292274Y-85403597D03*
X113244274Y-85403597D03*
%TD*%
D39*
%TO.C,Q2*%
X148505642Y-131953376D03*
X147235642Y-131953376D03*
X145965642Y-131953376D03*
X144695642Y-131953376D03*
D40*
X144695642Y-137653376D03*
X145965642Y-137653376D03*
X147235642Y-137653376D03*
X148505642Y-137653376D03*
D41*
X146600642Y-135253376D03*
%TD*%
D12*
%TO.C,R11*%
X96896516Y-102525670D03*
X96896516Y-101001670D03*
%TD*%
D11*
%TO.C,TP5*%
X137501100Y-57068599D03*
%TD*%
D30*
%TO.C,IC1*%
X72300644Y-125553376D03*
D31*
X70000644Y-132203376D03*
D30*
X67700642Y-125553376D03*
%TD*%
D15*
%TO.C,ST3*%
X129796416Y-81908502D03*
D16*
X132336416Y-81908502D03*
%TD*%
D12*
%TO.C,C3*%
X138096516Y-102725672D03*
X138096516Y-101201672D03*
%TD*%
D15*
%TO.C,ST3*%
X125400644Y-121503378D03*
D16*
X125400644Y-124043378D03*
X125400644Y-126583378D03*
%TD*%
D11*
%TO.C,TP4*%
X137501100Y-63068597D03*
%TD*%
D29*
%TO.C,C2*%
X85292274Y-85403597D03*
X82244274Y-85403597D03*
%TD*%
%TO.C,C1*%
X147077100Y-88303597D03*
X150125100Y-88303597D03*
%TD*%
D15*
%TO.C,ST5*%
X94400644Y-137263376D03*
D16*
X94400644Y-139803376D03*
X94400644Y-142343376D03*
%TD*%
D12*
%TO.C,R7*%
X67696515Y-102525670D03*
X67696515Y-101001670D03*
%TD*%
D13*
%TO.C,*%
X120001100Y-112303599D03*
X119251100Y-112303599D03*
X123801100Y-114903599D03*
X120601100Y-117003599D03*
X120601100Y-111703599D03*
X123201100Y-115503599D03*
X120601100Y-110203599D03*
X120601100Y-110953599D03*
X123201100Y-111703599D03*
X118501100Y-114903599D03*
X123201100Y-117003599D03*
X123201100Y-110203599D03*
X119251100Y-114903599D03*
X123201100Y-116253599D03*
X123801100Y-112303599D03*
X120001100Y-114903599D03*
X120601100Y-113603599D03*
X123201100Y-110953599D03*
X125301100Y-112303599D03*
X125301100Y-114903599D03*
X124551100Y-112303599D03*
X123201100Y-113603599D03*
X118501100Y-112303599D03*
X120601100Y-116253599D03*
X120601100Y-115503599D03*
X124551100Y-114903599D03*
%TD*%
D12*
%TO.C,R8*%
X67696515Y-97901671D03*
X67696515Y-99425671D03*
%TD*%
D15*
%TO.C,C2*%
X141601100Y-51753597D03*
D16*
X141601100Y-48253600D03*
%TD*%
D13*
%TO.C,*%
X124551100Y-147303599D03*
X123201100Y-145953599D03*
X120001100Y-147303599D03*
X120601100Y-145953599D03*
X120601100Y-146703599D03*
X123201100Y-145203599D03*
X119251100Y-147303599D03*
X125301100Y-147303599D03*
X123201100Y-146703599D03*
X123801100Y-147303599D03*
X121901100Y-147303599D03*
X118501100Y-147303599D03*
X120601100Y-145203599D03*
%TD*%
D12*
%TO.C,R9*%
X126096515Y-102525670D03*
X126096515Y-101001670D03*
%TD*%
D13*
%TO.C,*%
X61201100Y-78603599D03*
X61201100Y-81253599D03*
X61201100Y-80503599D03*
X61201100Y-75953599D03*
X61201100Y-82003599D03*
X61801100Y-77303599D03*
X62551100Y-79903599D03*
X63301100Y-77303599D03*
X61201100Y-76703599D03*
X61801100Y-79903599D03*
X63301100Y-79903599D03*
X61201100Y-75203599D03*
X62551100Y-77303599D03*
%TD*%
D12*
%TO.C,C8*%
X79100642Y-125341376D03*
X79100642Y-126865376D03*
%TD*%
%TO.C,R10*%
X65896516Y-97901671D03*
X65896516Y-99425671D03*
%TD*%
%TO.C,R4*%
X78200642Y-123865376D03*
X78200642Y-122341376D03*
%TD*%
D38*
%TO.C,*%
X87101102Y-62803599D03*
%TD*%
D12*
%TO.C,R5*%
X102296516Y-102525670D03*
X102296516Y-101001670D03*
%TD*%
D39*
%TO.C,Q2*%
X86505642Y-131953376D03*
X85235642Y-131953376D03*
X83965642Y-131953376D03*
X82695642Y-131953376D03*
D40*
X82695642Y-137653376D03*
X83965642Y-137653376D03*
X85235642Y-137653376D03*
X86505642Y-137653376D03*
D41*
X84600642Y-135253376D03*
%TD*%
D12*
%TO.C,R2*%
X132096516Y-86825673D03*
X132096516Y-85301673D03*
%TD*%
%TO.C,R1*%
X84000644Y-123365378D03*
X84000644Y-121841378D03*
%TD*%
D18*
%TO.C,C13*%
X69262644Y-122903376D03*
X67738644Y-122903376D03*
%TD*%
D11*
%TO.C,TP1*%
X148301100Y-52403599D03*
%TD*%
D13*
%TO.C,*%
X54901100Y-147303599D03*
%TD*%
D11*
%TO.C,TP5*%
X106501100Y-57068599D03*
%TD*%
D12*
%TO.C,C8*%
X106096516Y-94825672D03*
X106096516Y-93301672D03*
%TD*%
D42*
%TO.C,L1*%
X85500642Y-140153378D03*
X85500642Y-145253378D03*
%TD*%
D12*
%TO.C,R3*%
X125601100Y-97901671D03*
X125601100Y-99425671D03*
%TD*%
D23*
%TO.C,*%
X57401100Y-151103599D03*
%TD*%
D13*
%TO.C,*%
X61201100Y-47003599D03*
X61201100Y-46253599D03*
X61201100Y-42653599D03*
X60451100Y-44903599D03*
X61201100Y-45503599D03*
X61801100Y-44903599D03*
X61201100Y-44153599D03*
X62551100Y-44903599D03*
X63301100Y-44903599D03*
X59701100Y-44903599D03*
X58951100Y-44903599D03*
X61201100Y-43403599D03*
%TD*%
D18*
%TO.C,R1*%
X128434516Y-87063671D03*
X129958516Y-87063671D03*
%TD*%
D15*
%TO.C,ST2*%
X67796642Y-116908378D03*
D16*
X70336642Y-116908378D03*
%TD*%
D12*
%TO.C,R1*%
X115000644Y-123365378D03*
X115000644Y-121841378D03*
%TD*%
D32*
%TO.C,D1*%
X78200642Y-132320376D03*
X78200642Y-139686376D03*
%TD*%
D14*
%TO.C,C16*%
X111200644Y-142479378D03*
X111200644Y-145527378D03*
%TD*%
D38*
%TO.C,*%
X125901102Y-62303597D03*
%TD*%
D14*
%TO.C,C11*%
X97700642Y-139879378D03*
X97700642Y-142927378D03*
%TD*%
D13*
%TO.C,*%
X151001100Y-147303599D03*
X151601100Y-148803599D03*
X151601100Y-145203599D03*
X152351100Y-147303599D03*
X153851100Y-147303599D03*
X151601100Y-148053599D03*
X151601100Y-145953599D03*
X150251100Y-147303599D03*
X151601100Y-146703599D03*
X149501100Y-147303599D03*
X153101100Y-147303599D03*
X151601100Y-149553599D03*
%TD*%
D12*
%TO.C,R7*%
X98696515Y-102525670D03*
X98696515Y-101001670D03*
%TD*%
%TO.C,R3*%
X94601100Y-97901671D03*
X94601100Y-99425671D03*
%TD*%
D19*
%TO.C,Q7*%
X128751100Y-67798597D03*
X128751100Y-69068597D03*
X128751100Y-70338597D03*
X128751100Y-71608597D03*
D20*
X134451098Y-71608597D03*
X134451098Y-70338597D03*
X134451098Y-69068597D03*
X134451098Y-67798597D03*
D21*
X132051098Y-69703597D03*
%TD*%
D12*
%TO.C,R5*%
X71296516Y-102525670D03*
X71296516Y-101001670D03*
%TD*%
%TO.C,R9*%
X95096515Y-102525670D03*
X95096515Y-101001670D03*
%TD*%
D13*
%TO.C,*%
X154901100Y-44903599D03*
%TD*%
%TO.C,*%
X55651100Y-44903599D03*
%TD*%
D18*
%TO.C,C7*%
X127672516Y-88963672D03*
X129196516Y-88963672D03*
%TD*%
D12*
%TO.C,R2*%
X101096516Y-86825673D03*
X101096516Y-85301673D03*
%TD*%
%TO.C,R11*%
X65896516Y-102525670D03*
X65896516Y-101001670D03*
%TD*%
D15*
%TO.C,ST4*%
X94400644Y-129363376D03*
D16*
X94400644Y-131903376D03*
X94400644Y-134443376D03*
%TD*%
D13*
%TO.C,*%
X61201100Y-117003599D03*
X61801100Y-114903599D03*
X61201100Y-110203599D03*
X62551100Y-114903599D03*
X62551100Y-112303599D03*
X63301100Y-114903599D03*
X61201100Y-110953599D03*
X61801100Y-112303599D03*
X61201100Y-116253599D03*
X61201100Y-113603599D03*
X61201100Y-111703599D03*
X61201100Y-115503599D03*
X63301100Y-112303599D03*
%TD*%
D12*
%TO.C,R11*%
X127896516Y-102525670D03*
X127896516Y-101001670D03*
%TD*%
D15*
%TO.C,C2*%
X79601100Y-51753597D03*
D16*
X79601100Y-48253600D03*
%TD*%
D22*
%TO.C,ST1*%
X84731100Y-47403599D03*
D23*
X87271100Y-47403599D03*
%TD*%
D15*
%TO.C,ST2*%
X86961100Y-74703597D03*
D16*
X84421100Y-74703597D03*
X81881100Y-74703597D03*
X79341100Y-74703597D03*
X76801100Y-74703597D03*
X74261100Y-74703597D03*
X71721100Y-74703597D03*
X69181100Y-74703597D03*
X66641100Y-74703597D03*
X64101100Y-74703597D03*
%TD*%
D22*
%TO.C,ST1*%
X146731100Y-47403599D03*
D23*
X149271100Y-47403599D03*
%TD*%
D15*
%TO.C,ST2*%
X117961100Y-74703597D03*
D16*
X115421100Y-74703597D03*
X112881100Y-74703597D03*
X110341100Y-74703597D03*
X107801100Y-74703597D03*
X105261100Y-74703597D03*
X102721100Y-74703597D03*
X100181100Y-74703597D03*
X97641100Y-74703597D03*
X95101100Y-74703597D03*
%TD*%
D15*
%TO.C,ST2*%
X148961100Y-74703597D03*
D16*
X146421100Y-74703597D03*
X143881100Y-74703597D03*
X141341100Y-74703597D03*
X138801100Y-74703597D03*
X136261100Y-74703597D03*
X133721100Y-74703597D03*
X131181100Y-74703597D03*
X128641100Y-74703597D03*
X126101100Y-74703597D03*
%TD*%
D22*
%TO.C,ST1*%
X115731100Y-47403599D03*
D23*
X118271100Y-47403599D03*
%TD*%
M02*
