%TF.GenerationSoftware,KiCad,Pcbnew,6.0.4-6f826c9f35~116~ubuntu20.04.1*%
%TF.CreationDate,2022-04-22T17:02:12+02:00*%
%TF.ProjectId,crawl_esc_pan,63726177-6c5f-4657-9363-5f70616e2e6b,rev?*%
%TF.SameCoordinates,Original*%
%TF.FileFunction,Profile,NP*%
%FSLAX46Y46*%
G04 Gerber Fmt 4.6, Leading zero omitted, Abs format (unit mm)*
G04 Created by KiCad (PCBNEW 6.0.4-6f826c9f35~116~ubuntu20.04.1) date 2022-04-22 17:02:12*
%MOMM*%
%LPD*%
G01*
G04 APERTURE LIST*
%TA.AperFunction,Profile*%
%ADD10C,0.150000*%
%TD*%
G04 APERTURE END LIST*
D10*
X53401100Y-155103599D02*
X53401100Y-32103599D01*
X147801100Y-80103601D02*
G75*
G03*
X147801100Y-77103599I0J1500001D01*
G01*
X116801100Y-80103599D02*
X96001100Y-80103599D01*
X116801100Y-115103599D02*
X96001100Y-115103599D01*
X92401100Y-143503599D02*
X92401100Y-118703599D01*
X65001100Y-147103599D02*
X85801100Y-147103599D01*
X127001100Y-147103599D02*
X147801100Y-147103599D01*
X154401100Y-108503599D02*
X154401100Y-83703599D01*
X127001100Y-112103601D02*
G75*
G03*
X127001100Y-115103599I0J-1499999D01*
G01*
X92401100Y-83703599D02*
G75*
G03*
X89401100Y-83703599I-1500000J0D01*
G01*
X123401100Y-108503599D02*
X123401100Y-83703599D01*
X120401100Y-108503599D02*
G75*
G03*
X123401100Y-108503599I1500000J0D01*
G01*
X116801100Y-115103601D02*
G75*
G03*
X116801100Y-112103599I0J1500001D01*
G01*
X127001100Y-112103599D02*
X147801100Y-112103599D01*
X89401100Y-73503599D02*
G75*
G03*
X92401100Y-73503599I1500000J0D01*
G01*
X89401100Y-118703599D02*
X89401100Y-143503599D01*
X89401100Y-83703599D02*
X89401100Y-108503599D01*
X120401100Y-143503599D02*
G75*
G03*
X123401100Y-143503599I1500000J0D01*
G01*
X65001100Y-147103601D02*
G75*
G03*
X65001100Y-150103599I0J-1499999D01*
G01*
X147801100Y-80103599D02*
X127001100Y-80103599D01*
X58401100Y-48703599D02*
X58401100Y-73503599D01*
X92401100Y-73503599D02*
X92401100Y-48703599D01*
X127001100Y-77103601D02*
G75*
G03*
X127001100Y-80103599I0J-1499999D01*
G01*
X151401100Y-118703599D02*
X151401100Y-143503599D01*
X89401100Y-108503599D02*
G75*
G03*
X92401100Y-108503599I1500000J0D01*
G01*
X123401100Y-83703599D02*
G75*
G03*
X120401100Y-83703599I-1500000J0D01*
G01*
X96001100Y-112103599D02*
X116801100Y-112103599D01*
X147801100Y-115103599D02*
X127001100Y-115103599D01*
X61401100Y-143503599D02*
X61401100Y-118703599D01*
X61401100Y-83703599D02*
G75*
G03*
X58401100Y-83703599I-1500000J0D01*
G01*
X61401100Y-48703599D02*
G75*
G03*
X58401100Y-48703599I-1500000J0D01*
G01*
X151401100Y-73503599D02*
G75*
G03*
X154401100Y-73503599I1500000J0D01*
G01*
X116801100Y-150103601D02*
G75*
G03*
X116801100Y-147103599I0J1500001D01*
G01*
X65001100Y-112103601D02*
G75*
G03*
X65001100Y-115103599I0J-1499999D01*
G01*
X151401100Y-48703599D02*
X151401100Y-73503599D01*
X65001100Y-42103599D02*
X85801100Y-42103599D01*
X123401100Y-73503599D02*
X123401100Y-48703599D01*
X85801100Y-150103601D02*
G75*
G03*
X85801100Y-147103599I0J1500001D01*
G01*
X85801100Y-45103601D02*
G75*
G03*
X85801100Y-42103599I0J1500001D01*
G01*
X65001100Y-77103601D02*
G75*
G03*
X65001100Y-80103599I0J-1499999D01*
G01*
X65001100Y-42103601D02*
G75*
G03*
X65001100Y-45103599I0J-1499999D01*
G01*
X96001100Y-77103601D02*
G75*
G03*
X96001100Y-80103599I0J-1499999D01*
G01*
X58401100Y-73503599D02*
G75*
G03*
X61401100Y-73503599I1500000J0D01*
G01*
X61401100Y-73503599D02*
X61401100Y-48703599D01*
X159401100Y-32103599D02*
X159401100Y-155103599D01*
X92401100Y-108503599D02*
X92401100Y-83703599D01*
X147801100Y-115103601D02*
G75*
G03*
X147801100Y-112103599I0J1500001D01*
G01*
X96001100Y-147103599D02*
X116801100Y-147103599D01*
X116801100Y-45103599D02*
X96001100Y-45103599D01*
X58401100Y-108503599D02*
G75*
G03*
X61401100Y-108503599I1500000J0D01*
G01*
X127001100Y-42103599D02*
X147801100Y-42103599D01*
X92401100Y-118703599D02*
G75*
G03*
X89401100Y-118703599I-1500000J0D01*
G01*
X61401100Y-118703599D02*
G75*
G03*
X58401100Y-118703599I-1500000J0D01*
G01*
X116801100Y-80103601D02*
G75*
G03*
X116801100Y-77103599I0J1500001D01*
G01*
X96001100Y-77103599D02*
X116801100Y-77103599D01*
X127001100Y-77103599D02*
X147801100Y-77103599D01*
X53401100Y-32103599D02*
X159401100Y-32103599D01*
X154401100Y-118703599D02*
G75*
G03*
X151401100Y-118703599I-1500000J0D01*
G01*
X85801100Y-150103599D02*
X65001100Y-150103599D01*
X96001100Y-42103601D02*
G75*
G03*
X96001100Y-45103599I0J-1499999D01*
G01*
X85801100Y-80103599D02*
X65001100Y-80103599D01*
X61401100Y-108503599D02*
X61401100Y-83703599D01*
X89401100Y-48703599D02*
X89401100Y-73503599D01*
X147801100Y-45103599D02*
X127001100Y-45103599D01*
X147801100Y-45103601D02*
G75*
G03*
X147801100Y-42103599I0J1500001D01*
G01*
X58401100Y-143503599D02*
G75*
G03*
X61401100Y-143503599I1500000J0D01*
G01*
X147801100Y-150103601D02*
G75*
G03*
X147801100Y-147103599I0J1500001D01*
G01*
X96001100Y-42103599D02*
X116801100Y-42103599D01*
X96001100Y-112103601D02*
G75*
G03*
X96001100Y-115103599I0J-1499999D01*
G01*
X154401100Y-73503599D02*
X154401100Y-48703599D01*
X96001100Y-147103601D02*
G75*
G03*
X96001100Y-150103599I0J-1499999D01*
G01*
X147801100Y-150103599D02*
X127001100Y-150103599D01*
X85801100Y-80103601D02*
G75*
G03*
X85801100Y-77103599I0J1500001D01*
G01*
X85801100Y-115103601D02*
G75*
G03*
X85801100Y-112103599I0J1500001D01*
G01*
X85801100Y-45103599D02*
X65001100Y-45103599D01*
X154401100Y-83703599D02*
G75*
G03*
X151401100Y-83703599I-1500000J0D01*
G01*
X120401100Y-118703599D02*
X120401100Y-143503599D01*
X65001100Y-77103599D02*
X85801100Y-77103599D01*
X120401100Y-73503599D02*
G75*
G03*
X123401100Y-73503599I1500000J0D01*
G01*
X151401100Y-143503599D02*
G75*
G03*
X154401100Y-143503599I1500000J0D01*
G01*
X116801100Y-150103599D02*
X96001100Y-150103599D01*
X120401100Y-83703599D02*
X120401100Y-108503599D01*
X92401100Y-48703599D02*
G75*
G03*
X89401100Y-48703599I-1500000J0D01*
G01*
X151401100Y-83703599D02*
X151401100Y-108503599D01*
X58401100Y-118703599D02*
X58401100Y-143503599D01*
X151401100Y-108503599D02*
G75*
G03*
X154401100Y-108503599I1500000J0D01*
G01*
X123401100Y-143503599D02*
X123401100Y-118703599D01*
X123401100Y-48703599D02*
G75*
G03*
X120401100Y-48703599I-1500000J0D01*
G01*
X159401100Y-155103599D02*
X53401100Y-155103599D01*
X127001100Y-42103601D02*
G75*
G03*
X127001100Y-45103599I0J-1499999D01*
G01*
X123401100Y-118703599D02*
G75*
G03*
X120401100Y-118703599I-1500000J0D01*
G01*
X65001100Y-112103599D02*
X85801100Y-112103599D01*
X154401100Y-48703599D02*
G75*
G03*
X151401100Y-48703599I-1500000J0D01*
G01*
X127001100Y-147103601D02*
G75*
G03*
X127001100Y-150103599I0J-1499999D01*
G01*
X58401100Y-83703599D02*
X58401100Y-108503599D01*
X85801100Y-115103599D02*
X65001100Y-115103599D01*
X120401100Y-48703599D02*
X120401100Y-73503599D01*
X116801100Y-45103601D02*
G75*
G03*
X116801100Y-42103599I0J1500001D01*
G01*
X89401100Y-143503599D02*
G75*
G03*
X92401100Y-143503599I1500000J0D01*
G01*
X154401100Y-143503599D02*
X154401100Y-118703599D01*
M02*
