%TF.GenerationSoftware,KiCad,Pcbnew,6.0.4-6f826c9f35~116~ubuntu20.04.1*%
%TF.CreationDate,2022-04-24T16:07:36+02:00*%
%TF.ProjectId,crawl_esc_pan,63726177-6c5f-4657-9363-5f70616e2e6b,rev?*%
%TF.SameCoordinates,Original*%
%TF.FileFunction,Soldermask,Top*%
%TF.FilePolarity,Negative*%
%FSLAX46Y46*%
G04 Gerber Fmt 4.6, Leading zero omitted, Abs format (unit mm)*
G04 Created by KiCad (PCBNEW 6.0.4-6f826c9f35~116~ubuntu20.04.1) date 2022-04-24 16:07:36*
%MOMM*%
%LPD*%
G01*
G04 APERTURE LIST*
G04 Aperture macros list*
%AMRoundRect*
0 Rectangle with rounded corners*
0 $1 Rounding radius*
0 $2 $3 $4 $5 $6 $7 $8 $9 X,Y pos of 4 corners*
0 Add a 4 corners polygon primitive as box body*
4,1,4,$2,$3,$4,$5,$6,$7,$8,$9,$2,$3,0*
0 Add four circle primitives for the rounded corners*
1,1,$1+$1,$2,$3*
1,1,$1+$1,$4,$5*
1,1,$1+$1,$6,$7*
1,1,$1+$1,$8,$9*
0 Add four rect primitives between the rounded corners*
20,1,$1+$1,$2,$3,$4,$5,0*
20,1,$1+$1,$4,$5,$6,$7,0*
20,1,$1+$1,$6,$7,$8,$9,0*
20,1,$1+$1,$8,$9,$2,$3,0*%
G04 Aperture macros list end*
%ADD10C,0.000000*%
%ADD11R,0.762000X1.016000*%
%ADD12R,1.600000X3.000000*%
%ADD13R,6.700000X6.700000*%
%ADD14R,3.810000X2.794000*%
%ADD15C,2.000000*%
%ADD16R,2.000000X2.000000*%
%ADD17R,1.193800X2.006600*%
%ADD18R,1.016000X0.762000*%
%ADD19C,1.600200*%
%ADD20R,1.600200X1.600200*%
%ADD21R,4.700000X3.750000*%
%ADD22R,0.850000X1.050000*%
%ADD23R,0.850000X1.450000*%
%ADD24R,2.006600X1.193800*%
%ADD25R,1.425000X1.760000*%
%ADD26RoundRect,0.056250X-0.678750X-0.168750X0.678750X-0.168750X0.678750X0.168750X-0.678750X0.168750X0*%
%ADD27R,2.200000X2.700000*%
%ADD28RoundRect,0.067500X-0.347500X-0.067500X0.347500X-0.067500X0.347500X0.067500X-0.347500X0.067500X0*%
%ADD29RoundRect,0.067500X0.067500X-0.347500X0.067500X0.347500X-0.067500X0.347500X-0.067500X-0.347500X0*%
%ADD30RoundRect,0.067500X0.347500X0.067500X-0.347500X0.067500X-0.347500X-0.067500X0.347500X-0.067500X0*%
%ADD31RoundRect,0.067500X-0.067500X0.347500X-0.067500X-0.347500X0.067500X-0.347500X0.067500X0.347500X0*%
%ADD32R,2.600000X2.600000*%
%ADD33R,0.600000X0.300000*%
%ADD34R,0.300000X0.600000*%
%ADD35R,3.450000X3.450000*%
%ADD36O,4.300000X3.500000*%
%ADD37R,1.450000X0.850000*%
%ADD38R,1.050000X0.850000*%
%ADD39R,3.750000X4.700000*%
%ADD40RoundRect,0.750000X-0.750000X-8.500000X0.750000X-8.500000X0.750000X8.500000X-0.750000X8.500000X0*%
%ADD41C,0.500000*%
%ADD42C,4.000000*%
G04 APERTURE END LIST*
D10*
G36*
X191719542Y-130424777D02*
G01*
X190869542Y-130424777D01*
X190869542Y-129124777D01*
X191719542Y-129124777D01*
X191719542Y-130424777D01*
G37*
G36*
X194259542Y-130424777D02*
G01*
X193409542Y-130424777D01*
X193409542Y-129124777D01*
X194259542Y-129124777D01*
X194259542Y-130424777D01*
G37*
G36*
X192989542Y-130424777D02*
G01*
X192139542Y-130424777D01*
X192139542Y-129124777D01*
X192989542Y-129124777D01*
X192989542Y-130424777D01*
G37*
G36*
X195529542Y-130424777D02*
G01*
X194679542Y-130424777D01*
X194679542Y-129124777D01*
X195529542Y-129124777D01*
X195529542Y-130424777D01*
G37*
G36*
X195374542Y-134424777D02*
G01*
X195624542Y-134424777D01*
X195624542Y-136074777D01*
X190774542Y-136074777D01*
X190774542Y-134424777D01*
X191024542Y-134424777D01*
X191024542Y-131324779D01*
X195374542Y-131324779D01*
X195374542Y-134424777D01*
G37*
G36*
X160719542Y-130424777D02*
G01*
X159869542Y-130424777D01*
X159869542Y-129124777D01*
X160719542Y-129124777D01*
X160719542Y-130424777D01*
G37*
G36*
X163259542Y-130424777D02*
G01*
X162409542Y-130424777D01*
X162409542Y-129124777D01*
X163259542Y-129124777D01*
X163259542Y-130424777D01*
G37*
G36*
X161989542Y-130424777D02*
G01*
X161139542Y-130424777D01*
X161139542Y-129124777D01*
X161989542Y-129124777D01*
X161989542Y-130424777D01*
G37*
G36*
X164529542Y-130424777D02*
G01*
X163679542Y-130424777D01*
X163679542Y-129124777D01*
X164529542Y-129124777D01*
X164529542Y-130424777D01*
G37*
G36*
X164374542Y-134424777D02*
G01*
X164624542Y-134424777D01*
X164624542Y-136074777D01*
X159774542Y-136074777D01*
X159774542Y-134424777D01*
X160024542Y-134424777D01*
X160024542Y-131324779D01*
X164374542Y-131324779D01*
X164374542Y-134424777D01*
G37*
G36*
X181674998Y-70024998D02*
G01*
X180025000Y-70024998D01*
X180025000Y-69774998D01*
X176925000Y-69774998D01*
X176925000Y-65424998D01*
X180025000Y-65424998D01*
X180025000Y-65175000D01*
X181674998Y-65175000D01*
X181674998Y-70024998D01*
G37*
G36*
X188025000Y-68659998D02*
G01*
X186725000Y-68659998D01*
X186725000Y-67809998D01*
X188025000Y-67809998D01*
X188025000Y-68659998D01*
G37*
G36*
X181674998Y-64024998D02*
G01*
X180025000Y-64024998D01*
X180025000Y-63774998D01*
X176925000Y-63774998D01*
X176925000Y-59424998D01*
X180025000Y-59424998D01*
X180025000Y-59174998D01*
X181674998Y-59174998D01*
X181674998Y-64024998D01*
G37*
G36*
X176025000Y-54120000D02*
G01*
X174725000Y-54120000D01*
X174725000Y-53270000D01*
X176025000Y-53270000D01*
X176025000Y-54120000D01*
G37*
G36*
X188025000Y-69929998D02*
G01*
X186725000Y-69929998D01*
X186725000Y-69079998D01*
X188025000Y-69079998D01*
X188025000Y-69929998D01*
G37*
G36*
X188025000Y-67389998D02*
G01*
X186725000Y-67389998D01*
X186725000Y-66539998D01*
X188025000Y-66539998D01*
X188025000Y-67389998D01*
G37*
G36*
X193675000Y-58024998D02*
G01*
X192025000Y-58024998D01*
X192025000Y-57774998D01*
X188925000Y-57774998D01*
X188925000Y-53425000D01*
X192025000Y-53425000D01*
X192025000Y-53175001D01*
X193675000Y-53175001D01*
X193675000Y-58024998D01*
G37*
G36*
X176025000Y-61389998D02*
G01*
X174725000Y-61389998D01*
X174725000Y-60539998D01*
X176025000Y-60539998D01*
X176025000Y-61389998D01*
G37*
G36*
X176025000Y-67389998D02*
G01*
X174725000Y-67389998D01*
X174725000Y-66539998D01*
X176025000Y-66539998D01*
X176025000Y-67389998D01*
G37*
G36*
X176025000Y-56660000D02*
G01*
X174725000Y-56660000D01*
X174725000Y-55810000D01*
X176025000Y-55810000D01*
X176025000Y-56660000D01*
G37*
G36*
X176025000Y-68659998D02*
G01*
X174725000Y-68659998D01*
X174725000Y-67809998D01*
X176025000Y-67809998D01*
X176025000Y-68659998D01*
G37*
G36*
X188025000Y-57930000D02*
G01*
X186725000Y-57930000D01*
X186725000Y-57080000D01*
X188025000Y-57080000D01*
X188025000Y-57930000D01*
G37*
G36*
X193675000Y-70024998D02*
G01*
X192025000Y-70024998D01*
X192025000Y-69774998D01*
X188925000Y-69774998D01*
X188925000Y-65424998D01*
X192025000Y-65424998D01*
X192025000Y-65175000D01*
X193675000Y-65175000D01*
X193675000Y-70024998D01*
G37*
G36*
X176025000Y-55390000D02*
G01*
X174725000Y-55390000D01*
X174725000Y-54540000D01*
X176025000Y-54540000D01*
X176025000Y-55390000D01*
G37*
G36*
X176025000Y-60119998D02*
G01*
X174725000Y-60119998D01*
X174725000Y-59269998D01*
X176025000Y-59269998D01*
X176025000Y-60119998D01*
G37*
G36*
X193675000Y-64024998D02*
G01*
X192025000Y-64024998D01*
X192025000Y-63774998D01*
X188925000Y-63774998D01*
X188925000Y-59424998D01*
X192025000Y-59424998D01*
X192025000Y-59174998D01*
X193675000Y-59174998D01*
X193675000Y-64024998D01*
G37*
G36*
X188025000Y-62659998D02*
G01*
X186725000Y-62659998D01*
X186725000Y-61809998D01*
X188025000Y-61809998D01*
X188025000Y-62659998D01*
G37*
G36*
X188025000Y-55390000D02*
G01*
X186725000Y-55390000D01*
X186725000Y-54540000D01*
X188025000Y-54540000D01*
X188025000Y-55390000D01*
G37*
G36*
X176025000Y-66119998D02*
G01*
X174725000Y-66119998D01*
X174725000Y-65269998D01*
X176025000Y-65269998D01*
X176025000Y-66119998D01*
G37*
G36*
X188025000Y-66119998D02*
G01*
X186725000Y-66119998D01*
X186725000Y-65269998D01*
X188025000Y-65269998D01*
X188025000Y-66119998D01*
G37*
G36*
X181674998Y-58024998D02*
G01*
X180025000Y-58024998D01*
X180025000Y-57774998D01*
X176925000Y-57774998D01*
X176925000Y-53425000D01*
X180025000Y-53425000D01*
X180025000Y-53175001D01*
X181674998Y-53175001D01*
X181674998Y-58024998D01*
G37*
G36*
X176025000Y-69929998D02*
G01*
X174725000Y-69929998D01*
X174725000Y-69079998D01*
X176025000Y-69079998D01*
X176025000Y-69929998D01*
G37*
G36*
X188025000Y-56660000D02*
G01*
X186725000Y-56660000D01*
X186725000Y-55810000D01*
X188025000Y-55810000D01*
X188025000Y-56660000D01*
G37*
G36*
X188025000Y-61389998D02*
G01*
X186725000Y-61389998D01*
X186725000Y-60539998D01*
X188025000Y-60539998D01*
X188025000Y-61389998D01*
G37*
G36*
X176025000Y-57930000D02*
G01*
X174725000Y-57930000D01*
X174725000Y-57080000D01*
X176025000Y-57080000D01*
X176025000Y-57930000D01*
G37*
G36*
X188025000Y-63929998D02*
G01*
X186725000Y-63929998D01*
X186725000Y-63079998D01*
X188025000Y-63079998D01*
X188025000Y-63929998D01*
G37*
G36*
X176025000Y-62659998D02*
G01*
X174725000Y-62659998D01*
X174725000Y-61809998D01*
X176025000Y-61809998D01*
X176025000Y-62659998D01*
G37*
G36*
X188025000Y-60119998D02*
G01*
X186725000Y-60119998D01*
X186725000Y-59269998D01*
X188025000Y-59269998D01*
X188025000Y-60119998D01*
G37*
G36*
X176025000Y-63929998D02*
G01*
X174725000Y-63929998D01*
X174725000Y-63079998D01*
X176025000Y-63079998D01*
X176025000Y-63929998D01*
G37*
G36*
X188025000Y-54120000D02*
G01*
X186725000Y-54120000D01*
X186725000Y-53270000D01*
X188025000Y-53270000D01*
X188025000Y-54120000D01*
G37*
G36*
X150674998Y-70024998D02*
G01*
X149025000Y-70024998D01*
X149025000Y-69774998D01*
X145925000Y-69774998D01*
X145925000Y-65424998D01*
X149025000Y-65424998D01*
X149025000Y-65175000D01*
X150674998Y-65175000D01*
X150674998Y-70024998D01*
G37*
G36*
X157025000Y-68659998D02*
G01*
X155725000Y-68659998D01*
X155725000Y-67809998D01*
X157025000Y-67809998D01*
X157025000Y-68659998D01*
G37*
G36*
X150674998Y-64024998D02*
G01*
X149025000Y-64024998D01*
X149025000Y-63774998D01*
X145925000Y-63774998D01*
X145925000Y-59424998D01*
X149025000Y-59424998D01*
X149025000Y-59174998D01*
X150674998Y-59174998D01*
X150674998Y-64024998D01*
G37*
G36*
X145025000Y-54120000D02*
G01*
X143725000Y-54120000D01*
X143725000Y-53270000D01*
X145025000Y-53270000D01*
X145025000Y-54120000D01*
G37*
G36*
X157025000Y-69929998D02*
G01*
X155725000Y-69929998D01*
X155725000Y-69079998D01*
X157025000Y-69079998D01*
X157025000Y-69929998D01*
G37*
G36*
X157025000Y-67389998D02*
G01*
X155725000Y-67389998D01*
X155725000Y-66539998D01*
X157025000Y-66539998D01*
X157025000Y-67389998D01*
G37*
G36*
X162675000Y-58024998D02*
G01*
X161025000Y-58024998D01*
X161025000Y-57774998D01*
X157925000Y-57774998D01*
X157925000Y-53425000D01*
X161025000Y-53425000D01*
X161025000Y-53175001D01*
X162675000Y-53175001D01*
X162675000Y-58024998D01*
G37*
G36*
X145025000Y-61389998D02*
G01*
X143725000Y-61389998D01*
X143725000Y-60539998D01*
X145025000Y-60539998D01*
X145025000Y-61389998D01*
G37*
G36*
X145025000Y-67389998D02*
G01*
X143725000Y-67389998D01*
X143725000Y-66539998D01*
X145025000Y-66539998D01*
X145025000Y-67389998D01*
G37*
G36*
X145025000Y-56660000D02*
G01*
X143725000Y-56660000D01*
X143725000Y-55810000D01*
X145025000Y-55810000D01*
X145025000Y-56660000D01*
G37*
G36*
X145025000Y-68659998D02*
G01*
X143725000Y-68659998D01*
X143725000Y-67809998D01*
X145025000Y-67809998D01*
X145025000Y-68659998D01*
G37*
G36*
X157025000Y-57930000D02*
G01*
X155725000Y-57930000D01*
X155725000Y-57080000D01*
X157025000Y-57080000D01*
X157025000Y-57930000D01*
G37*
G36*
X162675000Y-70024998D02*
G01*
X161025000Y-70024998D01*
X161025000Y-69774998D01*
X157925000Y-69774998D01*
X157925000Y-65424998D01*
X161025000Y-65424998D01*
X161025000Y-65175000D01*
X162675000Y-65175000D01*
X162675000Y-70024998D01*
G37*
G36*
X145025000Y-55390000D02*
G01*
X143725000Y-55390000D01*
X143725000Y-54540000D01*
X145025000Y-54540000D01*
X145025000Y-55390000D01*
G37*
G36*
X145025000Y-60119998D02*
G01*
X143725000Y-60119998D01*
X143725000Y-59269998D01*
X145025000Y-59269998D01*
X145025000Y-60119998D01*
G37*
G36*
X162675000Y-64024998D02*
G01*
X161025000Y-64024998D01*
X161025000Y-63774998D01*
X157925000Y-63774998D01*
X157925000Y-59424998D01*
X161025000Y-59424998D01*
X161025000Y-59174998D01*
X162675000Y-59174998D01*
X162675000Y-64024998D01*
G37*
G36*
X157025000Y-62659998D02*
G01*
X155725000Y-62659998D01*
X155725000Y-61809998D01*
X157025000Y-61809998D01*
X157025000Y-62659998D01*
G37*
G36*
X157025000Y-55390000D02*
G01*
X155725000Y-55390000D01*
X155725000Y-54540000D01*
X157025000Y-54540000D01*
X157025000Y-55390000D01*
G37*
G36*
X145025000Y-66119998D02*
G01*
X143725000Y-66119998D01*
X143725000Y-65269998D01*
X145025000Y-65269998D01*
X145025000Y-66119998D01*
G37*
G36*
X157025000Y-66119998D02*
G01*
X155725000Y-66119998D01*
X155725000Y-65269998D01*
X157025000Y-65269998D01*
X157025000Y-66119998D01*
G37*
G36*
X150674998Y-58024998D02*
G01*
X149025000Y-58024998D01*
X149025000Y-57774998D01*
X145925000Y-57774998D01*
X145925000Y-53425000D01*
X149025000Y-53425000D01*
X149025000Y-53175001D01*
X150674998Y-53175001D01*
X150674998Y-58024998D01*
G37*
G36*
X145025000Y-69929998D02*
G01*
X143725000Y-69929998D01*
X143725000Y-69079998D01*
X145025000Y-69079998D01*
X145025000Y-69929998D01*
G37*
G36*
X157025000Y-56660000D02*
G01*
X155725000Y-56660000D01*
X155725000Y-55810000D01*
X157025000Y-55810000D01*
X157025000Y-56660000D01*
G37*
G36*
X157025000Y-61389998D02*
G01*
X155725000Y-61389998D01*
X155725000Y-60539998D01*
X157025000Y-60539998D01*
X157025000Y-61389998D01*
G37*
G36*
X145025000Y-57930000D02*
G01*
X143725000Y-57930000D01*
X143725000Y-57080000D01*
X145025000Y-57080000D01*
X145025000Y-57930000D01*
G37*
G36*
X157025000Y-63929998D02*
G01*
X155725000Y-63929998D01*
X155725000Y-63079998D01*
X157025000Y-63079998D01*
X157025000Y-63929998D01*
G37*
G36*
X145025000Y-62659998D02*
G01*
X143725000Y-62659998D01*
X143725000Y-61809998D01*
X145025000Y-61809998D01*
X145025000Y-62659998D01*
G37*
G36*
X157025000Y-60119998D02*
G01*
X155725000Y-60119998D01*
X155725000Y-59269998D01*
X157025000Y-59269998D01*
X157025000Y-60119998D01*
G37*
G36*
X145025000Y-63929998D02*
G01*
X143725000Y-63929998D01*
X143725000Y-63079998D01*
X145025000Y-63079998D01*
X145025000Y-63929998D01*
G37*
G36*
X157025000Y-54120000D02*
G01*
X155725000Y-54120000D01*
X155725000Y-53270000D01*
X157025000Y-53270000D01*
X157025000Y-54120000D01*
G37*
G36*
X126025000Y-54120000D02*
G01*
X124725000Y-54120000D01*
X124725000Y-53270000D01*
X126025000Y-53270000D01*
X126025000Y-54120000D01*
G37*
G36*
X114025000Y-63929998D02*
G01*
X112725000Y-63929998D01*
X112725000Y-63079998D01*
X114025000Y-63079998D01*
X114025000Y-63929998D01*
G37*
G36*
X126025000Y-60119998D02*
G01*
X124725000Y-60119998D01*
X124725000Y-59269998D01*
X126025000Y-59269998D01*
X126025000Y-60119998D01*
G37*
G36*
X114025000Y-62659998D02*
G01*
X112725000Y-62659998D01*
X112725000Y-61809998D01*
X114025000Y-61809998D01*
X114025000Y-62659998D01*
G37*
G36*
X131675000Y-58024998D02*
G01*
X130025000Y-58024998D01*
X130025000Y-57774998D01*
X126925000Y-57774998D01*
X126925000Y-53425000D01*
X130025000Y-53425000D01*
X130025000Y-53175001D01*
X131675000Y-53175001D01*
X131675000Y-58024998D01*
G37*
G36*
X126025000Y-67389998D02*
G01*
X124725000Y-67389998D01*
X124725000Y-66539998D01*
X126025000Y-66539998D01*
X126025000Y-67389998D01*
G37*
G36*
X126025000Y-69929998D02*
G01*
X124725000Y-69929998D01*
X124725000Y-69079998D01*
X126025000Y-69079998D01*
X126025000Y-69929998D01*
G37*
G36*
X114025000Y-54120000D02*
G01*
X112725000Y-54120000D01*
X112725000Y-53270000D01*
X114025000Y-53270000D01*
X114025000Y-54120000D01*
G37*
G36*
X114025000Y-56660000D02*
G01*
X112725000Y-56660000D01*
X112725000Y-55810000D01*
X114025000Y-55810000D01*
X114025000Y-56660000D01*
G37*
G36*
X114025000Y-67389998D02*
G01*
X112725000Y-67389998D01*
X112725000Y-66539998D01*
X114025000Y-66539998D01*
X114025000Y-67389998D01*
G37*
G36*
X114025000Y-61389998D02*
G01*
X112725000Y-61389998D01*
X112725000Y-60539998D01*
X114025000Y-60539998D01*
X114025000Y-61389998D01*
G37*
G36*
X114025000Y-55390000D02*
G01*
X112725000Y-55390000D01*
X112725000Y-54540000D01*
X114025000Y-54540000D01*
X114025000Y-55390000D01*
G37*
G36*
X131675000Y-70024998D02*
G01*
X130025000Y-70024998D01*
X130025000Y-69774998D01*
X126925000Y-69774998D01*
X126925000Y-65424998D01*
X130025000Y-65424998D01*
X130025000Y-65175000D01*
X131675000Y-65175000D01*
X131675000Y-70024998D01*
G37*
G36*
X126025000Y-57930000D02*
G01*
X124725000Y-57930000D01*
X124725000Y-57080000D01*
X126025000Y-57080000D01*
X126025000Y-57930000D01*
G37*
G36*
X114025000Y-68659998D02*
G01*
X112725000Y-68659998D01*
X112725000Y-67809998D01*
X114025000Y-67809998D01*
X114025000Y-68659998D01*
G37*
G36*
X126025000Y-55390000D02*
G01*
X124725000Y-55390000D01*
X124725000Y-54540000D01*
X126025000Y-54540000D01*
X126025000Y-55390000D01*
G37*
G36*
X126025000Y-62659998D02*
G01*
X124725000Y-62659998D01*
X124725000Y-61809998D01*
X126025000Y-61809998D01*
X126025000Y-62659998D01*
G37*
G36*
X131675000Y-64024998D02*
G01*
X130025000Y-64024998D01*
X130025000Y-63774998D01*
X126925000Y-63774998D01*
X126925000Y-59424998D01*
X130025000Y-59424998D01*
X130025000Y-59174998D01*
X131675000Y-59174998D01*
X131675000Y-64024998D01*
G37*
G36*
X114025000Y-60119998D02*
G01*
X112725000Y-60119998D01*
X112725000Y-59269998D01*
X114025000Y-59269998D01*
X114025000Y-60119998D01*
G37*
G36*
X126025000Y-63929998D02*
G01*
X124725000Y-63929998D01*
X124725000Y-63079998D01*
X126025000Y-63079998D01*
X126025000Y-63929998D01*
G37*
G36*
X114025000Y-57930000D02*
G01*
X112725000Y-57930000D01*
X112725000Y-57080000D01*
X114025000Y-57080000D01*
X114025000Y-57930000D01*
G37*
G36*
X126025000Y-61389998D02*
G01*
X124725000Y-61389998D01*
X124725000Y-60539998D01*
X126025000Y-60539998D01*
X126025000Y-61389998D01*
G37*
G36*
X126025000Y-56660000D02*
G01*
X124725000Y-56660000D01*
X124725000Y-55810000D01*
X126025000Y-55810000D01*
X126025000Y-56660000D01*
G37*
G36*
X114025000Y-69929998D02*
G01*
X112725000Y-69929998D01*
X112725000Y-69079998D01*
X114025000Y-69079998D01*
X114025000Y-69929998D01*
G37*
G36*
X119674998Y-58024998D02*
G01*
X118025000Y-58024998D01*
X118025000Y-57774998D01*
X114925000Y-57774998D01*
X114925000Y-53425000D01*
X118025000Y-53425000D01*
X118025000Y-53175001D01*
X119674998Y-53175001D01*
X119674998Y-58024998D01*
G37*
G36*
X126025000Y-66119998D02*
G01*
X124725000Y-66119998D01*
X124725000Y-65269998D01*
X126025000Y-65269998D01*
X126025000Y-66119998D01*
G37*
G36*
X114025000Y-66119998D02*
G01*
X112725000Y-66119998D01*
X112725000Y-65269998D01*
X114025000Y-65269998D01*
X114025000Y-66119998D01*
G37*
G36*
X119674998Y-64024998D02*
G01*
X118025000Y-64024998D01*
X118025000Y-63774998D01*
X114925000Y-63774998D01*
X114925000Y-59424998D01*
X118025000Y-59424998D01*
X118025000Y-59174998D01*
X119674998Y-59174998D01*
X119674998Y-64024998D01*
G37*
G36*
X126025000Y-68659998D02*
G01*
X124725000Y-68659998D01*
X124725000Y-67809998D01*
X126025000Y-67809998D01*
X126025000Y-68659998D01*
G37*
G36*
X119674998Y-70024998D02*
G01*
X118025000Y-70024998D01*
X118025000Y-69774998D01*
X114925000Y-69774998D01*
X114925000Y-65424998D01*
X118025000Y-65424998D01*
X118025000Y-65175000D01*
X119674998Y-65175000D01*
X119674998Y-70024998D01*
G37*
G36*
X133374542Y-134424777D02*
G01*
X133624542Y-134424777D01*
X133624542Y-136074777D01*
X128774542Y-136074777D01*
X128774542Y-134424777D01*
X129024542Y-134424777D01*
X129024542Y-131324779D01*
X133374542Y-131324779D01*
X133374542Y-134424777D01*
G37*
G36*
X133529542Y-130424777D02*
G01*
X132679542Y-130424777D01*
X132679542Y-129124777D01*
X133529542Y-129124777D01*
X133529542Y-130424777D01*
G37*
G36*
X130989542Y-130424777D02*
G01*
X130139542Y-130424777D01*
X130139542Y-129124777D01*
X130989542Y-129124777D01*
X130989542Y-130424777D01*
G37*
G36*
X132259542Y-130424777D02*
G01*
X131409542Y-130424777D01*
X131409542Y-129124777D01*
X132259542Y-129124777D01*
X132259542Y-130424777D01*
G37*
G36*
X129719542Y-130424777D02*
G01*
X128869542Y-130424777D01*
X128869542Y-129124777D01*
X129719542Y-129124777D01*
X129719542Y-130424777D01*
G37*
D11*
%TO.C,R62*%
X190737542Y-120399777D03*
X192261542Y-120399777D03*
%TD*%
D12*
%TO.C,IC13*%
X176299542Y-123449777D03*
D13*
X178599544Y-130099777D03*
D12*
X180899544Y-123449777D03*
%TD*%
D14*
%TO.C,D12*%
X186799542Y-137582777D03*
X186799542Y-130216777D03*
%TD*%
D15*
%TO.C,ST25*%
X195865544Y-115299779D03*
X193325544Y-115299779D03*
D16*
X190785544Y-115299779D03*
%TD*%
D17*
%TO.C,C96*%
X193775542Y-127099777D03*
X196823542Y-127099777D03*
%TD*%
D18*
%TO.C,C100*%
X187699542Y-124761777D03*
X187699542Y-123237777D03*
%TD*%
D19*
%TO.C,ST29*%
X171999544Y-140239777D03*
X171999544Y-137699777D03*
D20*
X171999544Y-135159777D03*
%TD*%
D19*
%TO.C,ST30*%
X182129544Y-114799777D03*
D20*
X184669544Y-114799777D03*
%TD*%
D21*
%TO.C,Q21*%
X193199542Y-133149777D03*
D22*
X195104542Y-135549777D03*
X193834542Y-135549777D03*
X192564542Y-135549777D03*
X191294542Y-135549777D03*
D23*
X191294542Y-129849777D03*
X192564542Y-129849777D03*
X193834542Y-129849777D03*
X195104542Y-129849777D03*
%TD*%
D18*
%TO.C,C99*%
X194499542Y-121261777D03*
X194499542Y-119737777D03*
%TD*%
D24*
%TO.C,C108*%
X188799544Y-143423779D03*
X188799544Y-140375779D03*
%TD*%
D25*
%TO.C,IC14*%
X192099542Y-123899780D03*
D26*
X194249542Y-122924780D03*
X194249542Y-123574779D03*
X194249542Y-124224780D03*
X194249542Y-124874779D03*
X189949542Y-124874779D03*
X189949542Y-124224780D03*
X189949542Y-123574779D03*
X189949542Y-122924780D03*
%TD*%
D24*
%TO.C,C109*%
X186099544Y-143423779D03*
X186099544Y-140375779D03*
%TD*%
D18*
%TO.C,C93*%
X196099542Y-121537777D03*
X196099542Y-123061777D03*
%TD*%
D27*
%TO.C,L7*%
X194099542Y-143149779D03*
X194099542Y-138049779D03*
%TD*%
D19*
%TO.C,ST27*%
X171999544Y-124479779D03*
X171999544Y-121939779D03*
D20*
X171999544Y-119399779D03*
%TD*%
D19*
%TO.C,ST26*%
X178935542Y-114804779D03*
D20*
X176395542Y-114804779D03*
%TD*%
D11*
%TO.C,C105*%
X176337544Y-120799777D03*
X177861544Y-120799777D03*
%TD*%
%TO.C,R64*%
X186237542Y-121599777D03*
X187761542Y-121599777D03*
%TD*%
D17*
%TO.C,C98*%
X191723542Y-127099777D03*
X188675542Y-127099777D03*
%TD*%
D19*
%TO.C,ST31*%
X181470000Y-143600000D03*
D20*
X178930000Y-143600000D03*
%TD*%
D19*
%TO.C,ST28*%
X171999544Y-132339777D03*
X171999544Y-129799777D03*
D20*
X171999544Y-127259777D03*
%TD*%
D11*
%TO.C,C104*%
X180961542Y-120799777D03*
X179437542Y-120799777D03*
%TD*%
D24*
%TO.C,C103*%
X175299542Y-140823779D03*
X175299542Y-137775779D03*
%TD*%
D18*
%TO.C,R63*%
X185899544Y-123237777D03*
X185899544Y-124761777D03*
%TD*%
D17*
%TO.C,C106*%
X176575542Y-118599777D03*
X179623542Y-118599777D03*
%TD*%
D11*
%TO.C,R56*%
X159737542Y-120399777D03*
X161261542Y-120399777D03*
%TD*%
D12*
%TO.C,IC10*%
X145299542Y-123449777D03*
D13*
X147599544Y-130099777D03*
D12*
X149899544Y-123449777D03*
%TD*%
D14*
%TO.C,D10*%
X155799542Y-137582777D03*
X155799542Y-130216777D03*
%TD*%
D15*
%TO.C,ST18*%
X164865544Y-115299779D03*
X162325544Y-115299779D03*
D16*
X159785544Y-115299779D03*
%TD*%
D17*
%TO.C,C74*%
X162775542Y-127099777D03*
X165823542Y-127099777D03*
%TD*%
D18*
%TO.C,C78*%
X156699542Y-124761777D03*
X156699542Y-123237777D03*
%TD*%
D19*
%TO.C,ST22*%
X140999544Y-140239777D03*
X140999544Y-137699777D03*
D20*
X140999544Y-135159777D03*
%TD*%
D19*
%TO.C,ST23*%
X151129544Y-114799777D03*
D20*
X153669544Y-114799777D03*
%TD*%
D21*
%TO.C,Q20*%
X162199542Y-133149777D03*
D22*
X164104542Y-135549777D03*
X162834542Y-135549777D03*
X161564542Y-135549777D03*
X160294542Y-135549777D03*
D23*
X160294542Y-129849777D03*
X161564542Y-129849777D03*
X162834542Y-129849777D03*
X164104542Y-129849777D03*
%TD*%
D18*
%TO.C,C77*%
X163499542Y-121261777D03*
X163499542Y-119737777D03*
%TD*%
D24*
%TO.C,C86*%
X157799544Y-143423779D03*
X157799544Y-140375779D03*
%TD*%
D25*
%TO.C,IC11*%
X161099542Y-123899780D03*
D26*
X163249542Y-122924780D03*
X163249542Y-123574779D03*
X163249542Y-124224780D03*
X163249542Y-124874779D03*
X158949542Y-124874779D03*
X158949542Y-124224780D03*
X158949542Y-123574779D03*
X158949542Y-122924780D03*
%TD*%
D24*
%TO.C,C87*%
X155099544Y-143423779D03*
X155099544Y-140375779D03*
%TD*%
D18*
%TO.C,C71*%
X165099542Y-121537777D03*
X165099542Y-123061777D03*
%TD*%
D27*
%TO.C,L5*%
X163099542Y-143149779D03*
X163099542Y-138049779D03*
%TD*%
D19*
%TO.C,ST20*%
X140999544Y-124479779D03*
X140999544Y-121939779D03*
D20*
X140999544Y-119399779D03*
%TD*%
D19*
%TO.C,ST19*%
X147935542Y-114804779D03*
D20*
X145395542Y-114804779D03*
%TD*%
D11*
%TO.C,C83*%
X145337544Y-120799777D03*
X146861544Y-120799777D03*
%TD*%
%TO.C,R58*%
X155237542Y-121599777D03*
X156761542Y-121599777D03*
%TD*%
D17*
%TO.C,C76*%
X160723542Y-127099777D03*
X157675542Y-127099777D03*
%TD*%
D19*
%TO.C,ST24*%
X150470000Y-143600000D03*
D20*
X147930000Y-143600000D03*
%TD*%
D19*
%TO.C,ST21*%
X140999544Y-132339777D03*
X140999544Y-129799777D03*
D20*
X140999544Y-127259777D03*
%TD*%
D11*
%TO.C,C82*%
X149961542Y-120799777D03*
X148437542Y-120799777D03*
%TD*%
D24*
%TO.C,C81*%
X144299542Y-140823779D03*
X144299542Y-137775779D03*
%TD*%
D18*
%TO.C,R57*%
X154899544Y-123237777D03*
X154899544Y-124761777D03*
%TD*%
D17*
%TO.C,C84*%
X145575542Y-118599777D03*
X148623542Y-118599777D03*
%TD*%
D11*
%TO.C,C64*%
X175433416Y-83160073D03*
X176957416Y-83160073D03*
%TD*%
D18*
%TO.C,R42*%
X178695416Y-84722074D03*
X178695416Y-83198074D03*
%TD*%
D17*
%TO.C,C56*%
X193891174Y-83299998D03*
X190843174Y-83299998D03*
%TD*%
%TO.C,C55*%
X193676000Y-86199998D03*
X196724000Y-86199998D03*
%TD*%
D24*
%TO.C,C59*%
X182600000Y-83124000D03*
X182600000Y-80076000D03*
%TD*%
D20*
%TO.C,ST16*%
X195560000Y-107599998D03*
D19*
X193020000Y-107599998D03*
X190480000Y-107599998D03*
X187940000Y-107599998D03*
X185400000Y-107599998D03*
X182860000Y-107599998D03*
X180320000Y-107599998D03*
X177780000Y-107599998D03*
X175240000Y-107599998D03*
X172700000Y-107599998D03*
%TD*%
D18*
%TO.C,C62*%
X183695416Y-92722073D03*
X183695416Y-91198073D03*
%TD*%
%TO.C,R43*%
X172200000Y-95798072D03*
X172200000Y-97322072D03*
%TD*%
D28*
%TO.C,IC9*%
X188155415Y-97210073D03*
X188155415Y-97710072D03*
X188155415Y-98210074D03*
X188155415Y-98710073D03*
X188155415Y-99210074D03*
X188155415Y-99710073D03*
D29*
X188845416Y-100400074D03*
X189345415Y-100400074D03*
X189845416Y-100400074D03*
X190345415Y-100400074D03*
X190845417Y-100400074D03*
X191345416Y-100400074D03*
D30*
X192035417Y-99710073D03*
X192035417Y-99210074D03*
X192035417Y-98710073D03*
X192035417Y-98210074D03*
X192035417Y-97710072D03*
X192035417Y-97210073D03*
D31*
X191345416Y-96520072D03*
X190845417Y-96520072D03*
X190345415Y-96520072D03*
X189845416Y-96520072D03*
X189345415Y-96520072D03*
X188845416Y-96520072D03*
D32*
X190095416Y-98460073D03*
%TD*%
D18*
%TO.C,R48*%
X176295415Y-95798072D03*
X176295415Y-97322072D03*
%TD*%
%TO.C,C68*%
X193795416Y-101622073D03*
X193795416Y-100098073D03*
%TD*%
D11*
%TO.C,C70*%
X192557417Y-94660073D03*
X191033417Y-94660073D03*
%TD*%
D18*
%TO.C,C66*%
X186495415Y-100622073D03*
X186495415Y-99098073D03*
%TD*%
%TO.C,R51*%
X174495416Y-100422071D03*
X174495416Y-98898071D03*
%TD*%
%TO.C,R53*%
X181695415Y-100422071D03*
X181695415Y-98898071D03*
%TD*%
%TO.C,R50*%
X174495416Y-95798072D03*
X174495416Y-97322072D03*
%TD*%
D11*
%TO.C,C63*%
X173033415Y-88960072D03*
X174557415Y-88960072D03*
%TD*%
D18*
%TO.C,R45*%
X179895416Y-100422071D03*
X179895416Y-98898071D03*
%TD*%
%TO.C,R46*%
X178095417Y-95798072D03*
X178095417Y-97322072D03*
%TD*%
D11*
%TO.C,C61*%
X174271416Y-86860073D03*
X175795416Y-86860073D03*
%TD*%
D20*
%TO.C,ST17*%
X176395316Y-79804903D03*
D19*
X178935316Y-79804903D03*
%TD*%
D18*
%TO.C,R49*%
X172695415Y-100422071D03*
X172695415Y-98898071D03*
%TD*%
D11*
%TO.C,R41*%
X175033416Y-84960072D03*
X176557416Y-84960072D03*
%TD*%
%TO.C,C69*%
X195962000Y-97299998D03*
X194438000Y-97299998D03*
%TD*%
D16*
%TO.C,ST15*%
X190785417Y-80300000D03*
D15*
X193325417Y-80300000D03*
X195865417Y-80300000D03*
%TD*%
D18*
%TO.C,R47*%
X176295415Y-100422071D03*
X176295415Y-98898071D03*
%TD*%
D33*
%TO.C,IC8*%
X177445416Y-87110073D03*
X177445416Y-87610072D03*
X177445416Y-88110071D03*
X177445416Y-88610072D03*
X177445416Y-89110071D03*
X177445416Y-89610073D03*
X177445416Y-90110072D03*
X177445416Y-90610071D03*
D34*
X178045417Y-91210072D03*
X178545416Y-91210072D03*
X179045415Y-91210072D03*
X179545417Y-91210072D03*
X180045416Y-91210072D03*
X180545417Y-91210072D03*
X181045416Y-91210072D03*
X181545415Y-91210072D03*
D33*
X182145416Y-90610071D03*
X182145416Y-90110072D03*
X182145416Y-89610073D03*
X182145416Y-89110071D03*
X182145416Y-88610072D03*
X182145416Y-88110071D03*
X182145416Y-87610072D03*
X182145416Y-87110073D03*
D34*
X181545415Y-86510072D03*
X181045416Y-86510072D03*
X180545417Y-86510072D03*
X180045416Y-86510072D03*
X179545417Y-86510072D03*
X179045415Y-86510072D03*
X178545416Y-86510072D03*
X178045417Y-86510072D03*
D35*
X179795416Y-88860072D03*
%TD*%
D18*
%TO.C,C57*%
X184695416Y-100622073D03*
X184695416Y-99098073D03*
%TD*%
%TO.C,R52*%
X178095417Y-100422071D03*
X178095417Y-98898071D03*
%TD*%
D11*
%TO.C,C48*%
X144433416Y-83160073D03*
X145957416Y-83160073D03*
%TD*%
D18*
%TO.C,R28*%
X147695416Y-84722074D03*
X147695416Y-83198074D03*
%TD*%
D17*
%TO.C,C40*%
X162891174Y-83299998D03*
X159843174Y-83299998D03*
%TD*%
%TO.C,C39*%
X162676000Y-86199998D03*
X165724000Y-86199998D03*
%TD*%
D24*
%TO.C,C43*%
X151600000Y-83124000D03*
X151600000Y-80076000D03*
%TD*%
D20*
%TO.C,ST13*%
X164560000Y-107599998D03*
D19*
X162020000Y-107599998D03*
X159480000Y-107599998D03*
X156940000Y-107599998D03*
X154400000Y-107599998D03*
X151860000Y-107599998D03*
X149320000Y-107599998D03*
X146780000Y-107599998D03*
X144240000Y-107599998D03*
X141700000Y-107599998D03*
%TD*%
D18*
%TO.C,C46*%
X152695416Y-92722073D03*
X152695416Y-91198073D03*
%TD*%
%TO.C,R29*%
X141200000Y-95798072D03*
X141200000Y-97322072D03*
%TD*%
D28*
%TO.C,IC6*%
X157155415Y-97210073D03*
X157155415Y-97710072D03*
X157155415Y-98210074D03*
X157155415Y-98710073D03*
X157155415Y-99210074D03*
X157155415Y-99710073D03*
D29*
X157845416Y-100400074D03*
X158345415Y-100400074D03*
X158845416Y-100400074D03*
X159345415Y-100400074D03*
X159845417Y-100400074D03*
X160345416Y-100400074D03*
D30*
X161035417Y-99710073D03*
X161035417Y-99210074D03*
X161035417Y-98710073D03*
X161035417Y-98210074D03*
X161035417Y-97710072D03*
X161035417Y-97210073D03*
D31*
X160345416Y-96520072D03*
X159845417Y-96520072D03*
X159345415Y-96520072D03*
X158845416Y-96520072D03*
X158345415Y-96520072D03*
X157845416Y-96520072D03*
D32*
X159095416Y-98460073D03*
%TD*%
D18*
%TO.C,R34*%
X145295415Y-95798072D03*
X145295415Y-97322072D03*
%TD*%
%TO.C,C52*%
X162795416Y-101622073D03*
X162795416Y-100098073D03*
%TD*%
D11*
%TO.C,C54*%
X161557417Y-94660073D03*
X160033417Y-94660073D03*
%TD*%
D18*
%TO.C,C50*%
X155495415Y-100622073D03*
X155495415Y-99098073D03*
%TD*%
%TO.C,R37*%
X143495416Y-100422071D03*
X143495416Y-98898071D03*
%TD*%
%TO.C,R39*%
X150695415Y-100422071D03*
X150695415Y-98898071D03*
%TD*%
%TO.C,R36*%
X143495416Y-95798072D03*
X143495416Y-97322072D03*
%TD*%
D11*
%TO.C,C47*%
X142033415Y-88960072D03*
X143557415Y-88960072D03*
%TD*%
D18*
%TO.C,R31*%
X148895416Y-100422071D03*
X148895416Y-98898071D03*
%TD*%
%TO.C,R32*%
X147095417Y-95798072D03*
X147095417Y-97322072D03*
%TD*%
D11*
%TO.C,C45*%
X143271416Y-86860073D03*
X144795416Y-86860073D03*
%TD*%
D20*
%TO.C,ST14*%
X145395316Y-79804903D03*
D19*
X147935316Y-79804903D03*
%TD*%
D18*
%TO.C,R35*%
X141695415Y-100422071D03*
X141695415Y-98898071D03*
%TD*%
D11*
%TO.C,R27*%
X144033416Y-84960072D03*
X145557416Y-84960072D03*
%TD*%
%TO.C,C53*%
X164962000Y-97299998D03*
X163438000Y-97299998D03*
%TD*%
D16*
%TO.C,ST12*%
X159785417Y-80300000D03*
D15*
X162325417Y-80300000D03*
X164865417Y-80300000D03*
%TD*%
D18*
%TO.C,R33*%
X145295415Y-100422071D03*
X145295415Y-98898071D03*
%TD*%
D33*
%TO.C,IC5*%
X146445416Y-87110073D03*
X146445416Y-87610072D03*
X146445416Y-88110071D03*
X146445416Y-88610072D03*
X146445416Y-89110071D03*
X146445416Y-89610073D03*
X146445416Y-90110072D03*
X146445416Y-90610071D03*
D34*
X147045417Y-91210072D03*
X147545416Y-91210072D03*
X148045415Y-91210072D03*
X148545417Y-91210072D03*
X149045416Y-91210072D03*
X149545417Y-91210072D03*
X150045416Y-91210072D03*
X150545415Y-91210072D03*
D33*
X151145416Y-90610071D03*
X151145416Y-90110072D03*
X151145416Y-89610073D03*
X151145416Y-89110071D03*
X151145416Y-88610072D03*
X151145416Y-88110071D03*
X151145416Y-87610072D03*
X151145416Y-87110073D03*
D34*
X150545415Y-86510072D03*
X150045416Y-86510072D03*
X149545417Y-86510072D03*
X149045416Y-86510072D03*
X148545417Y-86510072D03*
X148045415Y-86510072D03*
X147545416Y-86510072D03*
X147045417Y-86510072D03*
D35*
X148795416Y-88860072D03*
%TD*%
D18*
%TO.C,C41*%
X153695416Y-100622073D03*
X153695416Y-99098073D03*
%TD*%
%TO.C,R38*%
X147095417Y-100422071D03*
X147095417Y-98898071D03*
%TD*%
D20*
%TO.C,ST11*%
X195560000Y-72599998D03*
D19*
X193020000Y-72599998D03*
X190480000Y-72599998D03*
X187940000Y-72599998D03*
X185400000Y-72599998D03*
X182860000Y-72599998D03*
X180320000Y-72599998D03*
X177780000Y-72599998D03*
X175240000Y-72599998D03*
X172700000Y-72599998D03*
%TD*%
D36*
%TO.C,TP13*%
X184100000Y-66964998D03*
%TD*%
%TO.C,TP12*%
X173500000Y-49799998D03*
%TD*%
%TO.C,TP15*%
X184100000Y-54965000D03*
%TD*%
D16*
%TO.C,ST10*%
X193330000Y-45300000D03*
D15*
X195870000Y-45300000D03*
%TD*%
D37*
%TO.C,Q18*%
X175350000Y-59694998D03*
X175350000Y-60964998D03*
X175350000Y-62234998D03*
X175350000Y-63504998D03*
D38*
X181049998Y-63504998D03*
X181049998Y-62234998D03*
X181049998Y-60964998D03*
X181049998Y-59694998D03*
D39*
X178649998Y-61599998D03*
%TD*%
D20*
%TO.C,C31*%
X179800000Y-49649998D03*
D19*
X179800000Y-46150001D03*
%TD*%
D37*
%TO.C,Q19*%
X175350000Y-53695000D03*
X175350000Y-54965000D03*
X175350000Y-56235000D03*
X175350000Y-57505000D03*
D38*
X181049998Y-57505000D03*
X181049998Y-56235000D03*
X181049998Y-54965000D03*
X181049998Y-53695000D03*
D39*
X178649998Y-55600000D03*
%TD*%
D36*
%TO.C,TP14*%
X184100000Y-60964998D03*
%TD*%
D37*
%TO.C,Q14*%
X187350000Y-65694998D03*
X187350000Y-66964998D03*
X187350000Y-68234998D03*
X187350000Y-69504998D03*
D38*
X193050000Y-69504998D03*
X193050000Y-68234998D03*
X193050000Y-66964998D03*
X193050000Y-65694998D03*
D39*
X190650000Y-67599998D03*
%TD*%
D37*
%TO.C,Q17*%
X175350000Y-65694998D03*
X175350000Y-66964998D03*
X175350000Y-68234998D03*
X175350000Y-69504998D03*
D38*
X181049998Y-69504998D03*
X181049998Y-68234998D03*
X181049998Y-66964998D03*
X181049998Y-65694998D03*
D39*
X178649998Y-67599998D03*
%TD*%
D37*
%TO.C,Q16*%
X187350000Y-53695000D03*
X187350000Y-54965000D03*
X187350000Y-56235000D03*
X187350000Y-57505000D03*
D38*
X193050000Y-57505000D03*
X193050000Y-56235000D03*
X193050000Y-54965000D03*
X193050000Y-53695000D03*
D39*
X190650000Y-55600000D03*
%TD*%
D20*
%TO.C,C32*%
X188200000Y-49649998D03*
D19*
X188200000Y-46150001D03*
%TD*%
D40*
%TO.C,4*%
X172500002Y-60199998D03*
%TD*%
D36*
%TO.C,TP11*%
X194900000Y-50300000D03*
%TD*%
D37*
%TO.C,Q15*%
X187350000Y-59694998D03*
X187350000Y-60964998D03*
X187350000Y-62234998D03*
X187350000Y-63504998D03*
D38*
X193050000Y-63504998D03*
X193050000Y-62234998D03*
X193050000Y-60964998D03*
X193050000Y-59694998D03*
D39*
X190650000Y-61599998D03*
%TD*%
D40*
%TO.C,3*%
X195700002Y-60700000D03*
%TD*%
D20*
%TO.C,ST9*%
X164560000Y-72599998D03*
D19*
X162020000Y-72599998D03*
X159480000Y-72599998D03*
X156940000Y-72599998D03*
X154400000Y-72599998D03*
X151860000Y-72599998D03*
X149320000Y-72599998D03*
X146780000Y-72599998D03*
X144240000Y-72599998D03*
X141700000Y-72599998D03*
%TD*%
D36*
%TO.C,TP8*%
X153100000Y-66964998D03*
%TD*%
%TO.C,TP7*%
X142500000Y-49799998D03*
%TD*%
%TO.C,TP10*%
X153100000Y-54965000D03*
%TD*%
D16*
%TO.C,ST8*%
X162330000Y-45300000D03*
D15*
X164870000Y-45300000D03*
%TD*%
D37*
%TO.C,Q12*%
X144350000Y-59694998D03*
X144350000Y-60964998D03*
X144350000Y-62234998D03*
X144350000Y-63504998D03*
D38*
X150049998Y-63504998D03*
X150049998Y-62234998D03*
X150049998Y-60964998D03*
X150049998Y-59694998D03*
D39*
X147649998Y-61599998D03*
%TD*%
D20*
%TO.C,C23*%
X148800000Y-49649998D03*
D19*
X148800000Y-46150001D03*
%TD*%
D37*
%TO.C,Q13*%
X144350000Y-53695000D03*
X144350000Y-54965000D03*
X144350000Y-56235000D03*
X144350000Y-57505000D03*
D38*
X150049998Y-57505000D03*
X150049998Y-56235000D03*
X150049998Y-54965000D03*
X150049998Y-53695000D03*
D39*
X147649998Y-55600000D03*
%TD*%
D36*
%TO.C,TP9*%
X153100000Y-60964998D03*
%TD*%
D37*
%TO.C,Q4*%
X156350000Y-65694998D03*
X156350000Y-66964998D03*
X156350000Y-68234998D03*
X156350000Y-69504998D03*
D38*
X162050000Y-69504998D03*
X162050000Y-68234998D03*
X162050000Y-66964998D03*
X162050000Y-65694998D03*
D39*
X159650000Y-67599998D03*
%TD*%
D37*
%TO.C,Q10*%
X144350000Y-65694998D03*
X144350000Y-66964998D03*
X144350000Y-68234998D03*
X144350000Y-69504998D03*
D38*
X150049998Y-69504998D03*
X150049998Y-68234998D03*
X150049998Y-66964998D03*
X150049998Y-65694998D03*
D39*
X147649998Y-67599998D03*
%TD*%
D37*
%TO.C,Q8*%
X156350000Y-53695000D03*
X156350000Y-54965000D03*
X156350000Y-56235000D03*
X156350000Y-57505000D03*
D38*
X162050000Y-57505000D03*
X162050000Y-56235000D03*
X162050000Y-54965000D03*
X162050000Y-53695000D03*
D39*
X159650000Y-55600000D03*
%TD*%
D20*
%TO.C,C24*%
X157200000Y-49649998D03*
D19*
X157200000Y-46150001D03*
%TD*%
D40*
%TO.C,2*%
X141500002Y-60199998D03*
%TD*%
D36*
%TO.C,TP6*%
X163900000Y-50300000D03*
%TD*%
D37*
%TO.C,Q6*%
X156350000Y-59694998D03*
X156350000Y-60964998D03*
X156350000Y-62234998D03*
X156350000Y-63504998D03*
D38*
X162050000Y-63504998D03*
X162050000Y-62234998D03*
X162050000Y-60964998D03*
X162050000Y-59694998D03*
D39*
X159650000Y-61599998D03*
%TD*%
D40*
%TO.C,1*%
X164700002Y-60700000D03*
%TD*%
D41*
%TO.C,*%
X202250000Y-42800000D03*
%TD*%
%TO.C,*%
X205250000Y-145200000D03*
%TD*%
%TO.C,*%
X107050000Y-42800000D03*
X109150000Y-42800000D03*
X107800000Y-44900000D03*
X107800000Y-41300000D03*
X107800000Y-43400000D03*
X109900000Y-42800000D03*
X106300000Y-42800000D03*
X108400000Y-42800000D03*
X107800000Y-42050000D03*
X107800000Y-44150000D03*
X107800000Y-40550000D03*
X105550000Y-42800000D03*
%TD*%
%TO.C,*%
X201500000Y-42800000D03*
%TD*%
%TO.C,*%
X104500000Y-145200000D03*
%TD*%
%TO.C,*%
X100750000Y-145200000D03*
%TD*%
%TO.C,*%
X205250000Y-42800000D03*
%TD*%
%TO.C,*%
X170400000Y-42800000D03*
X171900000Y-42800000D03*
X167200000Y-44900000D03*
X169800000Y-44150000D03*
X165850000Y-42800000D03*
X166600000Y-42800000D03*
X169800000Y-44900000D03*
X167200000Y-44150000D03*
X169800000Y-43400000D03*
X165100000Y-42800000D03*
X167200000Y-43400000D03*
X168500000Y-42800000D03*
X171150000Y-42800000D03*
%TD*%
D15*
%TO.C,*%
X104000000Y-36500000D03*
%TD*%
D41*
%TO.C,*%
X204500000Y-42800000D03*
%TD*%
%TO.C,*%
X102250000Y-42800000D03*
%TD*%
%TO.C,*%
X198200000Y-147450000D03*
X200450000Y-145200000D03*
X196850000Y-145200000D03*
X199700000Y-145200000D03*
X196100000Y-145200000D03*
X198200000Y-146700000D03*
X197600000Y-145200000D03*
X198200000Y-145950000D03*
X198950000Y-145200000D03*
X198200000Y-143100000D03*
X198200000Y-144600000D03*
X198200000Y-143850000D03*
%TD*%
%TO.C,*%
X203750000Y-145200000D03*
%TD*%
%TO.C,*%
X138800000Y-76500000D03*
X139400000Y-75200000D03*
X136200000Y-78400000D03*
X138800000Y-74600000D03*
X135600000Y-77800000D03*
X136200000Y-74600000D03*
X138800000Y-73850000D03*
X138800000Y-73100000D03*
X140900000Y-75200000D03*
X134850000Y-77800000D03*
X140900000Y-77800000D03*
X138800000Y-79150000D03*
X136200000Y-73850000D03*
X136200000Y-79900000D03*
X134100000Y-75200000D03*
X136200000Y-76500000D03*
X138800000Y-79900000D03*
X134850000Y-75200000D03*
X140150000Y-77800000D03*
X138800000Y-78400000D03*
X134100000Y-77800000D03*
X136200000Y-73100000D03*
X135600000Y-75200000D03*
X139400000Y-77800000D03*
X140150000Y-75200000D03*
X136200000Y-79150000D03*
%TD*%
%TO.C,*%
X203000000Y-42800000D03*
%TD*%
%TO.C,*%
X107800000Y-78400000D03*
X108400000Y-77800000D03*
X107800000Y-74600000D03*
X109150000Y-77800000D03*
X109900000Y-75200000D03*
X107800000Y-76500000D03*
X108400000Y-75200000D03*
X107800000Y-73850000D03*
X107800000Y-79900000D03*
X107800000Y-79150000D03*
X107800000Y-73100000D03*
X109900000Y-77800000D03*
X109150000Y-75200000D03*
%TD*%
%TO.C,*%
X103000000Y-145200000D03*
%TD*%
%TO.C,*%
X201500000Y-145200000D03*
%TD*%
D15*
%TO.C,*%
X202000000Y-149000000D03*
%TD*%
D41*
%TO.C,*%
X138800000Y-108850000D03*
X134850000Y-112800000D03*
X140150000Y-110200000D03*
X134850000Y-110200000D03*
X136200000Y-109600000D03*
X136200000Y-114900000D03*
X136200000Y-111500000D03*
X134100000Y-112800000D03*
X139400000Y-112800000D03*
X138800000Y-111500000D03*
X140150000Y-112800000D03*
X138800000Y-108100000D03*
X140900000Y-112800000D03*
X136200000Y-113400000D03*
X135600000Y-110200000D03*
X136200000Y-108850000D03*
X135600000Y-112800000D03*
X134100000Y-110200000D03*
X140900000Y-110200000D03*
X138800000Y-114900000D03*
X138800000Y-113400000D03*
X136200000Y-108100000D03*
X139400000Y-110200000D03*
X138800000Y-109600000D03*
X138800000Y-114150000D03*
X136200000Y-114150000D03*
%TD*%
%TO.C,*%
X101500000Y-42800000D03*
%TD*%
%TO.C,*%
X166600000Y-145200000D03*
X167200000Y-144600000D03*
X167200000Y-143100000D03*
X165100000Y-145200000D03*
X169800000Y-143850000D03*
X171150000Y-145200000D03*
X171900000Y-145200000D03*
X167200000Y-143850000D03*
X170400000Y-145200000D03*
X169800000Y-143100000D03*
X168500000Y-145200000D03*
X165850000Y-145200000D03*
X169800000Y-144600000D03*
%TD*%
%TO.C,*%
X204500000Y-145200000D03*
%TD*%
%TO.C,*%
X102250000Y-145200000D03*
%TD*%
%TO.C,*%
X138800000Y-43400000D03*
X137500000Y-42800000D03*
X140900000Y-42800000D03*
X134850000Y-42800000D03*
X136200000Y-43400000D03*
X135600000Y-42800000D03*
X136200000Y-44150000D03*
X139400000Y-42800000D03*
X138800000Y-44150000D03*
X136200000Y-44900000D03*
X140150000Y-42800000D03*
X138800000Y-44900000D03*
X134100000Y-42800000D03*
%TD*%
%TO.C,*%
X203750000Y-42800000D03*
%TD*%
%TO.C,*%
X135600000Y-145200000D03*
X140900000Y-145200000D03*
X134850000Y-145200000D03*
X138800000Y-144600000D03*
X138800000Y-143850000D03*
X137500000Y-145200000D03*
X139400000Y-145200000D03*
X136200000Y-143100000D03*
X134100000Y-145200000D03*
X138800000Y-143100000D03*
X136200000Y-144600000D03*
X136200000Y-143850000D03*
X140150000Y-145200000D03*
%TD*%
D42*
%TO.C,*%
X196000000Y-35000000D03*
%TD*%
D41*
%TO.C,*%
X198200000Y-73100000D03*
X196850000Y-75200000D03*
X196100000Y-75200000D03*
X198200000Y-79900000D03*
X198200000Y-79150000D03*
X198200000Y-73850000D03*
X196850000Y-77800000D03*
X197600000Y-77800000D03*
X198200000Y-76500000D03*
X197600000Y-75200000D03*
X198200000Y-78400000D03*
X198200000Y-74600000D03*
X196100000Y-77800000D03*
%TD*%
%TO.C,*%
X101500000Y-145200000D03*
%TD*%
%TO.C,*%
X100750000Y-42800000D03*
%TD*%
%TO.C,*%
X171900000Y-77800000D03*
X169800000Y-79150000D03*
X169800000Y-73850000D03*
X165100000Y-75200000D03*
X167200000Y-73850000D03*
X171150000Y-77800000D03*
X167200000Y-73100000D03*
X170400000Y-75200000D03*
X166600000Y-75200000D03*
X170400000Y-77800000D03*
X165850000Y-77800000D03*
X171150000Y-75200000D03*
X167200000Y-78400000D03*
X167200000Y-74600000D03*
X169800000Y-76500000D03*
X167200000Y-79150000D03*
X166600000Y-77800000D03*
X167200000Y-76500000D03*
X165850000Y-75200000D03*
X169800000Y-79900000D03*
X169800000Y-78400000D03*
X171900000Y-75200000D03*
X167200000Y-79900000D03*
X169800000Y-74600000D03*
X169800000Y-73100000D03*
X165100000Y-77800000D03*
%TD*%
%TO.C,*%
X103750000Y-145200000D03*
%TD*%
D42*
%TO.C,*%
X110000000Y-35000000D03*
%TD*%
D41*
%TO.C,*%
X167200000Y-111500000D03*
X166600000Y-110200000D03*
X169800000Y-113400000D03*
X166600000Y-112800000D03*
X167200000Y-113400000D03*
X169800000Y-109600000D03*
X165100000Y-112800000D03*
X167200000Y-114900000D03*
X167200000Y-108100000D03*
X169800000Y-114150000D03*
X171900000Y-110200000D03*
X170400000Y-112800000D03*
X167200000Y-109600000D03*
X171150000Y-112800000D03*
X167200000Y-108850000D03*
X169800000Y-111500000D03*
X165850000Y-110200000D03*
X165850000Y-112800000D03*
X169800000Y-108850000D03*
X171900000Y-112800000D03*
X169800000Y-114900000D03*
X165100000Y-110200000D03*
X170400000Y-110200000D03*
X167200000Y-114150000D03*
X171150000Y-110200000D03*
X169800000Y-108100000D03*
%TD*%
%TO.C,*%
X202250000Y-145200000D03*
%TD*%
D15*
%TO.C,*%
X104000000Y-149000000D03*
%TD*%
D41*
%TO.C,*%
X103750000Y-42800000D03*
%TD*%
%TO.C,*%
X198200000Y-42050000D03*
X198200000Y-41300000D03*
X198950000Y-42800000D03*
X196100000Y-42800000D03*
X200450000Y-42800000D03*
X196850000Y-42800000D03*
X198200000Y-44900000D03*
X199700000Y-42800000D03*
X198200000Y-43400000D03*
X197600000Y-42800000D03*
X198200000Y-40550000D03*
X198200000Y-44150000D03*
%TD*%
%TO.C,*%
X203000000Y-145200000D03*
%TD*%
%TO.C,*%
X107800000Y-113400000D03*
X109900000Y-112800000D03*
X109150000Y-112800000D03*
X109900000Y-110200000D03*
X109150000Y-110200000D03*
X108400000Y-110200000D03*
X107800000Y-114900000D03*
X107800000Y-108850000D03*
X108400000Y-112800000D03*
X107800000Y-108100000D03*
X107800000Y-111500000D03*
X107800000Y-114150000D03*
X107800000Y-109600000D03*
%TD*%
%TO.C,*%
X107800000Y-143850000D03*
X108400000Y-145200000D03*
X109150000Y-145200000D03*
X106300000Y-145200000D03*
X109900000Y-145200000D03*
X107800000Y-147450000D03*
X107800000Y-146700000D03*
X107800000Y-143100000D03*
X105550000Y-145200000D03*
X107800000Y-145950000D03*
X107050000Y-145200000D03*
X107800000Y-144600000D03*
%TD*%
%TO.C,*%
X103000000Y-42800000D03*
%TD*%
%TO.C,*%
X104500000Y-42800000D03*
%TD*%
%TO.C,*%
X198200000Y-111500000D03*
X196850000Y-112800000D03*
X198200000Y-108850000D03*
X196850000Y-110200000D03*
X197600000Y-112800000D03*
X196100000Y-112800000D03*
X197600000Y-110200000D03*
X196100000Y-110200000D03*
X198200000Y-113400000D03*
X198200000Y-109600000D03*
X198200000Y-108100000D03*
X198200000Y-114150000D03*
X198200000Y-114900000D03*
%TD*%
D37*
%TO.C,Q9*%
X113350000Y-59694998D03*
X113350000Y-60964998D03*
X113350000Y-62234998D03*
X113350000Y-63504998D03*
D38*
X119049998Y-63504998D03*
X119049998Y-62234998D03*
X119049998Y-60964998D03*
X119049998Y-59694998D03*
D39*
X116649998Y-61599998D03*
%TD*%
D20*
%TO.C,C1*%
X117800000Y-49649998D03*
D19*
X117800000Y-46150001D03*
%TD*%
D36*
%TO.C,TP3*%
X122100000Y-66964998D03*
%TD*%
%TO.C,TP5*%
X122100000Y-54965000D03*
%TD*%
D40*
%TO.C,*%
X133700002Y-60700000D03*
%TD*%
%TO.C,*%
X110500002Y-60199998D03*
%TD*%
D20*
%TO.C,C2*%
X126200000Y-49649998D03*
D19*
X126200000Y-46150001D03*
%TD*%
D37*
%TO.C,Q7*%
X113350000Y-65694998D03*
X113350000Y-66964998D03*
X113350000Y-68234998D03*
X113350000Y-69504998D03*
D38*
X119049998Y-69504998D03*
X119049998Y-68234998D03*
X119049998Y-66964998D03*
X119049998Y-65694998D03*
D39*
X116649998Y-67599998D03*
%TD*%
D37*
%TO.C,Q1*%
X125350000Y-65694998D03*
X125350000Y-66964998D03*
X125350000Y-68234998D03*
X125350000Y-69504998D03*
D38*
X131050000Y-69504998D03*
X131050000Y-68234998D03*
X131050000Y-66964998D03*
X131050000Y-65694998D03*
D39*
X128650000Y-67599998D03*
%TD*%
D37*
%TO.C,Q3*%
X125350000Y-59694998D03*
X125350000Y-60964998D03*
X125350000Y-62234998D03*
X125350000Y-63504998D03*
D38*
X131050000Y-63504998D03*
X131050000Y-62234998D03*
X131050000Y-60964998D03*
X131050000Y-59694998D03*
D39*
X128650000Y-61599998D03*
%TD*%
D37*
%TO.C,Q5*%
X125350000Y-53695000D03*
X125350000Y-54965000D03*
X125350000Y-56235000D03*
X125350000Y-57505000D03*
D38*
X131050000Y-57505000D03*
X131050000Y-56235000D03*
X131050000Y-54965000D03*
X131050000Y-53695000D03*
D39*
X128650000Y-55600000D03*
%TD*%
D36*
%TO.C,TP4*%
X122100000Y-60964998D03*
%TD*%
D37*
%TO.C,Q11*%
X113350000Y-53695000D03*
X113350000Y-54965000D03*
X113350000Y-56235000D03*
X113350000Y-57505000D03*
D38*
X119049998Y-57505000D03*
X119049998Y-56235000D03*
X119049998Y-54965000D03*
X119049998Y-53695000D03*
D39*
X116649998Y-55600000D03*
%TD*%
D36*
%TO.C,TP1*%
X132900000Y-50300000D03*
%TD*%
%TO.C,TP2*%
X111500000Y-49799998D03*
%TD*%
D16*
%TO.C,ST1*%
X131330000Y-45300000D03*
D15*
X133870000Y-45300000D03*
%TD*%
D20*
%TO.C,ST2*%
X133560000Y-72599998D03*
D19*
X131020000Y-72599998D03*
X128480000Y-72599998D03*
X125940000Y-72599998D03*
X123400000Y-72599998D03*
X120860000Y-72599998D03*
X118320000Y-72599998D03*
X115780000Y-72599998D03*
X113240000Y-72599998D03*
X110700000Y-72599998D03*
%TD*%
D24*
%TO.C,C5*%
X120600000Y-83124000D03*
X120600000Y-80076000D03*
%TD*%
D20*
%TO.C,ST2*%
X133560000Y-107599998D03*
D19*
X131020000Y-107599998D03*
X128480000Y-107599998D03*
X125940000Y-107599998D03*
X123400000Y-107599998D03*
X120860000Y-107599998D03*
X118320000Y-107599998D03*
X115780000Y-107599998D03*
X113240000Y-107599998D03*
X110700000Y-107599998D03*
%TD*%
D11*
%TO.C,R1*%
X113033416Y-84960072D03*
X114557416Y-84960072D03*
%TD*%
%TO.C,C16*%
X130557417Y-94660073D03*
X129033417Y-94660073D03*
%TD*%
D18*
%TO.C,R9*%
X110695415Y-100422071D03*
X110695415Y-98898071D03*
%TD*%
%TO.C,R2*%
X116695416Y-84722074D03*
X116695416Y-83198074D03*
%TD*%
%TO.C,C14*%
X131795416Y-101622073D03*
X131795416Y-100098073D03*
%TD*%
%TO.C,R3*%
X110200000Y-95798072D03*
X110200000Y-97322072D03*
%TD*%
D33*
%TO.C,IC2*%
X115445416Y-87110073D03*
X115445416Y-87610072D03*
X115445416Y-88110071D03*
X115445416Y-88610072D03*
X115445416Y-89110071D03*
X115445416Y-89610073D03*
X115445416Y-90110072D03*
X115445416Y-90610071D03*
D34*
X116045417Y-91210072D03*
X116545416Y-91210072D03*
X117045415Y-91210072D03*
X117545417Y-91210072D03*
X118045416Y-91210072D03*
X118545417Y-91210072D03*
X119045416Y-91210072D03*
X119545415Y-91210072D03*
D33*
X120145416Y-90610071D03*
X120145416Y-90110072D03*
X120145416Y-89610073D03*
X120145416Y-89110071D03*
X120145416Y-88610072D03*
X120145416Y-88110071D03*
X120145416Y-87610072D03*
X120145416Y-87110073D03*
D34*
X119545415Y-86510072D03*
X119045416Y-86510072D03*
X118545417Y-86510072D03*
X118045416Y-86510072D03*
X117545417Y-86510072D03*
X117045415Y-86510072D03*
X116545416Y-86510072D03*
X116045417Y-86510072D03*
D35*
X117795416Y-88860072D03*
%TD*%
D18*
%TO.C,R8*%
X114295415Y-95798072D03*
X114295415Y-97322072D03*
%TD*%
%TO.C,C3*%
X122695416Y-100622073D03*
X122695416Y-99098073D03*
%TD*%
D11*
%TO.C,C15*%
X133962000Y-97299998D03*
X132438000Y-97299998D03*
%TD*%
%TO.C,C10*%
X113433416Y-83160073D03*
X114957416Y-83160073D03*
%TD*%
D18*
%TO.C,R12*%
X116095417Y-100422071D03*
X116095417Y-98898071D03*
%TD*%
%TO.C,C8*%
X121695416Y-92722073D03*
X121695416Y-91198073D03*
%TD*%
%TO.C,C12*%
X124495415Y-100622073D03*
X124495415Y-99098073D03*
%TD*%
%TO.C,R7*%
X114295415Y-100422071D03*
X114295415Y-98898071D03*
%TD*%
D16*
%TO.C,ST1*%
X128785417Y-80300000D03*
D15*
X131325417Y-80300000D03*
X133865417Y-80300000D03*
%TD*%
D17*
%TO.C,C2*%
X131891174Y-83299998D03*
X128843174Y-83299998D03*
%TD*%
%TO.C,C1*%
X131676000Y-86199998D03*
X134724000Y-86199998D03*
%TD*%
D20*
%TO.C,ST3*%
X114395316Y-79804903D03*
D19*
X116935316Y-79804903D03*
%TD*%
D11*
%TO.C,C7*%
X112271416Y-86860073D03*
X113795416Y-86860073D03*
%TD*%
D18*
%TO.C,R6*%
X116095417Y-95798072D03*
X116095417Y-97322072D03*
%TD*%
%TO.C,R5*%
X117895416Y-100422071D03*
X117895416Y-98898071D03*
%TD*%
D28*
%TO.C,IC3*%
X126155415Y-97210073D03*
X126155415Y-97710072D03*
X126155415Y-98210074D03*
X126155415Y-98710073D03*
X126155415Y-99210074D03*
X126155415Y-99710073D03*
D29*
X126845416Y-100400074D03*
X127345415Y-100400074D03*
X127845416Y-100400074D03*
X128345415Y-100400074D03*
X128845417Y-100400074D03*
X129345416Y-100400074D03*
D30*
X130035417Y-99710073D03*
X130035417Y-99210074D03*
X130035417Y-98710073D03*
X130035417Y-98210074D03*
X130035417Y-97710072D03*
X130035417Y-97210073D03*
D31*
X129345416Y-96520072D03*
X128845417Y-96520072D03*
X128345415Y-96520072D03*
X127845416Y-96520072D03*
X127345415Y-96520072D03*
X126845416Y-96520072D03*
D32*
X128095416Y-98460073D03*
%TD*%
D11*
%TO.C,C9*%
X111033415Y-88960072D03*
X112557415Y-88960072D03*
%TD*%
D18*
%TO.C,R10*%
X112495416Y-95798072D03*
X112495416Y-97322072D03*
%TD*%
%TO.C,R13*%
X119695415Y-100422071D03*
X119695415Y-98898071D03*
%TD*%
%TO.C,R11*%
X112495416Y-100422071D03*
X112495416Y-98898071D03*
%TD*%
D14*
%TO.C,D1*%
X124799542Y-137582777D03*
X124799542Y-130216777D03*
%TD*%
D11*
%TO.C,R2*%
X128737542Y-120399777D03*
X130261542Y-120399777D03*
%TD*%
%TO.C,C12*%
X118961542Y-120799777D03*
X117437542Y-120799777D03*
%TD*%
D24*
%TO.C,C16*%
X126799544Y-143423779D03*
X126799544Y-140375779D03*
%TD*%
D15*
%TO.C,ST1*%
X133865544Y-115299779D03*
X131325544Y-115299779D03*
D16*
X128785544Y-115299779D03*
%TD*%
D19*
%TO.C,ST6*%
X120129544Y-114799777D03*
D20*
X122669544Y-114799777D03*
%TD*%
D18*
%TO.C,C8*%
X125699542Y-124761777D03*
X125699542Y-123237777D03*
%TD*%
D21*
%TO.C,Q2*%
X131199542Y-133149777D03*
D22*
X133104542Y-135549777D03*
X131834542Y-135549777D03*
X130564542Y-135549777D03*
X129294542Y-135549777D03*
D23*
X129294542Y-129849777D03*
X130564542Y-129849777D03*
X131834542Y-129849777D03*
X133104542Y-129849777D03*
%TD*%
D17*
%TO.C,C6*%
X129723542Y-127099777D03*
X126675542Y-127099777D03*
%TD*%
D27*
%TO.C,L1*%
X132099542Y-143149779D03*
X132099542Y-138049779D03*
%TD*%
D24*
%TO.C,C11*%
X113299542Y-140823779D03*
X113299542Y-137775779D03*
%TD*%
D11*
%TO.C,R4*%
X124237542Y-121599777D03*
X125761542Y-121599777D03*
%TD*%
D19*
%TO.C,ST4*%
X109999544Y-132339777D03*
X109999544Y-129799777D03*
D20*
X109999544Y-127259777D03*
%TD*%
D12*
%TO.C,IC1*%
X114299542Y-123449777D03*
D13*
X116599544Y-130099777D03*
D12*
X118899544Y-123449777D03*
%TD*%
D17*
%TO.C,C4*%
X131775542Y-127099777D03*
X134823542Y-127099777D03*
%TD*%
D18*
%TO.C,C7*%
X132499542Y-121261777D03*
X132499542Y-119737777D03*
%TD*%
%TO.C,R3*%
X123899544Y-123237777D03*
X123899544Y-124761777D03*
%TD*%
D17*
%TO.C,C14*%
X114575542Y-118599777D03*
X117623542Y-118599777D03*
%TD*%
D19*
%TO.C,ST2*%
X116935542Y-114804779D03*
D20*
X114395542Y-114804779D03*
%TD*%
D19*
%TO.C,ST7*%
X119470000Y-143600000D03*
D20*
X116930000Y-143600000D03*
%TD*%
D24*
%TO.C,C17*%
X124099544Y-143423779D03*
X124099544Y-140375779D03*
%TD*%
D25*
%TO.C,IC2*%
X130099542Y-123899780D03*
D26*
X132249542Y-122924780D03*
X132249542Y-123574779D03*
X132249542Y-124224780D03*
X132249542Y-124874779D03*
X127949542Y-124874779D03*
X127949542Y-124224780D03*
X127949542Y-123574779D03*
X127949542Y-122924780D03*
%TD*%
D11*
%TO.C,C13*%
X114337544Y-120799777D03*
X115861544Y-120799777D03*
%TD*%
D19*
%TO.C,ST3*%
X109999544Y-124479779D03*
X109999544Y-121939779D03*
D20*
X109999544Y-119399779D03*
%TD*%
D19*
%TO.C,ST5*%
X109999544Y-140239777D03*
X109999544Y-137699777D03*
D20*
X109999544Y-135159777D03*
%TD*%
D18*
%TO.C,C1*%
X134099542Y-121537777D03*
X134099542Y-123061777D03*
%TD*%
M02*
