M48
; DRILL file {KiCad 6.0.4-6f826c9f35~116~ubuntu20.04.1} date Fri 22 Apr 2022 05:04:24 PM CEST
; FORMAT={-:-/ absolute / metric / decimal}
; #@! TF.CreationDate,2022-04-22T17:04:24+02:00
; #@! TF.GenerationSoftware,Kicad,Pcbnew,6.0.4-6f826c9f35~116~ubuntu20.04.1
; #@! TF.FileFunction,NonPlated,1,2,NPTH
FMAT,2
METRIC
; #@! TA.AperFunction,NonPlated,NPTH,ComponentDrill
T1C0.500
; #@! TA.AperFunction,NonPlated,NPTH,ComponentDrill
T2C4.000
%
G90
G05
T1
X54.151Y-44.904
X54.151Y-147.304
X54.901Y-44.904
X54.901Y-147.304
X55.651Y-44.904
X55.651Y-147.304
X56.401Y-44.904
X56.401Y-147.304
X57.151Y-44.904
X57.151Y-147.304
X57.901Y-44.904
X57.901Y-147.304
X58.951Y-44.904
X58.951Y-147.304
X59.701Y-44.904
X59.701Y-147.304
X60.451Y-44.904
X60.451Y-147.304
X61.201Y-42.654
X61.201Y-43.404
X61.201Y-44.154
X61.201Y-45.504
X61.201Y-46.254
X61.201Y-47.004
X61.201Y-75.204
X61.201Y-75.954
X61.201Y-76.704
X61.201Y-78.604
X61.201Y-80.504
X61.201Y-81.254
X61.201Y-82.004
X61.201Y-110.204
X61.201Y-110.954
X61.201Y-111.704
X61.201Y-113.604
X61.201Y-115.504
X61.201Y-116.254
X61.201Y-117.004
X61.201Y-145.204
X61.201Y-145.954
X61.201Y-146.704
X61.201Y-148.054
X61.201Y-148.804
X61.201Y-149.554
X61.801Y-44.904
X61.801Y-77.304
X61.801Y-79.904
X61.801Y-112.304
X61.801Y-114.904
X61.801Y-147.304
X62.551Y-44.904
X62.551Y-77.304
X62.551Y-79.904
X62.551Y-112.304
X62.551Y-114.904
X62.551Y-147.304
X63.301Y-44.904
X63.301Y-77.304
X63.301Y-79.904
X63.301Y-112.304
X63.301Y-114.904
X63.301Y-147.304
X87.501Y-44.904
X87.501Y-77.304
X87.501Y-79.904
X87.501Y-112.304
X87.501Y-114.904
X87.501Y-147.304
X88.251Y-44.904
X88.251Y-77.304
X88.251Y-79.904
X88.251Y-112.304
X88.251Y-114.904
X88.251Y-147.304
X89.001Y-44.904
X89.001Y-77.304
X89.001Y-79.904
X89.001Y-112.304
X89.001Y-114.904
X89.001Y-147.304
X89.601Y-45.504
X89.601Y-46.254
X89.601Y-47.004
X89.601Y-75.204
X89.601Y-75.954
X89.601Y-76.704
X89.601Y-78.604
X89.601Y-80.504
X89.601Y-81.254
X89.601Y-82.004
X89.601Y-110.204
X89.601Y-110.954
X89.601Y-111.704
X89.601Y-113.604
X89.601Y-115.504
X89.601Y-116.254
X89.601Y-117.004
X89.601Y-145.204
X89.601Y-145.954
X89.601Y-146.704
X90.901Y-44.904
X90.901Y-147.304
X92.201Y-45.504
X92.201Y-46.254
X92.201Y-47.004
X92.201Y-75.204
X92.201Y-75.954
X92.201Y-76.704
X92.201Y-78.604
X92.201Y-80.504
X92.201Y-81.254
X92.201Y-82.004
X92.201Y-110.204
X92.201Y-110.954
X92.201Y-111.704
X92.201Y-113.604
X92.201Y-115.504
X92.201Y-116.254
X92.201Y-117.004
X92.201Y-145.204
X92.201Y-145.954
X92.201Y-146.704
X92.801Y-44.904
X92.801Y-77.304
X92.801Y-79.904
X92.801Y-112.304
X92.801Y-114.904
X92.801Y-147.304
X93.551Y-44.904
X93.551Y-77.304
X93.551Y-79.904
X93.551Y-112.304
X93.551Y-114.904
X93.551Y-147.304
X94.301Y-44.904
X94.301Y-77.304
X94.301Y-79.904
X94.301Y-112.304
X94.301Y-114.904
X94.301Y-147.304
X118.501Y-44.904
X118.501Y-77.304
X118.501Y-79.904
X118.501Y-112.304
X118.501Y-114.904
X118.501Y-147.304
X119.251Y-44.904
X119.251Y-77.304
X119.251Y-79.904
X119.251Y-112.304
X119.251Y-114.904
X119.251Y-147.304
X120.001Y-44.904
X120.001Y-77.304
X120.001Y-79.904
X120.001Y-112.304
X120.001Y-114.904
X120.001Y-147.304
X120.601Y-45.504
X120.601Y-46.254
X120.601Y-47.004
X120.601Y-75.204
X120.601Y-75.954
X120.601Y-76.704
X120.601Y-78.604
X120.601Y-80.504
X120.601Y-81.254
X120.601Y-82.004
X120.601Y-110.204
X120.601Y-110.954
X120.601Y-111.704
X120.601Y-113.604
X120.601Y-115.504
X120.601Y-116.254
X120.601Y-117.004
X120.601Y-145.204
X120.601Y-145.954
X120.601Y-146.704
X121.901Y-44.904
X121.901Y-147.304
X123.201Y-45.504
X123.201Y-46.254
X123.201Y-47.004
X123.201Y-75.204
X123.201Y-75.954
X123.201Y-76.704
X123.201Y-78.604
X123.201Y-80.504
X123.201Y-81.254
X123.201Y-82.004
X123.201Y-110.204
X123.201Y-110.954
X123.201Y-111.704
X123.201Y-113.604
X123.201Y-115.504
X123.201Y-116.254
X123.201Y-117.004
X123.201Y-145.204
X123.201Y-145.954
X123.201Y-146.704
X123.801Y-44.904
X123.801Y-77.304
X123.801Y-79.904
X123.801Y-112.304
X123.801Y-114.904
X123.801Y-147.304
X124.551Y-44.904
X124.551Y-77.304
X124.551Y-79.904
X124.551Y-112.304
X124.551Y-114.904
X124.551Y-147.304
X125.301Y-44.904
X125.301Y-77.304
X125.301Y-79.904
X125.301Y-112.304
X125.301Y-114.904
X125.301Y-147.304
X149.501Y-44.904
X149.501Y-77.304
X149.501Y-79.904
X149.501Y-112.304
X149.501Y-114.904
X149.501Y-147.304
X150.251Y-44.904
X150.251Y-77.304
X150.251Y-79.904
X150.251Y-112.304
X150.251Y-114.904
X150.251Y-147.304
X151.001Y-44.904
X151.001Y-77.304
X151.001Y-79.904
X151.001Y-112.304
X151.001Y-114.904
X151.001Y-147.304
X151.601Y-42.654
X151.601Y-43.404
X151.601Y-44.154
X151.601Y-45.504
X151.601Y-46.254
X151.601Y-47.004
X151.601Y-75.204
X151.601Y-75.954
X151.601Y-76.704
X151.601Y-78.604
X151.601Y-80.504
X151.601Y-81.254
X151.601Y-82.004
X151.601Y-110.204
X151.601Y-110.954
X151.601Y-111.704
X151.601Y-113.604
X151.601Y-115.504
X151.601Y-116.254
X151.601Y-117.004
X151.601Y-145.204
X151.601Y-145.954
X151.601Y-146.704
X151.601Y-148.054
X151.601Y-148.804
X151.601Y-149.554
X152.351Y-44.904
X152.351Y-147.304
X153.101Y-44.904
X153.101Y-147.304
X153.851Y-44.904
X153.851Y-147.304
X154.901Y-44.904
X154.901Y-147.304
X155.651Y-44.904
X155.651Y-147.304
X156.401Y-44.904
X156.401Y-147.304
X157.151Y-44.904
X157.151Y-147.304
X157.901Y-44.904
X157.901Y-147.304
X158.651Y-44.904
X158.651Y-147.304
T2
X63.401Y-37.104
X149.401Y-37.104
T0
M30
